<svg id="checkbox-arrow-blue" viewBox="0 0 18 15" fill="none" xmlns="http://www.w3.org/2000/svg">
<path d="M1.70944 6.25542C1.32021 5.86361 0.687049 5.86152 0.295235 6.25075C-0.0965782 6.63998 -0.0986719 7.27314 0.290559 7.66495L1.70944 6.25542ZM7 13L6.29056 13.7048L7.06487 14.4842L7.76822 13.6402L7 13ZM17.7682 1.64018C18.1218 1.21591 18.0645 0.585343 17.6402 0.231779C17.2159 -0.121785 16.5853 -0.0644614 16.2318 0.359816L17.7682 1.64018ZM0.290559 7.66495L6.29056 13.7048L7.70944 12.2952L1.70944 6.25542L0.290559 7.66495ZM7.76822 13.6402L17.7682 1.64018L16.2318 0.359816L6.23178 12.3598L7.76822 13.6402Z" fill="#3474D4"/>
</svg>
