<svg viewBox="0 0 341 196" fill="none" preserveAspectRatio="none" xmlns="http://www.w3.org/2000/svg">
<mask id="path-1-inside-1_232_2923" fill="white">
<path fill-rule="evenodd" clip-rule="evenodd" d="M157.32 0.224717C91.1965 1.22372 29.1237 25.6047 9.84393 66.759C-8.50641 105.929 -3.86115 151.135 46.6443 175.58C99.4238 201.125 200.387 203.012 255.35 179.495C317.913 152.725 351.27 114.694 338.185 62.6366C322.309 -0.524244 229.112 -0.859907 157.32 0.224717Z"/>
</mask>
<path fill-rule="evenodd" clip-rule="evenodd" d="M157.32 0.224717C91.1965 1.22372 29.1237 25.6047 9.84393 66.759C-8.50641 105.929 -3.86115 151.135 46.6443 175.58C99.4238 201.125 200.387 203.012 255.35 179.495C317.913 152.725 351.27 114.694 338.185 62.6366C322.309 -0.524244 229.112 -0.859907 157.32 0.224717Z" fill="white"/>
<path d="M157.32 0.224717L157.275 -2.77494L157.32 0.224717ZM9.84393 66.759L12.5606 68.0317L9.84393 66.759ZM46.6443 175.58L47.9513 172.88L46.6443 175.58ZM255.35 179.495L256.53 182.253L255.35 179.495ZM338.185 62.6366L335.275 63.3679L338.185 62.6366ZM157.366 3.22438C124.633 3.71891 92.9839 10.0033 67.2097 21.1858C41.3918 32.3871 21.7766 48.3594 12.5606 68.0317L7.12729 65.4863C17.1911 44.0043 38.2522 27.2089 64.8216 15.6815C91.4347 4.1351 123.884 -2.27047 157.275 -2.77494L157.366 3.22438ZM12.5606 68.0317C3.59869 87.1616 0.370636 107.518 5.32016 125.912C10.2444 144.212 23.3706 160.983 47.9513 172.88L45.3373 178.28C19.4125 165.733 4.96344 147.678 -0.473755 127.471C-5.88565 107.359 -2.26117 85.5267 7.12729 65.4863L12.5606 68.0317ZM47.9513 172.88C73.8008 185.391 111.755 192.215 150.235 192.936C188.709 193.657 227.222 188.266 254.17 176.736L256.53 182.253C228.515 194.24 189.065 199.665 150.122 198.935C111.185 198.206 72.2674 191.315 45.3373 178.28L47.9513 172.88ZM254.17 176.736C285.215 163.453 308.657 147.516 322.735 128.749C336.714 110.115 341.598 88.5233 335.275 63.3679L341.094 61.9053C347.856 88.8075 342.605 112.261 327.535 132.349C312.566 152.303 288.048 168.767 256.53 182.253L254.17 176.736ZM335.275 63.3679C327.754 33.4454 301.924 18.0181 268.052 10.2629C234.204 2.51351 193.32 2.68117 157.366 3.22438L157.275 -2.77494C193.112 -3.31636 234.722 -3.52318 269.391 4.41428C304.034 12.346 332.74 28.667 341.094 61.9053L335.275 63.3679Z" fill="#F99501" mask="url(#path-1-inside-1_232_2923)"/>
</svg>
