<svg viewBox="0 0 1429 841" fill="none" xmlns="http://www.w3.org/2000/svg">
<path fill-rule="evenodd" clip-rule="evenodd" d="M765.866 0.964221C1023.57 5.25075 1265.49 109.865 1340.63 286.451C1412.15 454.523 1394.05 648.494 1197.21 753.382C991.51 862.992 598.019 871.086 383.81 770.178C139.978 655.317 9.9757 492.132 60.9715 268.762C122.844 -2.24943 486.069 -3.6897 765.866 0.964221Z" fill="#3474D4"/>
<path d="M769.576 7.93785L769.599 6.43802L769.576 7.93785ZM1385.86 285.617L1384.51 286.254L1385.86 285.617ZM1232.08 739.778L1231.43 738.428L1232.08 739.778ZM359.923 756.115L359.333 757.494L359.923 756.115ZM13.764 268.412L15.2186 268.778L13.764 268.412ZM769.553 9.43768C907.551 11.5199 1041.28 37.9703 1150.53 85.3085C1259.8 132.656 1344.43 200.828 1384.51 286.254L1387.22 284.98C1346.72 198.649 1261.37 130.066 1151.72 82.5558C1042.05 35.036 907.925 8.52515 769.599 6.43802L769.553 9.43768ZM1384.51 286.254C1422.74 367.764 1436.96 455.43 1415.43 535.354C1393.9 615.23 1336.62 687.58 1231.43 738.428L1232.73 741.129C1338.6 689.957 1396.54 616.965 1418.32 536.134C1440.09 455.35 1425.67 366.945 1387.22 284.98L1384.51 286.254ZM1231.43 738.428C1121.42 791.604 961.038 820.208 799.394 823.232C637.752 826.256 475.086 803.696 360.512 754.736L359.333 757.494C474.441 806.682 637.574 829.26 799.45 826.232C961.323 823.203 1122.18 794.566 1232.73 741.129L1231.43 738.428ZM360.512 754.736C229.908 698.926 129.967 631.447 69.4961 550.94C9.07529 470.501 -12.011 376.971 15.2186 268.778L12.3094 268.046C-15.1404 377.114 6.13029 471.575 67.0974 552.742C128.014 633.842 228.493 701.584 359.333 757.494L360.512 754.736ZM15.2186 268.778C48.1809 137.808 161.412 71.7802 304.38 39.0897C447.334 6.40224 619.52 7.17391 769.553 9.43768L769.599 6.43802C619.624 4.17514 447.075 3.38393 303.711 36.1652C160.36 68.9435 45.6891 135.417 12.3094 268.046L15.2186 268.778Z" fill="#F99501"/>
</svg>
