<svg viewBox="0 0 1337 856" fill="none" xmlns="http://www.w3.org/2000/svg">
<g filter="url(#filter0_d_13_2)">
<path fill-rule="evenodd" clip-rule="evenodd" d="M719.866 0.964221C977.574 5.25075 1219.49 109.865 1294.63 286.451C1366.15 454.523 1348.05 648.494 1151.21 753.382C945.509 862.992 552.019 871.086 337.81 770.178C93.9784 655.317 -36.0243 492.132 14.9715 268.762C76.8441 -2.24942 440.069 -3.6897 719.866 0.964221Z" fill="#3474D4"/>
<path d="M1137.5 727L1138.21 728.32L1137.5 727ZM319 794.5L318.354 795.854L318.354 795.854L319 794.5ZM108.053 310.91L109.516 311.24L108.053 310.91ZM690.5 5.5C768.955 5.5 884.217 10.4986 989.575 31.9698C1042.26 42.7055 1092.4 57.5485 1134.22 77.9111C1176.04 98.2791 1209.41 124.112 1228.71 156.763L1231.29 155.237C1211.59 121.888 1177.64 95.7209 1135.53 75.2139C1093.41 54.7015 1042.99 39.7945 990.175 29.0302C884.533 7.50142 769.045 2.5 690.5 2.5L690.5 5.5ZM1228.71 156.763C1267.52 222.436 1292.42 338.95 1283.6 452.018C1274.77 565.1 1232.25 674.215 1136.79 725.68L1138.21 728.32C1234.99 676.145 1277.73 565.759 1286.59 452.251C1295.45 338.73 1270.48 221.564 1231.29 155.237L1228.71 156.763ZM1136.79 725.68C1036.56 779.713 884.442 821.477 731.212 837.263C577.949 853.053 423.881 842.823 319.645 793.146L318.354 795.854C423.331 845.884 578.061 856.058 731.519 840.248C885.009 824.434 1037.54 782.594 1138.21 728.32L1136.79 725.68ZM319.645 793.146C200.786 736.5 135.966 671.023 106.952 592.392C77.9131 513.692 84.6284 421.526 109.516 311.24L106.589 310.579C81.6703 421.006 74.7873 513.887 104.138 593.431C133.513 673.042 199.069 739.004 318.354 795.854L319.645 793.146ZM109.516 311.24C139.569 178.059 245.368 101.615 363.577 58.4428C481.779 15.2733 612.088 5.5 690.5 5.5L690.5 2.5C611.912 2.5 481.212 12.2869 362.548 55.6249C243.89 98.9605 136.965 175.971 106.589 310.579L109.516 311.24Z" fill="#F99501"/>
</g>
<defs>
<filter id="filter0_d_13_2" x="-1.50758e-06" y="0" width="1337" height="855.113" filterUnits="userSpaceOnUse" color-interpolation-filters="sRGB">
<feFlood flood-opacity="0" result="BackgroundImageFix"/>
<feColorMatrix in="SourceAlpha" type="matrix" values="0 0 0 0 0 0 0 0 0 0 0 0 0 0 0 0 0 0 127 0" result="hardAlpha"/>
<feOffset dy="4"/>
<feGaussianBlur stdDeviation="2"/>
<feComposite in2="hardAlpha" operator="out"/>
<feColorMatrix type="matrix" values="0 0 0 0 0 0 0 0 0 0 0 0 0 0 0 0 0 0 0.25 0"/>
<feBlend mode="normal" in2="BackgroundImageFix" result="effect1_dropShadow_13_2"/>
<feBlend mode="normal" in="SourceGraphic" in2="effect1_dropShadow_13_2" result="shape"/>
</filter>
</defs>
</svg>
