<svg width="146" height="48" viewBox="0 0 146 48" fill="none" xmlns="http://www.w3.org/2000/svg">
<path d="M9.63068 29H1.89631V7.18182H9.6946C11.8892 7.18182 13.7784 7.61861 15.3622 8.49219C16.946 9.35866 18.1641 10.6051 19.0163 12.2315C19.8757 13.858 20.3054 15.804 20.3054 18.0696C20.3054 20.3423 19.8757 22.2955 19.0163 23.929C18.1641 25.5625 16.9389 26.8161 15.3409 27.6896C13.75 28.5632 11.8466 29 9.63068 29ZM6.50923 25.0476H9.43892C10.8026 25.0476 11.9496 24.8061 12.88 24.3232C13.8175 23.8331 14.5206 23.0767 14.9893 22.054C15.4652 21.0241 15.7031 19.696 15.7031 18.0696C15.7031 16.4574 15.4652 15.1399 14.9893 14.1172C14.5206 13.0945 13.821 12.3416 12.8906 11.8587C11.9602 11.3757 10.8132 11.1342 9.44957 11.1342H6.50923V25.0476ZM31.0946 29.3196C29.4114 29.3196 27.9625 28.9787 26.748 28.2969C25.5407 27.608 24.6103 26.6349 23.9569 25.3778C23.3034 24.1136 22.9767 22.6186 22.9767 20.8928C22.9767 19.2095 23.3034 17.7322 23.9569 16.4609C24.6103 15.1896 25.53 14.1989 26.7161 13.4886C27.9093 12.7784 29.3084 12.4233 30.9135 12.4233C31.9931 12.4233 32.998 12.5973 33.9284 12.9453C34.8659 13.2862 35.6827 13.8011 36.3787 14.4901C37.0819 15.179 37.6287 16.0455 38.0194 17.0895C38.41 18.1264 38.6053 19.3409 38.6053 20.733V21.9794H24.7878V19.1669H34.3333C34.3333 18.5135 34.1912 17.9347 33.9071 17.4304C33.623 16.9261 33.2289 16.532 32.7246 16.2479C32.2275 15.9567 31.6486 15.8111 30.9881 15.8111C30.2992 15.8111 29.6884 15.9709 29.1557 16.2905C28.6301 16.603 28.2182 17.0256 27.9199 17.5582C27.6216 18.0838 27.4689 18.6697 27.4618 19.3161V21.9901C27.4618 22.7997 27.611 23.4993 27.9093 24.0888C28.2147 24.6783 28.6444 25.1328 29.1983 25.4524C29.7523 25.772 30.4093 25.9318 31.1692 25.9318C31.6735 25.9318 32.1351 25.8608 32.5542 25.7188C32.9732 25.5767 33.3319 25.3636 33.6301 25.0795C33.9284 24.7955 34.1557 24.4474 34.312 24.0355L38.5094 24.3125C38.2963 25.321 37.8596 26.2017 37.199 26.9545C36.5456 27.7003 35.7005 28.2827 34.6635 28.7017C33.6337 29.1136 32.4441 29.3196 31.0946 29.3196ZM56.3832 12.6364L50.6623 29H45.5487L39.8278 12.6364H44.6218L48.0202 24.3445H48.1907L51.5785 12.6364H56.3832ZM62.8178 24.2912L62.8285 18.8473H63.489L68.7305 12.6364H73.94L66.8981 20.8608H65.8221L62.8178 24.2912ZM58.7056 29V7.18182H63.244V29H58.7056ZM68.9329 29L64.1175 21.8729L67.1431 18.6662L74.2489 29H68.9329ZM80.8327 29.3089C79.7887 29.3089 78.8583 29.1278 78.0415 28.7656C77.2248 28.3963 76.5785 27.853 76.1026 27.1357C75.6339 26.4112 75.3995 25.5092 75.3995 24.4297C75.3995 23.5206 75.5664 22.7571 75.9002 22.1392C76.234 21.5213 76.6886 21.0241 77.2638 20.6477C77.8391 20.2713 78.4925 19.9872 79.2241 19.7955C79.9627 19.6037 80.7369 19.4688 81.5465 19.3906C82.4982 19.2912 83.2653 19.1989 83.8477 19.1136C84.43 19.0213 84.8526 18.8864 85.1154 18.7088C85.3782 18.5312 85.5096 18.2685 85.5096 17.9205V17.8565C85.5096 17.1818 85.2965 16.6598 84.8704 16.2905C84.4513 15.9212 83.8548 15.7365 83.0806 15.7365C82.2638 15.7365 81.614 15.9176 81.131 16.2798C80.6481 16.6349 80.3285 17.0824 80.1722 17.6222L75.9748 17.2812C76.1879 16.2869 76.6069 15.4276 77.2319 14.7031C77.8569 13.9716 78.663 13.4105 79.6502 13.0199C80.6445 12.6222 81.7951 12.4233 83.1019 12.4233C84.011 12.4233 84.881 12.5298 85.712 12.7429C86.5501 12.956 87.2923 13.2862 87.9386 13.7337C88.592 14.1811 89.1069 14.7564 89.4833 15.4595C89.8597 16.1555 90.0479 16.9901 90.0479 17.9631V29H85.744V26.7308H85.6161C85.3533 27.2422 85.0018 27.6932 84.5614 28.0838C84.1211 28.4673 83.592 28.7692 82.9741 28.9893C82.3562 29.2024 81.6424 29.3089 80.8327 29.3089ZM82.1325 26.1768C82.8001 26.1768 83.3896 26.0455 83.9009 25.7827C84.4123 25.5128 84.8136 25.1506 85.1048 24.696C85.396 24.2415 85.5415 23.7266 85.5415 23.1513V21.4148C85.3995 21.5071 85.2042 21.5923 84.9556 21.6705C84.7141 21.7415 84.4407 21.8089 84.1353 21.8729C83.8299 21.9297 83.5245 21.983 83.2191 22.0327C82.9137 22.0753 82.6367 22.1143 82.3881 22.1499C81.8555 22.228 81.3903 22.3523 80.9925 22.5227C80.5948 22.6932 80.2859 22.924 80.0657 23.2152C79.8455 23.4993 79.7354 23.8544 79.7354 24.2805C79.7354 24.8984 79.9592 25.3707 80.4066 25.6974C80.8612 26.017 81.4364 26.1768 82.1325 26.1768ZM98.1072 7.18182V29H93.5689V7.18182H98.1072ZM101.743 29V12.6364H106.281V29H101.743ZM104.023 10.527C103.348 10.527 102.769 10.3033 102.286 9.85582C101.81 9.40128 101.572 8.85795 101.572 8.22585C101.572 7.60085 101.81 7.06463 102.286 6.61719C102.769 6.16264 103.348 5.93537 104.023 5.93537C104.697 5.93537 105.273 6.16264 105.748 6.61719C106.231 7.06463 106.473 7.60085 106.473 8.22585C106.473 8.85795 106.231 9.40128 105.748 9.85582C105.273 10.3033 104.697 10.527 104.023 10.527ZM117.31 29.3196C115.655 29.3196 114.224 28.968 113.017 28.2649C111.816 27.5547 110.89 26.5675 110.236 25.3033C109.583 24.032 109.256 22.5582 109.256 20.8821C109.256 19.1918 109.583 17.7145 110.236 16.4503C110.89 15.179 111.816 14.1918 113.017 13.4886C114.224 12.7784 115.655 12.4233 117.31 12.4233C118.965 12.4233 120.392 12.7784 121.593 13.4886C122.8 14.1918 123.73 15.179 124.384 16.4503C125.037 17.7145 125.364 19.1918 125.364 20.8821C125.364 22.5582 125.037 24.032 124.384 25.3033C123.73 26.5675 122.8 27.5547 121.593 28.2649C120.392 28.968 118.965 29.3196 117.31 29.3196ZM117.331 25.804C118.084 25.804 118.713 25.5909 119.217 25.1648C119.721 24.7315 120.101 24.142 120.357 23.3963C120.62 22.6506 120.751 21.8018 120.751 20.8501C120.751 19.8984 120.62 19.0497 120.357 18.304C120.101 17.5582 119.721 16.9687 119.217 16.5355C118.713 16.1023 118.084 15.8857 117.331 15.8857C116.571 15.8857 115.932 16.1023 115.414 16.5355C114.902 16.9687 114.515 17.5582 114.252 18.304C113.997 19.0497 113.869 19.8984 113.869 20.8501C113.869 21.8018 113.997 22.6506 114.252 23.3963C114.515 24.142 114.902 24.7315 115.414 25.1648C115.932 25.5909 116.571 25.804 117.331 25.804ZM132.853 19.5398V29H128.315V12.6364H132.64V15.5234H132.832C133.194 14.5717 133.801 13.8189 134.654 13.2649C135.506 12.7038 136.539 12.4233 137.754 12.4233C138.89 12.4233 139.881 12.6719 140.726 13.169C141.571 13.6662 142.228 14.3764 142.697 15.2997C143.166 16.2159 143.4 17.3097 143.4 18.581V29H138.862V19.3906C138.869 18.3892 138.613 17.608 138.095 17.0469C137.576 16.4787 136.863 16.1946 135.953 16.1946C135.343 16.1946 134.803 16.326 134.334 16.5888C133.873 16.8516 133.51 17.2351 133.248 17.7393C132.992 18.2365 132.86 18.8366 132.853 19.5398Z" fill="#061327"/>
<path fill-rule="evenodd" clip-rule="evenodd" d="M145.943 39.8165C145.347 38.4019 140.228 37.8062 124.844 37.3098C110.489 36.8383 93.7776 35.4733 64.5802 36.2178C42.2623 36.7887 14.4733 39.072 14.4733 40.3377C14.4733 41.256 15.5568 41.2808 25.9032 40.4618C35.4641 39.7173 40.3664 39.5435 46.3522 39.345C22.3551 41.2808 17.236 42.5465 4.45196 43.7626C-3.56513 44.532 1.12053 46.7409 4.04569 46.5175C4.07277 46.5175 41.3685 43.7378 44.8895 43.8867C45.2146 43.9115 41.6665 44.3583 36.9808 44.8795C23.8989 46.3686 26.4177 48.8504 36.2224 47.7087C69.2117 43.8619 100.251 42.6706 124.167 44.3334C131.723 44.8546 132.563 44.8546 132.563 44.2093C132.563 43.0677 130.505 42.1991 127.281 42.0253C122.244 41.7275 102.851 40.8837 94.0755 40.6355C93.3984 40.6107 93.7234 40.1392 94.3193 40.0895C97.8945 39.7669 126.279 40.015 137.438 40.3624C145.645 40.6106 146.241 40.5859 145.943 39.8165Z" fill="#F99501"/>
</svg>
