<svg viewBox="0 0 284 293" fill="none" xmlns="http://www.w3.org/2000/svg">
<path fill-rule="evenodd" clip-rule="evenodd" d="M107.576 289.329C172.328 298.72 272.324 269.138 280.246 185.087C288.168 101.036 270.938 28.8217 193.854 9.56982C116.77 -9.68205 76.0546 10.9785 47.9091 35.8651C19.7636 60.7518 -2.39365 112.607 2.74414 185.087C5.95139 230.332 42.824 279.938 107.576 289.329Z" fill="white"/>
<path d="M2.74414 185.087L4.24039 184.981L2.74414 185.087ZM107.791 287.844C139.886 292.499 180.766 287.489 214.561 270.902C248.325 254.331 274.854 226.307 278.752 184.946L281.739 185.228C277.715 227.918 250.286 256.71 215.883 273.595C181.513 290.464 140.018 295.55 107.361 290.813L107.791 287.844ZM278.752 184.946C282.704 143.025 280.359 104.245 267.544 73.6075C254.766 43.0588 231.554 20.5314 193.491 11.0251L194.218 8.11453C233.239 17.8601 257.184 41.0657 270.311 72.4499C283.401 103.745 285.71 143.097 281.739 185.228L278.752 184.946ZM193.491 11.0251C155.133 1.44527 125.94 1.8234 102.896 7.62022C79.8595 13.4152 62.8523 24.6544 48.9027 36.9889L46.9155 34.7414C61.1114 22.1892 78.5349 10.6549 102.164 4.71086C125.785 -1.23129 155.491 -1.5575 194.218 8.11453L193.491 11.0251ZM48.9027 36.9889C21.2083 61.4766 -0.875287 112.813 4.24039 184.981L1.2479 185.193C-3.91201 112.401 18.3188 60.027 46.9155 34.7414L48.9027 36.9889ZM4.24039 184.981C7.39857 229.534 43.7484 278.556 107.791 287.844L107.361 290.813C41.8995 281.319 4.5042 231.13 1.2479 185.193L4.24039 184.981Z" fill="#3474D4"/>
</svg>
