<svg viewBox="0 0 298 270" fill="none" xmlns="http://www.w3.org/2000/svg">
<path fill-rule="evenodd" clip-rule="evenodd" d="M86.4984 264.5C151.251 273.112 286.576 270.071 294.498 193C302.421 115.929 278.937 26.5945 201.853 8.94141C124.769 -8.7117 84.053 10.2331 55.9075 33.053C27.762 55.8729 -2.1394 104.04 2.99839 170.5C6.20564 211.988 21.7462 255.889 86.4984 264.5Z" fill="white"/>
<path d="M2.99839 170.5L4.49393 170.385L2.99839 170.5ZM86.6961 263.013C118.961 267.304 168.796 268.685 211.491 259.415C254.328 250.115 289.155 230.311 293.006 192.847L295.991 193.154C291.919 232.76 255.123 253.012 212.128 262.347C168.991 271.712 118.788 270.308 86.3007 265.987L86.6961 263.013ZM293.006 192.847C296.949 154.492 293.065 113.159 278.672 79.2755C264.294 45.4265 239.479 19.0971 201.518 10.4036L202.188 7.47925C241.31 16.4388 266.779 43.6033 281.433 78.1026C296.073 112.568 299.97 154.437 295.991 193.154L293.006 192.847ZM201.518 10.4036C163.147 1.61612 133.932 1.96085 110.865 7.28143C87.8096 12.5996 70.7968 22.9121 56.8522 34.2181L54.9628 31.8878C69.1637 20.374 86.5816 9.80411 110.191 4.35818C133.79 -1.08533 163.475 -1.38638 202.188 7.47925L201.518 10.4036ZM56.8522 34.2181C29.0656 56.747 -0.603549 104.446 4.49393 170.385L1.50285 170.616C-3.67524 103.634 26.4583 54.9988 54.9628 31.8878L56.8522 34.2181ZM4.49393 170.385C6.08862 191.013 10.7399 212.04 22.8874 228.954C34.9925 245.809 54.6692 258.754 86.6961 263.013L86.3007 265.987C53.5754 261.635 33.1057 248.324 20.4507 230.704C7.83799 213.142 3.1154 191.475 1.50285 170.616L4.49393 170.385Z" fill="#3474D4"/>
</svg>
