<svg id="reasons-bubble-1h" viewBox="0 0 394 364" fill="none" xmlns="http://www.w3.org/2000/svg">
<path d="M212.073 361.587L212.037 360.088L212.073 361.587ZM380.742 239.381L379.302 238.961L380.742 239.381ZM338.653 39.506L339.574 38.3216L338.653 39.506ZM99.9578 32.3161L99.1083 31.0798L99.9578 32.3161ZM5.21962 246.953L3.73767 247.185L5.21962 246.953ZM212.037 360.088C287.13 358.266 357.466 313.816 379.302 238.961L382.182 239.801C359.917 316.126 288.268 361.239 212.11 363.087L212.037 360.088ZM379.302 238.961C400.226 167.229 394.76 85.0171 337.733 40.6902L339.574 38.3216C398.072 83.7916 403.231 167.643 382.182 239.801L379.302 238.961ZM337.733 40.6902C307.874 17.4814 264.255 4.94272 220.197 3.61734C176.138 2.29196 131.899 12.1878 100.807 33.5524L99.1083 31.0798C130.877 9.24985 175.804 -0.719452 220.287 0.618683C264.77 1.95685 309.069 14.6104 339.574 38.3216L337.733 40.6902ZM100.807 33.5524C65.201 58.0192 37.978 87.5821 21.5034 122.851C5.03311 158.112 -0.740311 199.172 6.70158 246.721L3.73767 247.185C-3.78534 199.118 2.03368 157.444 18.7853 121.582C35.5327 85.7285 63.1612 55.7809 99.1083 31.0798L100.807 33.5524ZM6.70158 246.721C11.2049 275.495 21.174 297.018 34.7991 313.117C48.4267 329.22 65.7819 339.98 85.1827 347.113C124.053 361.406 170.942 361.085 212.037 360.088L212.11 363.087C171.097 364.082 123.638 364.449 84.1474 349.929C64.3677 342.656 46.5394 331.634 32.5091 315.055C18.4761 298.474 8.31269 276.417 3.73767 247.185L6.70158 246.721Z" fill="#F99501"/>
</svg>
