<svg viewBox="0 0 300 282" fill="none" xmlns="http://www.w3.org/2000/svg">
<path fill-rule="evenodd" clip-rule="evenodd" d="M71.0435 263.882C129.972 289.543 255.523 290.21 285.427 223.707C315.331 157.204 292.832 42.228 207.811 13.0508C122.79 -16.1264 74.0205 19.556 49.9347 38.7117C25.8489 57.8675 1.99929 91.9584 2 147.864C2.00044 182.199 12.1147 238.221 71.0435 263.882Z" fill="white"/>
<path d="M2 147.864L0.5 147.864L2 147.864ZM71.6424 262.507C100.828 275.216 146.675 281.779 188.946 276.866C231.294 271.944 269.444 255.593 284.059 223.092L286.795 224.322C271.506 258.323 231.929 274.891 189.293 279.846C146.581 284.81 100.188 278.21 70.4447 265.257L71.6424 262.507ZM284.059 223.092C298.841 190.219 300.706 145.231 288.282 104.822C275.865 64.4352 249.256 28.8598 207.324 14.4696L208.298 11.632C251.386 26.419 278.538 62.9201 291.15 103.941C303.755 144.941 301.918 190.691 286.795 224.322L284.059 223.092ZM207.324 14.4696C165.096 -0.0219347 131.968 1.6189 106.449 9.1944C80.9028 16.7778 62.8733 30.338 50.8684 39.8857L49.001 37.5378C61.0818 27.9297 79.4797 14.0709 105.595 6.31844C131.737 -1.44191 165.504 -3.05368 208.298 11.632L207.324 14.4696ZM50.8684 39.8857C27.1138 58.7781 3.49929 92.4486 3.5 147.864L0.5 147.864C0.499281 91.4683 24.5841 56.9569 49.001 37.5378L50.8684 39.8857ZM3.5 147.864C3.50044 181.997 13.5488 237.209 71.6424 262.507L70.4447 265.257C10.6805 239.232 0.50044 182.402 0.5 147.864L3.5 147.864Z" fill="#3474D4"/>
</svg>
