<svg viewBox="0 0 294 306" fill="none" xmlns="http://www.w3.org/2000/svg">
<path fill-rule="evenodd" clip-rule="evenodd" d="M148.985 2C96.9828 1.99999 46.5834 42.9551 20.5001 89C8.94427 109.4 -15.8895 189.846 23.8509 247.644C63.5912 305.442 181.796 328.305 243.5 271.5C305.204 214.695 298.011 157.5 275.501 100.5C252.99 43.5 200.987 2.00001 148.985 2Z" fill="white"/>
<path d="M20.5001 89L21.8052 89.7393L20.5001 89ZM148.985 3.5C97.7214 3.49999 47.7369 43.9621 21.8052 89.7393L19.1949 88.2607C45.4298 41.9482 96.2443 0.499993 148.985 0.5V3.5ZM21.8052 89.7393C16.1483 99.7256 7.10269 124.724 4.43341 154.432C1.76559 184.122 5.48697 218.288 25.0869 246.794L22.6148 248.494C2.47446 219.202 -1.25748 184.245 1.44543 154.163C4.14688 124.098 13.2961 98.6739 19.1949 88.2607L21.8052 89.7393ZM25.0869 246.794C44.6448 275.239 83.6821 295.26 125.645 301.062C167.586 306.862 212.061 298.404 242.484 270.396L244.516 272.604C213.236 301.401 167.756 309.914 125.234 304.034C82.7326 298.157 42.7972 277.847 22.6148 248.494L25.0869 246.794ZM242.484 270.396C273.111 242.202 286.534 214.022 289.59 185.911C292.652 157.744 285.327 129.465 274.106 101.051L276.896 99.949C288.185 128.535 295.712 157.353 292.572 186.235C289.426 215.173 275.594 243.993 244.516 272.604L242.484 270.396ZM274.106 101.051C251.758 44.4639 200.215 3.50001 148.985 3.5V0.5C201.758 0.500007 254.223 42.5361 276.896 99.949L274.106 101.051Z" fill="#3474D4"/>
</svg>
