<svg id="reasons-bubbles" viewBox="0 0 97 87" fill="none" xmlns="http://www.w3.org/2000/svg">
<path d="M83.9276 63.0252L83.8915 64.5248L83.9276 63.0252ZM94.3072 70.4934L92.868 70.9161L94.3072 70.4934ZM91.7171 82.708L92.6337 83.8954L91.7171 82.708ZM77.0282 83.1473L76.1827 84.3864L77.0282 83.1473ZM71.1981 70.0306L69.7164 69.7971L71.1981 70.0306ZM83.8915 64.5248C88.0194 64.6242 91.7281 67.0357 92.868 70.9161L95.7464 70.0706C94.1724 64.7123 89.1436 61.6505 83.9637 61.5257L83.8915 64.5248ZM92.868 70.9161C94.0958 75.096 93.6156 79.3476 90.8006 81.5206L92.6337 83.8954C96.9279 80.5807 97.1016 74.6841 95.7464 70.0706L92.868 70.9161ZM90.8006 81.5206C89.2661 82.705 86.8994 83.4184 84.3855 83.4935C81.8713 83.5686 79.4699 82.9976 77.8736 81.9083L76.1827 84.3864C78.4548 85.9368 81.5405 86.5798 84.4751 86.4921C87.4099 86.4044 90.4535 85.5783 92.6337 83.8954L90.8006 81.5206ZM77.8736 81.9083C75.8421 80.522 74.3584 78.8954 73.4739 77.015C72.594 75.1442 72.2605 72.9247 72.6798 70.2642L69.7164 69.7971C69.2148 72.9798 69.5948 75.8163 70.7592 78.2919C71.9191 80.7578 73.811 82.768 76.1827 84.3864L77.8736 81.9083ZM72.6798 70.2642C72.9228 68.7226 73.4438 67.6588 74.0896 66.901C74.7384 66.1396 75.5843 65.6042 76.6016 65.2327C78.7047 64.4648 81.324 64.4629 83.8915 64.5248L83.9637 61.5257C81.4784 61.4658 78.2917 61.4219 75.5726 62.4147C74.1788 62.9236 72.8595 63.7193 71.8063 64.9551C70.7501 66.1945 70.0321 67.7939 69.7164 69.7971L72.6798 70.2642Z" fill="#3474D4"/>
<path d="M15.3177 15.9145L16.4403 16.9094L15.3177 15.9145ZM38.2258 10.3433L37.615 11.7133L38.2258 10.3433ZM52.5637 28.6505L54.0628 28.7037L52.5637 28.6505ZM35.8257 49.7626L36.2165 51.2108L35.8257 49.7626ZM10.2493 42.1707L9.11788 43.1556L10.2493 42.1707ZM16.4403 16.9094C21.7418 10.9282 30.1251 8.37358 37.615 11.7133L38.8367 8.97334C29.958 5.01438 20.2159 8.12693 14.1952 14.9195L16.4403 16.9094ZM37.615 11.7133C45.2058 15.098 51.3253 21.2459 51.0647 28.5974L54.0628 28.7037C54.3891 19.4986 46.8253 12.5354 38.8367 8.97334L37.615 11.7133ZM51.0647 28.5974C50.9259 32.512 49 36.9286 46.0292 40.6755C43.0581 44.4226 39.2024 47.2977 35.4348 48.3144L36.2165 51.2108C40.7819 49.9787 45.1419 46.6232 48.3799 42.5393C51.6182 38.4551 53.8949 33.4401 54.0628 28.7037L51.0647 28.5974ZM35.4348 48.3144C30.8929 49.5402 26.5848 49.6912 22.5899 48.5969C18.604 47.5051 14.8278 45.1461 11.3807 41.1859L9.11788 43.1556C12.9058 47.5074 17.1751 50.2242 21.7973 51.4903C26.4106 52.754 31.2731 52.5449 36.2165 51.2108L35.4348 48.3144ZM11.3807 41.1859C9.33675 38.8377 8.31394 36.6139 7.95143 34.5315C7.58838 32.446 7.86923 30.3955 8.59831 28.3689C10.0817 24.2454 13.3396 20.4076 16.4403 16.9094L14.1952 14.9195C11.1496 18.3556 7.48418 22.6035 5.77542 27.3534C4.90841 29.7634 4.52596 32.3466 4.99589 35.046C5.46636 37.7487 6.7728 40.4614 9.11788 43.1556L11.3807 41.1859Z" fill="#3474D4"/>
</svg>
