<svg id="reasons-buuble-2" viewBox="0 0 394 364" fill="none" xmlns="http://www.w3.org/2000/svg">
<path d="M189.279 2.05234L189.244 0.552757L189.279 2.05234ZM13.7185 125.652L15.1552 126.083L13.7185 125.652ZM57.5268 327.807L56.6227 329.004L57.5268 327.807ZM332.818 327.807L331.985 326.56L332.818 327.807ZM189.314 3.55192C111.103 5.39585 37.8814 50.3813 15.1552 126.083L12.2818 125.221C35.4582 48.0194 110.023 2.42049 189.244 0.552757L189.314 3.55192ZM15.1552 126.083C-6.62143 198.622 -0.939728 281.768 58.4308 326.61L56.6227 329.004C-4.25314 283.025 -9.63123 198.214 12.2818 125.221L15.1552 126.083ZM58.4308 326.61C89.4569 350.044 141.523 360.955 194.184 360.485C246.828 360.016 299.611 348.176 331.985 326.56L333.651 329.054C300.596 351.126 247.148 363.013 194.211 363.485C141.291 363.957 88.427 353.025 56.6227 329.004L58.4308 326.61ZM331.985 326.56C368.777 301.993 385.268 265.787 389.415 227.896C393.566 189.967 385.334 150.412 372.718 119.413L375.497 118.282C388.254 149.629 396.615 189.69 392.397 228.222C388.176 266.792 371.336 303.892 333.651 329.054L331.985 326.56ZM372.718 119.413C347.572 57.6212 274.131 1.55226 189.314 3.55192L189.244 0.552757C275.352 -1.47736 349.899 55.3795 375.497 118.282L372.718 119.413Z" fill="#F99501"/>
</svg>
