<svg viewBox="0 0 294 306" fill="none" xmlns="http://www.w3.org/2000/svg">
<path fill-rule="evenodd" clip-rule="evenodd" d="M148.815 2C96.8129 1.99999 46.4135 42.9551 20.3302 89C8.77435 109.4 -16.0594 189.846 23.6809 247.644C63.4212 305.442 181.626 328.305 243.33 271.5C305.034 214.695 297.841 157.5 275.331 100.5C252.821 43.5 200.817 2.00001 148.815 2Z" fill="white"/>
<path d="M20.3302 89L21.6353 89.7393L20.3302 89ZM148.815 3.5C97.5514 3.49999 47.567 43.9621 21.6353 89.7393L19.025 88.2607C45.2599 41.9482 96.0744 0.499993 148.815 0.5V3.5ZM21.6353 89.7393C15.9783 99.7256 6.93277 124.724 4.26349 154.432C1.59567 184.122 5.31705 218.288 24.917 246.794L22.4449 248.494C2.30453 219.202 -1.4274 184.245 1.27551 154.163C3.97696 124.098 13.1262 98.6739 19.025 88.2607L21.6353 89.7393ZM24.917 246.794C44.4749 275.239 83.5122 295.26 125.475 301.062C167.416 306.862 211.891 298.404 242.314 270.396L244.346 272.604C213.066 301.401 167.586 309.914 125.064 304.034C82.5627 298.157 42.6273 277.847 22.4449 248.494L24.917 246.794ZM242.314 270.396C272.941 242.202 286.364 214.022 289.42 185.911C292.482 157.744 285.157 129.465 273.936 101.051L276.726 99.949C288.015 128.535 295.542 157.353 292.402 186.235C289.256 215.173 275.424 243.993 244.346 272.604L242.314 270.396ZM273.936 101.051C251.588 44.4639 200.045 3.50001 148.815 3.5V0.5C201.588 0.500007 254.053 42.5361 276.726 99.949L273.936 101.051Z" fill="#3474D4"/>
</svg>
