<svg id="reasons-buuble-3" viewBox="0 0 394 364" fill="none" xmlns="http://www.w3.org/2000/svg">
<path d="M212.073 2.41275L212.037 3.9123L212.073 2.41275ZM380.742 124.619L379.302 125.039L380.742 124.619ZM338.653 324.494L339.574 325.678L338.653 324.494ZM99.9578 331.684L99.1083 332.92L99.9578 331.684ZM5.21962 117.047L3.73767 116.815L5.21962 117.047ZM212.037 3.9123C287.13 5.73428 357.466 50.1845 379.302 125.039L382.182 124.199C359.917 47.8737 288.268 2.76101 212.11 0.913187L212.037 3.9123ZM379.302 125.039C400.226 196.771 394.76 278.983 337.733 323.31L339.574 325.678C398.072 280.208 403.231 196.357 382.182 124.199L379.302 125.039ZM337.733 323.31C307.874 346.519 264.255 359.057 220.197 360.383C176.138 361.708 131.899 351.812 100.807 330.448L99.1083 332.92C130.877 354.75 175.804 364.719 220.287 363.381C264.77 362.043 309.069 349.39 339.574 325.678L337.733 323.31ZM100.807 330.448C65.201 305.981 37.978 276.418 21.5034 241.149C5.03311 205.888 -0.740311 164.828 6.70158 117.279L3.73767 116.815C-3.78534 164.882 2.03368 206.556 18.7853 242.418C35.5327 278.271 63.1612 308.219 99.1083 332.92L100.807 330.448ZM6.70158 117.279C11.2049 88.5054 21.174 66.9821 34.7991 50.8825C48.4267 34.7799 65.7819 24.0205 85.1827 16.8869C124.053 2.59448 170.942 2.91522 212.037 3.9123L212.11 0.913187C171.097 -0.0818954 123.638 -0.448973 84.1474 14.0712C64.3677 21.3441 46.5394 32.3661 32.5091 48.9445C18.4761 65.5261 8.31269 87.5835 3.73767 116.815L6.70158 117.279Z" fill="#F99501"/>
</svg>
