<svg viewBox="0 0 412 323" fill="none" xmlns="http://www.w3.org/2000/svg">
<path d="M221.769 2.36574L221.8 0.866055L221.769 2.36574ZM398.222 110.654L396.804 111.142L398.222 110.654ZM354.191 287.766L355.016 289.018L354.191 287.766ZM104.479 294.137L105.233 292.84L104.479 294.137ZM5.36822 103.944L6.84325 104.217L5.36822 103.944ZM221.738 3.86542C300.477 5.4836 374.012 44.9632 396.804 111.142L399.64 110.165C376.296 42.3828 301.293 2.49973 221.8 0.866055L221.738 3.86542ZM396.804 111.142C418.655 174.591 412.966 247.273 353.366 286.513L355.016 289.018C416.274 248.688 421.7 174.22 399.64 110.165L396.804 111.142ZM353.366 286.513C322.103 307.096 276.42 318.22 230.276 319.396C184.133 320.572 137.796 311.792 105.233 292.84L103.724 295.433C136.924 314.756 183.867 323.579 230.353 322.395C276.837 321.211 323.129 310.012 355.016 289.018L353.366 286.513ZM105.233 292.84C67.9638 271.148 39.5049 244.957 22.2953 213.75C5.0996 182.569 -0.927205 146.27 6.84325 104.217L3.89319 103.672C-3.99194 146.345 2.10873 183.358 19.6683 215.199C37.2141 247.015 66.1383 273.557 103.724 295.433L105.233 292.84ZM6.84325 104.217C11.5412 78.7922 21.9398 59.7654 36.1761 45.5169C50.4259 31.2551 68.5934 21.7087 88.9264 15.3761C129.645 2.69456 178.752 2.98201 221.738 3.86542L221.8 0.866055C178.889 -0.0158192 129.293 -0.33785 88.0343 12.5118C67.3785 18.9449 48.7387 28.6992 34.0539 43.3965C19.3557 58.1071 8.69263 77.6977 3.89319 103.672L6.84325 104.217Z" fill="#F99501"/>
</svg>
