<svg viewBox="0 0 66 52" fill="none" xmlns="http://www.w3.org/2000/svg">
<path fill-rule="evenodd" clip-rule="evenodd" d="M22.8589 14.8108C12.8339 22.9318 2.42739 35.3849 0.710475 41.3429C0.284379 42.8151 1.27247 42.9075 2.32523 41.4791C3.90507 39.3811 8.47194 35.1051 14.618 29.9963C17.6273 27.5015 26.0941 21.5537 29.1361 19.8491C50.9075 7.5232 54.4357 9.06229 44.9415 26.7799C42.4091 31.501 42.6438 31.2768 40.3808 31.0215C37.15 30.6597 34.4846 30.7761 34.4108 31.2794C34.3669 31.5208 34.3503 33.9416 34.3657 36.6712C34.3979 42.2197 34.2581 45.901 33.8724 49.0916C33.3308 53.6258 35.6814 52.5249 49.2338 41.9686C51.5733 40.1527 54.5185 37.9135 55.7628 36.9836C58.8306 34.749 57.6462 33.4087 52.1552 32.9704C50.7856 32.8436 50.7216 33.0992 53.0227 30.1357C55.3239 27.1722 57.2602 24.3734 59.5572 21.1418C76.7996 -3.22598 50.6969 -7.71769 22.8589 14.8108ZM39.4807 7.349C54.8115 -0.866783 64.0444 0.419219 61.7308 10.4379C60.8118 14.3325 52.0068 28.256 47.9851 32.151C46.7249 33.3631 47.4686 33.9274 51.2 34.5415L54.311 35.0773C54.2908 35.0915 41.4577 44.2115 36.6457 48.4782L35.7399 49.292C35.9598 45.073 36.3627 38.1964 36.3153 35.158C36.2818 33.0132 36.3445 32.6683 36.7539 32.7435C37.4565 32.8547 43.0059 32.6799 43.4926 32.9119C45.2954 33.7598 52.776 16.9377 52.23 13.3443C51.1534 6.26729 37.4803 10.4034 21.1636 21.7173C16.3439 25.0558 15.9262 25.3177 16.9846 24.2467C22.5436 18.5846 32.74 10.9762 39.4807 7.349Z" fill="#F99501"/>
</svg>
