<svg viewBox="0 0 70 71" fill="none" xmlns="http://www.w3.org/2000/svg">
<path fill-rule="evenodd" clip-rule="evenodd" d="M65.5659 0.472944C63.1445 1.24256 59.5016 1.54182 51.9977 1.60595C43.2504 1.67009 43.3595 1.58455 46.9805 5.53954C48.9001 7.63461 49.3364 8.70355 49.5982 9.08836C49.1401 9.38765 46.6316 12.402 41.7889 12.8724C34.9394 13.5351 28.8315 13.2144 30.9693 27.0461C31.9727 33.4596 30.2276 35.9395 24.098 36.7733C19.6043 37.3932 17.3357 37.6498 15.0671 37.7567C4.4002 38.2698 -1.24955 44.9611 0.233781 55.2655C0.408291 56.5054 0.997197 57.6385 1.91337 58.515C11.8822 68.0925 11.9259 67.6862 13.6492 69.4393C14.7835 70.5937 15.547 70.9999 16.5504 70.9999C17.7938 70.9999 17.772 71.0854 17.9247 64.7574C18.1429 54.6669 19.6916 52.1229 27.5228 48.8734C39.6948 43.8495 41.9198 41.0275 41.5926 31.0011C41.3745 24.3525 41.1563 24.609 50.1872 21.274C55.2262 19.4141 55.5315 19.0934 58.2146 17.1266C59.3053 18.3452 60.0906 19.3072 60.985 19.8844C64.4534 22.1719 64.5843 18.5804 65.2387 15.8653C66.373 11.1835 67.9654 6.45883 69.4051 3.53C71.1284 -0.0187986 68.8816 -0.574593 65.5659 0.472944ZM65.435 2.88865C65.435 3.12381 62.9918 7.12153 61.4867 14.946C61.1813 16.4852 61.1159 16.528 60.4397 15.6301C59.2181 14.0054 57.4075 13.7916 55.7933 15.0957C53.3065 17.0839 51.4087 18.11 47.6568 19.4782C37.3607 23.2622 37.8624 22.7278 37.8188 29.975C37.7752 40.9207 36.9681 42.011 24.7742 47.0776C16.5504 50.4982 14.3254 53.5766 14.02 61.8714L13.8892 65.4416C12.384 64.0734 5.81803 58.066 4.09475 56.9544C3.33126 56.4627 3.24403 56.3131 3.3531 55.7359C3.41854 55.3724 3.52765 54.1111 3.61491 52.9353C4.18206 44.4481 8.28306 40.258 16.834 39.3815C33.1071 37.6926 35.6375 35.7257 34.1541 25.9986C33.0416 18.7941 35.2011 15.4377 41.1999 14.9888C45.9771 14.6254 49.62 13.3427 52.3249 11.0552C53.9391 9.68699 54.5282 10.2427 53.0448 8.40421C48.9438 3.31617 48.7911 3.63685 55.5751 3.4872C65.0641 3.31618 65.435 2.63211 65.435 2.88865Z" fill="#F99501"/>
</svg>
