<svg id="services-bubbleh" viewBox="0 0 376 294" fill="none" preserveAspectRatio="none" xmlns="http://www.w3.org/2000/svg">
<path d="M174.022 1.8276C101.655 3.27821 34.1317 38.6697 13.2135 97.9131C-6.85562 154.751 -1.62186 219.812 53.0821 254.941C81.7962 273.381 123.768 283.353 166.174 284.407C208.58 285.461 251.154 277.59 281.062 260.611C315.31 241.169 341.446 217.702 357.246 189.756C373.031 161.839 378.565 129.339 371.43 91.6776C367.119 68.9187 357.577 51.891 344.513 39.138C331.435 26.3703 314.754 17.8184 296.073 12.1436C258.661 0.778846 213.536 1.03553 174.022 1.8276Z" fill="#3474D4" stroke="#3474D4" stroke-width="3"/>
<mask id="path-2-inside-1_232_2977" fill="white">
<path fill-rule="evenodd" clip-rule="evenodd" d="M199.549 7.95461C270.305 9.41234 336.727 44.9887 357.358 105.04C376.994 162.197 372.023 228.161 317.979 263.83C261.502 301.106 153.465 303.858 94.6511 269.542C27.7046 230.481 -7.9891 174.987 6.01234 99.0251C23.0001 6.86174 122.727 6.37195 199.549 7.95461Z"/>
</mask>
<path d="M199.549 7.95461L199.61 4.95525L199.549 7.95461ZM357.358 105.04L354.52 106.015L354.52 106.015L357.358 105.04ZM317.979 263.83L316.326 261.326L317.979 263.83ZM94.6511 269.542L93.1392 272.133L94.6511 269.542ZM6.01234 99.0251L8.96264 99.5689L6.01234 99.0251ZM199.487 10.954C269.485 12.3961 334.44 47.5655 354.52 106.015L360.195 104.066C339.014 42.4119 271.126 6.4286 199.61 4.95525L199.487 10.954ZM354.52 106.015C373.949 162.569 368.715 226.75 316.326 261.326L319.632 266.334C375.331 229.572 380.038 161.825 360.195 104.066L354.52 106.015ZM316.326 261.326C288.711 279.553 248.194 289.485 207.114 290.534C166.037 291.583 124.932 283.737 96.163 266.951L93.1392 272.133C123.184 289.663 165.504 297.599 207.268 296.532C249.029 295.465 290.769 285.383 319.632 266.334L316.326 261.326ZM96.163 266.951C63.0066 247.605 37.811 224.317 22.6047 196.675C7.42572 169.083 2.076 136.931 8.96264 99.5689L3.06204 98.4813C-4.05276 137.081 1.44363 170.657 17.3477 199.567C33.2245 228.428 59.3491 252.418 93.1392 272.133L96.163 266.951ZM8.96264 99.5689C13.1086 77.0759 22.2634 60.3282 34.741 47.8091C47.2449 35.2636 63.2317 26.8202 81.237 21.1988C117.354 9.92262 161.002 10.1611 199.487 10.954L199.61 4.95525C161.275 4.16546 116.648 3.8575 79.4489 15.4714C60.7963 21.295 43.8647 30.1557 30.4913 43.5735C17.0915 57.0178 7.40998 74.8925 3.06204 98.4813L8.96264 99.5689Z" fill="#F99501" mask="url(#path-2-inside-1_232_2977)"/>
</svg>
