<svg id="services-main-bubble" viewBox="0 0 568 331" fill="none" preserveAspectRatio="none" xmlns="http://www.w3.org/2000/svg">
<path fill-rule="evenodd" clip-rule="evenodd" d="M305.798 2.37491C415.165 4.04161 517.831 44.7181 549.719 113.379C580.069 178.729 572.386 254.149 488.852 294.932C401.557 337.551 234.568 340.698 143.662 301.463C40.185 256.802 -14.9855 193.352 6.65607 106.501C32.9135 1.12537 187.059 0.565359 305.798 2.37491Z" fill="white"/>
<path d="M305.798 2.37491L305.821 0.875085L305.798 2.37491ZM549.719 113.379L548.358 114.01L549.719 113.379ZM488.852 294.932L488.194 293.584L488.852 294.932ZM143.662 301.463L143.068 302.84L143.662 301.463ZM6.65607 106.501L8.11157 106.864L6.65607 106.501ZM305.776 3.87474C360.293 4.70556 413.099 15.2605 456.211 34.1282C499.345 53.0051 532.624 80.1317 548.358 114.01L551.079 112.747C534.925 77.9649 500.928 50.4231 457.414 31.3799C413.88 12.3276 360.67 1.71096 305.821 0.875085L305.776 3.87474ZM548.358 114.01C563.428 146.459 568.998 181.286 560.543 212.982C552.1 244.63 529.623 273.358 488.194 293.584L489.51 296.28C531.615 275.724 554.747 246.35 563.441 213.755C572.124 181.207 566.36 145.649 551.079 112.747L548.358 114.01ZM488.194 293.584C444.818 314.761 381.49 326.186 317.583 327.393C253.679 328.601 189.441 319.587 144.256 300.086L143.068 302.84C188.789 322.574 253.499 331.604 317.639 330.393C381.778 329.181 445.591 317.722 489.51 296.28L488.194 293.584ZM144.256 300.086C92.6374 277.807 53.244 250.912 29.4432 218.908C5.69126 186.97 -2.60145 149.857 8.11157 106.864L5.20058 106.138C-5.72796 149.996 2.74379 188.034 27.0359 220.698C51.2792 253.297 91.2096 280.458 143.068 302.84L144.256 300.086ZM8.11157 106.864C21.0345 55.0015 65.4219 28.7448 121.884 15.705C178.338 2.66707 246.376 2.96951 305.776 3.87474L305.821 0.875085C246.481 -0.0292377 178.077 -0.351576 121.209 12.782C64.349 25.9137 18.535 52.6248 5.20058 106.138L8.11157 106.864Z" fill="#3474D4"/>
</svg>
