<svg viewBox="0 0 56 50" fill="none" xmlns="http://www.w3.org/2000/svg">
<path fill-rule="evenodd" clip-rule="evenodd" d="M3.66043 0.186809C3.68422 0.186809 23.3116 3.60459 27.808 3.12989C30.4488 2.84508 30.3299 3.81816 27.4988 5.81187C22.1697 9.53823 22.2172 9.44329 24.6439 11.5082C24.6677 11.5319 50.8612 34.8633 54.4536 38.6608C55.429 39.6814 56 40.3697 56 40.5833C56 42.1023 52.2411 42.2922 47.2213 40.9868C45.0325 40.4172 45.1039 39.99 46.6265 44.4521C48.1729 48.938 48.3632 51.6437 44.5091 48.8904C42.1301 47.2053 37.7049 43.0755 28.2838 34.1275C27.6891 33.5579 13.7477 20.9309 13.0578 20.5512C12.5344 20.2426 10.0364 23.6368 8.13316 25.4881C6.46781 27.1258 4.6359 27.2207 4.06492 23.7791C3.25604 19.0559 2.73259 15.7093 1.51927 10.3927C-0.836012 0.13934 -0.693269 -0.477764 3.66043 0.186809ZM3.66043 3.03498C3.66043 3.05871 7.72869 21.4057 7.75248 21.4294C7.87143 21.5481 10.655 18.7711 11.4639 17.7268C12.2727 16.6824 14.1759 16.8724 15.7937 18.1303C22.3837 23.2095 42.8913 43.1704 42.9151 43.1941C42.8437 42.8143 42.3442 40.7258 42.2252 39.9663C41.8683 37.7827 44.628 37.7352 49.0769 38.7558C50.9563 39.183 19.3861 11.0099 19.3623 10.9861C18.1014 10.3215 19.2434 8.73125 22.5979 6.40524C24.2156 5.28971 24.2157 5.28978 19.4337 4.81508C3.44638 3.22486 3.66043 2.44161 3.66043 3.03498Z" fill="#F99501"/>
</svg>
