<svg id="services-bubble" viewBox="0 0 376 286" fill="none" preserveAspectRatio="none" xmlns="http://www.w3.org/2000/svg">
<mask id="path-1-inside-1_232_2974" fill="white">
<path fill-rule="evenodd" clip-rule="evenodd" d="M173.992 0.327904C101.27 1.78563 33.0027 37.362 11.7991 97.4136C-8.38241 154.57 -3.2736 220.534 52.2716 256.204C110.318 293.479 221.356 296.231 281.803 261.916C350.609 222.854 387.294 167.36 372.904 91.3984C355.444 -0.764968 252.947 -1.25476 173.992 0.327904Z"/>
</mask>
<path fill-rule="evenodd" clip-rule="evenodd" d="M173.992 0.327904C101.27 1.78563 33.0027 37.362 11.7991 97.4136C-8.38241 154.57 -3.2736 220.534 52.2716 256.204C110.318 293.479 221.356 296.231 281.803 261.916C350.609 222.854 387.294 167.36 372.904 91.3984C355.444 -0.764968 252.947 -1.25476 173.992 0.327904Z" fill="white"/>
<path d="M173.992 0.327904L173.932 -2.67149L173.992 0.327904ZM11.7991 97.4136L14.6279 98.4125L14.6279 98.4125L11.7991 97.4136ZM52.2716 256.204L53.8926 253.679L52.2716 256.204ZM281.803 261.916L283.284 264.524L281.803 261.916ZM372.904 91.3984L369.956 91.9568L372.904 91.3984ZM174.052 3.3273C102.04 4.7708 35.2608 39.9774 14.6279 98.4125L8.97022 96.4148C30.7447 34.7466 100.499 -1.19954 173.932 -2.67149L174.052 3.3273ZM14.6279 98.4125C-5.32882 154.933 0.0299111 219.09 53.8926 253.679L50.6505 258.728C-6.57711 221.978 -11.436 154.208 8.97022 96.4148L14.6279 98.4125ZM53.8926 253.679C82.2978 271.92 123.969 281.857 166.212 282.907C208.451 283.957 250.728 276.107 280.322 259.307L283.284 264.524C252.431 282.04 208.965 289.972 166.062 288.905C123.162 287.839 80.2916 277.762 50.6505 258.728L53.8926 253.679ZM280.322 259.307C314.414 239.953 340.313 216.658 355.941 189.018C371.537 161.434 377.031 129.3 369.956 91.9568L375.852 90.84C383.168 129.459 377.514 163.052 361.164 191.971C344.845 220.834 317.998 244.817 283.284 264.524L280.322 259.307ZM369.956 91.9568C365.698 69.4799 356.295 52.7357 343.466 40.2113C330.606 27.6577 314.16 19.2058 295.637 13.5789C258.489 2.29434 213.603 2.5345 174.052 3.3273L173.932 -2.67149C213.336 -3.46136 259.176 -3.76763 297.381 7.8379C316.533 13.656 333.92 22.5083 347.657 35.9179C361.423 49.3569 371.38 67.2351 375.852 90.84L369.956 91.9568Z" fill="#3474D4" mask="url(#path-1-inside-1_232_2974)"/>
</svg>
