<svg viewBox="0 0 58 57" fill="none" xmlns="http://www.w3.org/2000/svg">
<path fill-rule="evenodd" clip-rule="evenodd" d="M51.1418 0.451052C55.5849 1.65908 58 5.14105 58 10.3107C58 13.3663 57.2073 17.3102 56.3592 19.3709C55.2162 22.1423 53.4463 20.0282 53.7781 18.9801C54.4234 16.9726 53.3726 9.47569 52.248 7.94789C51.3999 6.79315 49.1691 8.0723 46.3484 10.4884C34.3281 20.8454 19.8741 40.387 12.9975 48.6478C12.9975 48.6478 15.6707 51.0639 16.0947 51.437C17.6249 52.7516 17.6618 53.3556 16.2238 53.5155C15.1914 53.6398 5.64146 56.0026 3.96377 56.5711C0.90337 57.5837 0 56.8909 0 53.551C0.0184364 50.0513 0.202797 44.171 0.368721 41.4707C0.534649 38.5395 3.02353 39.41 5.06993 41.0976C5.73363 41.6484 6.32352 42.0747 6.37883 42.0569C7.2822 41.7194 9.62364 37.5091 30.4012 13.242C40.4489 1.55249 44.9288 -1.23664 51.1418 0.451052ZM46.9015 2.65391C43.5646 3.66652 37.9046 8.99608 29.9771 18.5715C24.944 24.6472 17.7908 32.7303 14.5461 37.1361C13.1081 39.0902 10.232 42.4833 8.64653 44.1355C7.96439 44.8639 5.75202 46.9779 5.29111 45.7876C5.19894 45.5567 4.68278 44.9704 4.14813 44.4552C2.96822 43.3716 2.94975 43.4071 2.91287 45.7521C2.89444 46.6404 2.78386 48.8432 2.67324 50.673C2.41513 54.688 2.02794 54.3505 5.86265 53.4089C10.4164 52.272 13.4399 51.7212 13.6427 51.5258C13.8455 51.3482 12.2047 49.998 11.1907 49.5006C9.14427 48.5058 9.12583 48.5945 12.8499 43.9401C14.3248 42.1103 15.9287 40.0318 16.4265 39.3567C23.2479 29.9056 29.1475 23.8833 31.028 21.7692C35.2683 17.0437 41.684 10.3285 43.2511 8.97832C51.8608 1.58802 54.958 9.13819 55.2346 9.31584C55.1424 9.08489 56.2302 -0.18851 46.9015 2.65391Z" fill="#F99501"/>
</svg>
