<svg> 
	<symbol id="arrow" viewBox="0 0 18 10" fill="none" xmlns="http://www.w3.org/2000/svg">
		<path d="M1 1L9 9L17 1" stroke="#061327"/>		
	</symbol>
	<symbol id="tel-icon" viewBox="0 0 22 22" fill="none" xmlns="http://www.w3.org/2000/svg">		
		<path d="M9.55419 5.24075L6.1712 1.33599C5.78121 0.886013 5.06621 0.888013 4.61321 1.34199L1.83123 4.12882C1.00323 4.95777 0.766233 6.1887 1.24523 7.17564C4.10683 13.1002 8.88524 17.8851 14.8062 20.7548C15.7922 21.2338 17.0221 20.9968 17.8501 20.1679L20.6581 17.355C21.1131 16.9001 21.1141 16.1811 20.6601 15.7911L16.7401 12.4263C16.3301 12.0743 15.6932 12.1203 15.2822 12.5323L13.9182 13.8982C13.8483 13.9714 13.7564 14.0197 13.6565 14.0356C13.5566 14.0514 13.4543 14.0341 13.3652 13.9862C11.1356 12.7024 9.28618 10.8506 8.00519 8.61955C7.95722 8.53031 7.93985 8.42779 7.95575 8.32772C7.97164 8.22766 8.01993 8.13557 8.09319 8.06558L9.45319 6.70466C9.86518 6.29069 9.91018 5.65073 9.55419 5.23975V5.24075Z" stroke="#061327" stroke-width="2" stroke-linecap="round" stroke-linejoin="round"/>		
	</symbol>
	<symbol id="tel-icon-footer" viewBox="0 0 22 22" fill="none" xmlns="http://www.w3.org/2000/svg">		
		<path d="M9.55419 5.24075L6.1712 1.33599C5.78121 0.886013 5.06621 0.888013 4.61321 1.34199L1.83123 4.12882C1.00323 4.95777 0.766233 6.1887 1.24523 7.17564C4.10683 13.1002 8.88524 17.8851 14.8062 20.7548C15.7922 21.2338 17.0221 20.9968 17.8501 20.1679L20.6581 17.355C21.1131 16.9001 21.1141 16.1811 20.6601 15.7911L16.7401 12.4263C16.3301 12.0743 15.6932 12.1203 15.2822 12.5323L13.9182 13.8982C13.8483 13.9714 13.7564 14.0197 13.6565 14.0356C13.5566 14.0514 13.4543 14.0341 13.3652 13.9862C11.1356 12.7024 9.28618 10.8506 8.00519 8.61955C7.95722 8.53031 7.93985 8.42779 7.95575 8.32772C7.97164 8.22766 8.01993 8.13557 8.09319 8.06558L9.45319 6.70466C9.86518 6.29069 9.91018 5.65073 9.55419 5.23975V5.24075Z" stroke="#ffffff" stroke-width="2" stroke-linecap="round" stroke-linejoin="round"/>		
	</symbol>
	<symbol id="attention" viewBox="0 0 48 48" xmlns="http://www.w3.org/2000/svg">
		<g fill="#FF0000">
			<circle cx="24" cy="43.489" r="4.324"/><path d="M19.679.188h8.639v32.494h-8.639z"/>
		</g>
	</symbol>
	<symbol id="steps-arrow" viewBox="0 0 121 58" fill="none" xmlns="http://www.w3.org/2000/svg">
	<path fill-rule="evenodd" clip-rule="evenodd" d="M115.825 31.454C115.792 31.4816 85.0725 49.9431 79.3607 55.7524C76.0126 59.1718 75.151 57.8115 76.9606 52.0246C80.3948 41.1649 80.4291 41.3393 74.8996 41.5586C74.8418 41.5563 14.0572 42.6135 5.09054 42.0076C2.667 41.8563 1.15262 41.6537 0.927428 41.3853C-0.673949 39.477 4.31905 34.8805 12.6305 30.7006C16.255 28.8787 16.6067 29.4981 9.79907 25.6577C2.93353 21.8151 -0.181828 18.6367 8.04539 17.6272C13.1088 16.986 23.5761 17.0438 46.0252 17.3625C47.4474 17.3886 80.02 17.0884 81.3735 16.7656C82.4219 16.5464 82.2949 9.38643 82.9727 4.85412C83.547 0.865971 85.9779 -1.37708 90.3949 2.28447C96.4917 7.28034 100.743 10.8777 108.024 16.1501C122.087 26.3006 122.541 27.2414 115.825 31.454ZM112.822 27.8759C112.797 27.8461 87.8352 9.51381 87.7773 9.51158C87.4879 9.5004 86.5697 16.2162 86.5532 18.4659C86.5366 20.7157 83.707 22.6836 80.1457 22.9788C65.6865 24.2381 16.3107 22.9375 16.2528 22.9353C16.7518 23.3296 19.6438 25.3743 20.6088 26.1905C23.4038 28.52 19.6412 31.7791 12.4188 35.6548C9.37182 37.2971 82.6891 36.089 82.747 36.0912C85.1896 35.4643 85.2884 38.7861 83.106 45.5972C82.047 48.8742 82.0468 48.8742 89.1538 43.9266C112.918 27.3892 113.448 28.6213 112.822 27.8759Z" fill="#78A9F3"/>
	</symbol>
	<symbol id="burger-btn" viewBox="0 0 30 28" fill="none" xmlns="http://www.w3.org/2000/svg">
	<path fill-rule="evenodd" clip-rule="evenodd" d="M0 2C0 0.895431 0.895431 0 2 0H28C29.1046 0 30 0.895431 30 2C30 3.10457 29.1046 4 28 4H2C0.89543 4 0 3.10457 0 2ZM10 14C10 12.8954 10.8954 12 12 12H28C29.1046 12 30 12.8954 30 14C30 15.1046 29.1046 16 28 16H12C10.8954 16 10 15.1046 10 14ZM2 24C0.895431 24 0 24.8954 0 26C0 27.1046 0.89543 28 2 28H28C29.1046 28 30 27.1046 30 26C30 24.8954 29.1046 24 28 24H2Z" fill="#061327"/>
	</symbol>
	<symbol id="checkbox-arrow-blue" viewBox="0 0 18 15" fill="none" xmlns="http://www.w3.org/2000/svg">
	<path d="M1.70944 6.25542C1.32021 5.86361 0.687049 5.86152 0.295235 6.25075C-0.0965782 6.63998 -0.0986719 7.27314 0.290559 7.66495L1.70944 6.25542ZM7 13L6.29056 13.7048L7.06487 14.4842L7.76822 13.6402L7 13ZM17.7682 1.64018C18.1218 1.21591 18.0645 0.585343 17.6402 0.231779C17.2159 -0.121785 16.5853 -0.0644614 16.2318 0.359816L17.7682 1.64018ZM0.290559 7.66495L6.29056 13.7048L7.70944 12.2952L1.70944 6.25542L0.290559 7.66495ZM7.76822 13.6402L17.7682 1.64018L16.2318 0.359816L6.23178 12.3598L7.76822 13.6402Z" fill="#3474D4"/>
	</symbol>
	<symbol id="close-btn" viewBox="0 0 23 23" fill="none" xmlns="http://www.w3.org/2000/svg">
		<path fill-rule="evenodd" clip-rule="evenodd" d="M18.9902 21.8211C19.7713 22.6022 21.0376 22.6022 21.8186 21.8211C22.5997 21.0401 22.5997 19.7738 21.8186 18.9927L14.0416 11.2156L21.8209 3.4363C22.602 2.65526 22.602 1.38893 21.8209 0.607879C21.0399 -0.17317 19.7735 -0.173171 18.9925 0.607879L11.2131 8.38722L3.43386 0.607943C2.65281 -0.173106 1.38649 -0.173107 0.605436 0.607943C-0.175612 1.38899 -0.175612 2.65532 0.605436 3.43637L8.38471 11.2156L0.607703 18.9927C-0.173346 19.7737 -0.173346 21.04 0.607703 21.8211C1.38875 22.6021 2.65508 22.6021 3.43613 21.8211L11.2131 14.0441L18.9902 21.8211Z" fill="#061327"/>
	</symbol>
	<symbol id="btn-tel-icon" viewBox="0 0 60 60" fill="none" xmlns="http://www.w3.org/2000/svg">
		<path d="M28.5542 24.2408L25.1712 20.336C24.7812 19.886 24.0662 19.888 23.6132 20.342L20.8312 23.1288C20.0032 23.9578 19.7662 25.1887 20.2452 26.1756C23.1068 32.1002 27.8852 36.8851 33.8062 39.7548C34.7922 40.2338 36.0221 39.9968 36.8501 39.1679L39.6581 36.355C40.1131 35.9001 40.1141 35.1811 39.6601 34.7911L35.7401 31.4263C35.3301 31.0743 34.6932 31.1203 34.2822 31.5323L32.9182 32.8982C32.8483 32.9714 32.7564 33.0197 32.6565 33.0356C32.5566 33.0514 32.4543 33.0341 32.3652 32.9862C30.1356 31.7024 28.2862 29.8506 27.0052 27.6196C26.9572 27.5303 26.9399 27.4278 26.9557 27.3277C26.9716 27.2277 27.0199 27.1356 27.0932 27.0656L28.4532 25.7047C28.8652 25.2907 28.9102 24.6507 28.5542 24.2398V24.2408Z" stroke="#061327" stroke-width="2" stroke-linecap="round" stroke-linejoin="round"/>
		<path d="M30 57C15.0883 57 3 44.9117 3 30H-3C-3 48.2254 11.7746 63 30 63V57ZM57 30C57 44.9117 44.9117 57 30 57V63C48.2254 63 63 48.2254 63 30H57ZM30 3C44.9117 3 57 15.0883 57 30H63C63 11.7746 48.2254 -3 30 -3V3ZM30 -3C11.7746 -3 -3 11.7746 -3 30H3C3 15.0883 15.0883 3 30 3V-3Z" fill="#F99501"/>
	</symbol>
	<symbol id="place-icon" viewBox="0 0 40 40" fill="none" xmlns="http://www.w3.org/2000/svg">
		<path d="M20 20C17.9375 20 16.25 18.335 16.25 16.3C16.25 14.265 17.9375 12.6 20 12.6C22.0625 12.6 23.75 14.265 23.75 16.3C23.75 18.335 22.0625 20 20 20ZM31.25 16.67C31.25 9.9545 26.2812 5.2 20 5.2C13.7188 5.2 8.75 9.9545 8.75 16.67C8.75 20.999 12.4062 26.734 20 33.579C27.5938 26.734 31.25 20.999 31.25 16.67ZM20 1.5C27.875 1.5 35 7.457 35 16.67C35 22.812 29.9937 30.0825 20 38.5C10.0063 30.0825 5 22.812 5 16.67C5 7.457 12.125 1.5 20 1.5Z" fill="#061327"/>
	</symbol>
	<symbol id="search-icon" viewBox="0 0 21 21" fill="none" xmlns="http://www.w3.org/2000/svg">
		<path fill-rule="evenodd" clip-rule="evenodd" d="M9.739 0.13916C15.109 0.13916 19.477 4.50716 19.477 9.87716C19.477 12.4107 18.5047 14.7214 16.9136 16.4557L20.0444 19.5799C20.3374 19.8729 20.3384 20.3469 20.0454 20.6399C19.8994 20.7879 19.7064 20.8609 19.5144 20.8609C19.3234 20.8609 19.1314 20.7879 18.9844 20.6419L15.8159 17.4822C14.1491 18.817 12.0357 19.6162 9.739 19.6162C4.369 19.6162 0 15.2472 0 9.87716C0 4.50716 4.369 0.13916 9.739 0.13916ZM9.739 1.63916C5.196 1.63916 1.5 5.33416 1.5 9.87716C1.5 14.4202 5.196 18.1162 9.739 18.1162C14.281 18.1162 17.977 14.4202 17.977 9.87716C17.977 5.33416 14.281 1.63916 9.739 1.63916Z" fill="#061327"/>
	</symbol>
	
</svg>