<svg id="underline" viewBox="0 0 330 17" fill="none" xmlns="http://www.w3.org/2000/svg">
<path fill-rule="evenodd" clip-rule="evenodd" d="M329.871 5.40672C328.524 3.40263 316.954 2.55877 282.181 1.85557C249.735 1.18754 211.963 -0.746196 145.969 0.30859C95.5244 1.11726 32.7137 4.35197 32.7137 6.14511C32.7137 7.44601 35.1626 7.48117 58.5482 6.3209C80.1585 5.26612 91.2392 5.02 104.769 4.73873C50.5285 7.48117 38.958 9.27424 10.0627 10.9971C-8.05818 12.087 2.53271 15.2162 9.14437 14.8998C9.20559 14.8998 93.5042 10.9619 101.463 11.1729C102.197 11.208 94.1776 11.8409 83.5868 12.5792C54.018 14.6888 59.7113 18.2047 81.8726 16.5874C156.437 11.1377 226.594 9.44997 280.651 11.8057C297.731 12.544 299.629 12.544 299.629 11.6299C299.629 10.0125 294.976 8.782 287.691 8.53589C276.304 8.11397 232.471 6.91851 212.636 6.56692C211.106 6.53176 211.841 5.86383 213.187 5.79351C221.268 5.33644 285.426 5.6879 310.648 6.18013C329.197 6.53172 330.544 6.49667 329.871 5.40672Z" fill="#F99501"/>
</svg>
