<svg id="header-tel" viewBox="0 0 30 30" fill="none" xmlns="http://www.w3.org/2000/svg">
	<rect width="30" height="30" rx="15" fill="#6040DA"/>
	<path d="M18.6945 16.3612C18.303 15.9746 17.8142 15.9746 17.4252 16.3612C17.1284 16.6554 16.8317 16.9497 16.5399 17.2489C16.4601 17.3312 16.3928 17.3487 16.2955 17.2938C16.1035 17.1891 15.899 17.1043 15.7145 16.9896C14.8541 16.4484 14.1334 15.7527 13.495 14.9697C13.1783 14.5806 12.8965 14.1642 12.6995 13.6954C12.6596 13.6006 12.667 13.5383 12.7443 13.461C13.0411 13.1742 13.3304 12.8799 13.6222 12.5857C14.0286 12.1767 14.0286 11.6979 13.6197 11.2864C13.3877 11.052 13.1558 10.8226 12.9239 10.5882C12.6845 10.3488 12.4476 10.1069 12.2057 9.86998C11.8142 9.48844 11.3254 9.48844 10.9363 9.87248C10.6371 10.1667 10.3503 10.4685 10.0461 10.7577C9.76425 11.0246 9.62211 11.3513 9.59218 11.7328C9.5448 12.3537 9.69692 12.9398 9.91139 13.5108C10.3503 14.6929 11.0186 15.7427 11.8291 16.7053C12.9239 18.007 14.2306 19.0369 15.7593 19.7801C16.4476 20.1142 17.1609 20.3711 17.9364 20.4135C18.4701 20.4434 18.9339 20.3087 19.3055 19.8923C19.5599 19.608 19.8467 19.3487 20.116 19.0768C20.515 18.6728 20.5175 18.1841 20.121 17.7851C19.6472 17.3088 19.1709 16.835 18.6945 16.3612Z" fill="white"/>
</svg>


