<svg id="popup-error-cross" viewBox="0 0 23 23" fill="none" xmlns="http://www.w3.org/2000/svg">
	<path fill-rule="evenodd" clip-rule="evenodd" d="M18.9902 21.8211C19.7713 22.6022 21.0376 22.6022 21.8186 21.8211C22.5997 21.0401 22.5997 19.7738 21.8186 18.9927L14.0416 11.2156L21.8209 3.4363C22.602 2.65526 22.602 1.38893 21.8209 0.607879C21.0399 -0.17317 19.7735 -0.173171 18.9925 0.607879L11.2131 8.38722L3.43386 0.607943C2.65281 -0.173106 1.38649 -0.173107 0.605436 0.607943C-0.175612 1.38899 -0.175612 2.65532 0.605436 3.43637L8.38471 11.2156L0.607703 18.9927C-0.173346 19.7737 -0.173346 21.04 0.607703 21.8211C1.38875 22.6021 2.65508 22.6021 3.43613 21.8211L11.2131 14.0441L18.9902 21.8211Z" fill="#061327"/>
</svg>	