<svg viewBox="0 0 11 12" fill="none" xmlns="http://www.w3.org/2000/svg">
<path d="M7.3338 8.67454L8.28101 7.71038C8.40859 7.58213 8.57 7.49434 8.74564 7.45767C8.92129 7.42099 9.10362 7.43701 9.2705 7.50378L10.4249 7.97294C10.5935 8.04262 10.7382 8.16155 10.8405 8.31475C10.9428 8.46794 10.9983 8.64855 11 8.8338V10.9859C10.999 11.112 10.973 11.2365 10.9235 11.352C10.874 11.4675 10.802 11.5716 10.712 11.6581C10.6219 11.7445 10.5155 11.8116 10.3994 11.8551C10.2832 11.8986 10.1595 11.9178 10.0359 11.9114C1.94656 11.3991 0.314319 4.42622 0.00563143 1.75756C-0.00869808 1.62651 0.00439441 1.49386 0.0440475 1.36833C0.0837006 1.2428 0.149016 1.12724 0.235696 1.02925C0.322376 0.931262 0.428457 0.853065 0.546959 0.799803C0.665462 0.746541 0.7937 0.719423 0.923238 0.720232H2.96565C3.14791 0.720782 3.32584 0.77682 3.47655 0.881139C3.62727 0.985458 3.74387 1.13329 3.81137 1.30561L4.27229 2.48068C4.34006 2.64987 4.35735 2.83563 4.322 3.01476C4.28665 3.19389 4.20024 3.35845 4.07355 3.48788L3.12634 4.45204C3.12634 4.45204 3.67183 8.20968 7.3338 8.67454Z" fill="#9E8BE8"/>
</svg>
