<?xml version="1.0" standalone="no"?>
<!DOCTYPE svg PUBLIC "-//W3C//DTD SVG 1.1//EN" "http://www.w3.org/Graphics/SVG/1.1/DTD/svg11.dtd" >
<svg>
<metadata>
Created by FontForge 20090914 at Wed Apr 14 21:14:22 2021
 By www-data
Copyright 2011 The Old Standard Project Authors (amkryukov@gmail.com)
</metadata>
<defs>
<font id="OldStandardTT-Regular" horiz-adv-x="0" >
  <font-face 
    font-family="Old Standard TT"
    font-weight="400"
    font-stretch="normal"
    units-per-em="1000"
    panose-1="0 0 5 0 0 0 0 0 0 0"
    ascent="762"
    descent="-238"
    x-height="455.999"
    cap-height="711.999"
    bbox="-819.994 -294 1386 1100"
    underline-thickness="50"
    underline-position="-50"
    unicode-range="U+000D-U+FB02"
  />
<missing-glyph horiz-adv-x="500" 
d="M410 762v-1000h-317v1000h317zM333 695h-165v-33h65v-37h-66v-33h166v33h-66v37h66v33zM267 566h-100v-104h166v34h-66v70zM233 532v-36h-33v36h33zM333 435h-166v-33h66v-37h-66v-33h100v70h66v33zM333 375h-33v-66h-133v-34h166v100zM333 253h-100v-56h34v23h33v-47
h-100v80h-33v-113h166v113zM333 80h-166v-113h166v113zM300 47v-47h-100v47h100zM333 -56h-166v-33h70l-70 -47v-33h166v33h-102l70 47h32v33z" />
    <glyph glyph-name=".notdef" horiz-adv-x="500" 
d="M410 762v-1000h-317v1000h317zM333 695h-165v-33h65v-37h-66v-33h166v33h-66v37h66v33zM267 566h-100v-104h166v34h-66v70zM233 532v-36h-33v36h33zM333 435h-166v-33h66v-37h-66v-33h100v70h66v33zM333 375h-33v-66h-133v-34h166v100zM333 253h-100v-56h34v23h33v-47
h-100v80h-33v-113h166v113zM333 80h-166v-113h166v113zM300 47v-47h-100v47h100zM333 -56h-166v-33h70l-70 -47v-33h166v33h-102l70 47h32v33z" />
    <glyph glyph-name="glyph1" 
 />
    <glyph glyph-name="glyph1" 
 />
    <glyph glyph-name="nonmarkingreturn" unicode="&#xd;" horiz-adv-x="280" 
 />
    <glyph glyph-name="space" unicode=" " horiz-adv-x="280" 
 />
    <glyph glyph-name="exclam" unicode="!" horiz-adv-x="280" 
d="M112 356c-2 28.667 -7.66699 68 -17 118c-11.333 62.667 -17 112 -17 148c0 22 5.66699 39.5 17 52.5s26.333 19.5 45 19.5s33.667 -6.5 45 -19.5s17 -30.5 17 -52.5c0 -36 -5.66699 -85.333 -17 -148c-9.33301 -50 -15 -89.333 -17 -118l-16 -200h-24zM95.5 5.5
c-11.667 11.667 -17.5 26.5 -17.5 44.5s5.83301 32.833 17.5 44.5s26.5 17.5 44.5 17.5s32.833 -5.83301 44.5 -17.5s17.5 -26.5 17.5 -44.5s-5.83301 -32.833 -17.5 -44.5s-26.5 -17.5 -44.5 -17.5s-32.833 5.83301 -44.5 17.5z" />
    <glyph glyph-name="quotedbl" unicode="&#x22;" horiz-adv-x="394" 
d="M88 666l-2 18c0 15.333 3.16699 26.833 9.5 34.5s14.5 11.5 24.5 11.5s18.167 -3.83301 24.5 -11.5s9.5 -19.167 9.5 -34.5l-2 -18l-20 -146h-24zM242 666l-2 18c0 15.333 3.16699 26.833 9.5 34.5s14.5 11.5 24.5 11.5s18.167 -3.83301 24.5 -11.5
s9.5 -19.167 9.5 -34.5l-2 -18l-20 -146h-24z" />
    <glyph glyph-name="numbersign" unicode="#" horiz-adv-x="684" 
d="M166 0l31 196h-116v40h121l36 214h-157v40h163l29 194h44l-30 -194h146l30 194h44l-30 -194h133v-40h-138l-34 -214h169v-40h-177l-30 -196h-44l30 196h-145l-31 -196h-44zM246 236h148l34 214h-146z" />
    <glyph glyph-name="dollar" unicode="$" horiz-adv-x="580" 
d="M228 -11c-52 9.33301 -92.666 29.1699 -121.999 59.5029s-44 69.166 -44 116.499c0 23.333 8 43 24 59c12 12 26.667 18 44 18c10.667 0 20.667 -4 30 -12c8 -8 12 -18.667 12 -32c0 -11.333 -2.33301 -21.166 -7 -29.499s-14.334 -20.5 -29.001 -36.5
c-8 -8 -12 -19 -12 -33c0 -17.333 9 -33.166 27 -47.499s43.667 -24.5 77 -30.5v312l-6 2c-46 18 -80.167 42.5 -102.5 73.5s-33.5 67.5 -33.5 109.5s12.167 79 36.5 111s59.5 53.333 105.5 64v65h32v-60c13.333 1.33301 24 2 32 2c10.667 0 18.667 -0.333008 24 -1v59h32
v-63c48.667 -8.66699 86.5 -28 113.5 -58s40.5 -63.667 40.5 -101c0 -14.667 -1 -27.334 -3 -38.001s-5.66699 -20.667 -11 -30c-4.66699 -8 -11.167 -14.333 -19.5 -19s-17.5 -7 -27.5 -7c-7.33301 0 -13.333 1 -18 3s-9.66699 5.66699 -15 11
c-6 7.33301 -9 15.666 -9 24.999c0 12 2.83301 22.333 8.5 31s12.5 16.667 20.5 24c6.66699 6 11.834 12.167 15.501 18.5s5.5 15.166 5.5 26.499c0 15.333 -8.5 31.166 -25.5 47.499s-42.167 27.833 -75.5 34.5v-284l20 -8c42 -16.667 74.5 -41.5 97.5 -74.5
s34.5 -69.5 34.5 -109.5c0 -48 -13.167 -90.167 -39.5 -126.5s-63.833 -59.833 -112.5 -70.5v-74h-32v69c-5.33301 -0.666992 -13.333 -1 -24 -1c-14.667 0 -25.334 0.333008 -32.001 1v-69h-32v73zM316.001 667.004c-5.33301 0.666992 -13.333 1 -24 1
c-8 0 -18.667 -0.666992 -32 -2v-252l56 -22v275zM228.001 660.004c-32 -9.33301 -55.667 -25.167 -71 -47.5s-23 -46.5 -23 -72.5c0 -28.667 6.16699 -51 18.5 -67s35.5 -30.667 69.5 -44l6 -2v233zM316.001 17.0029l-0.000976562 281l-56 22v-303
c6.66699 -0.666992 17.334 -1 32.001 -1c10.667 0 18.667 0.333008 24 1zM428 74.5029c18.667 25 27.999 51.833 27.999 80.5c0 34.667 -7 60.5 -21 77.5s-36.333 31.833 -67 44.5l-20 8v-262c34.667 9.33301 61.334 26.5 80.001 51.5z" />
    <glyph glyph-name="percent" unicode="%" horiz-adv-x="860" 
d="M198 -18l426 720h36l-426 -720h-36zM161 365c-20.667 15.333 -36.666 36.666 -47.999 63.999s-17 57.666 -17 90.999s5.83301 63.833 17.5 91.5s27.667 49.334 48 65.001s43.166 23.5 68.499 23.5s48.5 -7.83301 69.5 -23.5s37.333 -37.334 49 -65.001
s17.5 -58.167 17.5 -91.5s-5.83301 -63.666 -17.5 -90.999s-28 -48.666 -49 -63.999s-44.167 -23 -69.5 -23s-48.333 7.66699 -69 23zM288.001 403.5c9.33301 27.667 14.002 66.5 14.002 116.5s-4.83301 89.167 -14.5 117.5s-28.834 42.5 -57.501 42.5s-47.5 -14 -56.5 -42
s-13.5 -67.333 -13.5 -118s4.5 -89.667 13.5 -117s27.833 -41 56.5 -41c29.333 0 48.666 13.833 57.999 41.5zM559.003 7c-20.667 15.333 -36.666 36.666 -47.999 63.999s-17 57.666 -17 90.999s5.83301 63.833 17.5 91.5s27.667 49.334 48 65.001s43.166 23.5 68.499 23.5
s48.5 -7.83301 69.5 -23.5s37.333 -37.334 49 -65.001s17.5 -58.167 17.5 -91.5s-5.83301 -63.666 -17.5 -90.999s-28 -48.666 -49 -63.999s-44.167 -23 -69.5 -23s-48.333 7.66699 -69 23zM686.004 45.5c9.33301 27.667 14.002 66.5 14.002 116.5
s-4.83301 89.167 -14.5 117.5s-28.834 42.5 -57.501 42.5s-47.5 -14 -56.5 -42s-13.5 -67.333 -13.5 -118s4.5 -89.667 13.5 -117s27.833 -41 56.5 -41c29.333 0 48.666 13.833 57.999 41.5z" />
    <glyph glyph-name="ampersand" unicode="&#x26;" horiz-adv-x="786" 
d="M106 23c-34.667 27.333 -51.9961 68.0039 -51.9961 122.004c0 38 14 73.667 42 107s61.333 64.666 100 93.999l30 23l-10 15c-16 24 -28.667 48.833 -38 74.5s-14 49.5 -14 71.5c0 33.333 7.16699 63.166 21.5 89.499s33.166 46.833 56.499 61.5s48.666 22 75.999 22
c38.667 0 67.834 -12.167 87.501 -36.5s29.5 -53.166 29.5 -86.499c0 -37.333 -10.833 -70 -32.5 -98s-52.167 -57.667 -91.5 -89l172 -244l4 5c23.333 28.667 42.666 59.667 57.999 93s23 59.666 23 78.999c0 12 -3.83301 21.667 -11.5 29s-16.834 11 -27.501 11h-45v32
h248v-32h-31c-18 0 -33.833 -3.33301 -47.5 -10s-26.5 -22.334 -38.5 -47.001c-26 -52.667 -46.833 -91.834 -62.5 -117.501s-32.167 -49.167 -49.5 -70.5c23.333 -32.667 43.166 -56.667 59.499 -72s32.5 -23 48.5 -23c24.667 0 44.334 7 59.001 21
s27.334 32.333 38.001 55l16 -8c-14 -30 -31.167 -56.167 -51.5 -78.5s-48.5 -33.5 -84.5 -33.5c-46.667 0 -94 27 -142 81c-27.333 -24 -57.833 -43.5 -91.5 -58.5s-68.834 -22.5 -105.501 -22.5c-60.667 0 -108.334 13.667 -143.001 41zM368.504 495.004
c20.333 24.667 30.501 55.002 30.501 91.002c0 23.333 -7.66699 43.666 -23 60.999s-34.333 26 -57 26c-27.333 0 -49.333 -10.5 -66 -31.5s-25 -48.167 -25 -81.5c0 -21.333 5.66699 -43.333 17 -66s23.333 -42.334 36 -59.001l10 -13c31.333 24 57.166 48.333 77.499 73z
M425.005 87.0059l-18 22.999l-161 231l-10 -8c-25.333 -20 -46 -44.167 -62 -72.5s-24 -64.166 -24 -107.499c0 -31.333 5.83301 -57.5 17.5 -78.5s26 -36.667 43 -47s33.833 -15.5 50.5 -15.5c56 0 110.667 25 164 75z" />
    <glyph glyph-name="quotesingle" unicode="'" horiz-adv-x="240" 
d="M88 666l-2 18c0 15.333 3.16699 26.833 9.5 34.5s14.5 11.5 24.5 11.5s18.167 -3.83301 24.5 -11.5s9.5 -19.167 9.5 -34.5l-2 -18l-20 -146h-24z" />
    <glyph glyph-name="parenleft" unicode="(" horiz-adv-x="370" 
d="M151.5 4.5c-35.667 80.333 -53.5 167.5 -53.5 261.5s17.833 181.167 53.5 261.5s83.167 147.833 142.5 202.5l30 -24c-59.333 -62 -103.5 -129.333 -132.5 -202s-43.5 -152 -43.5 -238s14.5 -165.333 43.5 -238s73.167 -140 132.5 -202l-30 -24
c-59.333 54.667 -106.833 122.167 -142.5 202.5z" />
    <glyph glyph-name="parenright" unicode=")" horiz-adv-x="370" 
d="M48 -174c59.333 62 103.5 129.333 132.5 202s43.5 152 43.5 238s-14.5 165.333 -43.5 238s-73.167 140 -132.5 202l30 24c59.333 -54.667 106.833 -122.167 142.5 -202.5s53.5 -167.5 53.5 -261.5s-17.833 -181.167 -53.5 -261.5s-83.167 -147.833 -142.5 -202.5z" />
    <glyph glyph-name="asterisk" unicode="*" horiz-adv-x="502" 
d="M227 302c-6.66699 8 -10 18.333 -10 31c0 9.33301 4 23.666 12 42.999c9.33301 23.333 14 49 14 77c0 6 -0.5 10 -1.5 12s-3.16699 3 -6.5 3s-8 -2 -14 -6c-23.333 -14.667 -42 -31 -56 -49c-10 -13.333 -19.167 -23.166 -27.5 -29.499s-17.833 -9.5 -28.5 -9.5
c-11.333 0 -20.333 3.83301 -27 11.5s-10 16.167 -10 25.5c0 14.667 6 25.5 18 32.5s28.333 11.833 49 14.5c24.667 3.33301 49.334 12 74.001 26c1.33301 0.666992 3.33301 2 6 4s4 4.33301 4 7s-1.33301 5 -4 7s-4.66699 3.33301 -6 4
c-24.667 14 -49.334 22.667 -74.001 26c-20.667 2.66699 -37 7.5 -49 14.5s-18 17.833 -18 32.5c0 9.33301 3.33301 17.833 10 25.5s15.667 11.5 27 11.5c10.667 0 20.167 -3.16699 28.5 -9.5s17.5 -16.166 27.5 -29.499c14 -18 32.667 -34.333 56 -49c6 -4 10.667 -6 14 -6
s5.5 1 6.5 3s1.5 6 1.5 12c0 28 -4.66699 53.667 -14 77c-8 19.333 -12 33.666 -12 42.999c0 12.667 3.33301 23 10 31s16 12 28 12s21.333 -4 28 -12s10 -18.333 10 -31c0 -9.33301 -4 -23.666 -12 -42.999c-9.33301 -23.333 -14 -49 -14 -77c0 -6 0.5 -10 1.5 -12
s3.16699 -3 6.5 -3s8 2 14 6c23.333 14.667 42 31 56 49c10 13.333 19.333 23.166 28 29.499s18 9.5 28 9.5c11.333 0 20.333 -3.83301 27 -11.5s10 -16.167 10 -25.5c0 -14.667 -6 -25.5 -18 -32.5s-28.333 -11.833 -49 -14.5c-24.667 -3.33301 -49.334 -12 -74.001 -26
c-1.33301 -0.666992 -3.33301 -2 -6 -4s-4 -4.33301 -4 -7s1.33301 -5 4 -7s4.66699 -3.33301 6 -4c24.667 -14 49.334 -22.667 74.001 -26c20.667 -2.66699 37 -7.5 49 -14.5s18 -17.833 18 -32.5c0 -9.33301 -3.33301 -17.833 -10 -25.5s-15.667 -11.5 -27 -11.5
c-10 0 -19.333 3.16699 -28 9.5s-18 16.166 -28 29.499c-14 18 -32.667 34.333 -56 49c-6 4 -10.667 6 -14 6s-5.5 -1 -6.5 -3s-1.5 -6 -1.5 -12c0 -28 4.66699 -53.667 14 -77c8 -19.333 12 -33.666 12 -42.999c0 -12.667 -3.33301 -23 -10 -31s-16 -12 -28 -12
s-21.333 4 -28 12z" />
    <glyph glyph-name="plus" unicode="+" horiz-adv-x="940" 
d="M448 -156v400h-400v40h400v400h44v-400h400v-40h-400v-400h-44z" />
    <glyph glyph-name="comma" unicode="," horiz-adv-x="280" 
d="M90 -152c24.667 18.667 44.834 41.333 60.501 68s23.5 53.334 23.5 80.001c0 7.33301 -1.33301 13.166 -4 17.499s-7.33398 8.5 -14.001 12.5c-4.66699 2.66699 -16 4 -34 4c-14.667 0 -26.667 5.16699 -36 15.5s-14 22.5 -14 36.5c0 18 6 32.167 18 42.5
s25.333 15.5 40 15.5c26 0 46.333 -10.667 61 -32c12.667 -17.333 19 -41 19 -71c0 -41.333 -10.333 -80.5 -31 -117.5s-45.667 -66.167 -75 -87.5z" />
    <glyph glyph-name="hyphen" unicode="-" horiz-adv-x="370" 
d="M60 224v56h250v-56h-250z" />
    <glyph glyph-name="period" unicode="." horiz-adv-x="280" 
d="M95.5 5.5c-11.667 11.667 -17.5 26.5 -17.5 44.5s5.83301 32.833 17.5 44.5s26.5 17.5 44.5 17.5s32.833 -5.83301 44.5 -17.5s17.5 -26.5 17.5 -44.5s-5.83301 -32.833 -17.5 -44.5s-26.5 -17.5 -44.5 -17.5s-32.833 5.83301 -44.5 17.5z" />
    <glyph glyph-name="slash" unicode="/" horiz-adv-x="450" 
d="M56 -198l298 928h40l-298 -928h-40z" />
    <glyph glyph-name="zero" unicode="0" horiz-adv-x="580" 
d="M164 35c-36.667 34 -65.167 78.5 -85.5 133.5s-30.5 112.833 -30.5 173.5s10.167 118.5 30.5 173.5s48.833 99.5 85.5 133.5s78.667 51 126 51c46.667 0 88.5 -17 125.5 -51s65.667 -78.5 86 -133.5s30.5 -112.833 30.5 -173.5s-10.167 -118.5 -30.5 -173.5
s-49 -99.5 -86 -133.5s-78.833 -51 -125.5 -51c-47.333 0 -89.333 17 -126 51zM399.5 110c17.667 62.667 26.5 140 26.5 232s-8.83301 169.333 -26.5 232s-54.167 94 -109.5 94s-91.833 -31.167 -109.5 -93.5s-26.5 -139.833 -26.5 -232.5s8.83301 -170.167 26.5 -232.5
s54.167 -93.5 109.5 -93.5s91.833 31.333 109.5 94z" />
    <glyph glyph-name="one" unicode="1" horiz-adv-x="580" 
d="M120 32l96.001 0.000976562c10 0 17.167 2 21.5 6s6.5 10.667 6.5 20v491h-124v36h55c36 0 65.167 9.66699 87.5 29s36.166 42.666 41.499 69.999h32v-626c0 -9.33301 2.16699 -16 6.5 -20s11.5 -6 21.5 -6h96v-32h-340v32z" />
    <glyph glyph-name="two" unicode="2" horiz-adv-x="580" 
d="M104 109c14 36 45.3369 74.6699 94.0039 116.003l96 82c31.333 26 55.166 54.667 71.499 86s24.5 67.333 24.5 108c0 52 -12.667 92.167 -38 120.5s-61.333 42.5 -108 42.5c-21.333 0 -41.833 -5 -61.5 -15s-35.667 -23.167 -48 -39.5s-18.5 -33.166 -18.5 -50.499
c0 -16 3.66699 -27.833 11 -35.5s17.333 -12.5 30 -14.5c21.333 -3.33301 37.166 -10.5 47.499 -21.5s15.5 -24.167 15.5 -39.5c0 -12.667 -4.5 -23.334 -13.5 -32.001s-21.5 -13 -37.5 -13c-27.333 0 -50 10.833 -68 32.5s-27 50.167 -27 85.5c0 34 8.5 64.667 25.5 92
s40.667 48.666 71 63.999s64.166 23 101.499 23c42.667 0 81 -8 115 -24s60.667 -39 80 -69s29 -65.333 29 -106s-14.333 -77.334 -43 -110.001s-66.334 -65.667 -113.001 -99l-98 -76c-28 -19.333 -49.5 -37.833 -64.5 -55.5s-22.5 -35.834 -22.5 -54.501
c0 -16 10.333 -24 31 -24h189c26.667 0 45.5 5.83301 56.5 17.5s18.5 28.167 22.5 49.5l11 59h22l-14 -208h-390c0 36.667 7 73 21 109z" />
    <glyph glyph-name="three" unicode="3" horiz-adv-x="580" 
d="M124 18.5c-34.667 23 -52.0059 56.5 -52.0059 100.5c0 24 7 44.5 21 61.5s32.333 25.5 55 25.5c19.333 0 34.5 -5.16699 45.5 -15.5s16.5 -24.5 16.5 -42.5c0 -14 -4.16699 -26.167 -12.5 -36.5s-19.166 -15.5 -32.499 -15.5c-23.333 0 -35 -5.66699 -35 -17
c0 -42 42 -63 126 -63c48.667 0 83.834 16.667 105.501 50s32.5 73.333 32.5 120c0 53.333 -11.5 93.333 -34.5 120s-51.167 40 -84.5 40c-10 0 -18.167 -0.666992 -24.5 -2s-14.166 -3.66602 -23.499 -6.99902c-22 -7.33301 -39 -11 -51 -11c-10 0 -18.833 2.33301 -26.5 7
s-11.5 11.667 -11.5 21s3.66699 16.333 11 21s16.333 7 27 7c11.333 0 27 -1.66699 47 -5c13.333 -2 31.666 -3 54.999 -3c32 0 56.5 14.5 73.5 43.5s25.5 62.167 25.5 99.5c0 43.333 -10 79.333 -30 108s-49 43 -87 43c-39.333 0 -67.166 -6.33301 -83.499 -19
s-24.5 -27 -24.5 -43c0 -6 2.33301 -12.167 7 -18.5s11 -11.5 19 -15.5c24 -10 36 -26.333 36 -49c0 -14 -4.66699 -25.5 -14 -34.5s-22.666 -13.5 -39.999 -13.5c-19.333 0 -36.166 8.16699 -50.499 24.5s-21.5 34.5 -21.5 54.5c0 46.667 17.833 82.667 53.5 108
s78.834 38 129.501 38c60.667 0 109.5 -16.167 146.5 -48.5s55.5 -74.833 55.5 -127.5c0 -28 -6.5 -52.833 -19.5 -74.5s-29.333 -39.334 -49 -53.001s-39.5 -22.834 -59.5 -27.501v-8c22 -4 45 -13.5 69 -28.5s44.333 -35.167 61 -60.5s25 -54.333 25 -87
c0 -40.667 -11 -76.167 -33 -106.5s-51.5 -53.666 -88.5 -69.999s-77.833 -24.5 -122.5 -24.5c-53.333 0 -97.333 11.5 -132 34.5z" />
    <glyph glyph-name="four" unicode="4" horiz-adv-x="580" 
d="M186 32h97.002c9.33301 0 16.166 2 20.499 6s6.5 10.667 6.5 20v134h-254v36l310 457h36v-457h121v-36h-121v-134c0 -9.33301 2.16699 -16 6.5 -20s11.166 -6 20.499 -6h97v-32h-340v32zM102.002 228h208v306z" />
    <glyph glyph-name="five" unicode="5" horiz-adv-x="580" 
d="M171 3.5c-27.333 13 -48.334 30.6699 -63.001 53.0029s-22 47.166 -22 74.499c0 31.333 8 55.333 24 72s34.667 25 56 25c18 0 32.167 -5.5 42.5 -16.5s15.5 -24.833 15.5 -41.5c0 -11.333 -3.33301 -21.833 -10 -31.5s-15.334 -16.834 -26.001 -21.501
c-9.33301 -4.66699 -16.666 -9.33398 -21.999 -14.001s-8 -11 -8 -19c0 -21.333 8.33301 -38 25 -50s45 -18 85 -18c49.333 0 85 21.333 107 64s33 96.667 33 162c0 61.333 -10.667 108.333 -32 141s-56 49 -104 49c-19.333 0 -36 -2.83301 -50 -8.5
s-28.333 -15.834 -43 -30.501c-6.66699 -6.66699 -12.167 -15.5 -16.5 -26.5s-6.5 -20.5 -6.5 -28.5c0 -7.33301 -1.83301 -13.333 -5.5 -18s-8.5 -7 -14.5 -7c-10.667 0 -16 8.33301 -16 25v345l22 17c14 -12 34.5 -22 61.5 -30s52.167 -12 75.5 -12c32 0 61 3 87 9
s52.667 17 80 33l12 -14c-24 -31.333 -53.5 -56.5 -88.5 -75.5s-72.167 -28.5 -111.5 -28.5c-24.667 0 -44.334 1.5 -59.001 4.5s-29 8.16699 -43 15.5v-191l6 -2c16 18.667 35.5 33.167 58.5 43.5s46.833 15.5 71.5 15.5c70 0 124.5 -20.667 163.5 -62s58.5 -96 58.5 -164
c0 -48.667 -11.167 -92.667 -33.5 -132s-52.166 -70.166 -89.499 -92.499s-78.333 -33.5 -123 -33.5c-37.333 0 -69.666 6.5 -96.999 19.5z" />
    <glyph glyph-name="six" unicode="6" horiz-adv-x="580" 
d="M183.5 24c-33 26.667 -58.499 64.8311 -76.499 114.498s-27 108.167 -27 175.5c0 54.667 7 108.334 21 161.001s34.333 96.334 61 131.001c48.667 62.667 105.667 94 171 94c47.333 0 85.666 -16 114.999 -48c10 -12 17.167 -25.333 21.5 -40s6.5 -27.667 6.5 -39
c0 -23.333 -8.33301 -42.333 -25 -57c-11.333 -10 -25 -15 -41 -15c-15.333 0 -27.333 6 -36 18c-3.33301 4.66699 -5.5 9 -6.5 13s-1.5 9.33301 -1.5 16c0 10 4.33301 20 13 30c6 6.66699 12.333 12.334 19 17.001c6 4 10.167 8.16699 12.5 12.5s3.5 9.5 3.5 15.5
c0 12 -6.83301 22.5 -20.5 31.5s-34.5 13.5 -62.5 13.5c-24 0 -46.833 -7 -68.5 -21s-39.834 -37.333 -54.501 -70c-11.333 -24.667 -20 -55.667 -26 -93s-9 -68.666 -9 -93.999v-45l7 -3c12 25.333 30.5 46.166 55.5 62.499s49.167 24.5 72.5 24.5
c44.667 0 82.334 -11 113.001 -33c26 -18.667 46 -43.834 60 -75.501s21 -65.5 21 -101.5s-8 -72.167 -24 -108.5s-39.5 -66.5 -70.5 -90.5s-67.5 -36 -109.5 -36c-43.333 0 -81.5 13.333 -114.5 40zM386.501 73.9971c18.333 38.667 27.5 82.667 27.5 132
c0 53.333 -8 97.666 -24 132.999s-42.667 53 -80 53c-23.333 0 -44.333 -7.66699 -63 -23s-33.5 -37.166 -44.5 -65.499s-16.5 -60.833 -16.5 -97.5c0 -55.333 8.66699 -100.833 26 -136.5s46 -53.5 86 -53.5c40.667 0 70.167 19.333 88.5 58z" />
    <glyph glyph-name="seven" unicode="7" horiz-adv-x="580" 
d="M225.5 10c-14.333 17.333 -21.502 40.668 -21.502 70.001c0 40 9.83301 81.167 29.5 123.5s44.834 85.5 75.501 129.5l80 115c14.667 20.667 26.834 42.834 36.501 66.501s14.5 44.167 14.5 61.5c0 10 -2.5 16.833 -7.5 20.5s-12.833 5.5 -23.5 5.5h-207
c-26.667 0 -45.5 -5.83301 -56.5 -17.5s-18.5 -28.167 -22.5 -49.5l-11 -59h-22l14 208h384c0 -34.667 -5.16699 -74.334 -15.5 -119.001s-27.833 -85.334 -52.5 -122.001l-57 -86c-27.333 -40 -41 -83.333 -41 -130c0 -28.667 2 -53.667 6 -75l6 -35
c5.33301 -26.667 8 -50 8 -70c0 -42 -19.667 -63 -59 -63c-24 0 -43.167 8.66699 -57.5 26z" />
    <glyph glyph-name="eight" unicode="8" horiz-adv-x="580" 
d="M171.5 7c-33.667 15.333 -60.667 37.3271 -81 65.9941s-30.5 62.334 -30.5 101.001c0 48.667 13.667 86.667 41 114s56.333 45.333 87 54v4l-11 5c-35.333 14.667 -62.333 36.334 -81 65.001s-28 62 -28 100c0 34.667 10.667 66.167 32 94.5s49 50.333 83 66
s69.333 23.5 106 23.5c45.333 0 83.833 -8.16699 115.5 -24.5s55.5 -37.666 71.5 -63.999s24 -54.166 24 -83.499c0 -36 -11.5 -67.167 -34.5 -93.5s-49.833 -46.5 -80.5 -60.5v-4l23 -9c78.667 -32 118 -82.333 118 -151c0 -41.333 -9.5 -79.166 -28.5 -113.499
s-47 -61.666 -84 -81.999s-81.167 -30.5 -132.5 -30.5c-39.333 0 -75.833 7.66699 -109.5 23zM418 439.994c12 23.333 17.998 50.668 17.998 82.001c0 27.333 -6.66699 52.166 -20 74.499s-31.166 39.833 -53.499 52.5s-46.833 19 -73.5 19
c-41.333 0 -76.166 -11.667 -104.499 -35s-42.5 -54.333 -42.5 -93c0 -28 6.83301 -50.333 20.5 -67s35.167 -31 64.5 -43l129 -49c29.333 16 50 35.667 62 59zM381.998 38.9961c23.333 15.333 40.166 33.832 50.499 55.499s15.5 42.167 15.5 61.5
c0 37.333 -8.16699 65 -24.5 83s-40.166 33.333 -71.499 46l-135 49c-27.333 -11.333 -48.666 -29.333 -63.999 -54s-23 -60.667 -23 -108c0 -53.333 16.167 -92.666 48.5 -117.999s70.166 -38 113.499 -38c36.667 0 66.667 7.66699 90 23z" />
    <glyph glyph-name="nine" unicode="9" horiz-adv-x="580" 
d="M132 32c-10 12 -17.168 25.333 -21.501 40s-6.5 27.667 -6.5 39c0 23.333 8.33301 42.333 25 57c12 10 25.667 15 41 15s27.333 -6 36 -18c3.33301 -4.66699 5.5 -9 6.5 -13s1.5 -9.33301 1.5 -16c0 -10 -4.33301 -20 -13 -30c-6 -6.66699 -12.333 -12.334 -19 -17.001
c-6 -4 -10.167 -8.16699 -12.5 -12.5s-3.5 -9.5 -3.5 -15.5c0 -12 6.83301 -22.5 20.5 -31.5s34.5 -13.5 62.5 -13.5c24 0 46.833 7 68.5 21s39.834 37.333 54.501 70c11.333 24.667 20 55.834 26 93.501s9 68.834 9 93.501v45l-7 3
c-12 -25.333 -30.5 -46.166 -55.5 -62.499s-49.167 -24.5 -72.5 -24.5c-44.667 0 -82.334 11 -113.001 33c-26 18.667 -46 43.834 -60 75.501s-21 65.5 -21 101.5s8 72.167 24 108.5s39.5 66.5 70.5 90.5s67.5 36 109.5 36c43.333 0 81.5 -13.333 114.5 -40
s58.5 -64.834 76.5 -114.501s27 -108.167 27 -175.5c0 -54.667 -7 -108.334 -21 -161.001s-34.333 -96.334 -61 -131.001c-48.667 -62.667 -105.667 -94 -171 -94c-47.333 0 -85.666 16 -114.999 48zM332.999 315c18.667 15.333 33.5 37.166 44.5 65.499
s16.5 60.833 16.5 97.5c0 55.333 -8.66699 100.833 -26 136.5s-46 53.5 -86 53.5c-40.667 0 -70.167 -19.333 -88.5 -58s-27.5 -82.667 -27.5 -132c0 -53.333 8 -97.666 24 -132.999s42.667 -53 80 -53c23.333 0 44.333 7.66699 63 23z" />
    <glyph glyph-name="colon" unicode=":" horiz-adv-x="280" 
d="M95.5 361.5c-11.667 11.667 -17.5 26.5 -17.5 44.5s5.83301 32.833 17.5 44.5s26.5 17.5 44.5 17.5s32.833 -5.83301 44.5 -17.5s17.5 -26.5 17.5 -44.5s-5.83301 -32.833 -17.5 -44.5s-26.5 -17.5 -44.5 -17.5s-32.833 5.83301 -44.5 17.5zM95.5 5.5
c-11.667 11.667 -17.5 26.5 -17.5 44.5s5.83301 32.833 17.5 44.5s26.5 17.5 44.5 17.5s32.833 -5.83301 44.5 -17.5s17.5 -26.5 17.5 -44.5s-5.83301 -32.833 -17.5 -44.5s-26.5 -17.5 -44.5 -17.5s-32.833 5.83301 -44.5 17.5z" />
    <glyph glyph-name="semicolon" unicode=";" horiz-adv-x="280" 
d="M95.5 361.5c-11.667 11.667 -17.5 26.5 -17.5 44.5s5.83301 32.833 17.5 44.5s26.5 17.5 44.5 17.5s32.833 -5.83301 44.5 -17.5s17.5 -26.5 17.5 -44.5s-5.83301 -32.833 -17.5 -44.5s-26.5 -17.5 -44.5 -17.5s-32.833 5.83301 -44.5 17.5zM90 -152
c24.667 18.667 44.834 41.333 60.501 68s23.5 53.334 23.5 80.001c0 7.33301 -1.33301 13.166 -4 17.499s-7.33398 8.5 -14.001 12.5c-4.66699 2.66699 -16 4 -34 4c-14.667 0 -26.667 5.16699 -36 15.5s-14 22.5 -14 36.5c0 18 6 32.167 18 42.5s25.333 15.5 40 15.5
c26 0 46.333 -10.667 61 -32c12.667 -17.333 19 -41 19 -71c0 -41.333 -10.333 -80.5 -31 -117.5s-45.667 -66.167 -75 -87.5z" />
    <glyph glyph-name="less" unicode="&#x3c;" horiz-adv-x="940" 
d="M840 -156l-756 406v28l756 406l20 -36l-714 -384l714 -384z" />
    <glyph glyph-name="equal" unicode="=" horiz-adv-x="940" 
d="M48 338v40h844v-40h-844zM48 148v40h844v-40h-844z" />
    <glyph glyph-name="greater" unicode="&#x3e;" horiz-adv-x="940" 
d="M100 -156l-20 36l714 384l-714 384l20 36l756 -406v-28z" />
    <glyph glyph-name="question" unicode="?" horiz-adv-x="470" 
d="M183.5 175c-17 14 -25.4971 34.001 -25.4971 60.001c0 20 3.83301 37 11.5 51s19.834 30 36.501 48l76 82c19.333 21.333 33.833 41.333 43.5 60s14.5 40.667 14.5 66c0 35.333 -9.66699 64.5 -29 87.5s-48 34.5 -86 34.5c-20 0 -39 -3.66699 -57 -11
s-32.5 -17 -43.5 -29s-16.5 -24.667 -16.5 -38c0 -15.333 2 -25 6 -29c3.33301 -2.66699 6.66602 -4 9.99902 -4c4.66699 0 8 0.333008 10 1c4.66699 1.33301 10.667 2 18 2c11.333 0 20.166 -3.83301 26.499 -11.5s9.5 -17.167 9.5 -28.5c0 -14 -4.66699 -25.5 -14 -34.5
s-23 -13.5 -41 -13.5c-18.667 0 -34.834 7.83301 -48.501 23.5s-20.5 36.834 -20.5 63.501c0 26 8.33301 49.667 25 71s38 38 64 50s52.333 18 79 18c34.667 0 67 -5.83301 97 -17.5s54 -29 72 -52s27 -50.5 27 -82.5c0 -27.333 -7 -52.333 -21 -75
s-30.833 -42.334 -50.5 -59.001s-44.834 -35.667 -75.501 -57c-59.333 -40.667 -89 -80.334 -89 -119.001c0 -16.667 5.16699 -28.834 15.5 -36.501s23.833 -11.5 40.5 -11.5c17.333 0 31.666 6 42.999 18s17 28 17 48c0 10.667 -1.66699 19.334 -5 26.001l18 8
c7.33301 -12 11 -23.667 11 -35c0 -18 -4.16699 -34.333 -12.5 -49s-19.166 -26 -32.499 -34s-26.333 -12 -39 -12c-26 0 -47.5 7 -64.5 21zM203.503 5.50098c-11.667 11.667 -17.5 26.5 -17.5 44.5s5.83301 32.833 17.5 44.5s26.5 17.5 44.5 17.5
s32.833 -5.83301 44.5 -17.5s17.5 -26.5 17.5 -44.5s-5.83301 -32.833 -17.5 -44.5s-26.5 -17.5 -44.5 -17.5s-32.833 5.83301 -44.5 17.5z" />
    <glyph glyph-name="at" unicode="@" horiz-adv-x="820" 
d="M216.5 29c-54.333 31.333 -96.0078 75.1699 -125.008 131.503s-43.5 121.166 -43.5 194.499c0 68 16.5 130.667 49.5 188s78 102.833 135 136.5s119.5 50.5 187.5 50.5c72.667 0 135 -15.5 187 -46.5s91.5 -73.333 118.5 -127s40.5 -113.5 40.5 -179.5
c0 -36 -8.5 -73 -25.5 -111s-42.667 -70 -77 -96s-76.166 -39 -125.499 -39c-25.333 0 -46.833 6.66699 -64.5 20s-27.834 31.666 -30.501 54.999l-5 1c-11.333 -17.333 -27.666 -34.333 -48.999 -51s-45 -25 -71 -25c-30 0 -56.167 10.667 -78.5 32s-33.5 52 -33.5 92
c0 42 5.66699 83.667 17 125s28 75 50 101c28 34 57.333 58.833 88 74.5s60 23.5 88 23.5c17.333 0 32.833 -6.33301 46.5 -19s21.834 -24.667 24.501 -36h5l11 43h72l-84 -310c-4 -16 -6 -30.333 -6 -43c0 -18 3.66699 -32.333 11 -43s15.666 -16 24.999 -16
c40.667 0 73.334 12.667 98.001 38s41.834 56.333 51.501 93s14.5 73.667 14.5 111c0 63.333 -12.667 118 -38 164s-61.166 81 -107.499 105s-100.166 36 -161.499 36c-57.333 0 -110.166 -16 -158.499 -48s-86.5 -76 -114.5 -132s-42 -118.333 -42 -187
c0 -66.667 12.833 -124.334 38.5 -173.001s62.834 -86.167 111.501 -112.5s106.667 -39.5 174 -39.5c58.667 0 117.334 19.333 176.001 58l16 -23c-22 -16 -49.833 -30.5 -83.5 -43.5s-73.167 -19.5 -118.5 -19.5c-74.667 0 -139.167 15.667 -193.5 47zM413.492 208.004
c27 35.333 47.167 77.666 60.5 126.999l23 85c3.33301 12 5 24.333 5 37c0 25.333 -4.83301 48 -14.5 68s-22.5 30 -38.5 30c-26.667 0 -50.5 -9.16699 -71.5 -27.5s-41.5 -49.166 -61.5 -92.499c-12 -26 -22 -58.833 -30 -98.5s-12 -77.5 -12 -113.5
c0 -20.667 5 -37.167 15 -49.5s21 -18.5 33 -18.5c34 0 64.5 17.667 91.5 53z" />
    <glyph glyph-name="A" unicode="A" horiz-adv-x="764" 
d="M46 32h37c39.333 0 68 24.333 86 73l215 607h25l217 -636c6.66699 -16.667 14.667 -28.167 24 -34.5s21.333 -9.5 36 -9.5h56v-32h-310v32h66c10 0 18.333 2.5 25 7.5s10 10.833 10 17.5c0 8.66699 -1.33301 16 -4 22l-47 133h-234l-24 -67
c-9.33301 -26.667 -14 -46 -14 -58c0 -14.667 3.66699 -27.5 11 -38.5s20 -16.5 38 -16.5h61v-32h-274v32zM259 244h212l-104 305z" />
    <glyph glyph-name="B" unicode="B" horiz-adv-x="690" 
d="M62 32l72.002 0.00195312c18 0 27 9 27 27v594c0 9.33301 -2.16699 16.166 -6.5 20.499s-11.166 6.5 -20.499 6.5h-72v32h326c39.333 0 76.166 -7.33301 110.499 -22s61.833 -34.834 82.5 -60.501s31 -54.834 31 -87.501c0 -45.333 -15.333 -82.666 -46 -111.999
s-66.334 -48.333 -107.001 -57v-4c27.333 -2 54.5 -10.5 81.5 -25.5s49.333 -35.5 67 -61.5s26.5 -55.333 26.5 -88c0 -40.667 -10.667 -75.667 -32 -105s-49.833 -51.5 -85.5 -66.5s-74.834 -22.5 -117.501 -22.5h-337v32zM384.002 388.002
c54 0 90.8311 13.832 110.498 41.499s29.5 65.167 29.5 112.5c0 40 -12.667 73 -38 99s-56.666 39 -93.999 39h-112c-9.33301 0 -16.166 -2.16699 -20.499 -6.5s-6.5 -11.166 -6.5 -20.499v-265h131zM388 32.001c40.667 0 74.167 12.1689 100.5 36.502
s39.5 66.166 39.5 125.499s-13.167 101.166 -39.5 125.499s-59.833 36.5 -100.5 36.5h-135v-297c0 -18 9 -27 27 -27h108z" />
    <glyph glyph-name="C" unicode="C" horiz-adv-x="670" 
d="M206 36c-44.667 36 -78.502 83.167 -101.502 141.5s-34.5 119.833 -34.5 184.5c0 67.333 11.333 129 34 185s55 100.5 97 133.5s91 49.5 147 49.5c29.333 0 57 -6.66699 83 -20s47.333 -27.666 64 -42.999c16 -14.667 26.667 -22 32 -22s9.16602 1.66699 11.499 5
s4.83301 8.66602 7.5 15.999l19 56h25l4 -310h-28c-14.667 63.333 -33.667 116.5 -57 159.5s-48.833 74.833 -76.5 95.5s-55.167 31 -82.5 31c-63.333 0 -108.166 -28.667 -134.499 -86s-39.5 -140.666 -39.5 -249.999c0 -112.667 13.667 -198.834 41 -258.501
s77 -89.5 149 -89.5c64 0 112.833 23.833 146.5 71.5s52.834 105.5 57.501 173.5h36c-2 -39.333 -10.167 -80 -24.5 -122s-39.166 -78.333 -74.499 -109s-82.333 -46 -141 -46c-62 0 -115.333 18 -160 54z" />
    <glyph glyph-name="D" unicode="D" horiz-adv-x="780" 
d="M62 32h71.999c18 0 27 9 27 27v594c0 9.33301 -2.16699 16.166 -6.5 20.499s-11.166 6.5 -20.499 6.5h-72v32h366c55.333 0 106 -14.833 152 -44.5s82.5 -71 109.5 -124s40.5 -113.5 40.5 -181.5s-13.5 -129.667 -40.5 -185s-63.667 -98.666 -110 -129.999
s-96.833 -47 -151.5 -47h-366v32zM423.999 32c46.667 0 84.999 15.832 114.999 47.499s51.667 72.334 65 122.001s20 103.167 20 160.5c0 89.333 -16.167 164.666 -48.5 225.999s-82.833 92 -151.5 92h-144c-9.33301 0 -16.166 -2.16699 -20.499 -6.5
s-6.5 -11.166 -6.5 -20.499v-594c0 -18 9 -27 27 -27h144z" />
    <glyph glyph-name="E" unicode="E" horiz-adv-x="690" 
d="M62 32h71.999c18 0 27 9 27 27v594c0 9.33301 -2.16699 16.166 -6.5 20.499s-11.166 6.5 -20.499 6.5h-72v32h558l4 -250h-25c0 13.333 -2.83301 36 -8.5 68s-16.834 60.667 -33.501 86c-28 42.667 -67.333 64 -118 64h-159c-9.33301 0 -16.166 -2.16699 -20.499 -6.5
s-6.5 -11.166 -6.5 -20.499v-269h77c34 0 58.5 17.333 73.5 52s22.5 71.667 22.5 111h26v-358h-26c0 39.333 -7.5 76.333 -22.5 111s-39.5 52 -73.5 52h-77v-293c0 -18 9 -27 27 -27h160c19.333 0 39 4.33301 59 13s37 22 51 40c13.333 18.667 24.333 42 33 70
s14.667 53.5 18 76.5s5.33301 37.833 6 44.5h25l-12 -276h-558v32z" />
    <glyph glyph-name="F" unicode="F" horiz-adv-x="676" 
d="M62 32h72c18 0 27 9 27 27v594c0 9.33301 -2.16699 16.166 -6.5 20.499s-11.166 6.5 -20.499 6.5h-72v32h558l4 -250h-25c0 13.333 -2.83301 36 -8.5 68s-16.834 60.667 -33.501 86c-28 42.667 -67.333 64 -118 64h-159c-9.33301 0 -16.166 -2.16699 -20.499 -6.5
s-6.5 -11.166 -6.5 -20.499v-269h77c34 0 58.5 18.167 73.5 54.5s22.5 74.5 22.5 114.5h26v-370h-26c0 40 -7.5 78.167 -22.5 114.5s-39.5 54.5 -73.5 54.5h-77v-287c0 -10 2.16699 -18 6.5 -24s11.166 -9 20.499 -9h88v-32h-306v32z" />
    <glyph glyph-name="G" unicode="G" horiz-adv-x="720" 
d="M200.5 32.5c-42.333 33.667 -74.6719 79.3311 -97.0049 136.998s-33.5 121.834 -33.5 192.501c0 67.333 11.333 129 34 185s55 100.5 97 133.5s91 49.5 147 49.5c29.333 0 57 -6.66699 83 -20s47.333 -27.666 64 -42.999c16 -14.667 26.667 -22 32 -22
s9.16602 1.66699 11.499 5s4.83301 8.66602 7.5 15.999l19 56h25l4 -310h-28c-14.667 63.333 -33.667 116.5 -57 159.5s-48.833 74.833 -76.5 95.5s-55.167 31 -82.5 31c-46 0 -81.667 -13.833 -107 -41.5s-42.833 -66.167 -52.5 -115.5s-14.5 -111 -14.5 -185
s4.83301 -135.667 14.5 -185s27.167 -87.833 52.5 -115.5s61 -41.5 107 -41.5c24.667 0 48.334 8.83301 71.001 26.5s41.167 40.167 55.5 67.5s21.5 54.333 21.5 81v90c0 9.33301 -2.16699 16.166 -6.5 20.499s-11.166 6.5 -20.499 6.5h-111v32h330v-32h-73
c-9.33301 0 -16.166 -2.16699 -20.499 -6.5s-6.5 -11.166 -6.5 -20.499v-292h-32v91c0 11.333 -1.33301 19.833 -4 25.5s-7 8.5 -13 8.5c-7.33301 0 -13.666 -2.66699 -18.999 -8s-10.666 -12.666 -15.999 -21.999c-15.333 -24.667 -37 -47.5 -65 -68.5
s-58.333 -31.5 -91 -31.5c-57.333 0 -107.166 16.833 -149.499 50.5z" />
    <glyph glyph-name="H" unicode="H" horiz-adv-x="788" 
d="M62 32h72c18 0 27 9 27 27v594c0 18 -9 27 -27 27h-72v32h290v-32h-72c-18 0 -27 -9 -27 -27v-263h302v263c0 18 -9 27 -27 27h-72v32h290v-32h-72c-18 0 -27 -9 -27 -27v-594c0 -18 9 -27 27 -27h72v-32h-290v32h72c18 0 27 9 27 27v299h-302v-299c0 -18 9 -27 27 -27
h72v-32h-290v32z" />
    <glyph glyph-name="I" unicode="I" horiz-adv-x="394" 
d="M62 32h71.998c18 0 27 9 27 27v594c0 9.33301 -2.16699 16.166 -6.5 20.499s-11.166 6.5 -20.499 6.5h-72v32h290v-32h-72c-9.33301 0 -16.166 -2.16699 -20.499 -6.5s-6.5 -11.166 -6.5 -20.499v-594c0 -18 9 -27 27 -27h72v-32h-290v32z" />
    <glyph glyph-name="J" unicode="J" horiz-adv-x="540" 
d="M92 20c-32 25.333 -47.999 60.334 -47.999 105.001c0 20 4.33301 37 13 51s19.5 24.5 32.5 31.5s25.5 10.5 37.5 10.5c19.333 0 33.666 -4.83301 42.999 -14.5s14 -21.5 14 -35.5s-3.83301 -24.833 -11.5 -32.5s-19.834 -14.167 -36.501 -19.5
c-11.333 -3.33301 -19.5 -7.33301 -24.5 -12s-7.5 -12 -7.5 -22c0 -20.667 10.667 -37.167 32 -49.5s47.333 -18.5 78 -18.5c32.667 0 58 12.667 76 38s27 55.666 27 90.999v510c0 9.33301 -2.16699 16.166 -6.5 20.499s-11.166 6.5 -20.499 6.5h-72v32h290v-32h-72
c-9.33301 0 -16.166 -2.16699 -20.499 -6.5s-6.5 -11.166 -6.5 -20.499v-459c0 -44 -9 -82 -27 -114s-41.833 -56.333 -71.5 -73s-61.834 -25 -96.501 -25c-49.333 0 -90 12.667 -122 38z" />
    <glyph glyph-name="K" unicode="K" horiz-adv-x="756" 
d="M62 32l71.999 0.00195312c18 0 27 9 27 27v594c0 9.33301 -2.16699 16.166 -6.5 20.499s-11.166 6.5 -20.499 6.5h-72v32h285v-32h-67c-9.33301 0 -16.166 -2.16699 -20.499 -6.5s-6.5 -11.166 -6.5 -20.499v-310l230 235c8.66699 9.33301 15 18.666 19 27.999s6 20 6 32
s-4.33301 22 -13 30s-19.334 12 -32.001 12h-27v32h264v-32h-40c-22 0 -52 -19.667 -90 -59l-168 -170l204 -375c8.66699 -16.667 18.334 -28.167 29.001 -34.5s26 -9.5 46 -9.5h33v-32h-302v32h67c7.33301 0 13.666 2.16699 18.999 6.5s8 9.16602 8 14.499
c0 4 -0.666992 8.5 -2 13.5s-3 8.83301 -5 11.5l-163 306l-83 -84v-241c0 -18 9 -27 27 -27h67v-32h-285v32z" />
    <glyph glyph-name="L" unicode="L" horiz-adv-x="670" 
d="M62 32l71.998 -0.000976562c18 0 27 9 27 27v594c0 9.33301 -2.16699 16.166 -6.5 20.499s-11.166 6.5 -20.499 6.5h-72v32h306v-32h-88c-9.33301 0 -16.166 -2.16699 -20.499 -6.5s-6.5 -11.166 -6.5 -20.499v-594c0 -18 9 -27 27 -27h101c35.333 0 67 8 95 24
s49 39.333 63 70c10.667 22.667 19.5 46.834 26.5 72.501s12.167 47.5 15.5 65.5s5.33301 29.333 6 34h25l-9 -298h-541v32z" />
    <glyph glyph-name="M" unicode="M" horiz-adv-x="838" 
d="M207 622h-6.00391v-510c0 -24.667 5.83301 -44.167 17.5 -58.5s26.834 -21.5 45.501 -21.5h36v-32h-238v32h36c18.667 0 33.834 7.16699 45.501 21.5s17.5 33.833 17.5 58.5v541c0 9.33301 -2.16699 16.166 -6.5 20.499s-11.166 6.5 -20.499 6.5h-72v32h212l163 -551
l152 551h207v-32h-72c-9.33301 0 -16.166 -2.16699 -20.499 -6.5s-6.5 -11.166 -6.5 -20.499v-594c0 -18 9 -27 27 -27h72v-32h-290v32h72c18 0 27 9 27 27v590l-183 -661h-24z" />
    <glyph glyph-name="N" unicode="N" horiz-adv-x="770" 
d="M205 603l-4 0.000976562v-491c0 -24.667 5.83301 -44.167 17.5 -58.5s26.834 -21.5 45.501 -21.5h36v-32h-238v32h36c19.333 0 34.666 7.16699 45.999 21.5s17 33.833 17 58.5v541c-0.666992 9.33301 -3 16.166 -7 20.499s-10.667 6.5 -20 6.5h-72v32h189l347 -558v446
c0 24.667 -5.66699 44.167 -17 58.5s-26.333 21.5 -45 21.5h-36v32h238v-32h-36c-18.667 0 -34 -7.16699 -46 -21.5s-18 -33.833 -18 -58.5v-618h-40z" />
    <glyph glyph-name="O" unicode="O" horiz-adv-x="700" 
d="M210 35c-44 35.333 -78.333 81.833 -103 139.5s-37 118.167 -37 181.5s12.333 123.833 37 181.5s59 104.167 103 139.5s94 53 150 53s106 -17.667 150 -53s78.333 -81.833 103 -139.5s37 -118.167 37 -181.5s-12.333 -123.833 -37 -181.5s-59 -104.167 -103 -139.5
s-94 -53 -150 -53s-106 17.667 -150 53zM501 103.5c28.667 59.667 43 143.834 43 252.501c0 109.333 -14.333 193.666 -43 252.999s-75.667 89 -141 89s-112.333 -29.667 -141 -89s-43 -143.666 -43 -252.999c0 -108.667 14.333 -192.834 43 -252.501
s75.667 -89.5 141 -89.5s112.333 29.833 141 89.5z" />
    <glyph glyph-name="P" unicode="P" horiz-adv-x="680" 
d="M62 32l71.999 0.000976562c18 0 27 9 27 27v594c0 9.33301 -2.16699 16.166 -6.5 20.499s-11.166 6.5 -20.499 6.5h-72v32h334c46.667 0 88.167 -7.83301 124.5 -23.5s64.666 -37.667 84.999 -66s30.5 -60.5 30.5 -96.5c0 -36.667 -10.167 -69.334 -30.5 -98.001
s-48.666 -51.167 -84.999 -67.5s-77.833 -24.5 -124.5 -24.5h-143v-277c0 -9.33301 2 -16.166 6 -20.499s11 -6.5 21 -6.5h88v-32h-306v32zM408.999 368.001c36 0 65.166 15.499 87.499 46.499s33.5 68.167 33.5 111.5s-11 79.833 -33 109.5s-51.333 44.5 -88 44.5h-129
c-9.33301 0 -16.166 -2.16699 -20.499 -6.5s-6.5 -11.166 -6.5 -20.499v-285h156z" />
    <glyph glyph-name="Q" unicode="Q" horiz-adv-x="700" 
d="M451 -123c-16 30 -25.6689 68.333 -29.002 115c-24 -6.66699 -44.667 -10 -62 -10c-56 0 -106.167 18 -150.5 54s-78.666 83 -102.999 141s-36.5 119 -36.5 183c0 63.333 12.333 123.5 37 180.5s59 102.833 103 137.5s94 52 150 52s106 -17.333 150 -52
s78.333 -80.5 103 -137.5s37 -117.167 37 -180.5c0 -72.667 -14.167 -139.667 -42.5 -201s-69.166 -108 -122.499 -140c7.33301 -34.667 17.5 -62.5 30.5 -83.5s30.167 -31.5 51.5 -31.5c25.333 0 42.333 13.5 51 40.5s13 62.167 13 105.5h19
c0 -67.333 -7.83301 -120.5 -23.5 -159.5s-46.167 -58.5 -91.5 -58.5c-40 0 -68 15 -84 45zM264.998 47c-3.33301 8 -5.00098 17.334 -5.00098 28.001c0 28 9.33301 51 28 69s41.667 27 69 27c31.333 0 56.333 -10 75 -30s32.334 -46 41.001 -78
c25.333 26 43.5 63.667 54.5 113s16.5 110.666 16.5 183.999c0 108.667 -14.167 192.167 -42.5 250.5s-75.5 87.5 -141.5 87.5s-113.167 -29.167 -141.5 -87.5s-42.5 -141.833 -42.5 -250.5c0 -68.667 6 -130.667 18 -186s35.333 -98 70 -128zM418.997 25.001
c-2 34 -7.33398 61.5 -16.001 82.5s-25 31.5 -49 31.5c-17.333 0 -31.666 -5.83301 -42.999 -17.5s-17 -27.5 -17 -47.5c0 -40 22 -60 66 -60c21.333 0 41 3.66699 59 11z" />
    <glyph glyph-name="R" unicode="R" horiz-adv-x="716" 
d="M524.5 -1c-15 7.33301 -26.8359 19.333 -35.5029 36c-18 34.667 -27.667 93.667 -29 177c-0.666992 44.667 -8.66699 81.834 -24 111.501s-40 44.5 -74 44.5h-109v-309c0 -9.33301 2 -16.166 6 -20.499s11 -6.5 21 -6.5h89v-32h-307v32h72c18 0 27 9 27 27v594
c0 9.33301 -2.16699 16.166 -6.5 20.499s-11.166 6.5 -20.499 6.5h-72v32h328c64.667 0 117.667 -12.333 159 -37s62 -65.667 62 -123c0 -49.333 -18.5 -89 -55.5 -119s-81.5 -47.667 -133.5 -53v-4c38 -7.33301 69.167 -24.833 93.5 -52.5s40.5 -74.834 48.5 -141.501
c4.66699 -38 8.83398 -65.667 12.501 -83s8.33398 -29.5 14.001 -36.5s14.167 -10.5 25.5 -10.5c28.667 0 43 36 43 108h25c0 -43.333 -6.33301 -82.833 -19 -118.5s-41 -53.5 -85 -53.5c-22 0 -40.5 3.66699 -55.5 11zM349.997 400c56 0 95.832 13.499 119.499 40.499
s35.5 64.167 35.5 111.5c0 40.667 -10.833 72.167 -32.5 94.5s-51.167 33.5 -88.5 33.5h-104c-9.33301 0 -16.166 -2.16699 -20.499 -6.5s-6.5 -11.166 -6.5 -20.499v-253h97z" />
    <glyph glyph-name="S" unicode="S" horiz-adv-x="620" 
d="M268.5 0.5c-27 12.333 -50.499 25.8301 -70.499 40.4971c-28 21.333 -44.667 32 -50 32c-13.333 0 -22 -14.333 -26 -43l-4 -40h-23l-7 316h24c4 -49.333 17.833 -96.5 41.5 -141.5s53.167 -81.333 88.5 -109s71.666 -41.5 108.999 -41.5c54.667 0 94.5 13.333 119.5 40
s37.5 58.667 37.5 96c0 32.667 -9.5 58.334 -28.5 77.001s-46.833 35.334 -83.5 50.001l-152 61c-52.667 21.333 -91.5 48.833 -116.5 82.5s-37.5 74.167 -37.5 121.5c0 64 18.667 111.333 56 142s84 46 140 46c44 0 92.667 -20 146 -60
c6.66699 -4.66699 13.334 -8.83398 20.001 -12.501s12.667 -5.5 18 -5.5c11.333 0 18 8 20 24l4 36h24l10 -260h-24c-10.667 48 -27.5 90.667 -50.5 128s-49.833 66.333 -80.5 87s-62.334 31 -95.001 31c-37.333 0 -68 -12.167 -92 -36.5s-36 -58.166 -36 -101.499
c0 -30 7.66699 -53.333 23 -70s38 -31 68 -43l193 -77c44.667 -18 78.167 -43.667 100.5 -77s33.5 -68.333 33.5 -105c0 -35.333 -7.83301 -68.666 -23.5 -99.999s-39.667 -56.833 -72 -76.5s-72.833 -29.5 -121.5 -29.5c-28 0 -55.5 6.16699 -82.5 18.5z" />
    <glyph glyph-name="T" unicode="T" horiz-adv-x="714" 
d="M198 32h96c18 0 27 9 27 27v597c0 9.33301 -2 16.166 -6 20.499s-11 6.5 -21 6.5h-36c-42 0 -78.333 -21.333 -109 -64c-19.333 -27.333 -32.333 -61.5 -39 -102.5s-10 -71.167 -10 -90.5h-28l8 286h574l8 -286h-28c0 19.333 -3.33301 49.5 -10 90.5
s-19.667 75.167 -39 102.5c-30.667 42.667 -67 64 -109 64h-36c-10 0 -17 -2.16699 -21 -6.5s-6 -11.166 -6 -20.499v-597c0 -18 9 -27 27 -27h96v-32h-338v32z" />
    <glyph glyph-name="U" unicode="U" horiz-adv-x="780" 
d="M265 17.5c-39.333 23.667 -68.1689 54.667 -86.502 93s-27.5 80.5 -27.5 126.5v416c0 9.33301 -2.16699 16.166 -6.5 20.499s-11.166 6.5 -20.499 6.5h-72v32h291v-32h-73c-9.33301 0 -16.166 -2.16699 -20.499 -6.5s-6.5 -11.166 -6.5 -20.499v-443
c0 -62 15 -110.167 45 -144.5s72 -51.5 126 -51.5c42 0 78 8.5 108 25.5s52.667 39.5 68 67.5s23 58.333 23 91v401c0 24.667 -6 44.334 -18 59.001s-27.333 22 -46 22h-35v32h238v-32h-35c-18.667 0 -34 -7.33301 -46 -22s-18 -34.334 -18 -59.001v-391
c0 -42 -9.5 -80.167 -28.5 -114.5s-46.667 -61.5 -83 -81.5s-78.833 -30 -127.5 -30c-60 0 -109.667 11.833 -149 35.5z" />
    <glyph glyph-name="V" unicode="V" horiz-adv-x="772" 
d="M166 636c-6 16.667 -13.666 28.166 -22.999 34.499s-21.333 9.5 -36 9.5h-63v32h320v-32h-66c-9.33301 0 -17.333 -2.5 -24 -7.5s-10 -10.833 -10 -17.5c0 -7.33301 1.33301 -14.666 4 -21.999l171 -481l132 406c8 26 12 49 12 69c0 14 -3.83301 26.333 -11.5 37
s-20.834 16 -39.501 16h-54v32h270v-32h-37c-23.333 0 -41.333 -6.83301 -54 -20.5s-22.667 -31.167 -30 -52.5l-203 -625h-25z" />
    <glyph glyph-name="W" unicode="W" horiz-adv-x="1068" 
d="M159 636c-6 16.667 -13.667 28.1641 -23 34.4971s-21.333 9.5 -36 9.5h-62v32h296v-32h-48c-9.33301 0 -17.333 -2.5 -24 -7.5s-10 -10.833 -10 -17.5c0 -5.33301 1.33301 -12.666 4 -21.999l133 -460l121 438l-10 32c-4.66699 13.333 -14 22.833 -28 28.5
s-28.333 8.5 -43 8.5h-29v32h296v-32h-39c-34 0 -51 -17.333 -51 -52c0 -9.33301 2 -19.666 6 -30.999l126 -433l124 394c4.66699 18 7.83398 31.833 9.50098 41.5s2.5 21.5 2.5 35.5c0 12.667 -5.83301 23.334 -17.5 32.001s-27.834 13 -48.501 13h-34v32h270v-32h-43
c-22.667 0 -40.167 -6.66699 -52.5 -20s-21.833 -31 -28.5 -53l-199 -625h-25l-164 556l-158 -556h-25z" />
    <glyph glyph-name="X" unicode="X" horiz-adv-x="750" 
d="M46 32l31.0029 0.000976562c22 0 40.5 5.83301 55.5 17.5s29.5 28.167 43.5 49.5l169 253l-149 276c-10 18.667 -20.167 32 -30.5 40s-26.5 12 -48.5 12h-61v32h310v-32h-60c-12 0 -18 -5 -18 -15c0 -4 0.666992 -8.33301 2 -13s3.33301 -9 6 -13l108 -200l95 142
c13.333 20 20 39 20 57c0 11.333 -4.5 21.166 -13.5 29.499s-20.833 12.5 -35.5 12.5h-31v32h270v-32h-45c-20 0 -36.833 -3.83301 -50.5 -11.5s-26.167 -20.167 -37.5 -37.5l-153 -230l177 -325c9.33301 -16.667 18.666 -28.167 27.999 -34.5s20.666 -9.5 33.999 -9.5h62
v-32h-310v32h60c9.33301 0 16.166 2 20.499 6s6.5 9 6.5 15c0 4 -0.666992 8.33301 -2 13s-3 8.66699 -5 12l-128 236l-115 -175c-16.667 -25.333 -25 -46.333 -25 -63c0 -12 3 -22.333 9 -31s15 -13 27 -13h54v-32h-270v32z" />
    <glyph glyph-name="Y" unicode="Y" horiz-adv-x="728" 
d="M224 32h95.999c18 0 27 9 27 27v259l-194 318c-10 17.333 -19 29 -27 35s-18.667 9 -32 9h-52v32h310v-32h-60c-10 0 -18.333 -2.33301 -25 -7s-10 -10.667 -10 -18c0 -10 1.66699 -17.333 5 -22l158 -267l102 196c3.33301 4.66699 7 14 11 28s6 25 6 33
c0 16 -4.5 29.5 -13.5 40.5s-22.833 16.5 -41.5 16.5h-30v32h248v-32h-29c-21.333 0 -38.666 -6.5 -51.999 -19.5s-26.333 -30.833 -39 -53.5l-143 -272v-276c0 -18 9 -27 27 -27h96v-32h-338v32z" />
    <glyph glyph-name="Z" unicode="Z" horiz-adv-x="652" 
d="M68 32l414 647.999h-188c-22 0 -42.5 -6 -61.5 -18s-34.833 -25.333 -47.5 -40c-16 -18.667 -29.333 -40.167 -40 -64.5s-18.667 -46.666 -24 -66.999s-8 -31.833 -8 -34.5h-25l24 256h476v-32l-410 -648h200c22.667 0 46 6.83301 70 20.5s43.667 31.167 59 52.5
c16.667 24 30.5 50.5 41.5 79.5s19.167 55.167 24.5 78.5s8 36.333 8 39h25l-16 -302h-522v32z" />
    <glyph glyph-name="bracketleft" unicode="[" horiz-adv-x="380" 
d="M120 -186v904l186 12l4 -26l-96 -16c-7.33301 -0.666992 -12.833 -4 -16.5 -10s-5.5 -13.333 -5.5 -22v-780c0 -8.66699 1.83301 -16 5.5 -22s9.16699 -9.33301 16.5 -10l96 -16l-4 -26z" />
    <glyph glyph-name="backslash" unicode="\" horiz-adv-x="450" 
d="M354 -198l-298 928h40l298 -928h-40z" />
    <glyph glyph-name="bracketright" unicode="]" horiz-adv-x="380" 
d="M70 -172l96 16c7.33301 0.666992 12.833 4 16.5 10s5.5 13.333 5.5 22v780c0 8.66699 -1.83301 16 -5.5 22s-9.16699 9.33301 -16.5 10l-96 16l4 26l186 -12v-904l-186 -12z" />
    <glyph glyph-name="asciicircum" unicode="^" horiz-adv-x="580" 
d="M62 336l230 364l226 -364h-48l-178 286l-182 -286h-48z" />
    <glyph glyph-name="underscore" unicode="_" horiz-adv-x="520" 
d="M0 -158v40h520v-40h-520z" />
    <glyph glyph-name="grave" unicode="`" horiz-adv-x="369" 
d="M128 609c-18.667 14 -27.999 28.667 -27.999 44c0 9.33301 2.5 16.833 7.5 22.5s11.833 8.5 20.5 8.5c9.33301 0 17.666 -2.33301 24.999 -7s15.333 -13 24 -25l92 -133l-13 -11z" />
    <glyph glyph-name="a" unicode="a" horiz-adv-x="494" 
d="M84.5 14c-25.667 17.333 -38.502 48.0029 -38.502 92.0029c0 34 8.66699 60.667 26 80s37.5 33.166 60.5 41.499s50.833 15.5 83.5 21.5l92 17v85c0 62 -31 93 -93 93c-22.667 0 -43.334 -5.83301 -62.001 -17.5s-28 -24.834 -28 -39.501c0 -6.66699 1 -11.667 3 -15
c1.33301 -2 3.5 -4 6.5 -6s5.83301 -3.33301 8.5 -4c12 -3.33301 21.167 -8 27.5 -14s9.5 -14.333 9.5 -25c0 -14 -4.16699 -24 -12.5 -30s-18.833 -9 -31.5 -9c-14.667 0 -28 5.66699 -40 17s-18 27.666 -18 48.999c0 24.667 6.83301 46 20.5 64s31.334 31.5 53.001 40.5
s43.834 13.5 66.501 13.5c44 0 82 -11.5 114 -34.5s48 -58.833 48 -107.5v-246c0 -33.333 10.333 -50 31 -50c16.667 0 28.667 9.66699 36 29s11 43 11 71h18c0 -40 -5.83301 -73.667 -17.5 -101s-32.5 -41 -62.5 -41c-28.667 0 -50.167 8.5 -64.5 25.5
s-22.166 40.5 -23.499 70.5l-5 2c-10 -23.333 -26.167 -45.5 -48.5 -66.5s-48.5 -31.5 -78.5 -31.5c-35.333 0 -65.833 8.66699 -91.5 26zM262.498 59.5029c17 23.667 32.167 53.834 45.5 90.501v95l-87 -19c-32 -6.66699 -55.167 -19.834 -69.5 -39.501
s-21.5 -47.5 -21.5 -83.5c0 -30.667 6.33301 -51.5 19 -62.5s27 -16.5 43 -16.5c30 0 53.5 11.833 70.5 35.5z" />
    <glyph glyph-name="b" unicode="b" horiz-adv-x="512" 
d="M214 15c-22.667 18 -40.666 41.6689 -53.999 71.002h-4l-42 -86h-18v666c0 8 -1.66699 13.667 -5 17s-9 5 -17 5h-52v24h146v-330l4 -1c10 24 25.333 44.5 46 61.5s44 25.5 70 25.5c31.333 0 60.5 -10.5 87.5 -31.5s48.5 -49.833 64.5 -86.5s24 -77.334 24 -122.001
s-8 -85.334 -24 -122.001s-37.5 -65.5 -64.5 -86.5s-56.167 -31.5 -87.5 -31.5c-26.667 0 -51.334 9 -74.001 27zM351.001 71.002c16.667 36.667 25 89.002 25 157.002s-8.33301 120.333 -25 157s-41.334 55 -74.001 55c-20 0 -38.333 -7.33301 -55 -22
s-29.834 -34.834 -39.501 -60.501s-14.5 -53.5 -14.5 -83.5v-92c0 -30 4.83301 -57.833 14.5 -83.5s22.834 -45.834 39.501 -60.501s35 -22 55 -22c32.667 0 57.334 18.333 74.001 55z" />
    <glyph glyph-name="c" unicode="c" horiz-adv-x="436" 
d="M141.5 20c-29.667 21.333 -52.6689 50.334 -69.002 87.001s-24.5 77 -24.5 121s8.33301 84.333 25 121s39.834 65.667 69.501 87s63.5 32 101.5 32c30.667 0 57.334 -6.5 80.001 -19.5s40 -29.667 52 -50s18 -40.833 18 -61.5s-5.33301 -36.834 -16 -48.501
s-23.667 -17.5 -39 -17.5c-13.333 0 -24.5 4.33301 -33.5 13s-13.5 19 -13.5 31s3.33301 22 10 30s14.667 13.333 24 16c10.667 3.33301 16 9.33301 16 18c0 8 -3.5 17 -10.5 27s-17.833 18.833 -32.5 26.5s-33 11.5 -55 11.5c-42 0 -70.5 -18 -85.5 -54
s-22.5 -90 -22.5 -162s7.33301 -126 22 -162s43.334 -54 86.001 -54c40.667 0 72 14.333 94 43s35.333 62.334 40 101.001h24c-2 -27.333 -9 -53.833 -21 -79.5s-29.667 -46.834 -53 -63.501s-51.333 -25 -84 -25c-38.667 0 -72.834 10.667 -102.501 32z" />
    <glyph glyph-name="d" unicode="d" horiz-adv-x="522" 
d="M136.5 19.5c-27 21 -48.499 49.832 -64.499 86.499s-24 77.334 -24 122.001s8 85.334 24 122.001s37.5 65.5 64.5 86.5s56.167 31.5 87.5 31.5c26 0 49.333 -8.5 70 -25.5s36 -37.5 46 -61.5l4 1v284c0 8 -1.66699 13.667 -5 17s-9 5 -17 5h-72v24h166v-666
c0 -8 1.66699 -13.667 5 -17s9 -5 17 -5h52v-24h-146v74l-4 1c-12.667 -26.667 -28.834 -47.834 -48.501 -63.501s-42.167 -23.5 -67.5 -23.5c-31.333 0 -60.5 10.5 -87.5 31.5zM290.001 37.999c16.667 14.667 29.834 34.832 39.501 60.499s14.5 53.5 14.5 83.5v92
c0 30 -4.83301 57.833 -14.5 83.5s-22.834 45.834 -39.501 60.501s-35 22 -55 22c-32.667 0 -57.334 -18.333 -74.001 -55s-25 -89 -25 -157s8.33301 -120.333 25 -157s41.334 -55 74.001 -55c20 0 38.333 7.33301 55 22z" />
    <glyph glyph-name="e" unicode="e" horiz-adv-x="460" 
d="M104.5 51c-37.667 42 -56.502 100.334 -56.502 175.001c0 42.667 8.33301 82.5 25 119.5s39.834 66.667 69.501 89s62.834 33.5 99.501 33.5c40.667 0 74 -11 100 -33s44.833 -49.833 56.5 -83.5s17.5 -68.167 17.5 -103.5c0 -7.33301 -2.33301 -12.166 -7 -14.499
s-12.667 -3.5 -24 -3.5h-249c0 -66.667 9.5 -119.667 28.5 -159s50.167 -59 93.5 -59c30.667 0 59.5 11.667 86.5 35s44.167 59.666 51.5 108.999h24c-4 -48.667 -20.833 -88.834 -50.5 -120.501s-68.167 -47.5 -115.5 -47.5c-62 0 -111.833 21 -149.5 63zM329.998 254.001
c0 53.333 -7 98.333 -21 135s-37 55 -69 55c-34 0 -59.833 -18.5 -77.5 -55.5s-26.5 -81.833 -26.5 -134.5h194z" />
    <glyph glyph-name="f" unicode="f" horiz-adv-x="330" 
d="M28 24h52.001c8 0 13.667 1.66699 17 5s5 9 5 17v382h-74v28h74v69c0 44.667 7.5 81.667 22.5 111s34.167 50.666 57.5 63.999s47.666 20 72.999 20c28.667 0 53 -8.83301 73 -26.5s30 -42.834 30 -75.501c0 -17.333 -4.16699 -31 -12.5 -41s-19.833 -15 -34.5 -15
c-12 0 -21.833 3.83301 -29.5 11.5s-11.5 17.834 -11.5 30.501c0 6.66699 1.66699 13.334 5 20.001s7.66602 12 12.999 16c10.667 6 16 14 16 24c0 11.333 -5.16699 19.5 -15.5 24.5s-22.166 7.5 -35.499 7.5c-22 0 -40.667 -10.667 -56 -32s-23 -58.333 -23 -111v-97h94
v-28h-94v-382c0 -8 1.66699 -13.667 5 -17s9 -5 17 -5h72v-24h-240v24z" />
    <glyph glyph-name="g" unicode="g" horiz-adv-x="540" 
d="M116 -210c-42.667 18.667 -63.999 47.9961 -63.999 87.9961c0 24.667 9.66699 46.334 29 65.001s42.333 30 69 34v3c-58.667 12.667 -88 37.334 -88 74.001c0 27.333 10.5 48.833 31.5 64.5s46.833 26.167 77.5 31.5v3c-28 12 -51.833 30.167 -71.5 54.5
s-29.5 56.5 -29.5 96.5c0 34 8.33301 63.333 25 88s38.5 43.5 65.5 56.5s56.167 19.5 87.5 19.5c19.333 0 38.5 -3.16699 57.5 -9.5s35.333 -13.666 49 -21.999s22.5 -15.166 26.5 -20.499c6 17.333 15.667 30.333 29 39s26.666 13 39.999 13
c22.667 0 41.334 -6.66699 56.001 -20s22 -30.666 22 -51.999c0 -16 -3.83301 -29 -11.5 -39s-17.834 -15 -30.501 -15c-10.667 0 -20 2.83301 -28 8.5s-12 14.834 -12 27.501c0 14.667 5.66699 25.334 17 32.001c4 2.66699 6.83301 5.16699 8.5 7.5s2.5 5.83301 2.5 10.5
c0 5.33301 -2.66699 9.33301 -8 12s-11.666 4 -18.999 4c-12 0 -22.833 -4.83301 -32.5 -14.5s-15.167 -20.834 -16.5 -33.501c18.667 -26 28 -56.667 28 -92c0 -33.333 -8 -62.5 -24 -87.5s-37.5 -44 -64.5 -57s-56.833 -19.5 -89.5 -19.5
c-38 0 -71.833 -5.16699 -101.5 -15.5s-44.5 -27.5 -44.5 -51.5c0 -12.667 5.66699 -21.334 17 -26.001s27 -7 47 -7c14 0 25.333 0.333008 34 1c8 0.666992 18.333 1 31 1h103c42.667 0 78.334 -11.5 107.001 -34.5s43 -56.833 43 -101.5
c0 -46.667 -19.833 -82.334 -59.5 -107.001s-91.834 -37 -156.501 -37c-58.667 0 -109.334 9.33301 -152.001 28zM320.001 200.996c17.333 24.667 26 59 26 103s-8.66699 78.333 -26 103s-41.333 37 -72 37s-54.667 -12.333 -72 -37s-26 -59 -26 -103
s8.66699 -78.333 26 -103s41.333 -37 72 -37s54.667 12.333 72 37zM394.001 -188.504c36 17 54 45.833 54 86.5c0 20.667 -6.16699 38.5 -18.5 53.5s-33.833 22.5 -64.5 22.5h-111c-42.667 0 -79.667 -7.16699 -111 -21.5s-47 -38.5 -47 -72.5
c0 -31.333 17.667 -54.833 53 -70.5s75 -23.5 119 -23.5c48 0 90 8.5 126 25.5z" />
    <glyph glyph-name="h" unicode="h" horiz-adv-x="544" 
d="M28 24l55.998 -0.000976562c8 0 13.667 1.66699 17 5s5 9 5 17v620c0 8 -1.66699 13.667 -5 17s-9 5 -17 5h-56v24h150v-338l4 -1c15.333 32 34.333 55.833 57 71.5s47.667 23.5 75 23.5c48.667 0 83.167 -15 103.5 -45s30.5 -66 30.5 -108v-269
c0 -8 1.66699 -13.667 5 -17s9 -5 17 -5h42v-24h-200v24h42c8 0 13.667 1.66699 17 5s5 9 5 17v288c0 29.333 -5.83301 54.333 -17.5 75s-31.5 31 -59.5 31c-23.333 0 -44.166 -8.16699 -62.499 -24.5s-32.666 -38.666 -42.999 -66.999s-15.5 -59.833 -15.5 -94.5v-208
c0 -8 1.66699 -13.667 5 -17s9 -5 17 -5h42v-24h-214v24z" />
    <glyph glyph-name="i" unicode="i" horiz-adv-x="270" 
d="M95 595c-10 10 -15 22.333 -15 37c0 15.333 5 27.833 15 37.5s22.333 14.5 37 14.5c15.333 0 27.833 -4.83301 37.5 -14.5s14.5 -22.167 14.5 -37.5c0 -14.667 -4.83301 -27 -14.5 -37s-22.167 -15 -37.5 -15c-14.667 0 -27 5 -37 15zM38 24h42c8 0 13.667 1.66699 17 5
s5 9 5 17v364c0 8 -1.66699 13.667 -5 17s-9 5 -17 5h-42v24h136v-410c0 -8 1.66699 -13.667 5 -17s9 -5 17 -5h42v-24h-200v24z" />
    <glyph glyph-name="j" unicode="j" horiz-adv-x="320" 
d="M139 595c-10 10 -15 22.333 -15 37c0 15.333 5 27.833 15 37.5s22.333 14.5 37 14.5c15.333 0 27.833 -4.83301 37.5 -14.5s14.5 -22.167 14.5 -37.5c0 -14.667 -4.83301 -27 -14.5 -37s-22.167 -15 -37.5 -15c-14.667 0 -27 5 -37 15zM-7.5 -212.5
c-20.333 17 -30.499 39.832 -30.499 68.499c0 18 5.16699 33.167 15.5 45.5s22.833 18.5 37.5 18.5c11.333 0 20.333 -3.16699 27 -9.5s10 -14.5 10 -24.5c0 -8 -1.83301 -14.833 -5.5 -20.5s-8.83398 -11.5 -15.501 -17.5c-10 -9.33301 -15 -19.333 -15 -30
c0 -11.333 5.16699 -19.5 15.5 -24.5s22.166 -7.5 35.499 -7.5c22 0 40.667 10.667 56 32s23 58.333 23 111v481c0 8 -1.66699 13.667 -5 17s-9 5 -17 5h-72v24h166v-499c0 -44.667 -7.5 -81.667 -22.5 -111s-34.167 -50.666 -57.5 -63.999s-47.666 -20 -72.999 -20
c-28 0 -52.167 8.5 -72.5 25.5z" />
    <glyph glyph-name="k" unicode="k" horiz-adv-x="520" 
d="M28 24h52c8 0 13.667 1.66699 17 5s5 9 5 17v620c0 8 -1.66699 13.667 -5 17s-9 5 -17 5h-52v24h146v-509l136 166c7.33301 8 12.166 14.333 14.499 19s3.5 10.667 3.5 18c0 8.66699 -3.16699 15.167 -9.5 19.5s-14.5 6.5 -24.5 6.5h-26v24h204v-24h-32
c-18 0 -34 -4.66699 -48 -14s-30 -25 -48 -47l-76 -93l156 -222c8 -11.333 15 -19.5 21 -24.5s14.333 -7.5 25 -7.5h20v-24h-212v24h26c8.66699 0 15.334 1.5 20.001 4.5s7 8.16699 7 15.5s-1 13.333 -3 18s-5.33301 10.667 -10 18l-98 140l-46 -56v-118
c0 -8 1.66699 -13.667 5 -17s9 -5 17 -5h32v-24h-200v24z" />
    <glyph glyph-name="l" unicode="l" horiz-adv-x="270" 
d="M28 24h52c8 0 13.667 1.66699 17 5s5 9 5 17v620c0 8 -1.66699 13.667 -5 17s-9 5 -17 5h-52v24h146v-666c0 -8 1.66699 -13.667 5 -17s9 -5 17 -5h52v-24h-220v24z" />
    <glyph glyph-name="m" unicode="m" horiz-adv-x="794" 
d="M38 24l42.001 -0.00292969c8 0 13.667 1.66699 17 5s5 9 5 17v364c0 8 -1.66699 13.667 -5 17s-9 5 -17 5h-42v24h136v-80l4 -1c14 30.667 32.167 53.834 54.5 69.501s46.166 23.5 71.499 23.5c39.333 0 68.5 -10.667 87.5 -32s31.833 -46.666 38.5 -75.999h4
c8 26.667 23.833 51.334 47.5 74.001s51.167 34 82.5 34c48.667 0 83.167 -16.333 103.5 -49s30.5 -71 30.5 -115v-258c0 -8 1.66699 -13.667 5 -17s9 -5 17 -5h42v-24h-200v24h42c8 0 13.667 1.66699 17 5s5 9 5 17v293c0 26.667 -6.33301 50.167 -19 70.5
s-31 30.5 -55 30.5c-20 0 -38.833 -7.83301 -56.5 -23.5s-32 -37.167 -43 -64.5s-16.5 -58 -16.5 -92v-214c0 -8 1.66699 -13.667 5 -17s9 -5 17 -5h42v-24h-200v24h42c8 0 13.667 1.66699 17 5s5 9 5 17v293c0 26.667 -6.33301 50.167 -19 70.5s-31 30.5 -55 30.5
c-20 0 -38.833 -7.83301 -56.5 -23.5s-32 -37.167 -43 -64.5s-16.5 -58 -16.5 -92v-214c0 -8 1.66699 -13.667 5 -17s9 -5 17 -5h42v-24h-200v24z" />
    <glyph glyph-name="n" unicode="n" horiz-adv-x="540" 
d="M38 24l41.998 -0.000976562c8 0 13.667 1.66699 17 5s5 9 5 17v364c0 8 -1.66699 13.667 -5 17s-9 5 -17 5h-42v24h136v-82l4 -1c15.333 32 34.333 55.833 57 71.5s47.667 23.5 75 23.5c48.667 0 83.167 -15 103.5 -45s30.5 -66 30.5 -108v-269
c0 -8 1.66699 -13.667 5 -17s9 -5 17 -5h42v-24h-200v24h42c8 0 13.667 1.66699 17 5s5 9 5 17v288c0 29.333 -5.83301 54.333 -17.5 75s-31.5 31 -59.5 31c-23.333 0 -44.166 -8.16699 -62.499 -24.5s-32.666 -38.666 -42.999 -66.999s-15.5 -59.833 -15.5 -94.5v-208
c0 -8 1.66699 -13.667 5 -17s9 -5 17 -5h42v-24h-200v24z" />
    <glyph glyph-name="o" unicode="o" horiz-adv-x="496" 
d="M147 20.5c-30.667 21.667 -54.834 50.834 -72.501 87.501s-26.5 76.667 -26.5 120s8.83301 83.333 26.5 120s41.834 65.834 72.501 87.501s64.334 32.5 101.001 32.5s70.334 -10.833 101.001 -32.5s54.834 -50.834 72.501 -87.501s26.5 -76.667 26.5 -120
s-8.83301 -83.333 -26.5 -120s-41.834 -65.834 -72.501 -87.501s-64.334 -32.5 -101.001 -32.5s-70.334 10.833 -101.001 32.5zM334 68.5c17.333 37.667 26 90.834 26 159.501s-8.66699 121.834 -26 159.501s-46 56.5 -86 56.5s-68.667 -18.833 -86 -56.5
s-26 -90.834 -26 -159.501s8.66699 -121.834 26 -159.501s46 -56.5 86 -56.5s68.667 18.833 86 56.5z" />
    <glyph glyph-name="p" unicode="p" horiz-adv-x="518" 
d="M28 -206l51.999 0.000976562c8 0 13.667 1.66699 17 5s5 9 5 17v594c0 8 -1.66699 13.667 -5 17s-9 5 -17 5h-52v24h146v-74l4 -1c12.667 26.667 28.834 47.834 48.501 63.501s42.167 23.5 67.5 23.5c31.333 0 60.5 -10.5 87.5 -31.5s48.5 -49.833 64.5 -86.5
s24 -77.334 24 -122.001s-8 -85.334 -24 -122.001s-37.5 -65.5 -64.5 -86.5s-56.167 -31.5 -87.5 -31.5c-26 0 -49.333 8.5 -70 25.5s-36 37.5 -46 61.5l-4 -1v-258c0 -8 1.66699 -13.667 5 -17s9 -5 17 -5h52v-24h-220v24zM356.999 71.001
c16.667 36.667 25 89.002 25 157.002s-8.33301 120.333 -25 157s-41.334 55 -74.001 55c-20 0 -38.333 -7.33301 -55 -22s-29.834 -34.834 -39.501 -60.501s-14.5 -53.5 -14.5 -83.5v-92c0 -30 4.83301 -57.833 14.5 -83.5s22.834 -45.834 39.501 -60.501s35 -22 55 -22
c32.667 0 57.334 18.333 74.001 55z" />
    <glyph glyph-name="q" unicode="q" horiz-adv-x="502" 
d="M270 -206l51.999 -0.00195312c8 0 13.667 1.66699 17 5s5 9 5 17v258l-4 1c-10 -24 -25.333 -44.5 -46 -61.5s-44 -25.5 -70 -25.5c-31.333 0 -60.5 10.5 -87.5 31.5s-48.5 49.833 -64.5 86.5s-24 77.334 -24 122.001s8 85.334 24 122.001s37.5 65.5 64.5 86.5
s56.167 31.5 87.5 31.5c26.667 0 51.334 -9 74.001 -27s40.667 -41.667 54 -71h4l42 86h18v-640c0 -8 1.66699 -13.667 5 -17s9 -5 17 -5h52v-24h-220v24zM289.999 37.998c16.667 14.667 29.834 34.832 39.501 60.499s14.5 53.5 14.5 83.5v92
c0 30 -4.83301 57.833 -14.5 83.5s-22.834 45.834 -39.501 60.501s-35 22 -55 22c-32.667 0 -57.334 -18.333 -74.001 -55s-25 -89 -25 -157s8.33301 -120.333 25 -157s41.334 -55 74.001 -55c20 0 38.333 7.33301 55 22z" />
    <glyph glyph-name="r" unicode="r" horiz-adv-x="410" 
d="M38 24l42.002 0.000976562c8 0 13.667 1.66699 17 5s5 9 5 17v364c0 8 -1.66699 13.667 -5 17s-9 5 -17 5h-42v24h136v-100l4 -1c14 34.667 32.167 62.167 54.5 82.5s46.166 30.5 71.499 30.5s46 -7.33301 62 -22s24 -34.667 24 -60c0 -14.667 -5.16699 -29 -15.5 -43
s-23.5 -21 -39.5 -21c-12.667 0 -23.334 3.33301 -32.001 10s-13 16 -13 28c0 14 6.66699 26 20 36c6 4 10.5 7.66699 13.5 11s4.5 7.66602 4.5 12.999c0 6 -2.83301 10.833 -8.5 14.5s-13.5 5.5 -23.5 5.5c-20.667 0 -40.5 -10 -59.5 -30s-34.167 -46 -45.5 -78
s-17 -65.333 -17 -100v-186c0 -8 1.66699 -13.667 5 -17s9 -5 17 -5h42v-24h-200v24z" />
    <glyph glyph-name="s" unicode="s" horiz-adv-x="434" 
d="M60 186l17.999 -0.00195312l37 -79c36 -63.333 82.667 -95 140 -95c30.667 0 53.5 7.5 68.5 22.5s22.5 35.5 22.5 61.5c0 15.333 -5.83301 29.166 -17.5 41.499s-27.167 22.166 -46.5 29.499l-114 46c-36 14.667 -64.333 32.334 -85 53.001s-31 47 -31 79
c0 40.667 12.667 71.334 38 92.001s57.333 31 96 31c19.333 0 37.5 -3.16699 54.5 -9.5s31.167 -13.833 42.5 -22.5c14.667 -10.667 25.667 -16 33 -16c8.66699 0 14 6 16 18l2 20h18v-152h-18l-14 35c-15.333 38 -35.5 64.667 -60.5 80s-49.833 23 -74.5 23
s-45 -6.16699 -61 -18.5s-24 -29.5 -24 -51.5c0 -19.333 7.83301 -35.166 23.5 -47.499s37.167 -24.166 64.5 -35.499l108 -45c32 -13.333 56 -29.5 72 -48.5s24 -45.5 24 -79.5c0 -44.667 -12.667 -77.5 -38 -98.5s-58.666 -31.5 -99.999 -31.5
c-24.667 0 -44.667 3.33301 -60 10s-30.333 15.667 -45 27c-6 4.66699 -12 8.66699 -18 12s-11.333 5 -16 5c-16 0 -27 -11.333 -33 -34l-4 -20h-18v198z" />
    <glyph glyph-name="t" unicode="t" horiz-adv-x="350" 
d="M131.5 20c-19.667 21.333 -29.5 50.334 -29.5 87.001v321h-74v28h22c30 0 53.5 16.167 70.5 48.5s25.5 68.166 25.5 107.499v36h28v-192h124v-28h-124v-326c0 -20 4 -36.667 12 -50s21.667 -20 41 -20c47.333 0 71 40 71 120h18c0 -44.667 -6.5 -83.167 -19.5 -115.5
s-43.167 -48.5 -90.5 -48.5c-30 0 -54.833 10.667 -74.5 32z" />
    <glyph glyph-name="u" unicode="u" horiz-adv-x="534" 
d="M126.5 33c-20.333 30 -30.498 66.001 -30.498 108.001v269c0 8 -1.66699 13.667 -5 17s-9 5 -17 5h-42v24h136v-334c0 -29.333 5.83301 -54.333 17.5 -75s31.5 -31 59.5 -31c23.333 0 44.166 8.16699 62.499 24.5s32.666 38.666 42.999 66.999s15.5 59.833 15.5 94.5v208
c0 8 -1.66699 13.667 -5 17s-9 5 -17 5h-42v24h136v-410c0 -8 1.66699 -13.667 5 -17s9 -5 17 -5h42v-24h-136v82l-4 1c-15.333 -32 -34.333 -55.833 -57 -71.5s-47.667 -23.5 -75 -23.5c-48.667 0 -83.167 15 -103.5 45z" />
    <glyph glyph-name="v" unicode="v" horiz-adv-x="530" 
d="M99 382c-6.66699 17.333 -13.499 30 -20.499 38s-17.5 12 -31.5 12h-29v24h216v-24h-28c-8 0 -15.333 -2.16699 -22 -6.5s-10 -10.166 -10 -17.499c0 -11.333 2 -22.333 6 -33l112 -270l81 237c2.66699 8 5.16699 17 7.5 27s3.5 18 3.5 24
c0 11.333 -3.33301 20.666 -10 27.999s-15.334 11 -26.001 11h-24v24h182v-24h-23c-14.667 0 -28.167 -4.83301 -40.5 -14.5s-21.833 -24.5 -28.5 -44.5l-132 -385h-18z" />
    <glyph glyph-name="w" unicode="w" horiz-adv-x="776" 
d="M103 373c-9.33301 22 -17.832 37.333 -25.499 46s-19.834 13 -36.501 13h-23v24h216v-24h-31c-9.33301 0 -16.5 -2.66699 -21.5 -8s-7.5 -12 -7.5 -20c0 -8.66699 2 -18.334 6 -29.001l112 -270l68 217c2 6 3.66699 12.333 5 19s2 12.334 2 17.001
c0 12 -4.33301 27.333 -13 46c-4 9.33301 -8.5 16.333 -13.5 21s-11.833 7 -20.5 7h-30v24h216v-24h-40c-19.333 0 -29 -10 -29 -30c0 -7.33301 2.66699 -18 8 -32l93 -265l81 237c2.66699 8 5.16699 17 7.5 27s3.5 18 3.5 24c0 26 -12 39 -36 39h-24v24h182v-24h-23
c-14.667 0 -28.167 -4.83301 -40.5 -14.5s-21.833 -24.5 -28.5 -44.5l-136 -385h-18l-120 328l-104 -328h-18z" />
    <glyph glyph-name="x" unicode="x" horiz-adv-x="520" 
d="M34 24l26.001 -0.000976562c16 0 29.333 4.83301 40 14.5s21.667 23.167 33 40.5l91 136l-122 195c-5.33301 8 -10.5 13.667 -15.5 17s-13.167 5 -24.5 5h-24v24h198v-24h-24c-13.333 0 -20 -6.66699 -20 -20c0 -7.33301 2 -14.333 6 -21l69 -112l66 98
c6 8.66699 9 19.334 9 32.001c0 7.33301 -2.5 13 -7.5 17s-10.5 6 -16.5 6h-24v24h174v-24h-25c-14 0 -26.333 -3.33301 -37 -10s-21.334 -18 -32.001 -34l-91 -134l127 -204c6 -9.33301 12 -16 18 -20s16.333 -6 31 -6h23v-24h-208v24h30c7.33301 0 13 1.5 17 4.5
s6 7.16699 6 12.5c0 3.33301 -0.666992 6.83301 -2 10.5s-3 7.16699 -5 10.5l-80 128l-68 -101c-10 -16 -15 -27.667 -15 -35c0 -20 8.33301 -30 25 -30h18v-24h-166v24z" />
    <glyph glyph-name="y" unicode="y" horiz-adv-x="530" 
d="M70 -213c-8.66699 8 -15.499 17.501 -20.499 28.501s-7.5 22.5 -7.5 34.5c0 8.66699 1.5 16.834 4.5 24.501s6.83301 13.5 11.5 17.5c10 10 21.333 15 34 15c15.333 0 26.833 -4.83301 34.5 -14.5s11.5 -21.834 11.5 -36.501c0 -8 -2.66699 -17.333 -8 -28
c-4 -6.66699 -6 -13 -6 -19c0 -10 6.66699 -15 20 -15c20 0 36.833 7.83301 50.5 23.5s23.834 34.167 30.501 55.5l27 87l-142 413c-8 21.333 -15.667 36.5 -23 45.5s-19.333 13.5 -36 13.5h-33v24h226v-24h-32c-8 0 -15.333 -2.16699 -22 -6.5s-10 -10.166 -10 -17.499
c0 -11.333 2 -22.333 6 -33l104 -307l83 274c2.66699 8 5.16699 17 7.5 27s3.5 18 3.5 24c0 11.333 -3.33301 20.666 -10 27.999s-15.334 11 -26.001 11h-24v24h182v-24h-23c-14.667 0 -28.167 -4.83301 -40.5 -14.5s-21.833 -24.5 -28.5 -44.5l-161 -512
c-7.33301 -24.667 -21.333 -47.334 -42 -68.001s-46.334 -31 -77.001 -31c-26 0 -47.333 8.33301 -64 25z" />
    <glyph glyph-name="z" unicode="z" horiz-adv-x="440" 
d="M40 26l259.999 406h-122c-41.333 0 -70.666 -16.667 -87.999 -50c-10 -20 -17.5 -40.833 -22.5 -62.5s-7.5 -34.834 -7.5 -39.501h-20l6 176h336v-32l-259 -400h127c21.333 0 39.333 4.5 54 13.5s26 21.167 34 36.5c10 20 17.5 40.833 22.5 62.5s7.5 34.834 7.5 39.501
h20l-6 -176h-342v26z" />
    <glyph glyph-name="braceleft" unicode="{" horiz-adv-x="420" 
d="M174 -28c0 16 1.49902 31.835 4.49902 47.502s7.83301 35.5 14.5 59.5c11.333 40 17 71.667 17 95c0 33.333 -8.66699 55.666 -26 66.999s-44 17 -80 17v18c24.667 0 44.334 1.66699 59.001 5s26.167 10.666 34.5 21.999s12.5 28.333 12.5 51s-5.66699 55.334 -17 98.001
c-6.66699 26.667 -11.5 47.667 -14.5 63s-4.5 31 -4.5 47c0 79.333 50 135.333 150 168l12 -24c-34 -12 -59.5 -24.333 -76.5 -37s-25.5 -31.667 -25.5 -57c0 -16 1.5 -31.333 4.5 -46s7.5 -33.667 13.5 -57c6 -21.333 10.5 -39.833 13.5 -55.5s4.5 -31.5 4.5 -47.5
c0 -72 -31.333 -118 -94 -138v-2c26.667 -8.66699 49 -24.334 67 -47.001s27 -55 27 -97c0 -16 -1.5 -31.333 -4.5 -46s-7.5 -32.667 -13.5 -54s-10.5 -39.333 -13.5 -54s-4.5 -30 -4.5 -46c0 -25.333 8.5 -44.333 25.5 -57s42.5 -25 76.5 -37l-12 -24
c-100 32.667 -150 88.667 -150 168z" />
    <glyph glyph-name="bar" unicode="|" horiz-adv-x="284" 
d="M120 -198v928h44v-928h-44z" />
    <glyph glyph-name="braceright" unicode="}" horiz-adv-x="420" 
d="M84 -172c34 12 59.5 24.333 76.5 37s25.5 31.667 25.5 57c0 16 -1.5 31.333 -4.5 46s-7.5 33.667 -13.5 57s-10.5 42.333 -13.5 57s-4.5 30 -4.5 46c0 72 31.333 118 94 138v2c-62.667 20 -94 66 -94 138c0 16 1.5 31.833 4.5 47.5s7.5 34.167 13.5 55.5
c6 23.333 10.5 42.333 13.5 57s4.5 30 4.5 46c0 25.333 -8.5 44.333 -25.5 57s-42.5 25 -76.5 37l12 24c100 -32.667 150 -88.667 150 -168c0 -16 -1.5 -31.667 -4.5 -47s-7.83301 -36.333 -14.5 -63c-11.333 -42.667 -17 -75.334 -17 -98.001s4.16699 -39.667 12.5 -51
s19.833 -18.666 34.5 -21.999s34.334 -5 59.001 -5v-18c-24.667 0 -44.334 -1.66699 -59.001 -5s-26.167 -10.666 -34.5 -21.999s-12.5 -28.333 -12.5 -51s5.66699 -55.334 17 -98.001c6.66699 -26.667 11.5 -47.667 14.5 -63s4.5 -31 4.5 -47
c0 -79.333 -50 -135.333 -150 -168z" />
    <glyph glyph-name="asciitilde" unicode="~" horiz-adv-x="660" 
d="M64.5 200.5c-11 15.667 -16.498 33.167 -16.498 52.5c0 26.667 10 49.834 30 69.501s48 29.5 84 29.5c28 0 57.833 -5.5 89.5 -16.5s71.167 -26.833 118.5 -47.5c41.333 -18.667 74.833 -32.667 100.5 -42s48.167 -14 67.5 -14c10.667 0 20 4.16699 28 12.5
s12 19.5 12 33.5s-3.66699 25.667 -11 35s-17.666 17.666 -30.999 24.999l12 21c20.667 -9.33301 36.5 -21.833 47.5 -37.5s16.5 -33.167 16.5 -52.5c0 -26.667 -10 -49.834 -30 -69.501s-48 -29.5 -84 -29.5c-28.667 0 -59.334 5.5 -92.001 16.5
s-71.334 26.833 -116.001 47.5c-40.667 18.667 -74 32.667 -100 42s-48.667 14 -68 14c-10.667 0 -20 -4.16699 -28 -12.5s-12 -19.5 -12 -33.5s3.66699 -25.667 11 -35s17.666 -17.666 30.999 -24.999l-12 -21c-20.667 9.33301 -36.5 21.833 -47.5 37.5z" />
    <glyph glyph-name="nonbreakingspace" unicode="&#xa0;" horiz-adv-x="280" 
 />
    <glyph glyph-name="exclamdown" unicode="&#xa1;" horiz-adv-x="280" 
d="M95.5 361.5c-11.667 11.667 -17.5 26.5 -17.5 44.5s5.83301 32.833 17.5 44.5s26.5 17.5 44.5 17.5s32.833 -5.83301 44.5 -17.5s17.5 -26.5 17.5 -44.5s-5.83301 -32.833 -17.5 -44.5s-26.5 -17.5 -44.5 -17.5s-32.833 5.83301 -44.5 17.5zM95 -218.5
c-11.333 13 -17 30.5 -17 52.5c0 36 5.66699 85.333 17 148c9.33301 50 15 89.333 17 118l16 200h24l16 -200c2 -28.667 7.66699 -68 17 -118c11.333 -62.667 17 -112 17 -148c0 -22 -5.66699 -39.5 -17 -52.5s-26.333 -19.5 -45 -19.5s-33.667 6.5 -45 19.5z" />
    <glyph glyph-name="cent" unicode="&#xa2;" horiz-adv-x="580" 
d="M290 -11c-56 6 -99.667 31.3369 -131 76.0039s-47 99 -47 163c0 41.333 7.66699 79.5 23 114.5s36.5 63.667 63.5 86s57.5 35.166 91.5 38.499v109h32v-109c28 -2 52.333 -9.66699 73 -23s36.334 -29.5 47.001 -48.5s16 -38.5 16 -58.5
c0 -20.667 -5.33301 -36.834 -16 -48.501s-23.667 -17.5 -39 -17.5c-13.333 0 -24.5 4.33301 -33.5 13s-13.5 19 -13.5 31s3.33301 22 10 30s14.667 13.333 24 16c10.667 3.33301 16 9.33301 16 18c0 7.33301 -3 15.666 -9 24.999s-15.333 17.833 -28 25.5
s-28.334 12.167 -47.001 13.5v-431c37.333 2 65.5 17 84.5 45s30.833 61 35.5 99h24c-2.66699 -42.667 -16 -80.834 -40 -114.501s-58.667 -51.5 -104 -53.5v-108h-32v109zM290 442.004c-31.333 -8 -54.168 -33 -68.501 -75s-21.5 -88.333 -21.5 -139
s6.83301 -96.5 20.5 -137.5s36.834 -66.167 69.501 -75.5v427z" />
    <glyph glyph-name="sterling" unicode="&#xa3;" horiz-adv-x="720" 
d="M377.5 2.5c-29.667 13.667 -62.498 31.832 -98.498 54.499c-14.667 -16.667 -32.834 -32.334 -54.501 -47.001s-42.5 -22 -62.5 -22c-27.333 0 -50.5 6.5 -69.5 19.5s-28.5 32.5 -28.5 58.5c0 23.333 9.83301 42.5 29.5 57.5s40.5 22.5 62.5 22.5
c34 0 71 -9.66699 111 -29c4 16.667 6.5 31.334 7.5 44.001s1.5 31 1.5 55c0 18.667 -0.666992 41.667 -2 69s-3 50 -5 68c-34.667 6 -56.334 9 -65.001 9c-17.333 0 -30.833 -1.66699 -40.5 -5s-21.5 -9 -35.5 -17l-14 22c10 8.66699 21.167 15.5 33.5 20.5
s28.5 7.5 48.5 7.5c12.667 0 36.334 -3.33301 71.001 -10c-0.666992 9.33301 -1 26 -1 50c0 49.333 9.83301 94.666 29.5 135.999s46.334 74 80.001 98s69.834 36 108.501 36c34.667 0 62.667 -7.16699 84 -21.5s36.5 -31.166 45.5 -50.499s13.5 -36.333 13.5 -51
c0 -22.667 -5 -40.834 -15 -54.501s-25 -20.5 -45 -20.5c-14 0 -25.833 4.33301 -35.5 13s-14.5 20 -14.5 34c0 21.333 8.33301 36.333 25 45c8.66699 4.66699 14.667 8.83398 18 12.501s5 9.16699 5 16.5c0 12.667 -6.5 24.334 -19.5 35.001s-33.5 16 -61.5 16
c-20 0 -39.833 -6 -59.5 -18s-35.834 -31 -48.501 -57s-19 -58.333 -19 -97v-138c28 -5.33301 48.333 -8 61 -8c17.333 0 31.166 1.83301 41.499 5.5s21.833 9.16699 34.5 16.5l14 -22c-18.667 -18.667 -46 -28 -82 -28c-11.333 0 -34.333 3 -69 9v-65
c0 -72 -16 -131 -48 -177c25.333 -15.333 55.5 -27 90.5 -35s68.167 -12 99.5 -12c30 0 56 12.5 78 37.5s36.333 52.5 43 82.5l18 -7c-23.333 -119.333 -83 -179 -179 -179c-24.667 0 -51.834 6.83301 -81.501 20.5zM211.002 30.998c16.667 12.667 29.998 28.667 39.998 48
c-19.333 14 -36.666 24.667 -51.999 32s-31.666 11 -48.999 11c-16.667 0 -30.5 -5.5 -41.5 -16.5s-16.5 -24.167 -16.5 -39.5c0 -36 23.333 -54 70 -54c16 0 32.333 6.33301 49 19z" />
    <glyph glyph-name="currency" unicode="&#xa4;" horiz-adv-x="580" 
d="M52 136l67 67c-32.667 40 -49 86.333 -49 139c0 26 4.33301 51 13 75s21 45.667 37 65l-68 68l31 31l67 -67c19.333 16 41 28.333 65 37s49 13 75 13s51 -4.33301 75 -13s45.667 -21 65 -37l67 67l31 -31l-68 -68c16 -19.333 28.333 -41 37 -65s13 -49 13 -75
c0 -52.667 -16.333 -99 -49 -139l67 -67l-31 -31l-67 67c-19.333 -16 -41 -28.333 -65 -37s-49 -13 -75 -13s-51 4.33301 -75 13s-45.667 21 -65 37l-67 -67zM382 185.5c27.333 15.667 48.833 37.167 64.5 64.5s23.5 58 23.5 92s-7.83301 65 -23.5 93
s-37.167 49.833 -64.5 65.5s-58 23.5 -92 23.5s-64.667 -7.83301 -92 -23.5s-48.833 -37.5 -64.5 -65.5s-23.5 -59 -23.5 -93s7.83301 -64.667 23.5 -92s37.167 -48.833 64.5 -64.5s58 -23.5 92 -23.5s64.667 7.83301 92 23.5z" />
    <glyph glyph-name="yen" unicode="&#xa5;" horiz-adv-x="580" 
d="M136 32h73.999c18.667 0 28 9.33301 28 28v134h-140v32h140v72h-140v32h134l-139 283c-6 12.667 -12.167 22.334 -18.5 29.001s-14.833 10 -25.5 10h-35v32h228v-32h-33c-18 0 -27 -5.66699 -27 -17c0 -4.66699 2.66699 -13 8 -25l121 -246l109 198
c13.333 24 20 42.333 20 55c0 8.66699 -2.5 16.667 -7.5 24s-13.833 11 -26.5 11h-42v32h200v-32h-22c-14.667 0 -28.167 -6.83301 -40.5 -20.5s-25.166 -31.834 -38.499 -54.501l-137 -247h140v-32h-140v-72h140v-32h-140v-134c0 -9.33301 2.16699 -16.333 6.5 -21
s11.5 -7 21.5 -7h74v-32h-292v32z" />
    <glyph glyph-name="brokenbar" unicode="&#xa6;" horiz-adv-x="284" 
d="M120 370v360h44v-360h-44zM120 -168v360h44v-360h-44z" />
    <glyph glyph-name="section" unicode="&#xa7;" horiz-adv-x="640" 
d="M213.5 -172.5c-18.333 9 -33.167 21.333 -44.5 37s-17 32.834 -17 51.501c0 17.333 5 30.666 15 39.999s23 14 39 14c12.667 0 23.834 -4.16699 33.501 -12.5s14.5 -18.166 14.5 -29.499c0 -10.667 -1.83301 -18.834 -5.5 -24.501s-9.83398 -11.167 -18.501 -16.5
c-4.66699 -2.66699 -7.83398 -5.16699 -9.50098 -7.5s-2.5 -6.16602 -2.5 -11.499c0 -9.33301 5 -16.666 15 -21.999s22.333 -8 37 -8c24 0 45 7 63 21s27 33 27 57c0 26 -5.16699 48.5 -15.5 67.5s-27.166 38.5 -50.499 58.5l-128 108
c-22.667 20.667 -39.334 41.167 -50.001 61.5s-16 45.166 -16 74.499c0 52 36.667 101.333 110 148c-40 36 -60 78.667 -60 128c0 27.333 7 51.5 21 72.5s32.333 37.167 55 48.5s46.667 17 72 17c30.667 0 58 -9.83301 82 -29.5s36 -43.167 36 -70.5
c0 -17.333 -5 -31 -15 -41s-22.333 -15 -37 -15c-14 0 -25.833 4.33301 -35.5 13s-14.5 19 -14.5 31c0 10 2 17.5 6 22.5s10.667 10.833 20 17.5c4 2.66699 6.66699 5.16699 8 7.5s2 5.83301 2 10.5c0 10 -4.83301 17.5 -14.5 22.5s-22.167 7.5 -37.5 7.5
c-24 0 -45 -6.83301 -63 -20.5s-27 -32.834 -27 -57.501c0 -28.667 5.16699 -51.334 15.5 -68.001s27.833 -36 52.5 -58l128 -110c24.667 -20.667 41.834 -40.667 51.501 -60s14.5 -44.666 14.5 -75.999c0 -29.333 -10.333 -55.833 -31 -79.5s-47 -45.834 -79 -66.501
c17.333 -18.667 31.333 -39.167 42 -61.5s16 -45.833 16 -70.5c0 -27.333 -6.83301 -51.166 -20.5 -71.499s-31.834 -35.833 -54.501 -46.5s-47 -16 -73 -16c-19.333 0 -38.166 4.5 -56.499 13.5zM402.999 138.5c19.333 17.667 29.002 33.5 29.002 47.5
c0 20.667 -3.5 38.5 -10.5 53.5s-18.167 28.5 -33.5 40.5l-140 120c-5.33301 4 -12 10.667 -20 20c-60 -37.333 -90 -68.666 -90 -93.999c0 -36.667 14 -67.334 42 -92.001l140 -118c9.33301 -8 16.666 -15.333 21.999 -22c21.333 12 41.666 26.833 60.999 44.5z" />
    <glyph glyph-name="dieresis" unicode="&#xa8;" horiz-adv-x="484" 
d="M114.5 562.5c-9.66699 9.66699 -14.5 20.834 -14.5 33.501c0 13.333 4.83301 24.666 14.5 33.999s20.834 14 33.501 14c13.333 0 24.666 -4.66699 33.999 -14s14 -20.666 14 -33.999c0 -12.667 -4.66699 -23.834 -14 -33.501s-20.666 -14.5 -33.999 -14.5
c-12.667 0 -23.834 4.83301 -33.501 14.5zM302.5 562.5c-9.66699 9.66699 -14.5 20.834 -14.5 33.501c0 13.333 4.83301 24.666 14.5 33.999s20.834 14 33.501 14c13.333 0 24.666 -4.66699 33.999 -14s14 -20.666 14 -33.999c0 -12.667 -4.66699 -23.834 -14 -33.501
s-20.666 -14.5 -33.999 -14.5c-12.667 0 -23.834 4.83301 -33.501 14.5z" />
    <glyph glyph-name="copyright" unicode="&#xa9;" horiz-adv-x="820" 
d="M226 32.5c-55.333 33.667 -98.833 79 -130.5 136s-47.5 119.5 -47.5 187.5s15.833 130.5 47.5 187.5s75.167 102.333 130.5 136s116.666 50.5 183.999 50.5s128.666 -16.833 183.999 -50.5s98.833 -79 130.5 -136s47.5 -119.5 47.5 -187.5s-15.833 -130.5 -47.5 -187.5
s-75.167 -102.333 -130.5 -136s-116.666 -50.5 -183.999 -50.5s-128.666 16.833 -183.999 50.5zM578.5 57c51 31.333 91.333 73.5 121 126.5s44.5 110.5 44.5 172.5s-14.833 119.5 -44.5 172.5s-70 95.167 -121 126.5s-107.167 47 -168.5 47s-117.5 -15.667 -168.5 -47
s-91.333 -73.5 -121 -126.5s-44.5 -110.5 -44.5 -172.5s14.833 -119.5 44.5 -172.5s70 -95.167 121 -126.5s107.167 -47 168.5 -47s117.5 15.667 168.5 47zM312 143c-30.667 22 -53.665 50.501 -68.998 85.501s-23 71.5 -23 109.5c0 48.667 8.16699 92.167 24.5 130.5
s39.833 68.166 70.5 89.499s67 32 109 32c26.667 0 54 -11 82 -33c4 -3.33301 7.16699 -5.33301 9.5 -6s5.83301 -1 10.5 -1c6 0 11.167 3.66699 15.5 11s6.5 15 6.5 23h18v-164h-18c-2.66699 25.333 -10.667 49.333 -24 72s-29.333 40.667 -48 54s-36 20 -52 20
c-77.333 0 -116 -76 -116 -228c0 -50 9 -96.5 27 -139.5s47 -64.5 87 -64.5c40.667 0 71 14 91 42s32.333 62 37 102h24c-2.66699 -44 -16.834 -83 -42.501 -117s-62.167 -51 -109.5 -51c-42.667 0 -79.334 11 -110.001 33z" />
    <glyph glyph-name="ordfeminine" unicode="&#xaa;" horiz-adv-x="380" 
d="M62 472c0 22.667 9.66895 41.6689 29.002 57.002s42 29 68 41l49 22v38c0 18.667 -4.83301 32 -14.5 40s-21.834 12 -36.501 12s-27.5 -3 -38.5 -9s-16.5 -13.333 -16.5 -22c0 -4 0.666992 -7 2 -9s4 -3 8 -3c6.66699 0 12 -2.5 16 -7.5s6 -10.5 6 -16.5
c0 -8 -2.83301 -14.167 -8.5 -18.5s-12.167 -6.5 -19.5 -6.5c-10.667 0 -19.667 3 -27 9s-11 15.333 -11 28c0 22 9.16699 39.667 27.5 53s38.5 20 60.5 20c27.333 0 50.833 -6.66699 70.5 -20s29.5 -35 29.5 -65v-141c0 -24.667 7.66699 -37 23 -37
c11.333 0 18.666 5.66699 21.999 17s5 25.666 5 42.999h14c0 -22.667 -3.66699 -42.5 -11 -59.5s-21 -25.5 -41 -25.5c-18 0 -32 4.66699 -42 14s-15.667 21.333 -17 36l-2 1c-8 -12.667 -18.5 -24.334 -31.5 -35.001s-27.5 -16 -43.5 -16c-46.667 0 -70 20 -70 60z
M185.002 451.002c8.66699 6.66699 16.332 16.332 22.999 28.999v93l-39 -19c-17.333 -8.66699 -30.166 -19.667 -38.499 -33s-12.5 -27.666 -12.5 -42.999c0 -12 3.5 -21.167 10.5 -27.5s14.5 -9.5 22.5 -9.5c14 0 25.333 3.33301 34 10zM70 362v24h240v-24h-240z" />
    <glyph glyph-name="guillemotleft" unicode="&#xab;" horiz-adv-x="480" 
d="M143.5 110c-23.667 35.333 -35.5 74.6719 -35.5 118.005s11.833 82.666 35.5 117.999s50.5 62.666 80.5 81.999l15 -15c-24 -21.333 -42.5 -48.333 -55.5 -81s-19.5 -67.334 -19.5 -104.001s6.5 -71.334 19.5 -104.001s31.5 -59.667 55.5 -81l-15 -15
c-30 19.333 -56.833 46.666 -80.5 81.999zM292.5 119.506c-18.333 31.667 -27.5 67.832 -27.5 108.499s9.16699 76.834 27.5 108.501s38.166 56.167 59.499 73.5l14 -14c-18 -22.667 -31.333 -47.5 -40 -74.5s-13 -58.167 -13 -93.5s4.33301 -66.5 13 -93.5
s22 -51.833 40 -74.5l-14 -14c-21.333 17.333 -41.166 41.833 -59.499 73.5z" />
    <glyph glyph-name="logicalnot" unicode="&#xac;" horiz-adv-x="580" 
d="M488 160v166h-440v40h484v-206h-44z" />
    <glyph glyph-name="uni00AD" unicode="&#xad;" horiz-adv-x="370" 
d="M60 224v56h250v-56h-250z" />
    <glyph glyph-name="registered" unicode="&#xae;" horiz-adv-x="820" 
d="M226 32.5c-55.333 33.667 -98.833 79 -130.5 136s-47.5 119.5 -47.5 187.5s15.833 130.5 47.5 187.5s75.167 102.333 130.5 136s116.666 50.5 183.999 50.5s128.666 -16.833 183.999 -50.5s98.833 -79 130.5 -136s47.5 -119.5 47.5 -187.5s-15.833 -130.5 -47.5 -187.5
s-75.167 -102.333 -130.5 -136s-116.666 -50.5 -183.999 -50.5s-128.666 16.833 -183.999 50.5zM578.5 57c51 31.333 91.333 73.5 121 126.5s44.5 110.5 44.5 172.5s-14.833 119.5 -44.5 172.5s-70 95.167 -121 126.5s-107.167 47 -168.5 47s-117.5 -15.667 -168.5 -47
s-91.333 -73.5 -121 -126.5s-44.5 -110.5 -44.5 -172.5s14.833 -119.5 44.5 -172.5s70 -95.167 121 -126.5s107.167 -47 168.5 -47s117.5 15.667 168.5 47zM518 132c-10 7.33301 -18.168 19.999 -24.501 37.999s-10.5 39 -12.5 63c-2.66699 32 -6.16699 56.5 -10.5 73.5
s-11.166 29.833 -20.499 38.5s-22.666 13 -39.999 13h-74v-182c0 -8 1.66699 -13.667 5 -17s9 -5 17 -5h44v-24h-202v24h42c8 0 13.667 1.66699 17 5s5 9 5 17v364c0 8 -1.66699 13.667 -5 17s-9 5 -17 5h-42v24h228c42 0 76.833 -9.5 104.5 -28.5s41.5 -46.167 41.5 -81.5
c0 -34.667 -12.5 -60.5 -37.5 -77.5s-49.833 -27.167 -74.5 -30.5v-4c32 -8.66699 55 -25 69 -49s23 -53.667 27 -89c3.33301 -28.667 7.16602 -48.5 11.499 -59.5s12.5 -16.5 24.5 -16.5c16 0 27 10.333 33 31s9 41.667 9 63h18c0 -31.333 -5.83301 -60.166 -17.5 -86.499
s-34.167 -39.5 -67.5 -39.5c-20.667 0 -37.667 4.66699 -51 14zM412.999 381.999c22 0 39.667 7.66699 53 23s20 37 20 65c0 28.667 -5.83301 51.167 -17.5 67.5s-30.5 24.5 -56.5 24.5h-54c-8 0 -13.667 -1.66699 -17 -5s-5 -9 -5 -17v-158h77z" />
    <glyph glyph-name="macron" unicode="&#xaf;" horiz-adv-x="460" 
d="M100 572v40h260v-40h-260z" />
    <glyph glyph-name="degree" unicode="&#xb0;" horiz-adv-x="580" 
d="M221.5 446c-21 12 -37.5 28.5 -49.5 49.5s-18 43.833 -18 68.5s6 47.5 18 68.5s28.5 37.5 49.5 49.5s43.833 18 68.5 18s47.5 -6 68.5 -18s37.5 -28.5 49.5 -49.5s18 -43.833 18 -68.5s-6 -47.5 -18 -68.5s-28.5 -37.5 -49.5 -49.5s-43.833 -18 -68.5 -18
s-47.5 6 -68.5 18zM364.5 489.5c19.667 19.667 29.5 44.5 29.5 74.5s-9.83301 54.833 -29.5 74.5s-44.5 29.5 -74.5 29.5s-54.833 -9.83301 -74.5 -29.5s-29.5 -44.5 -29.5 -74.5s9.83301 -54.833 29.5 -74.5s44.5 -29.5 74.5 -29.5s54.833 9.83301 74.5 29.5z" />
    <glyph glyph-name="plusminus" unicode="&#xb1;" horiz-adv-x="940" 
d="M448 64v274h-400v40h400v274h44v-274h400v-40h-400v-274h-44zM48 -40v40h836v-40h-836z" />
    <glyph glyph-name="twosuperior" unicode="&#xb2;" horiz-adv-x="380" 
d="M73 346c8.66699 21.333 29 44.3291 61 68.9961l63 49c20 15.333 34.833 32.333 44.5 51s14.5 40.667 14.5 66c0 27.333 -8 50 -24 68s-38.667 27 -68 27c-21.333 0 -40 -6 -56 -18s-24 -26.333 -24 -43c0 -9.33301 2.33301 -16.166 7 -20.499s11.334 -7.5 20.001 -9.5
c24.667 -3.33301 37 -15.333 37 -36c0 -8 -3 -14.5 -9 -19.5s-14.333 -7.5 -25 -7.5c-18 0 -32.833 6.5 -44.5 19.5s-17.5 30.167 -17.5 51.5c0 30.667 12.333 56.167 37 76.5s55.667 30.5 93 30.5c43.333 0 78.5 -10.5 105.5 -31.5s40.5 -49.5 40.5 -85.5
c0 -24.667 -9.5 -47.667 -28.5 -69s-43.167 -41.666 -72.5 -60.999l-64 -43c-18 -12 -31.667 -22.667 -41 -32s-14 -18.666 -14 -27.999s6.66699 -14 20 -14h122c18 0 30.167 2.33301 36.5 7s11.166 13.334 14.499 26.001l9 36h14l-9 -125h-255
c0 22.667 4.33301 44.667 13 66z" />
    <glyph glyph-name="threesuperior" unicode="&#xb3;" horiz-adv-x="380" 
d="M101 292.5c-22 15 -33.0029 36.166 -33.0029 63.499c0 14.667 4.66699 27 14 37s21.333 15 36 15c12.667 0 22.667 -3 30 -9s11 -14.333 11 -25c0 -8.66699 -2.66699 -16.167 -8 -22.5s-12.666 -9.5 -21.999 -9.5c-16.667 0 -25 -3.33301 -25 -10
c0 -25.333 27 -38 81 -38c32 0 54.833 9.33301 68.5 28s20.5 41.667 20.5 69c0 32.667 -7.16699 57 -21.5 73s-32.5 24 -54.5 24c-12.667 0 -25.667 -2.66699 -39 -8c-8 -4 -17 -6 -27 -6c-6.66699 0 -12.5 1.66699 -17.5 5s-7.5 8.33301 -7.5 15s2.5 11.667 7.5 15
s10.833 5 17.5 5c10 0 19.333 -1.33301 28 -4c9.33301 -2.66699 22.666 -4 39.999 -4c20.667 0 36.5 8.33301 47.5 25s16.5 36.334 16.5 59.001c0 26 -6.33301 46.667 -19 62s-31.667 23 -57 23c-44 0 -66 -13 -66 -39c0 -8 5.33301 -14.333 16 -19
c15.333 -6 23 -15.667 23 -29c0 -8.66699 -3 -15.667 -9 -21s-14.667 -8 -26 -8c-13.333 0 -24.666 4.83301 -33.999 14.5s-14 20.5 -14 32.5c0 28.667 11.5 51.5 34.5 68.5s50.5 25.5 82.5 25.5c40 0 72.167 -9.66699 96.5 -29s36.5 -45 36.5 -77
c0 -24 -8.66699 -44.333 -26 -61s-36.666 -27.334 -57.999 -32.001v-5c14.667 -2 29.834 -7.5 45.501 -16.5s29 -21.167 40 -36.5s16.5 -32.666 16.5 -51.999c0 -36.667 -15.5 -66 -46.5 -88s-69.167 -33 -114.5 -33c-34 0 -62 7.5 -84 22.5z" />
    <glyph glyph-name="acute" unicode="&#xb4;" horiz-adv-x="369" 
d="M100 519l92.001 133c8.66699 12 16.667 20.333 24 25s15.666 7 24.999 7c8.66699 0 15.5 -2.83301 20.5 -8.5s7.5 -13.167 7.5 -22.5c0 -15.333 -9.33301 -30 -28 -44l-128 -101z" />
    <glyph glyph-name="mu" unicode="&#xb5;" horiz-adv-x="606" 
d="M82 -250c-10.667 21.333 -16 43.6709 -16 67.0039c0 40 4 97.333 12 172c6.66699 62 10 109.667 10 143c-6 21.333 -11.833 52.5 -17.5 93.5s-8.5 83.833 -8.5 128.5c0 32.667 3.66699 59.167 11 79.5s21 30.5 41 30.5c29.333 0 44 -29.333 44 -88
c0 -22.667 -9 -84 -27 -184c-6 -31.333 -9.66699 -53.666 -11 -66.999c6.66699 -26.667 21.167 -48.5 43.5 -65.5s48.833 -25.5 79.5 -25.5s55.5 6.83301 74.5 20.5s32.5 29.167 40.5 46.5s12 31.666 12 42.999c0 18 -3 46.667 -9 86c-3.33301 22 -6 45.167 -8 69.5
s-3 43.166 -3 56.499c0 73.333 17.333 110 52 110c19.333 0 33.5 -10.667 42.5 -32s13.5 -50 13.5 -86c0 -34.667 -4.16699 -78.834 -12.5 -132.501s-18.5 -95.834 -30.5 -126.501c7.33301 -12 17.333 -21.167 30 -27.5s25.334 -9.5 38.001 -9.5
c20.667 0 37.167 6.5 49.5 19.5s20.166 28.167 23.499 45.5c14.667 -18 22 -36.333 22 -55c0 -22 -5.66699 -39.833 -17 -53.5s-27.333 -20.5 -48 -20.5c-42 0 -76.333 26.333 -103 79l-7 -1c-12 -20.667 -29.5 -38.5 -52.5 -53.5s-51.833 -22.5 -86.5 -22.5
c-36 0 -67.5 9.66699 -94.5 29s-47.167 42.666 -60.5 69.999c-3.33301 -21.333 -5 -41 -5 -59c0 -52 3.5 -92.167 10.5 -120.5s17.5 -55.833 31.5 -82.5c7.33301 -14.667 12.833 -26.667 16.5 -36s5.5 -18.333 5.5 -27c0 -14.667 -3.83301 -26 -11.5 -34
s-17.167 -12 -28.5 -12c-20 0 -35.333 10.667 -46 32z" />
    <glyph glyph-name="paragraph" unicode="&#xb6;" horiz-adv-x="540" 
d="M232 386c-48.667 0 -88.834 14.499 -120.501 43.499s-47.5 67.167 -47.5 114.5c0 31.333 7.33301 59.833 22 85.5s34.834 45.834 60.501 60.501s54.167 22 85.5 22h244v-34h-68v-834h-38v834h-100v-834h-38v542z" />
    <glyph glyph-name="periodcentered" unicode="&#xb7;" horiz-adv-x="280" 
d="M95.5 271.5c-11.667 11.667 -17.5 26.5 -17.5 44.5s5.83301 32.833 17.5 44.5s26.5 17.5 44.5 17.5s32.833 -5.83301 44.5 -17.5s17.5 -26.5 17.5 -44.5s-5.83301 -32.833 -17.5 -44.5s-26.5 -17.5 -44.5 -17.5s-32.833 5.83301 -44.5 17.5z" />
    <glyph glyph-name="cedilla" unicode="&#xb8;" horiz-adv-x="386" 
d="M125.5 -195.5c-17 11 -25.502 26.502 -25.502 46.502c0 7.33301 2.33301 13.666 7 18.999s10.334 8 17.001 8c15.333 0 24.333 -10.667 27 -32c4.66699 -26.667 18 -40 40 -40c18.667 0 32.834 4.16699 42.501 12.5s14.5 20.166 14.5 35.499c0 32 -19.333 48 -58 48h-41
l16 98h23l-8 -50h26c22 0 40.833 -6.16699 56.5 -18.5s23.5 -30.166 23.5 -53.499c0 -24.667 -8 -45.834 -24 -63.501s-42 -26.5 -78 -26.5c-22 0 -41.5 5.5 -58.5 16.5z" />
    <glyph glyph-name="onesuperior" unicode="&#xb9;" horiz-adv-x="380" 
d="M84 302h63c6 0 10.333 1.16699 13 3.5s4 6.16602 4 11.499v277h-80v28h40c23.333 0 41.833 6.83301 55.5 20.5s22.5 29.5 26.5 47.5h22v-373c0 -5.33301 1.33301 -9.16602 4 -11.499s7 -3.5 13 -3.5h63v-24h-224v24z" />
    <glyph glyph-name="ordmasculine" unicode="&#xba;" horiz-adv-x="380" 
d="M129 431.5c-18 13 -32.333 30.5 -43 52.5s-16 46 -16 72s5.33301 50 16 72s25 39.5 43 52.5s38 19.5 60 19.5s42.333 -6.5 61 -19.5s33.334 -30.5 44.001 -52.5s16 -46 16 -72s-5.33301 -50 -16 -72s-25.334 -39.5 -44.001 -52.5s-39 -19.5 -61 -19.5s-42 6.5 -60 19.5z
M239 468c10 25.333 15 54.668 15 88.001s-5 62.666 -15 87.999s-26.667 38 -50 38c-22.667 0 -38.834 -12.5 -48.501 -37.5s-14.5 -54.5 -14.5 -88.5s4.83301 -63.5 14.5 -88.5s25.834 -37.5 48.501 -37.5c23.333 0 40 12.667 50 38zM70 362.002v24h240v-24h-240z" />
    <glyph glyph-name="guillemotright" unicode="&#xbb;" horiz-adv-x="480" 
d="M241 43c24 21.333 42.5 48.3271 55.5 80.9941s19.5 67.334 19.5 104.001s-6.5 71.334 -19.5 104.001s-31.5 59.667 -55.5 81l15 15c30 -19.333 56.833 -46.666 80.5 -81.999s35.5 -74.666 35.5 -117.999s-11.833 -82.666 -35.5 -117.999s-50.5 -62.666 -80.5 -81.999z
M114 59.9941c18 22.667 31.333 47.502 40 74.502s13 58.167 13 93.5s-4.33301 66.5 -13 93.5s-22 51.833 -40 74.5l14 14c21.333 -17.333 41.166 -41.833 59.499 -73.5s27.5 -67.834 27.5 -108.501s-9.16699 -76.834 -27.5 -108.501s-38.166 -56.167 -59.499 -73.5z" />
    <glyph glyph-name="onequarter" unicode="&#xbc;" horiz-adv-x="820" 
d="M178 -18l428 718h36l-428 -718h-36zM84 302h63c6 0 10.333 1.16699 13 3.5s4 6.16602 4 11.499v277h-80v28h40c23.333 0 41.833 6.83301 55.5 20.5s22.5 29.5 26.5 47.5h22v-373c0 -5.33301 1.33301 -9.16602 4 -11.499s7 -3.5 13 -3.5h63v-24h-224v24zM566 22h55
c6 0 10.333 1.16699 13 3.5s4 6.16602 4 11.499v81h-154v28l166 264h52v-264h72v-28h-72v-81c0 -5.33301 1.33301 -9.16602 4 -11.499s7 -3.5 13 -3.5h55v-24h-208v24zM512 146h126v203z" />
    <glyph glyph-name="onehalf" unicode="&#xbd;" horiz-adv-x="820" 
d="M178 -18l428 718h36l-428 -718h-36zM84 302h63c6 0 10.333 1.16699 13 3.5s4 6.16602 4 11.499v277h-80v28h40c23.333 0 41.833 6.83301 55.5 20.5s22.5 29.5 26.5 47.5h22v-373c0 -5.33301 1.33301 -9.16602 4 -11.499s7 -3.5 13 -3.5h63v-24h-224v24zM513 66
c8.66699 21.333 29 44.3291 61 68.9961l63 49c20 15.333 34.833 32.333 44.5 51s14.5 40.667 14.5 66c0 27.333 -8 50 -24 68s-38.667 27 -68 27c-21.333 0 -40 -6 -56 -18s-24 -26.333 -24 -43c0 -9.33301 2.33301 -16.166 7 -20.499s11.334 -7.5 20.001 -9.5
c24.667 -3.33301 37 -15.333 37 -36c0 -8 -3 -14.5 -9 -19.5s-14.333 -7.5 -25 -7.5c-18 0 -32.833 6.5 -44.5 19.5s-17.5 30.167 -17.5 51.5c0 30.667 12.333 56.167 37 76.5s55.667 30.5 93 30.5c43.333 0 78.5 -10.5 105.5 -31.5s40.5 -49.5 40.5 -85.5
c0 -24.667 -9.5 -47.667 -28.5 -69s-43.167 -41.666 -72.5 -60.999l-64 -43c-18 -12 -31.667 -22.667 -41 -32s-14 -18.666 -14 -27.999s6.66699 -14 20 -14h122c18 0 30.167 2.33301 36.5 7s11.166 13.334 14.499 26.001l9 36h14l-9 -125h-255
c0 22.667 4.33301 44.667 13 66z" />
    <glyph glyph-name="threequarters" unicode="&#xbe;" horiz-adv-x="820" 
d="M101 292.5c-22 15 -33.0029 36.166 -33.0029 63.499c0 14.667 4.66699 27 14 37s21.333 15 36 15c12.667 0 22.667 -3 30 -9s11 -14.333 11 -25c0 -8.66699 -2.66699 -16.167 -8 -22.5s-12.666 -9.5 -21.999 -9.5c-16.667 0 -25 -3.33301 -25 -10
c0 -25.333 27 -38 81 -38c32 0 54.833 9.33301 68.5 28s20.5 41.667 20.5 69c0 32.667 -7.16699 57 -21.5 73s-32.5 24 -54.5 24c-12.667 0 -25.667 -2.66699 -39 -8c-8 -4 -17 -6 -27 -6c-6.66699 0 -12.5 1.66699 -17.5 5s-7.5 8.33301 -7.5 15s2.5 11.667 7.5 15
s10.833 5 17.5 5c10 0 19.333 -1.33301 28 -4c9.33301 -2.66699 22.666 -4 39.999 -4c20.667 0 36.5 8.33301 47.5 25s16.5 36.334 16.5 59.001c0 26 -6.33301 46.667 -19 62s-31.667 23 -57 23c-44 0 -66 -13 -66 -39c0 -8 5.33301 -14.333 16 -19
c15.333 -6 23 -15.667 23 -29c0 -8.66699 -3 -15.667 -9 -21s-14.667 -8 -26 -8c-13.333 0 -24.666 4.83301 -33.999 14.5s-14 20.5 -14 32.5c0 28.667 11.5 51.5 34.5 68.5s50.5 25.5 82.5 25.5c40 0 72.167 -9.66699 96.5 -29s36.5 -45 36.5 -77
c0 -24 -8.66699 -44.333 -26 -61s-36.666 -27.334 -57.999 -32.001v-5c14.667 -2 29.834 -7.5 45.501 -16.5s29 -21.167 40 -36.5s16.5 -32.666 16.5 -51.999c0 -36.667 -15.5 -66 -46.5 -88s-69.167 -33 -114.5 -33c-34 0 -62 7.5 -84 22.5zM177.997 -18.001l428 718h36
l-428 -718h-36zM565.997 21.999h55c6 0 10.333 1.16699 13 3.5s4 6.16602 4 11.499v81h-154v28l166 264h52v-264h72v-28h-72v-81c0 -5.33301 1.33301 -9.16602 4 -11.499s7 -3.5 13 -3.5h55v-24h-208v24zM511.997 145.999h126v203z" />
    <glyph glyph-name="questiondown" unicode="&#xbf;" horiz-adv-x="470" 
d="M169.5 361.5c-11.667 11.667 -17.5 26.5 -17.5 44.5s5.83301 32.833 17.5 44.5s26.5 17.5 44.5 17.5s32.833 -5.83301 44.5 -17.5s17.5 -26.5 17.5 -44.5s-5.83301 -32.833 -17.5 -44.5s-26.5 -17.5 -44.5 -17.5s-32.833 5.83301 -44.5 17.5zM133 -220.5
c-30 11.667 -54.0029 28.999 -72.0029 51.999s-27 50.5 -27 82.5c0 27.333 7 52.333 21 75s30.833 42.334 50.5 59.001s44.834 35.667 75.501 57c59.333 40.667 89 80.334 89 119.001c0 16.667 -5.16699 28.834 -15.5 36.501s-23.833 11.5 -40.5 11.5
c-17.333 0 -31.666 -6 -42.999 -18s-17 -28 -17 -48c0 -10.667 1.66699 -19.334 5 -26.001l-18 -8c-7.33301 12 -11 23.667 -11 35c0 18 4.16699 34.333 12.5 49s19.166 26 32.499 34s26.333 12 39 12c26 0 47.5 -7 64.5 -21s25.5 -34 25.5 -60
c0 -20 -3.83301 -37 -11.5 -51s-19.834 -30 -36.501 -48l-76 -82c-19.333 -21.333 -33.833 -41.333 -43.5 -60s-14.5 -40.667 -14.5 -66c0 -35.333 9.66699 -64.5 29 -87.5s48 -34.5 86 -34.5c20 0 39 3.66699 57 11s32.5 17 43.5 29s16.5 24.667 16.5 38
c0 15.333 -2 25 -6 29c-3.33301 2.66699 -6.66602 4 -9.99902 4c-4.66699 0 -8 -0.333008 -10 -1c-4.66699 -1.33301 -10.667 -2 -18 -2c-11.333 0 -20.166 3.83301 -26.499 11.5s-9.5 17.167 -9.5 28.5c0 14 4.66699 25.5 14 34.5s23 13.5 41 13.5
c18.667 0 34.834 -7.83301 48.501 -23.5s20.5 -36.834 20.5 -63.501c0 -26 -8.33301 -49.667 -25 -71s-38 -38 -64 -50s-52.333 -18 -79 -18c-34.667 0 -67 5.83301 -97 17.5z" />
    <glyph glyph-name="Agrave" unicode="&#xc0;" horiz-adv-x="764" 
d="M280 863c-18.667 14 -27.999 28.667 -27.999 44c0 9.33301 2.5 16.833 7.5 22.5s11.833 8.5 20.5 8.5c9.33301 0 17.666 -2.33301 24.999 -7s15.333 -13 24 -25l92 -133l-13 -11zM46.001 32h37c39.333 0 68 24.333 86 73l215 607h25l217 -636
c6.66699 -16.667 14.667 -28.167 24 -34.5s21.333 -9.5 36 -9.5h56v-32h-310v32h66c10 0 18.333 2.5 25 7.5s10 10.833 10 17.5c0 8.66699 -1.33301 16 -4 22l-47 133h-234l-24 -67c-9.33301 -26.667 -14 -46 -14 -58c0 -14.667 3.66699 -27.5 11 -38.5s20 -16.5 38 -16.5
h61v-32h-274v32zM259.001 244h212l-104 305z" />
    <glyph glyph-name="Aacute" unicode="&#xc1;" horiz-adv-x="764" 
d="M371 773l92.001 133c8.66699 12 16.667 20.333 24 25s15.666 7 24.999 7c8.66699 0 15.5 -2.83301 20.5 -8.5s7.5 -13.167 7.5 -22.5c0 -15.333 -9.33301 -30 -28 -44l-128 -101zM46.001 32h37c39.333 0 68 24.333 86 73l215 607h25l217 -636
c6.66699 -16.667 14.667 -28.167 24 -34.5s21.333 -9.5 36 -9.5h56v-32h-310v32h66c10 0 18.333 2.5 25 7.5s10 10.833 10 17.5c0 8.66699 -1.33301 16 -4 22l-47 133h-234l-24 -67c-9.33301 -26.667 -14 -46 -14 -58c0 -14.667 3.66699 -27.5 11 -38.5s20 -16.5 38 -16.5
h61v-32h-274v32zM259.001 244h212l-104 305z" />
    <glyph glyph-name="Acircumflex" unicode="&#xc2;" horiz-adv-x="764" 
d="M238 778c60.667 34.667 106.665 82 137.998 142h40c31.333 -60 77.333 -107.333 138 -142l-10 -16c-17.333 6 -41.166 18.833 -71.499 38.5s-55.833 38.834 -76.5 57.501c-20.667 -18.667 -46.167 -37.834 -76.5 -57.501s-54.166 -32.5 -71.499 -38.5zM45.998 32h37
c39.333 0 68 24.333 86 73l215 607h25l217 -636c6.66699 -16.667 14.667 -28.167 24 -34.5s21.333 -9.5 36 -9.5h56v-32h-310v32h66c10 0 18.333 2.5 25 7.5s10 10.833 10 17.5c0 8.66699 -1.33301 16 -4 22l-47 133h-234l-24 -67c-9.33301 -26.667 -14 -46 -14 -58
c0 -14.667 3.66699 -27.5 11 -38.5s20 -16.5 38 -16.5h61v-32h-274v32zM258.998 244h212l-104 305z" />
    <glyph glyph-name="Atilde" unicode="&#xc3;" horiz-adv-x="764" 
d="M240 810c2 25.333 10.5 47 25.5 65s35.167 27 60.5 27c19.333 0 49.333 -7 90 -21c32.667 -11.333 56.667 -17 72 -17c12 0 21.667 3.66699 29 11s12.333 17.666 15 30.999l20 -2c-2 -25.333 -10.5 -47 -25.5 -65s-35.167 -27 -60.5 -27c-19.333 0 -49.333 7 -90 21
c-32.667 11.333 -56.667 17 -72 17c-12 0 -21.667 -3.66699 -29 -11s-12.333 -17.666 -15 -30.999zM46 32h37c39.333 0 68 24.333 86 73l215 607h25l217 -636c6.66699 -16.667 14.667 -28.167 24 -34.5s21.333 -9.5 36 -9.5h56v-32h-310v32h66c10 0 18.333 2.5 25 7.5
s10 10.833 10 17.5c0 8.66699 -1.33301 16 -4 22l-47 133h-234l-24 -67c-9.33301 -26.667 -14 -46 -14 -58c0 -14.667 3.66699 -27.5 11 -38.5s20 -16.5 38 -16.5h61v-32h-274v32zM259 244h212l-104 305z" />
    <glyph glyph-name="Adieresis" unicode="&#xc4;" horiz-adv-x="764" 
d="M257 813c-10 10 -15 22.333 -15 37c0 15.333 5 27.833 15 37.5s22.333 14.5 37 14.5c15.333 0 27.833 -4.83301 37.5 -14.5s14.5 -22.167 14.5 -37.5c0 -14.667 -4.83301 -27 -14.5 -37s-22.167 -15 -37.5 -15c-14.667 0 -27 5 -37 15zM461 813c-10 10 -15 22.333 -15 37
c0 15.333 5 27.833 15 37.5s22.333 14.5 37 14.5c15.333 0 27.833 -4.83301 37.5 -14.5s14.5 -22.167 14.5 -37.5c0 -14.667 -4.83301 -27 -14.5 -37s-22.167 -15 -37.5 -15c-14.667 0 -27 5 -37 15zM46 32h37c39.333 0 68 24.333 86 73l215 607h25l217 -636
c6.66699 -16.667 14.667 -28.167 24 -34.5s21.333 -9.5 36 -9.5h56v-32h-310v32h66c10 0 18.333 2.5 25 7.5s10 10.833 10 17.5c0 8.66699 -1.33301 16 -4 22l-47 133h-234l-24 -67c-9.33301 -26.667 -14 -46 -14 -58c0 -14.667 3.66699 -27.5 11 -38.5s20 -16.5 38 -16.5
h61v-32h-274v32zM259 244h212l-104 305z" />
    <glyph glyph-name="Aring" unicode="&#xc5;" horiz-adv-x="764" 
d="M327 781c-19.333 19.333 -29 42.333 -29 69c0 27.333 9.66699 50.5 29 69.5s42.333 28.5 69 28.5c27.333 0 50.5 -9.5 69.5 -28.5s28.5 -42.167 28.5 -69.5c0 -26.667 -9.5 -49.667 -28.5 -69s-42.167 -29 -69.5 -29c-26.667 0 -49.667 9.66699 -69 29zM448.5 797.5
c14.333 14.333 21.5 31.833 21.5 52.5s-7.16699 38.167 -21.5 52.5s-31.833 21.5 -52.5 21.5s-38.167 -7.16699 -52.5 -21.5s-21.5 -31.833 -21.5 -52.5s7.16699 -38.167 21.5 -52.5s31.833 -21.5 52.5 -21.5s38.167 7.16699 52.5 21.5zM46 32h37c39.333 0 68 24.333 86 73
l215 607h25l217 -636c6.66699 -16.667 14.667 -28.167 24 -34.5s21.333 -9.5 36 -9.5h56v-32h-310v32h66c10 0 18.333 2.5 25 7.5s10 10.833 10 17.5c0 8.66699 -1.33301 16 -4 22l-47 133h-234l-24 -67c-9.33301 -26.667 -14 -46 -14 -58c0 -14.667 3.66699 -27.5 11 -38.5
s20 -16.5 38 -16.5h61v-32h-274v32zM259 244h212l-104 305z" />
    <glyph glyph-name="AE" unicode="&#xc6;" horiz-adv-x="1004" 
d="M26 32h31.999c25.333 0 45.833 6.83301 61.5 20.5s28.834 31.167 39.501 52.5l266 503c11.333 20.667 17 37.667 17 51c0 7.33301 -1.83301 12.666 -5.5 15.999s-10.167 5 -19.5 5h-41v32h558l4 -250h-25c0 13.333 -2.83301 36 -8.5 68s-16.834 60.667 -33.501 86
c-28 42.667 -67.333 64 -118 64h-159c-9.33301 0 -16.166 -2.16699 -20.499 -6.5s-6.5 -11.166 -6.5 -20.499v-269h77c34 0 58.5 17.333 73.5 52s22.5 71.667 22.5 111h26v-358h-26c0 39.333 -7.5 76.333 -22.5 111s-39.5 52 -73.5 52h-77v-293c0 -18 9 -27 27 -27h160
c19.333 0 39 4.33301 59 13s37 22 51 40c13.333 18.667 24.333 42 33 70s14.667 53.5 18 76.5s5.33301 37.833 6 44.5h25l-12 -276h-553v32h67c18 0 27 9 27 27v153h-216l-36 -67c-12 -22.667 -18 -42.667 -18 -60c0 -15.333 2.66699 -28 8 -38s17.333 -15 36 -15h47v-32
h-270v32zM275.999 244h199v376z" />
    <glyph glyph-name="Ccedilla" unicode="&#xc7;" horiz-adv-x="670" 
d="M298 -219.5c-20 12.333 -30.001 29.5 -30.001 51.5c0 8 2.5 15 7.5 21s11.5 9 19.5 9c17.333 0 28 -11.667 32 -35c2 -12.667 7.66699 -22.667 17 -30s21 -11 35 -11c20.667 0 36 4.5 46 13.5s15 21.167 15 36.5c0 34.667 -22.667 52 -68 52h-49l17 95
c-56.667 5.33301 -105.334 26.5 -146.001 63.5s-71.5 83.5 -92.5 139.5s-31.5 114.667 -31.5 176c0 67.333 11.333 129 34 185s55 100.5 97 133.5s91 49.5 147 49.5c29.333 0 57 -6.66699 83 -20s47.333 -27.666 64 -42.999c16 -14.667 26.667 -22 32 -22
s9.16602 1.66699 11.499 5s4.83301 8.66602 7.5 15.999l19 56h25l4 -310h-28c-14.667 63.333 -33.667 116.5 -57 159.5s-48.833 74.833 -76.5 95.5s-55.167 31 -82.5 31c-63.333 0 -108.166 -28.667 -134.499 -86s-39.5 -140.666 -39.5 -249.999
c0 -112.667 13.667 -198.834 41 -258.501s77 -89.5 149 -89.5c64 0 112.833 23.833 146.5 71.5s52.834 105.5 57.501 173.5h36c-2 -39.333 -10.167 -80 -24.5 -122s-39.166 -78.333 -74.499 -109s-82.333 -46 -141 -46l-7 -38h31c26 0 48.167 -7 66.5 -21s27.5 -34 27.5 -60
c0 -28 -9.33301 -51.833 -28 -71.5s-48.667 -29.5 -90 -29.5c-25.333 0 -48 6.16699 -68 18.5z" />
    <glyph glyph-name="Egrave" unicode="&#xc8;" horiz-adv-x="690" 
d="M252 863c-18.667 14 -27.999 28.667 -27.999 44c0 9.33301 2.5 16.833 7.5 22.5s11.833 8.5 20.5 8.5c9.33301 0 17.666 -2.33301 24.999 -7s15.333 -13 24 -25l92 -133l-13 -11zM62.001 32h71.999c18 0 27 9 27 27v594c0 9.33301 -2.16699 16.166 -6.5 20.499
s-11.166 6.5 -20.499 6.5h-72v32h558l4 -250h-25c0 13.333 -2.83301 36 -8.5 68s-16.834 60.667 -33.501 86c-28 42.667 -67.333 64 -118 64h-159c-9.33301 0 -16.166 -2.16699 -20.499 -6.5s-6.5 -11.166 -6.5 -20.499v-269h77c34 0 58.5 17.333 73.5 52
s22.5 71.667 22.5 111h26v-358h-26c0 39.333 -7.5 76.333 -22.5 111s-39.5 52 -73.5 52h-77v-293c0 -18 9 -27 27 -27h160c19.333 0 39 4.33301 59 13s37 22 51 40c13.333 18.667 24.333 42 33 70s14.667 53.5 18 76.5s5.33301 37.833 6 44.5h25l-12 -276h-558v32z" />
    <glyph glyph-name="Eacute" unicode="&#xc9;" horiz-adv-x="690" 
d="M343 773l92.001 133c8.66699 12 16.667 20.333 24 25s15.666 7 24.999 7c8.66699 0 15.5 -2.83301 20.5 -8.5s7.5 -13.167 7.5 -22.5c0 -15.333 -9.33301 -30 -28 -44l-128 -101zM62.001 32h71.999c18 0 27 9 27 27v594c0 9.33301 -2.16699 16.166 -6.5 20.499
s-11.166 6.5 -20.499 6.5h-72v32h558l4 -250h-25c0 13.333 -2.83301 36 -8.5 68s-16.834 60.667 -33.501 86c-28 42.667 -67.333 64 -118 64h-159c-9.33301 0 -16.166 -2.16699 -20.499 -6.5s-6.5 -11.166 -6.5 -20.499v-269h77c34 0 58.5 17.333 73.5 52
s22.5 71.667 22.5 111h26v-358h-26c0 39.333 -7.5 76.333 -22.5 111s-39.5 52 -73.5 52h-77v-293c0 -18 9 -27 27 -27h160c19.333 0 39 4.33301 59 13s37 22 51 40c13.333 18.667 24.333 42 33 70s14.667 53.5 18 76.5s5.33301 37.833 6 44.5h25l-12 -276h-558v32z" />
    <glyph glyph-name="Ecircumflex" unicode="&#xca;" horiz-adv-x="690" 
d="M210 778c60.667 34.667 106.665 82 137.998 142h40c31.333 -60 77.333 -107.333 138 -142l-10 -16c-17.333 6 -41.166 18.833 -71.499 38.5s-55.833 38.834 -76.5 57.501c-20.667 -18.667 -46.167 -37.834 -76.5 -57.501s-54.166 -32.5 -71.499 -38.5zM61.998 32h71.999
c18 0 27 9 27 27v594c0 9.33301 -2.16699 16.166 -6.5 20.499s-11.166 6.5 -20.499 6.5h-72v32h558l4 -250h-25c0 13.333 -2.83301 36 -8.5 68s-16.834 60.667 -33.501 86c-28 42.667 -67.333 64 -118 64h-159c-9.33301 0 -16.166 -2.16699 -20.499 -6.5
s-6.5 -11.166 -6.5 -20.499v-269h77c34 0 58.5 17.333 73.5 52s22.5 71.667 22.5 111h26v-358h-26c0 39.333 -7.5 76.333 -22.5 111s-39.5 52 -73.5 52h-77v-293c0 -18 9 -27 27 -27h160c19.333 0 39 4.33301 59 13s37 22 51 40c13.333 18.667 24.333 42 33 70
s14.667 53.5 18 76.5s5.33301 37.833 6 44.5h25l-12 -276h-558v32z" />
    <glyph glyph-name="Edieresis" unicode="&#xcb;" horiz-adv-x="690" 
d="M229 813c-10 10 -15 22.333 -15 37c0 15.333 5 27.833 15 37.5s22.333 14.5 37 14.5c15.333 0 27.833 -4.83301 37.5 -14.5s14.5 -22.167 14.5 -37.5c0 -14.667 -4.83301 -27 -14.5 -37s-22.167 -15 -37.5 -15c-14.667 0 -27 5 -37 15zM433 813c-10 10 -15 22.333 -15 37
c0 15.333 5 27.833 15 37.5s22.333 14.5 37 14.5c15.333 0 27.833 -4.83301 37.5 -14.5s14.5 -22.167 14.5 -37.5c0 -14.667 -4.83301 -27 -14.5 -37s-22.167 -15 -37.5 -15c-14.667 0 -27 5 -37 15zM62 32h71.999c18 0 27 9 27 27v594
c0 9.33301 -2.16699 16.166 -6.5 20.499s-11.166 6.5 -20.499 6.5h-72v32h558l4 -250h-25c0 13.333 -2.83301 36 -8.5 68s-16.834 60.667 -33.501 86c-28 42.667 -67.333 64 -118 64h-159c-9.33301 0 -16.166 -2.16699 -20.499 -6.5s-6.5 -11.166 -6.5 -20.499v-269h77
c34 0 58.5 17.333 73.5 52s22.5 71.667 22.5 111h26v-358h-26c0 39.333 -7.5 76.333 -22.5 111s-39.5 52 -73.5 52h-77v-293c0 -18 9 -27 27 -27h160c19.333 0 39 4.33301 59 13s37 22 51 40c13.333 18.667 24.333 42 33 70s14.667 53.5 18 76.5s5.33301 37.833 6 44.5h25
l-12 -276h-558v32z" />
    <glyph glyph-name="Igrave" unicode="&#xcc;" horiz-adv-x="394" 
d="M92 863c-18.667 14 -27.999 28.667 -27.999 44c0 9.33301 2.5 16.833 7.5 22.5s11.833 8.5 20.5 8.5c9.33301 0 17.666 -2.33301 24.999 -7s15.333 -13 24 -25l92 -133l-13 -11zM62.001 32h71.998c18 0 27 9 27 27v594c0 9.33301 -2.16699 16.166 -6.5 20.499
s-11.166 6.5 -20.499 6.5h-72v32h290v-32h-72c-9.33301 0 -16.166 -2.16699 -20.499 -6.5s-6.5 -11.166 -6.5 -20.499v-594c0 -18 9 -27 27 -27h72v-32h-290v32z" />
    <glyph glyph-name="Iacute" unicode="&#xcd;" horiz-adv-x="394" 
d="M183 773l92.001 133c8.66699 12 16.667 20.333 24 25s15.666 7 24.999 7c8.66699 0 15.5 -2.83301 20.5 -8.5s7.5 -13.167 7.5 -22.5c0 -15.333 -9.33301 -30 -28 -44l-128 -101zM62.001 32h71.998c18 0 27 9 27 27v594c0 9.33301 -2.16699 16.166 -6.5 20.499
s-11.166 6.5 -20.499 6.5h-72v32h290v-32h-72c-9.33301 0 -16.166 -2.16699 -20.499 -6.5s-6.5 -11.166 -6.5 -20.499v-594c0 -18 9 -27 27 -27h72v-32h-290v32z" />
    <glyph glyph-name="Icircumflex" unicode="&#xce;" horiz-adv-x="394" 
d="M50 778c60.667 34.667 106.665 82 137.998 142h40c31.333 -60 77.333 -107.333 138 -142l-10 -16c-17.333 6 -41.166 18.833 -71.499 38.5s-55.833 38.834 -76.5 57.501c-20.667 -18.667 -46.167 -37.834 -76.5 -57.501s-54.166 -32.5 -71.499 -38.5zM61.998 32h71.998
c18 0 27 9 27 27v594c0 9.33301 -2.16699 16.166 -6.5 20.499s-11.166 6.5 -20.499 6.5h-72v32h290v-32h-72c-9.33301 0 -16.166 -2.16699 -20.499 -6.5s-6.5 -11.166 -6.5 -20.499v-594c0 -18 9 -27 27 -27h72v-32h-290v32z" />
    <glyph glyph-name="Idieresis" unicode="&#xcf;" horiz-adv-x="394" 
d="M69 813c-10 10 -15 22.333 -15 37c0 15.333 5 27.833 15 37.5s22.333 14.5 37 14.5c15.333 0 27.833 -4.83301 37.5 -14.5s14.5 -22.167 14.5 -37.5c0 -14.667 -4.83301 -27 -14.5 -37s-22.167 -15 -37.5 -15c-14.667 0 -27 5 -37 15zM273 813c-10 10 -15 22.333 -15 37
c0 15.333 5 27.833 15 37.5s22.333 14.5 37 14.5c15.333 0 27.833 -4.83301 37.5 -14.5s14.5 -22.167 14.5 -37.5c0 -14.667 -4.83301 -27 -14.5 -37s-22.167 -15 -37.5 -15c-14.667 0 -27 5 -37 15zM62 32h71.998c18 0 27 9 27 27v594
c0 9.33301 -2.16699 16.166 -6.5 20.499s-11.166 6.5 -20.499 6.5h-72v32h290v-32h-72c-9.33301 0 -16.166 -2.16699 -20.499 -6.5s-6.5 -11.166 -6.5 -20.499v-594c0 -18 9 -27 27 -27h72v-32h-290v32z" />
    <glyph glyph-name="Eth" unicode="&#xd0;" horiz-adv-x="768" 
d="M62 32h71.999c18 0 27 9 27 27v297h-93v36h93v261c0 9.33301 -2.16699 16.166 -6.5 20.499s-11.166 6.5 -20.499 6.5h-72v32h366c55.333 0 106 -14.833 152 -44.5s82.5 -71 109.5 -124s40.5 -113.5 40.5 -181.5s-13.5 -129.667 -40.5 -185s-63.667 -98.666 -110 -129.999
s-96.833 -47 -151.5 -47h-366v32zM423.999 32c46.667 0 84.999 15.832 114.999 47.499s51.667 72.334 65 122.001s20 103.167 20 160.5c0 89.333 -16.167 164.666 -48.5 225.999s-82.833 92 -151.5 92h-144c-9.33301 0 -16.166 -2.16699 -20.499 -6.5
s-6.5 -11.166 -6.5 -20.499v-261h115v-36h-115v-297c0 -18 9 -27 27 -27h144z" />
    <glyph glyph-name="Ntilde" unicode="&#xd1;" horiz-adv-x="770" 
d="M260 810c2 25.333 10.5 47 25.5 65s35.167 27 60.5 27c19.333 0 49.333 -7 90 -21c32.667 -11.333 56.667 -17 72 -17c12 0 21.667 3.66699 29 11s12.333 17.666 15 30.999l20 -2c-2 -25.333 -10.5 -47 -25.5 -65s-35.167 -27 -60.5 -27c-19.333 0 -49.333 7 -90 21
c-32.667 11.333 -56.667 17 -72 17c-12 0 -21.667 -3.66699 -29 -11s-12.333 -17.666 -15 -30.999zM205 603l-4 0.000976562v-491c0 -24.667 5.83301 -44.167 17.5 -58.5s26.834 -21.5 45.501 -21.5h36v-32h-238v32h36c19.333 0 34.666 7.16699 45.999 21.5
s17 33.833 17 58.5v541c-0.666992 9.33301 -3 16.166 -7 20.499s-10.667 6.5 -20 6.5h-72v32h189l347 -558v446c0 24.667 -5.66699 44.167 -17 58.5s-26.333 21.5 -45 21.5h-36v32h238v-32h-36c-18.667 0 -34 -7.16699 -46 -21.5s-18 -33.833 -18 -58.5v-618h-40z" />
    <glyph glyph-name="Ograve" unicode="&#xd2;" horiz-adv-x="700" 
d="M244 863c-18.667 14 -27.999 28.667 -27.999 44c0 9.33301 2.5 16.833 7.5 22.5s11.833 8.5 20.5 8.5c9.33301 0 17.666 -2.33301 24.999 -7s15.333 -13 24 -25l92 -133l-13 -11zM210.001 35c-44 35.333 -78.333 81.833 -103 139.5s-37 118.167 -37 181.5
s12.333 123.833 37 181.5s59 104.167 103 139.5s94 53 150 53s106 -17.667 150 -53s78.333 -81.833 103 -139.5s37 -118.167 37 -181.5s-12.333 -123.833 -37 -181.5s-59 -104.167 -103 -139.5s-94 -53 -150 -53s-106 17.667 -150 53zM501.001 103.5
c28.667 59.667 43 143.834 43 252.501c0 109.333 -14.333 193.666 -43 252.999s-75.667 89 -141 89s-112.333 -29.667 -141 -89s-43 -143.666 -43 -252.999c0 -108.667 14.333 -192.834 43 -252.501s75.667 -89.5 141 -89.5s112.333 29.833 141 89.5z" />
    <glyph glyph-name="Oacute" unicode="&#xd3;" horiz-adv-x="700" 
d="M335 773l92.001 133c8.66699 12 16.667 20.333 24 25s15.666 7 24.999 7c8.66699 0 15.5 -2.83301 20.5 -8.5s7.5 -13.167 7.5 -22.5c0 -15.333 -9.33301 -30 -28 -44l-128 -101zM210.001 35c-44 35.333 -78.333 81.833 -103 139.5s-37 118.167 -37 181.5
s12.333 123.833 37 181.5s59 104.167 103 139.5s94 53 150 53s106 -17.667 150 -53s78.333 -81.833 103 -139.5s37 -118.167 37 -181.5s-12.333 -123.833 -37 -181.5s-59 -104.167 -103 -139.5s-94 -53 -150 -53s-106 17.667 -150 53zM501.001 103.5
c28.667 59.667 43 143.834 43 252.501c0 109.333 -14.333 193.666 -43 252.999s-75.667 89 -141 89s-112.333 -29.667 -141 -89s-43 -143.666 -43 -252.999c0 -108.667 14.333 -192.834 43 -252.501s75.667 -89.5 141 -89.5s112.333 29.833 141 89.5z" />
    <glyph glyph-name="Ocircumflex" unicode="&#xd4;" horiz-adv-x="700" 
d="M202 778c60.667 34.667 106.665 82 137.998 142h40c31.333 -60 77.333 -107.333 138 -142l-10 -16c-17.333 6 -41.166 18.833 -71.499 38.5s-55.833 38.834 -76.5 57.501c-20.667 -18.667 -46.167 -37.834 -76.5 -57.501s-54.166 -32.5 -71.499 -38.5zM209.998 35
c-44 35.333 -78.333 81.833 -103 139.5s-37 118.167 -37 181.5s12.333 123.833 37 181.5s59 104.167 103 139.5s94 53 150 53s106 -17.667 150 -53s78.333 -81.833 103 -139.5s37 -118.167 37 -181.5s-12.333 -123.833 -37 -181.5s-59 -104.167 -103 -139.5
s-94 -53 -150 -53s-106 17.667 -150 53zM500.998 103.5c28.667 59.667 43 143.834 43 252.501c0 109.333 -14.333 193.666 -43 252.999s-75.667 89 -141 89s-112.333 -29.667 -141 -89s-43 -143.666 -43 -252.999c0 -108.667 14.333 -192.834 43 -252.501
s75.667 -89.5 141 -89.5s112.333 29.833 141 89.5z" />
    <glyph glyph-name="Otilde" unicode="&#xd5;" horiz-adv-x="700" 
d="M204 810c2 25.333 10.5 47 25.5 65s35.167 27 60.5 27c19.333 0 49.333 -7 90 -21c32.667 -11.333 56.667 -17 72 -17c12 0 21.667 3.66699 29 11s12.333 17.666 15 30.999l20 -2c-2 -25.333 -10.5 -47 -25.5 -65s-35.167 -27 -60.5 -27c-19.333 0 -49.333 7 -90 21
c-32.667 11.333 -56.667 17 -72 17c-12 0 -21.667 -3.66699 -29 -11s-12.333 -17.666 -15 -30.999zM210 35c-44 35.333 -78.333 81.833 -103 139.5s-37 118.167 -37 181.5s12.333 123.833 37 181.5s59 104.167 103 139.5s94 53 150 53s106 -17.667 150 -53
s78.333 -81.833 103 -139.5s37 -118.167 37 -181.5s-12.333 -123.833 -37 -181.5s-59 -104.167 -103 -139.5s-94 -53 -150 -53s-106 17.667 -150 53zM501 103.5c28.667 59.667 43 143.834 43 252.501c0 109.333 -14.333 193.666 -43 252.999s-75.667 89 -141 89
s-112.333 -29.667 -141 -89s-43 -143.666 -43 -252.999c0 -108.667 14.333 -192.834 43 -252.501s75.667 -89.5 141 -89.5s112.333 29.833 141 89.5z" />
    <glyph glyph-name="Odieresis" unicode="&#xd6;" horiz-adv-x="700" 
d="M221 813c-10 10 -15 22.333 -15 37c0 15.333 5 27.833 15 37.5s22.333 14.5 37 14.5c15.333 0 27.833 -4.83301 37.5 -14.5s14.5 -22.167 14.5 -37.5c0 -14.667 -4.83301 -27 -14.5 -37s-22.167 -15 -37.5 -15c-14.667 0 -27 5 -37 15zM425 813c-10 10 -15 22.333 -15 37
c0 15.333 5 27.833 15 37.5s22.333 14.5 37 14.5c15.333 0 27.833 -4.83301 37.5 -14.5s14.5 -22.167 14.5 -37.5c0 -14.667 -4.83301 -27 -14.5 -37s-22.167 -15 -37.5 -15c-14.667 0 -27 5 -37 15zM210 35c-44 35.333 -78.333 81.833 -103 139.5s-37 118.167 -37 181.5
s12.333 123.833 37 181.5s59 104.167 103 139.5s94 53 150 53s106 -17.667 150 -53s78.333 -81.833 103 -139.5s37 -118.167 37 -181.5s-12.333 -123.833 -37 -181.5s-59 -104.167 -103 -139.5s-94 -53 -150 -53s-106 17.667 -150 53zM501 103.5
c28.667 59.667 43 143.834 43 252.501c0 109.333 -14.333 193.666 -43 252.999s-75.667 89 -141 89s-112.333 -29.667 -141 -89s-43 -143.666 -43 -252.999c0 -108.667 14.333 -192.834 43 -252.501s75.667 -89.5 141 -89.5s112.333 29.833 141 89.5z" />
    <glyph glyph-name="multiply" unicode="&#xd7;" horiz-adv-x="940" 
d="M188 -50l-32 32l283 282l-283 282l32 32l282 -283l282 283l32 -32l-283 -282l283 -282l-32 -32l-282 283z" />
    <glyph glyph-name="Oslash" unicode="&#xd8;" horiz-adv-x="700" 
d="M70 6l75 98.999c-24 34.667 -42.5 73.834 -55.5 117.501s-19.5 88.167 -19.5 133.5c0 63.333 12.167 123.833 36.5 181.5s58.666 104.167 102.999 139.5s94.5 53 150.5 53c36.667 0 71 -7.83301 103 -23.5s60.667 -37.5 86 -65.5l67 89l32 -24l-74 -98
c24.667 -34.667 43.5 -73.834 56.5 -117.501s19.5 -88.5 19.5 -134.5c0 -63.333 -12.333 -123.833 -37 -181.5s-59 -104.167 -103 -139.5s-94 -53 -150 -53c-36.667 0 -71.167 7.83301 -103.5 23.5s-61.166 37.834 -86.499 66.501l-68 -90zM510 588.999
c-29.333 72.667 -79.333 108.999 -150 108.999c-65.333 0 -112.333 -29.667 -141 -89s-43 -143.666 -43 -252.999c0 -71.333 6 -133 18 -185zM501 103.498c28.667 59.667 43 143.833 43 252.5c0 74 -6.33301 136.333 -19 187l-316 -419c30 -73.333 80.333 -110 151 -110
c65.333 0 112.333 29.833 141 89.5z" />
    <glyph glyph-name="Ugrave" unicode="&#xd9;" horiz-adv-x="780" 
d="M296 863c-18.667 14 -27.999 28.667 -27.999 44c0 9.33301 2.5 16.833 7.5 22.5s11.833 8.5 20.5 8.5c9.33301 0 17.666 -2.33301 24.999 -7s15.333 -13 24 -25l92 -133l-13 -11zM265.001 17.5c-39.333 23.667 -68.1689 54.667 -86.502 93s-27.5 80.5 -27.5 126.5v416
c0 9.33301 -2.16699 16.166 -6.5 20.499s-11.166 6.5 -20.499 6.5h-72v32h291v-32h-73c-9.33301 0 -16.166 -2.16699 -20.499 -6.5s-6.5 -11.166 -6.5 -20.499v-443c0 -62 15 -110.167 45 -144.5s72 -51.5 126 -51.5c42 0 78 8.5 108 25.5s52.667 39.5 68 67.5
s23 58.333 23 91v401c0 24.667 -6 44.334 -18 59.001s-27.333 22 -46 22h-35v32h238v-32h-35c-18.667 0 -34 -7.33301 -46 -22s-18 -34.334 -18 -59.001v-391c0 -42 -9.5 -80.167 -28.5 -114.5s-46.667 -61.5 -83 -81.5s-78.833 -30 -127.5 -30
c-60 0 -109.667 11.833 -149 35.5z" />
    <glyph glyph-name="Uacute" unicode="&#xda;" horiz-adv-x="780" 
d="M387 773l92.001 133c8.66699 12 16.667 20.333 24 25s15.666 7 24.999 7c8.66699 0 15.5 -2.83301 20.5 -8.5s7.5 -13.167 7.5 -22.5c0 -15.333 -9.33301 -30 -28 -44l-128 -101zM265.001 17.5c-39.333 23.667 -68.1689 54.667 -86.502 93s-27.5 80.5 -27.5 126.5v416
c0 9.33301 -2.16699 16.166 -6.5 20.499s-11.166 6.5 -20.499 6.5h-72v32h291v-32h-73c-9.33301 0 -16.166 -2.16699 -20.499 -6.5s-6.5 -11.166 -6.5 -20.499v-443c0 -62 15 -110.167 45 -144.5s72 -51.5 126 -51.5c42 0 78 8.5 108 25.5s52.667 39.5 68 67.5
s23 58.333 23 91v401c0 24.667 -6 44.334 -18 59.001s-27.333 22 -46 22h-35v32h238v-32h-35c-18.667 0 -34 -7.33301 -46 -22s-18 -34.334 -18 -59.001v-391c0 -42 -9.5 -80.167 -28.5 -114.5s-46.667 -61.5 -83 -81.5s-78.833 -30 -127.5 -30
c-60 0 -109.667 11.833 -149 35.5z" />
    <glyph glyph-name="Ucircumflex" unicode="&#xdb;" horiz-adv-x="780" 
d="M254 778c60.667 34.667 106.665 82 137.998 142h40c31.333 -60 77.333 -107.333 138 -142l-10 -16c-17.333 6 -41.166 18.833 -71.499 38.5s-55.833 38.834 -76.5 57.501c-20.667 -18.667 -46.167 -37.834 -76.5 -57.501s-54.166 -32.5 -71.499 -38.5zM264.998 17.5
c-39.333 23.667 -68.1689 54.667 -86.502 93s-27.5 80.5 -27.5 126.5v416c0 9.33301 -2.16699 16.166 -6.5 20.499s-11.166 6.5 -20.499 6.5h-72v32h291v-32h-73c-9.33301 0 -16.166 -2.16699 -20.499 -6.5s-6.5 -11.166 -6.5 -20.499v-443c0 -62 15 -110.167 45 -144.5
s72 -51.5 126 -51.5c42 0 78 8.5 108 25.5s52.667 39.5 68 67.5s23 58.333 23 91v401c0 24.667 -6 44.334 -18 59.001s-27.333 22 -46 22h-35v32h238v-32h-35c-18.667 0 -34 -7.33301 -46 -22s-18 -34.334 -18 -59.001v-391c0 -42 -9.5 -80.167 -28.5 -114.5
s-46.667 -61.5 -83 -81.5s-78.833 -30 -127.5 -30c-60 0 -109.667 11.833 -149 35.5z" />
    <glyph glyph-name="Udieresis" unicode="&#xdc;" horiz-adv-x="780" 
d="M273 813c-10 10 -15 22.333 -15 37c0 15.333 5 27.833 15 37.5s22.333 14.5 37 14.5c15.333 0 27.833 -4.83301 37.5 -14.5s14.5 -22.167 14.5 -37.5c0 -14.667 -4.83301 -27 -14.5 -37s-22.167 -15 -37.5 -15c-14.667 0 -27 5 -37 15zM477 813c-10 10 -15 22.333 -15 37
c0 15.333 5 27.833 15 37.5s22.333 14.5 37 14.5c15.333 0 27.833 -4.83301 37.5 -14.5s14.5 -22.167 14.5 -37.5c0 -14.667 -4.83301 -27 -14.5 -37s-22.167 -15 -37.5 -15c-14.667 0 -27 5 -37 15zM265 17.5c-39.333 23.667 -68.1689 54.667 -86.502 93
s-27.5 80.5 -27.5 126.5v416c0 9.33301 -2.16699 16.166 -6.5 20.499s-11.166 6.5 -20.499 6.5h-72v32h291v-32h-73c-9.33301 0 -16.166 -2.16699 -20.499 -6.5s-6.5 -11.166 -6.5 -20.499v-443c0 -62 15 -110.167 45 -144.5s72 -51.5 126 -51.5c42 0 78 8.5 108 25.5
s52.667 39.5 68 67.5s23 58.333 23 91v401c0 24.667 -6 44.334 -18 59.001s-27.333 22 -46 22h-35v32h238v-32h-35c-18.667 0 -34 -7.33301 -46 -22s-18 -34.334 -18 -59.001v-391c0 -42 -9.5 -80.167 -28.5 -114.5s-46.667 -61.5 -83 -81.5s-78.833 -30 -127.5 -30
c-60 0 -109.667 11.833 -149 35.5z" />
    <glyph glyph-name="Yacute" unicode="&#xdd;" horiz-adv-x="728" 
d="M367 773l92.001 133c8.66699 12 16.667 20.333 24 25s15.666 7 24.999 7c8.66699 0 15.5 -2.83301 20.5 -8.5s7.5 -13.167 7.5 -22.5c0 -15.333 -9.33301 -30 -28 -44l-128 -101zM224.001 32h95.999c18 0 27 9 27 27v259l-194 318c-10 17.333 -19 29 -27 35
s-18.667 9 -32 9h-52v32h310v-32h-60c-10 0 -18.333 -2.33301 -25 -7s-10 -10.667 -10 -18c0 -10 1.66699 -17.333 5 -22l158 -267l102 196c3.33301 4.66699 7 14 11 28s6 25 6 33c0 16 -4.5 29.5 -13.5 40.5s-22.833 16.5 -41.5 16.5h-30v32h248v-32h-29
c-21.333 0 -38.666 -6.5 -51.999 -19.5s-26.333 -30.833 -39 -53.5l-143 -272v-276c0 -18 9 -27 27 -27h96v-32h-338v32z" />
    <glyph glyph-name="Thorn" unicode="&#xde;" horiz-adv-x="680" 
d="M62 32l71.998 0.000976562c18 0 27 9 27 27v594c0 9.33301 -2.16699 16.166 -6.5 20.499s-11.166 6.5 -20.499 6.5h-72v32h306v-32h-88c-9.33301 0 -16.166 -2.16699 -20.499 -6.5s-6.5 -11.166 -6.5 -20.499v-67h143c46.667 0 88.167 -7.83301 124.5 -23.5
s64.666 -37.667 84.999 -66s30.5 -60.5 30.5 -96.5c0 -36.667 -10.167 -69.334 -30.5 -98.001s-48.666 -51.167 -84.999 -67.5s-77.833 -24.5 -124.5 -24.5h-143v-151c0 -18 9 -27 27 -27h88v-32h-306v32zM408.998 242.001c36 0 65.166 15.499 87.499 46.499
s33.5 68.167 33.5 111.5s-11 79.833 -33 109.5s-51.333 44.5 -88 44.5h-129c-9.33301 0 -16.166 -2.16699 -20.499 -6.5s-6.5 -11.166 -6.5 -20.499v-285h156z" />
    <glyph glyph-name="germandbls" unicode="&#xdf;" horiz-adv-x="526" 
d="M234 15c-21.333 18 -32 40.999 -32 68.999c0 19.333 5 34.166 15 44.499s22.333 15.5 37 15.5c16 0 27.333 -4 34 -12s10 -18 10 -30c0 -9.33301 -2.66699 -16.833 -8 -22.5s-12.666 -10.834 -21.999 -15.501c-8 -4.66699 -12 -10 -12 -16
c0 -11.333 5.5 -20.166 16.5 -26.499s24.5 -9.5 40.5 -9.5c24.667 0 43.667 12.333 57 37s20 67.667 20 129c0 70 -11.333 127.167 -34 171.5s-54.667 66.5 -96 66.5h-38v28h38c36 0 62.667 13.5 80 40.5s26 58.833 26 95.5c0 76 -27.667 114 -83 114
c-18.667 0 -36.167 -6 -52.5 -18s-29.833 -30.5 -40.5 -55.5s-16 -55.833 -16 -92.5v-528h-146v24h52c8 0 13.667 1.66699 17 5s5 9 5 17v463c0 46 9.16699 84.667 27.5 116s41.666 54.666 69.999 69.999s57.833 23 88.5 23c46.667 0 84 -12.333 112 -37s42 -56.667 42 -96
c0 -27.333 -7.5 -51.666 -22.5 -72.999s-33.5 -38.666 -55.5 -51.999s-43.667 -22.666 -65 -27.999v-4c48 -14 89.833 -41.5 125.5 -82.5s53.5 -96.833 53.5 -167.5c0 -38 -7.33301 -71.5 -22 -100.5s-34.667 -51.167 -60 -66.5s-53.333 -23 -84 -23s-56.667 9 -78 27z" />
    <glyph glyph-name="agrave" unicode="&#xe0;" horiz-adv-x="494" 
d="M112 609c-18.667 14 -27.999 28.667 -27.999 44c0 9.33301 2.5 16.833 7.5 22.5s11.833 8.5 20.5 8.5c9.33301 0 17.666 -2.33301 24.999 -7s15.333 -13 24 -25l92 -133l-13 -11zM84.501 14c-25.667 17.333 -38.502 48.0029 -38.502 92.0029c0 34 8.66699 60.667 26 80
s37.5 33.166 60.5 41.499s50.833 15.5 83.5 21.5l92 17v85c0 62 -31 93 -93 93c-22.667 0 -43.334 -5.83301 -62.001 -17.5s-28 -24.834 -28 -39.501c0 -6.66699 1 -11.667 3 -15c1.33301 -2 3.5 -4 6.5 -6s5.83301 -3.33301 8.5 -4c12 -3.33301 21.167 -8 27.5 -14
s9.5 -14.333 9.5 -25c0 -14 -4.16699 -24 -12.5 -30s-18.833 -9 -31.5 -9c-14.667 0 -28 5.66699 -40 17s-18 27.666 -18 48.999c0 24.667 6.83301 46 20.5 64s31.334 31.5 53.001 40.5s43.834 13.5 66.501 13.5c44 0 82 -11.5 114 -34.5s48 -58.833 48 -107.5v-246
c0 -33.333 10.333 -50 31 -50c16.667 0 28.667 9.66699 36 29s11 43 11 71h18c0 -40 -5.83301 -73.667 -17.5 -101s-32.5 -41 -62.5 -41c-28.667 0 -50.167 8.5 -64.5 25.5s-22.166 40.5 -23.499 70.5l-5 2c-10 -23.333 -26.167 -45.5 -48.5 -66.5s-48.5 -31.5 -78.5 -31.5
c-35.333 0 -65.833 8.66699 -91.5 26zM262.499 59.5029c17 23.667 32.167 53.834 45.5 90.501v95l-87 -19c-32 -6.66699 -55.167 -19.834 -69.5 -39.501s-21.5 -47.5 -21.5 -83.5c0 -30.667 6.33301 -51.5 19 -62.5s27 -16.5 43 -16.5c30 0 53.5 11.833 70.5 35.5z" />
    <glyph glyph-name="aacute" unicode="&#xe1;" horiz-adv-x="494" 
d="M203 519l92.001 133c8.66699 12 16.667 20.333 24 25s15.666 7 24.999 7c8.66699 0 15.5 -2.83301 20.5 -8.5s7.5 -13.167 7.5 -22.5c0 -15.333 -9.33301 -30 -28 -44l-128 -101zM84.501 14c-25.667 17.333 -38.502 48.0029 -38.502 92.0029c0 34 8.66699 60.667 26 80
s37.5 33.166 60.5 41.499s50.833 15.5 83.5 21.5l92 17v85c0 62 -31 93 -93 93c-22.667 0 -43.334 -5.83301 -62.001 -17.5s-28 -24.834 -28 -39.501c0 -6.66699 1 -11.667 3 -15c1.33301 -2 3.5 -4 6.5 -6s5.83301 -3.33301 8.5 -4c12 -3.33301 21.167 -8 27.5 -14
s9.5 -14.333 9.5 -25c0 -14 -4.16699 -24 -12.5 -30s-18.833 -9 -31.5 -9c-14.667 0 -28 5.66699 -40 17s-18 27.666 -18 48.999c0 24.667 6.83301 46 20.5 64s31.334 31.5 53.001 40.5s43.834 13.5 66.501 13.5c44 0 82 -11.5 114 -34.5s48 -58.833 48 -107.5v-246
c0 -33.333 10.333 -50 31 -50c16.667 0 28.667 9.66699 36 29s11 43 11 71h18c0 -40 -5.83301 -73.667 -17.5 -101s-32.5 -41 -62.5 -41c-28.667 0 -50.167 8.5 -64.5 25.5s-22.166 40.5 -23.499 70.5l-5 2c-10 -23.333 -26.167 -45.5 -48.5 -66.5s-48.5 -31.5 -78.5 -31.5
c-35.333 0 -65.833 8.66699 -91.5 26zM262.499 59.5029c17 23.667 32.167 53.834 45.5 90.501v95l-87 -19c-32 -6.66699 -55.167 -19.834 -69.5 -39.501s-21.5 -47.5 -21.5 -83.5c0 -30.667 6.33301 -51.5 19 -62.5s27 -16.5 43 -16.5c30 0 53.5 11.833 70.5 35.5z" />
    <glyph glyph-name="acircumflex" unicode="&#xe2;" horiz-adv-x="494" 
d="M97 521c50 32.667 87 83 111 151h40c24 -68 61 -118.333 111 -151l-9 -13c-46 24 -86.667 54.667 -122 92c-36 -38 -76.667 -68.667 -122 -92zM84.5 14c-25.667 17.333 -38.502 48.0029 -38.502 92.0029c0 34 8.66699 60.667 26 80s37.5 33.166 60.5 41.499
s50.833 15.5 83.5 21.5l92 17v85c0 62 -31 93 -93 93c-22.667 0 -43.334 -5.83301 -62.001 -17.5s-28 -24.834 -28 -39.501c0 -6.66699 1 -11.667 3 -15c1.33301 -2 3.5 -4 6.5 -6s5.83301 -3.33301 8.5 -4c12 -3.33301 21.167 -8 27.5 -14s9.5 -14.333 9.5 -25
c0 -14 -4.16699 -24 -12.5 -30s-18.833 -9 -31.5 -9c-14.667 0 -28 5.66699 -40 17s-18 27.666 -18 48.999c0 24.667 6.83301 46 20.5 64s31.334 31.5 53.001 40.5s43.834 13.5 66.501 13.5c44 0 82 -11.5 114 -34.5s48 -58.833 48 -107.5v-246c0 -33.333 10.333 -50 31 -50
c16.667 0 28.667 9.66699 36 29s11 43 11 71h18c0 -40 -5.83301 -73.667 -17.5 -101s-32.5 -41 -62.5 -41c-28.667 0 -50.167 8.5 -64.5 25.5s-22.166 40.5 -23.499 70.5l-5 2c-10 -23.333 -26.167 -45.5 -48.5 -66.5s-48.5 -31.5 -78.5 -31.5
c-35.333 0 -65.833 8.66699 -91.5 26zM262.498 59.5029c17 23.667 32.167 53.834 45.5 90.501v95l-87 -19c-32 -6.66699 -55.167 -19.834 -69.5 -39.501s-21.5 -47.5 -21.5 -83.5c0 -30.667 6.33301 -51.5 19 -62.5s27 -16.5 43 -16.5c30 0 53.5 11.833 70.5 35.5z" />
    <glyph glyph-name="atilde" unicode="&#xe3;" horiz-adv-x="494" 
d="M86 558c4 24 13.333 44.667 28 62s34 26 58 26c12.667 0 24.667 -1.83301 36 -5.5s24.333 -8.5 39 -14.5c12.667 -5.33301 23.334 -9.33301 32.001 -12s18 -4 28 -4c22.667 0 38 14 46 42l17 -4c-4 -24 -13.333 -44.667 -28 -62s-34 -26 -58 -26
c-12.667 0 -24.667 1.83301 -36 5.5s-24.333 8.5 -39 14.5c-12.667 5.33301 -23.334 9.33301 -32.001 12s-18 4 -28 4c-22.667 0 -38 -14 -46 -42zM84.5 14c-25.667 17.333 -38.502 48.0029 -38.502 92.0029c0 34 8.66699 60.667 26 80s37.5 33.166 60.5 41.499
s50.833 15.5 83.5 21.5l92 17v85c0 62 -31 93 -93 93c-22.667 0 -43.334 -5.83301 -62.001 -17.5s-28 -24.834 -28 -39.501c0 -6.66699 1 -11.667 3 -15c1.33301 -2 3.5 -4 6.5 -6s5.83301 -3.33301 8.5 -4c12 -3.33301 21.167 -8 27.5 -14s9.5 -14.333 9.5 -25
c0 -14 -4.16699 -24 -12.5 -30s-18.833 -9 -31.5 -9c-14.667 0 -28 5.66699 -40 17s-18 27.666 -18 48.999c0 24.667 6.83301 46 20.5 64s31.334 31.5 53.001 40.5s43.834 13.5 66.501 13.5c44 0 82 -11.5 114 -34.5s48 -58.833 48 -107.5v-246c0 -33.333 10.333 -50 31 -50
c16.667 0 28.667 9.66699 36 29s11 43 11 71h18c0 -40 -5.83301 -73.667 -17.5 -101s-32.5 -41 -62.5 -41c-28.667 0 -50.167 8.5 -64.5 25.5s-22.166 40.5 -23.499 70.5l-5 2c-10 -23.333 -26.167 -45.5 -48.5 -66.5s-48.5 -31.5 -78.5 -31.5
c-35.333 0 -65.833 8.66699 -91.5 26zM262.498 59.5029c17 23.667 32.167 53.834 45.5 90.501v95l-87 -19c-32 -6.66699 -55.167 -19.834 -69.5 -39.501s-21.5 -47.5 -21.5 -83.5c0 -30.667 6.33301 -51.5 19 -62.5s27 -16.5 43 -16.5c30 0 53.5 11.833 70.5 35.5z" />
    <glyph glyph-name="adieresis" unicode="&#xe4;" horiz-adv-x="494" 
d="M100.5 562.5c-9.66699 9.66699 -14.5 20.834 -14.5 33.501c0 13.333 4.83301 24.666 14.5 33.999s20.834 14 33.501 14c13.333 0 24.666 -4.66699 33.999 -14s14 -20.666 14 -33.999c0 -12.667 -4.66699 -23.834 -14 -33.501s-20.666 -14.5 -33.999 -14.5
c-12.667 0 -23.834 4.83301 -33.501 14.5zM288.5 562.5c-9.66699 9.66699 -14.5 20.834 -14.5 33.501c0 13.333 4.83301 24.666 14.5 33.999s20.834 14 33.501 14c13.333 0 24.666 -4.66699 33.999 -14s14 -20.666 14 -33.999c0 -12.667 -4.66699 -23.834 -14 -33.501
s-20.666 -14.5 -33.999 -14.5c-12.667 0 -23.834 4.83301 -33.501 14.5zM84.5 14c-25.667 17.333 -38.502 48.0029 -38.502 92.0029c0 34 8.66699 60.667 26 80s37.5 33.166 60.5 41.499s50.833 15.5 83.5 21.5l92 17v85c0 62 -31 93 -93 93
c-22.667 0 -43.334 -5.83301 -62.001 -17.5s-28 -24.834 -28 -39.501c0 -6.66699 1 -11.667 3 -15c1.33301 -2 3.5 -4 6.5 -6s5.83301 -3.33301 8.5 -4c12 -3.33301 21.167 -8 27.5 -14s9.5 -14.333 9.5 -25c0 -14 -4.16699 -24 -12.5 -30s-18.833 -9 -31.5 -9
c-14.667 0 -28 5.66699 -40 17s-18 27.666 -18 48.999c0 24.667 6.83301 46 20.5 64s31.334 31.5 53.001 40.5s43.834 13.5 66.501 13.5c44 0 82 -11.5 114 -34.5s48 -58.833 48 -107.5v-246c0 -33.333 10.333 -50 31 -50c16.667 0 28.667 9.66699 36 29s11 43 11 71h18
c0 -40 -5.83301 -73.667 -17.5 -101s-32.5 -41 -62.5 -41c-28.667 0 -50.167 8.5 -64.5 25.5s-22.166 40.5 -23.499 70.5l-5 2c-10 -23.333 -26.167 -45.5 -48.5 -66.5s-48.5 -31.5 -78.5 -31.5c-35.333 0 -65.833 8.66699 -91.5 26zM262.498 59.5029
c17 23.667 32.167 53.834 45.5 90.501v95l-87 -19c-32 -6.66699 -55.167 -19.834 -69.5 -39.501s-21.5 -47.5 -21.5 -83.5c0 -30.667 6.33301 -51.5 19 -62.5s27 -16.5 43 -16.5c30 0 53.5 11.833 70.5 35.5z" />
    <glyph glyph-name="aring" unicode="&#xe5;" horiz-adv-x="494" 
d="M159 529c-19.333 19.333 -29 42.333 -29 69c0 27.333 9.66699 50.5 29 69.5s42.333 28.5 69 28.5c27.333 0 50.5 -9.5 69.5 -28.5s28.5 -42.167 28.5 -69.5c0 -26.667 -9.5 -49.667 -28.5 -69s-42.167 -29 -69.5 -29c-26.667 0 -49.667 9.66699 -69 29zM280.5 545.5
c14.333 14.333 21.5 31.833 21.5 52.5s-7.16699 38.167 -21.5 52.5s-31.833 21.5 -52.5 21.5s-38.167 -7.16699 -52.5 -21.5s-21.5 -31.833 -21.5 -52.5s7.16699 -38.167 21.5 -52.5s31.833 -21.5 52.5 -21.5s38.167 7.16699 52.5 21.5zM84.5 14
c-25.667 17.333 -38.502 48.0029 -38.502 92.0029c0 34 8.66699 60.667 26 80s37.5 33.166 60.5 41.499s50.833 15.5 83.5 21.5l92 17v85c0 62 -31 93 -93 93c-22.667 0 -43.334 -5.83301 -62.001 -17.5s-28 -24.834 -28 -39.501c0 -6.66699 1 -11.667 3 -15
c1.33301 -2 3.5 -4 6.5 -6s5.83301 -3.33301 8.5 -4c12 -3.33301 21.167 -8 27.5 -14s9.5 -14.333 9.5 -25c0 -14 -4.16699 -24 -12.5 -30s-18.833 -9 -31.5 -9c-14.667 0 -28 5.66699 -40 17s-18 27.666 -18 48.999c0 24.667 6.83301 46 20.5 64s31.334 31.5 53.001 40.5
s43.834 13.5 66.501 13.5c44 0 82 -11.5 114 -34.5s48 -58.833 48 -107.5v-246c0 -33.333 10.333 -50 31 -50c16.667 0 28.667 9.66699 36 29s11 43 11 71h18c0 -40 -5.83301 -73.667 -17.5 -101s-32.5 -41 -62.5 -41c-28.667 0 -50.167 8.5 -64.5 25.5
s-22.166 40.5 -23.499 70.5l-5 2c-10 -23.333 -26.167 -45.5 -48.5 -66.5s-48.5 -31.5 -78.5 -31.5c-35.333 0 -65.833 8.66699 -91.5 26zM262.498 59.5029c17 23.667 32.167 53.834 45.5 90.501v95l-87 -19c-32 -6.66699 -55.167 -19.834 -69.5 -39.501
s-21.5 -47.5 -21.5 -83.5c0 -30.667 6.33301 -51.5 19 -62.5s27 -16.5 43 -16.5c30 0 53.5 11.833 70.5 35.5z" />
    <glyph glyph-name="ae" unicode="&#xe6;" horiz-adv-x="700" 
d="M84.5 14c-25.667 17.333 -38.502 48.0049 -38.502 92.0049c0 34 8.66699 60.667 26 80s37.5 33.166 60.5 41.499s50.833 15.5 83.5 21.5l92 17v85c0 62 -31 93 -93 93c-22.667 0 -43.334 -5.83301 -62.001 -17.5s-28 -24.834 -28 -39.501c0 -6.66699 1 -11.667 3 -15
c1.33301 -2 3.5 -4 6.5 -6s5.83301 -3.33301 8.5 -4c12 -3.33301 21.167 -8 27.5 -14s9.5 -14.333 9.5 -25c0 -14 -4.16699 -24 -12.5 -30s-18.833 -9 -31.5 -9c-14.667 0 -28 5.66699 -40 17s-18 27.666 -18 48.999c0 24.667 6.83301 46 20.5 64s31.334 31.5 53.001 40.5
s43.834 13.5 66.501 13.5c28.667 0 55.334 -4.83301 80.001 -14.5s44.334 -24.834 59.001 -45.501c33.333 40 75 60 125 60c40.667 0 74 -11 100 -33s44.833 -49.833 56.5 -83.5s17.5 -68.167 17.5 -103.5c0 -7.33301 -2.33301 -12.166 -7 -14.499s-12.667 -3.5 -24 -3.5
h-245c0 -67.333 9 -120.5 27 -159.5s48.333 -58.5 91 -58.5c30.667 0 59.5 11.667 86.5 35s44.167 59.666 51.5 108.999h24c-4 -48.667 -20.833 -88.834 -50.5 -120.501s-68.167 -47.5 -115.5 -47.5c-44 0 -79.833 9.83301 -107.5 29.5s-48.834 44.5 -63.501 74.5h-4
c-10.667 -24.667 -29.5 -48.167 -56.5 -70.5s-55.833 -33.5 -86.5 -33.5c-35.333 0 -65.833 8.66699 -91.5 26zM569.998 254.005c0 53.333 -7 98.333 -21 135s-37 55 -69 55c-33.333 0 -58.333 -18.5 -75 -55.5s-25 -81.833 -25 -134.5h190zM268.998 51.5049
c20.667 18.333 35.666 39.167 44.999 62.5c-4 29.333 -6 72 -6 128l-87 -16c-32 -6 -55.167 -19 -69.5 -39s-21.5 -48 -21.5 -84c0 -30.667 6.33301 -51.5 19 -62.5s27 -16.5 43 -16.5c30.667 0 56.334 9.16699 77.001 27.5z" />
    <glyph glyph-name="ccedilla" unicode="&#xe7;" horiz-adv-x="436" 
d="M185.5 -195.5c-17 11 -25.5059 26.502 -25.5059 46.502c0 7.33301 2.33301 13.666 7 18.999s10.334 8 17.001 8c15.333 0 24.333 -10.667 27 -32c4.66699 -26.667 18 -40 40 -40c18 0 32 4.16699 42 12.5s15 20.166 15 35.499c0 32 -19.333 48 -58 48h-41l14 87
c-35.333 4 -66.166 17 -92.499 39s-46.666 50.5 -60.999 85.5s-21.5 73.167 -21.5 114.5c0 44 8.33301 84.333 25 121s39.834 65.667 69.501 87s63.5 32 101.5 32c30.667 0 57.334 -6.5 80.001 -19.5s40 -29.667 52 -50s18 -40.833 18 -61.5s-5.33301 -36.834 -16 -48.501
s-23.667 -17.5 -39 -17.5c-13.333 0 -24.5 4.33301 -33.5 13s-13.5 19 -13.5 31s3.33301 22 10 30s14.667 13.333 24 16c10.667 3.33301 16 9.33301 16 18c0 8 -3.5 17 -10.5 27s-17.833 18.833 -32.5 26.5s-33 11.5 -55 11.5c-42 0 -70.5 -18 -85.5 -54
s-22.5 -90 -22.5 -162s7.33301 -126 22 -162s43.334 -54 86.001 -54c40.667 0 72 14.333 94 43s35.333 62.334 40 101.001h24c-2 -26.667 -9 -53 -21 -79s-29.5 -47.333 -52.5 -64s-50.5 -25 -82.5 -25l-6 -38h26c22 0 40.833 -6.16699 56.5 -18.5
s23.5 -30.166 23.5 -53.499c0 -24.667 -8 -45.834 -24 -63.501s-42 -26.5 -78 -26.5c-22 0 -41.5 5.5 -58.5 16.5z" />
    <glyph glyph-name="egrave" unicode="&#xe8;" horiz-adv-x="460" 
d="M124 609c-18.667 14 -27.999 28.667 -27.999 44c0 9.33301 2.5 16.833 7.5 22.5s11.833 8.5 20.5 8.5c9.33301 0 17.666 -2.33301 24.999 -7s15.333 -13 24 -25l92 -133l-13 -11zM104.501 51c-37.667 42 -56.502 100.334 -56.502 175.001c0 42.667 8.33301 82.5 25 119.5
s39.834 66.667 69.501 89s62.834 33.5 99.501 33.5c40.667 0 74 -11 100 -33s44.833 -49.833 56.5 -83.5s17.5 -68.167 17.5 -103.5c0 -7.33301 -2.33301 -12.166 -7 -14.499s-12.667 -3.5 -24 -3.5h-249c0 -66.667 9.5 -119.667 28.5 -159s50.167 -59 93.5 -59
c30.667 0 59.5 11.667 86.5 35s44.167 59.666 51.5 108.999h24c-4 -48.667 -20.833 -88.834 -50.5 -120.501s-68.167 -47.5 -115.5 -47.5c-62 0 -111.833 21 -149.5 63zM329.999 254.001c0 53.333 -7 98.333 -21 135s-37 55 -69 55c-34 0 -59.833 -18.5 -77.5 -55.5
s-26.5 -81.833 -26.5 -134.5h194z" />
    <glyph glyph-name="eacute" unicode="&#xe9;" horiz-adv-x="460" 
d="M215 519l92.001 133c8.66699 12 16.667 20.333 24 25s15.666 7 24.999 7c8.66699 0 15.5 -2.83301 20.5 -8.5s7.5 -13.167 7.5 -22.5c0 -15.333 -9.33301 -30 -28 -44l-128 -101zM104.501 51c-37.667 42 -56.502 100.334 -56.502 175.001c0 42.667 8.33301 82.5 25 119.5
s39.834 66.667 69.501 89s62.834 33.5 99.501 33.5c40.667 0 74 -11 100 -33s44.833 -49.833 56.5 -83.5s17.5 -68.167 17.5 -103.5c0 -7.33301 -2.33301 -12.166 -7 -14.499s-12.667 -3.5 -24 -3.5h-249c0 -66.667 9.5 -119.667 28.5 -159s50.167 -59 93.5 -59
c30.667 0 59.5 11.667 86.5 35s44.167 59.666 51.5 108.999h24c-4 -48.667 -20.833 -88.834 -50.5 -120.501s-68.167 -47.5 -115.5 -47.5c-62 0 -111.833 21 -149.5 63zM329.999 254.001c0 53.333 -7 98.333 -21 135s-37 55 -69 55c-34 0 -59.833 -18.5 -77.5 -55.5
s-26.5 -81.833 -26.5 -134.5h194z" />
    <glyph glyph-name="ecircumflex" unicode="&#xea;" horiz-adv-x="460" 
d="M109 521c50 32.667 87 83 111 151h40c24 -68 61 -118.333 111 -151l-9 -13c-46 24 -86.667 54.667 -122 92c-36 -38 -76.667 -68.667 -122 -92zM104.5 51c-37.667 42 -56.502 100.334 -56.502 175.001c0 42.667 8.33301 82.5 25 119.5s39.834 66.667 69.501 89
s62.834 33.5 99.501 33.5c40.667 0 74 -11 100 -33s44.833 -49.833 56.5 -83.5s17.5 -68.167 17.5 -103.5c0 -7.33301 -2.33301 -12.166 -7 -14.499s-12.667 -3.5 -24 -3.5h-249c0 -66.667 9.5 -119.667 28.5 -159s50.167 -59 93.5 -59c30.667 0 59.5 11.667 86.5 35
s44.167 59.666 51.5 108.999h24c-4 -48.667 -20.833 -88.834 -50.5 -120.501s-68.167 -47.5 -115.5 -47.5c-62 0 -111.833 21 -149.5 63zM329.998 254.001c0 53.333 -7 98.333 -21 135s-37 55 -69 55c-34 0 -59.833 -18.5 -77.5 -55.5s-26.5 -81.833 -26.5 -134.5h194z" />
    <glyph glyph-name="edieresis" unicode="&#xeb;" horiz-adv-x="460" 
d="M112.5 562.5c-9.66699 9.66699 -14.5 20.834 -14.5 33.501c0 13.333 4.83301 24.666 14.5 33.999s20.834 14 33.501 14c13.333 0 24.666 -4.66699 33.999 -14s14 -20.666 14 -33.999c0 -12.667 -4.66699 -23.834 -14 -33.501s-20.666 -14.5 -33.999 -14.5
c-12.667 0 -23.834 4.83301 -33.501 14.5zM300.5 562.5c-9.66699 9.66699 -14.5 20.834 -14.5 33.501c0 13.333 4.83301 24.666 14.5 33.999s20.834 14 33.501 14c13.333 0 24.666 -4.66699 33.999 -14s14 -20.666 14 -33.999c0 -12.667 -4.66699 -23.834 -14 -33.501
s-20.666 -14.5 -33.999 -14.5c-12.667 0 -23.834 4.83301 -33.501 14.5zM104.5 51c-37.667 42 -56.502 100.334 -56.502 175.001c0 42.667 8.33301 82.5 25 119.5s39.834 66.667 69.501 89s62.834 33.5 99.501 33.5c40.667 0 74 -11 100 -33s44.833 -49.833 56.5 -83.5
s17.5 -68.167 17.5 -103.5c0 -7.33301 -2.33301 -12.166 -7 -14.499s-12.667 -3.5 -24 -3.5h-249c0 -66.667 9.5 -119.667 28.5 -159s50.167 -59 93.5 -59c30.667 0 59.5 11.667 86.5 35s44.167 59.666 51.5 108.999h24c-4 -48.667 -20.833 -88.834 -50.5 -120.501
s-68.167 -47.5 -115.5 -47.5c-62 0 -111.833 21 -149.5 63zM329.998 254.001c0 53.333 -7 98.333 -21 135s-37 55 -69 55c-34 0 -59.833 -18.5 -77.5 -55.5s-26.5 -81.833 -26.5 -134.5h194z" />
    <glyph glyph-name="igrave" unicode="&#xec;" horiz-adv-x="270" 
d="M16 609c-18.667 14 -27.999 28.667 -27.999 44c0 9.33301 2.5 16.833 7.5 22.5s11.833 8.5 20.5 8.5c9.33301 0 17.666 -2.33301 24.999 -7s15.333 -13 24 -25l92 -133l-13 -11zM38.001 24h42c8 0 13.667 1.66699 17 5s5 9 5 17v364c0 8 -1.66699 13.667 -5 17
s-9 5 -17 5h-42v24h136v-410c0 -8 1.66699 -13.667 5 -17s9 -5 17 -5h42v-24h-200v24z" />
    <glyph glyph-name="iacute" unicode="&#xed;" horiz-adv-x="270" 
d="M107 519l92.001 133c8.66699 12 16.667 20.333 24 25s15.666 7 24.999 7c8.66699 0 15.5 -2.83301 20.5 -8.5s7.5 -13.167 7.5 -22.5c0 -15.333 -9.33301 -30 -28 -44l-128 -101zM38.001 24h42c8 0 13.667 1.66699 17 5s5 9 5 17v364c0 8 -1.66699 13.667 -5 17
s-9 5 -17 5h-42v24h136v-410c0 -8 1.66699 -13.667 5 -17s9 -5 17 -5h42v-24h-200v24z" />
    <glyph glyph-name="icircumflex" unicode="&#xee;" horiz-adv-x="282" 
d="M7 521c50 32.667 87 83 111 151h40c24 -68 61 -118.333 111 -151l-9 -13c-46 24 -86.667 54.667 -122 92c-36 -38 -76.667 -68.667 -122 -92zM44 24h42c8 0 13.667 1.66699 17 5s5 9 5 17v364c0 8 -1.66699 13.667 -5 17s-9 5 -17 5h-42v24h136v-410
c0 -8 1.66699 -13.667 5 -17s9 -5 17 -5h42v-24h-200v24z" />
    <glyph glyph-name="idieresis" unicode="&#xef;" horiz-adv-x="282" 
d="M25.5 562.5c-9.66699 9.66699 -14.5 20.834 -14.5 33.501c0 13.333 4.83301 24.666 14.5 33.999s20.834 14 33.501 14c13.333 0 24.666 -4.66699 33.999 -14s14 -20.666 14 -33.999c0 -12.667 -4.66699 -23.834 -14 -33.501s-20.666 -14.5 -33.999 -14.5
c-12.667 0 -23.834 4.83301 -33.501 14.5zM193.5 562.5c-9.66699 9.66699 -14.5 20.834 -14.5 33.501c0 13.333 4.83301 24.666 14.5 33.999s20.834 14 33.501 14c13.333 0 24.666 -4.66699 33.999 -14s14 -20.666 14 -33.999c0 -12.667 -4.66699 -23.834 -14 -33.501
s-20.666 -14.5 -33.999 -14.5c-12.667 0 -23.834 4.83301 -33.501 14.5zM50 24h42c8 0 13.667 1.66699 17 5s5 9 5 17v364c0 8 -1.66699 13.667 -5 17s-9 5 -17 5h-42v24h136v-410c0 -8 1.66699 -13.667 5 -17s9 -5 17 -5h42v-24h-200v24z" />
    <glyph glyph-name="eth" unicode="&#xf0;" horiz-adv-x="500" 
d="M147 20.5c-30.667 21.667 -54.832 50.834 -72.499 87.501s-26.5 76.667 -26.5 120s8.83301 83.333 26.5 120s41.834 65.834 72.501 87.501s64.334 32.5 101.001 32.5c21.333 0 42.333 -4 63 -12l3 4c-15.333 28.667 -43.333 68.667 -84 120l-108 -67l-15 23l104 65
c-30 38 -64.333 75 -103 111h96c17.333 -15.333 39.666 -40 66.999 -74l108 68l15 -23l-105 -66c23.333 -28.667 45.666 -59.334 66.999 -92.001c61.333 -95.333 92 -184.333 92 -267c0 -56.667 -9 -105.334 -27 -146.001s-42.167 -71.5 -72.5 -92.5
s-63.833 -31.5 -100.5 -31.5s-70.334 10.833 -101.001 32.5zM334.002 68.5c17.333 37.667 26 90.834 26 159.501s-8.66699 121.834 -26 159.501s-46 56.5 -86 56.5s-68.667 -18.833 -86 -56.5s-26 -90.834 -26 -159.501s8.66699 -121.834 26 -159.501s46 -56.5 86 -56.5
s68.667 18.833 86 56.5z" />
    <glyph glyph-name="ntilde" unicode="&#xf1;" horiz-adv-x="540" 
d="M134 558c4 24 13.333 44.667 28 62s34 26 58 26c12.667 0 24.667 -1.83301 36 -5.5s24.333 -8.5 39 -14.5c12.667 -5.33301 23.334 -9.33301 32.001 -12s18 -4 28 -4c22.667 0 38 14 46 42l17 -4c-4 -24 -13.333 -44.667 -28 -62s-34 -26 -58 -26
c-12.667 0 -24.667 1.83301 -36 5.5s-24.333 8.5 -39 14.5c-12.667 5.33301 -23.334 9.33301 -32.001 12s-18 4 -28 4c-22.667 0 -38 -14 -46 -42zM38 24l41.998 -0.000976562c8 0 13.667 1.66699 17 5s5 9 5 17v364c0 8 -1.66699 13.667 -5 17s-9 5 -17 5h-42v24h136v-82
l4 -1c15.333 32 34.333 55.833 57 71.5s47.667 23.5 75 23.5c48.667 0 83.167 -15 103.5 -45s30.5 -66 30.5 -108v-269c0 -8 1.66699 -13.667 5 -17s9 -5 17 -5h42v-24h-200v24h42c8 0 13.667 1.66699 17 5s5 9 5 17v288c0 29.333 -5.83301 54.333 -17.5 75
s-31.5 31 -59.5 31c-23.333 0 -44.166 -8.16699 -62.499 -24.5s-32.666 -38.666 -42.999 -66.999s-15.5 -59.833 -15.5 -94.5v-208c0 -8 1.66699 -13.667 5 -17s9 -5 17 -5h42v-24h-200v24z" />
    <glyph glyph-name="ograve" unicode="&#xf2;" horiz-adv-x="496" 
d="M132 609c-18.667 14 -27.999 28.667 -27.999 44c0 9.33301 2.5 16.833 7.5 22.5s11.833 8.5 20.5 8.5c9.33301 0 17.666 -2.33301 24.999 -7s15.333 -13 24 -25l92 -133l-13 -11zM147.001 20.5c-30.667 21.667 -54.834 50.834 -72.501 87.501s-26.5 76.667 -26.5 120
s8.83301 83.333 26.5 120s41.834 65.834 72.501 87.501s64.334 32.5 101.001 32.5s70.334 -10.833 101.001 -32.5s54.834 -50.834 72.501 -87.501s26.5 -76.667 26.5 -120s-8.83301 -83.333 -26.5 -120s-41.834 -65.834 -72.501 -87.501s-64.334 -32.5 -101.001 -32.5
s-70.334 10.833 -101.001 32.5zM334.001 68.5c17.333 37.667 26 90.834 26 159.501s-8.66699 121.834 -26 159.501s-46 56.5 -86 56.5s-68.667 -18.833 -86 -56.5s-26 -90.834 -26 -159.501s8.66699 -121.834 26 -159.501s46 -56.5 86 -56.5s68.667 18.833 86 56.5z" />
    <glyph glyph-name="oacute" unicode="&#xf3;" horiz-adv-x="496" 
d="M223 519l92.001 133c8.66699 12 16.667 20.333 24 25s15.666 7 24.999 7c8.66699 0 15.5 -2.83301 20.5 -8.5s7.5 -13.167 7.5 -22.5c0 -15.333 -9.33301 -30 -28 -44l-128 -101zM147.001 20.5c-30.667 21.667 -54.834 50.834 -72.501 87.501s-26.5 76.667 -26.5 120
s8.83301 83.333 26.5 120s41.834 65.834 72.501 87.501s64.334 32.5 101.001 32.5s70.334 -10.833 101.001 -32.5s54.834 -50.834 72.501 -87.501s26.5 -76.667 26.5 -120s-8.83301 -83.333 -26.5 -120s-41.834 -65.834 -72.501 -87.501s-64.334 -32.5 -101.001 -32.5
s-70.334 10.833 -101.001 32.5zM334.001 68.5c17.333 37.667 26 90.834 26 159.501s-8.66699 121.834 -26 159.501s-46 56.5 -86 56.5s-68.667 -18.833 -86 -56.5s-26 -90.834 -26 -159.501s8.66699 -121.834 26 -159.501s46 -56.5 86 -56.5s68.667 18.833 86 56.5z" />
    <glyph glyph-name="ocircumflex" unicode="&#xf4;" horiz-adv-x="496" 
d="M117 521c50 32.667 87 83 111 151h40c24 -68 61 -118.333 111 -151l-9 -13c-46 24 -86.667 54.667 -122 92c-36 -38 -76.667 -68.667 -122 -92zM147 20.5c-30.667 21.667 -54.834 50.834 -72.501 87.501s-26.5 76.667 -26.5 120s8.83301 83.333 26.5 120
s41.834 65.834 72.501 87.501s64.334 32.5 101.001 32.5s70.334 -10.833 101.001 -32.5s54.834 -50.834 72.501 -87.501s26.5 -76.667 26.5 -120s-8.83301 -83.333 -26.5 -120s-41.834 -65.834 -72.501 -87.501s-64.334 -32.5 -101.001 -32.5s-70.334 10.833 -101.001 32.5z
M334 68.5c17.333 37.667 26 90.834 26 159.501s-8.66699 121.834 -26 159.501s-46 56.5 -86 56.5s-68.667 -18.833 -86 -56.5s-26 -90.834 -26 -159.501s8.66699 -121.834 26 -159.501s46 -56.5 86 -56.5s68.667 18.833 86 56.5z" />
    <glyph glyph-name="otilde" unicode="&#xf5;" horiz-adv-x="496" 
d="M106 558c4 24 13.333 44.667 28 62s34 26 58 26c12.667 0 24.667 -1.83301 36 -5.5s24.333 -8.5 39 -14.5c12.667 -5.33301 23.334 -9.33301 32.001 -12s18 -4 28 -4c22.667 0 38 14 46 42l17 -4c-4 -24 -13.333 -44.667 -28 -62s-34 -26 -58 -26
c-12.667 0 -24.667 1.83301 -36 5.5s-24.333 8.5 -39 14.5c-12.667 5.33301 -23.334 9.33301 -32.001 12s-18 4 -28 4c-22.667 0 -38 -14 -46 -42zM147 20.5c-30.667 21.667 -54.834 50.834 -72.501 87.501s-26.5 76.667 -26.5 120s8.83301 83.333 26.5 120
s41.834 65.834 72.501 87.501s64.334 32.5 101.001 32.5s70.334 -10.833 101.001 -32.5s54.834 -50.834 72.501 -87.501s26.5 -76.667 26.5 -120s-8.83301 -83.333 -26.5 -120s-41.834 -65.834 -72.501 -87.501s-64.334 -32.5 -101.001 -32.5s-70.334 10.833 -101.001 32.5z
M334 68.5c17.333 37.667 26 90.834 26 159.501s-8.66699 121.834 -26 159.501s-46 56.5 -86 56.5s-68.667 -18.833 -86 -56.5s-26 -90.834 -26 -159.501s8.66699 -121.834 26 -159.501s46 -56.5 86 -56.5s68.667 18.833 86 56.5z" />
    <glyph glyph-name="odieresis" unicode="&#xf6;" horiz-adv-x="496" 
d="M120.5 562.5c-9.66699 9.66699 -14.5 20.834 -14.5 33.501c0 13.333 4.83301 24.666 14.5 33.999s20.834 14 33.501 14c13.333 0 24.666 -4.66699 33.999 -14s14 -20.666 14 -33.999c0 -12.667 -4.66699 -23.834 -14 -33.501s-20.666 -14.5 -33.999 -14.5
c-12.667 0 -23.834 4.83301 -33.501 14.5zM308.5 562.5c-9.66699 9.66699 -14.5 20.834 -14.5 33.501c0 13.333 4.83301 24.666 14.5 33.999s20.834 14 33.501 14c13.333 0 24.666 -4.66699 33.999 -14s14 -20.666 14 -33.999c0 -12.667 -4.66699 -23.834 -14 -33.501
s-20.666 -14.5 -33.999 -14.5c-12.667 0 -23.834 4.83301 -33.501 14.5zM147 20.5c-30.667 21.667 -54.834 50.834 -72.501 87.501s-26.5 76.667 -26.5 120s8.83301 83.333 26.5 120s41.834 65.834 72.501 87.501s64.334 32.5 101.001 32.5s70.334 -10.833 101.001 -32.5
s54.834 -50.834 72.501 -87.501s26.5 -76.667 26.5 -120s-8.83301 -83.333 -26.5 -120s-41.834 -65.834 -72.501 -87.501s-64.334 -32.5 -101.001 -32.5s-70.334 10.833 -101.001 32.5zM334 68.5c17.333 37.667 26 90.834 26 159.501s-8.66699 121.834 -26 159.501
s-46 56.5 -86 56.5s-68.667 -18.833 -86 -56.5s-26 -90.834 -26 -159.501s8.66699 -121.834 26 -159.501s46 -56.5 86 -56.5s68.667 18.833 86 56.5z" />
    <glyph glyph-name="divide" unicode="&#xf7;" horiz-adv-x="940" 
d="M425.5 473.5c-11.667 11.667 -17.5 26.5 -17.5 44.5s5.83301 32.833 17.5 44.5s26.5 17.5 44.5 17.5s32.833 -5.83301 44.5 -17.5s17.5 -26.5 17.5 -44.5s-5.83301 -32.833 -17.5 -44.5s-26.5 -17.5 -44.5 -17.5s-32.833 5.83301 -44.5 17.5zM48 244v40h844v-40h-844z
M425.5 -38.5c-11.667 11.667 -17.5 26.5 -17.5 44.5s5.83301 32.833 17.5 44.5s26.5 17.5 44.5 17.5s32.833 -5.83301 44.5 -17.5s17.5 -26.5 17.5 -44.5s-5.83301 -32.833 -17.5 -44.5s-26.5 -17.5 -44.5 -17.5s-32.833 5.83301 -44.5 17.5z" />
    <glyph glyph-name="oslash" unicode="&#xf8;" horiz-adv-x="496" 
d="M48 6l51 62c-16 21.333 -28.5 45.833 -37.5 73.5s-13.5 56.5 -13.5 86.5c0 43.333 8.83301 83.333 26.5 120s41.834 65.834 72.501 87.501s64.334 32.5 101.001 32.5c24.667 0 48.167 -5 70.5 -15s42.5 -24.333 60.5 -43l47 58l22 -18l-51 -62
c16 -21.333 28.5 -45.833 37.5 -73.5s13.5 -56.5 13.5 -86.5c0 -43.333 -8.83301 -83.333 -26.5 -120s-41.834 -65.834 -72.501 -87.501s-64.334 -32.5 -101.001 -32.5c-24.667 0 -48.167 5 -70.5 15s-42.5 24.333 -60.5 43l-47 -58zM343 366
c-18 52 -49.667 78.001 -95 78.001c-40 0 -68.667 -18.833 -86 -56.5s-26 -90.834 -26 -159.501c0 -39.333 3 -74 9 -104zM334 68.501c17.333 37.667 26 90.833 26 159.5c0 39.333 -3 74 -9 104l-198 -242c18 -52 49.667 -78 95 -78c40 0 68.667 18.833 86 56.5z" />
    <glyph glyph-name="ugrave" unicode="&#xf9;" horiz-adv-x="534" 
d="M146 609c-18.667 14 -27.999 28.667 -27.999 44c0 9.33301 2.5 16.833 7.5 22.5s11.833 8.5 20.5 8.5c9.33301 0 17.666 -2.33301 24.999 -7s15.333 -13 24 -25l92 -133l-13 -11zM126.501 33c-20.333 30 -30.498 66.001 -30.498 108.001v269c0 8 -1.66699 13.667 -5 17
s-9 5 -17 5h-42v24h136v-334c0 -29.333 5.83301 -54.333 17.5 -75s31.5 -31 59.5 -31c23.333 0 44.166 8.16699 62.499 24.5s32.666 38.666 42.999 66.999s15.5 59.833 15.5 94.5v208c0 8 -1.66699 13.667 -5 17s-9 5 -17 5h-42v24h136v-410c0 -8 1.66699 -13.667 5 -17
s9 -5 17 -5h42v-24h-136v82l-4 1c-15.333 -32 -34.333 -55.833 -57 -71.5s-47.667 -23.5 -75 -23.5c-48.667 0 -83.167 15 -103.5 45z" />
    <glyph glyph-name="uacute" unicode="&#xfa;" horiz-adv-x="534" 
d="M237 519l92.001 133c8.66699 12 16.667 20.333 24 25s15.666 7 24.999 7c8.66699 0 15.5 -2.83301 20.5 -8.5s7.5 -13.167 7.5 -22.5c0 -15.333 -9.33301 -30 -28 -44l-128 -101zM126.501 33c-20.333 30 -30.498 66.001 -30.498 108.001v269c0 8 -1.66699 13.667 -5 17
s-9 5 -17 5h-42v24h136v-334c0 -29.333 5.83301 -54.333 17.5 -75s31.5 -31 59.5 -31c23.333 0 44.166 8.16699 62.499 24.5s32.666 38.666 42.999 66.999s15.5 59.833 15.5 94.5v208c0 8 -1.66699 13.667 -5 17s-9 5 -17 5h-42v24h136v-410c0 -8 1.66699 -13.667 5 -17
s9 -5 17 -5h42v-24h-136v82l-4 1c-15.333 -32 -34.333 -55.833 -57 -71.5s-47.667 -23.5 -75 -23.5c-48.667 0 -83.167 15 -103.5 45z" />
    <glyph glyph-name="ucircumflex" unicode="&#xfb;" horiz-adv-x="534" 
d="M131 521c50 32.667 87 83 111 151h40c24 -68 61 -118.333 111 -151l-9 -13c-46 24 -86.667 54.667 -122 92c-36 -38 -76.667 -68.667 -122 -92zM126.5 33c-20.333 30 -30.498 66.001 -30.498 108.001v269c0 8 -1.66699 13.667 -5 17s-9 5 -17 5h-42v24h136v-334
c0 -29.333 5.83301 -54.333 17.5 -75s31.5 -31 59.5 -31c23.333 0 44.166 8.16699 62.499 24.5s32.666 38.666 42.999 66.999s15.5 59.833 15.5 94.5v208c0 8 -1.66699 13.667 -5 17s-9 5 -17 5h-42v24h136v-410c0 -8 1.66699 -13.667 5 -17s9 -5 17 -5h42v-24h-136v82l-4 1
c-15.333 -32 -34.333 -55.833 -57 -71.5s-47.667 -23.5 -75 -23.5c-48.667 0 -83.167 15 -103.5 45z" />
    <glyph glyph-name="udieresis" unicode="&#xfc;" horiz-adv-x="534" 
d="M134.5 562.5c-9.66699 9.66699 -14.5 20.834 -14.5 33.501c0 13.333 4.83301 24.666 14.5 33.999s20.834 14 33.501 14c13.333 0 24.666 -4.66699 33.999 -14s14 -20.666 14 -33.999c0 -12.667 -4.66699 -23.834 -14 -33.501s-20.666 -14.5 -33.999 -14.5
c-12.667 0 -23.834 4.83301 -33.501 14.5zM322.5 562.5c-9.66699 9.66699 -14.5 20.834 -14.5 33.501c0 13.333 4.83301 24.666 14.5 33.999s20.834 14 33.501 14c13.333 0 24.666 -4.66699 33.999 -14s14 -20.666 14 -33.999c0 -12.667 -4.66699 -23.834 -14 -33.501
s-20.666 -14.5 -33.999 -14.5c-12.667 0 -23.834 4.83301 -33.501 14.5zM126.5 33c-20.333 30 -30.498 66.001 -30.498 108.001v269c0 8 -1.66699 13.667 -5 17s-9 5 -17 5h-42v24h136v-334c0 -29.333 5.83301 -54.333 17.5 -75s31.5 -31 59.5 -31
c23.333 0 44.166 8.16699 62.499 24.5s32.666 38.666 42.999 66.999s15.5 59.833 15.5 94.5v208c0 8 -1.66699 13.667 -5 17s-9 5 -17 5h-42v24h136v-410c0 -8 1.66699 -13.667 5 -17s9 -5 17 -5h42v-24h-136v82l-4 1c-15.333 -32 -34.333 -55.833 -57 -71.5
s-47.667 -23.5 -75 -23.5c-48.667 0 -83.167 15 -103.5 45z" />
    <glyph glyph-name="yacute" unicode="&#xfd;" horiz-adv-x="530" 
d="M251 519l92.001 133c8.66699 12 16.667 20.333 24 25s15.666 7 24.999 7c8.66699 0 15.5 -2.83301 20.5 -8.5s7.5 -13.167 7.5 -22.5c0 -15.333 -9.33301 -30 -28 -44l-128 -101zM70.001 -213c-8.66699 8 -15.499 17.501 -20.499 28.501s-7.5 22.5 -7.5 34.5
c0 8.66699 1.5 16.834 4.5 24.501s6.83301 13.5 11.5 17.5c10 10 21.333 15 34 15c15.333 0 26.833 -4.83301 34.5 -14.5s11.5 -21.834 11.5 -36.501c0 -8 -2.66699 -17.333 -8 -28c-4 -6.66699 -6 -13 -6 -19c0 -10 6.66699 -15 20 -15c20 0 36.833 7.83301 50.5 23.5
s23.834 34.167 30.501 55.5l27 87l-142 413c-8 21.333 -15.667 36.5 -23 45.5s-19.333 13.5 -36 13.5h-33v24h226v-24h-32c-8 0 -15.333 -2.16699 -22 -6.5s-10 -10.166 -10 -17.499c0 -11.333 2 -22.333 6 -33l104 -307l83 274c2.66699 8 5.16699 17 7.5 27s3.5 18 3.5 24
c0 11.333 -3.33301 20.666 -10 27.999s-15.334 11 -26.001 11h-24v24h182v-24h-23c-14.667 0 -28.167 -4.83301 -40.5 -14.5s-21.833 -24.5 -28.5 -44.5l-161 -512c-7.33301 -24.667 -21.333 -47.334 -42 -68.001s-46.334 -31 -77.001 -31c-26 0 -47.333 8.33301 -64 25z
" />
    <glyph glyph-name="thorn" unicode="&#xfe;" horiz-adv-x="500" 
d="M26 -228l52 22c7.33301 3.33301 12.5 7 15.5 11s4.5 9.66699 4.5 17v786c0 12 -5.33301 18 -16 18c-4.66699 0 -10 -1.33301 -16 -4l-30 -11l-10 24l116 49h28v-332l6 -2c18.667 36.667 42.667 65.5 72 86.5s58.666 31.5 87.999 31.5c30.667 0 57.667 -9.66699 81 -29
s35 -49.333 35 -90c0 -45.333 -14.667 -92 -44 -140s-67.333 -91.667 -114 -131c-37.333 -31.333 -78.666 -57.333 -123.999 -78v-199l-134 -53zM260 88c32.667 30.667 58.168 67.668 76.501 111.001s27.5 88.333 27.5 135c0 60 -20.667 90 -62 90
c-19.333 0 -39.333 -9.66699 -60 -29s-37.834 -44 -51.501 -74s-20.5 -59.667 -20.5 -89v-205c34.667 17.333 64.667 37.666 90 60.999z" />
    <glyph glyph-name="ydieresis" unicode="&#xff;" horiz-adv-x="530" 
d="M148.5 562.5c-9.66699 9.66699 -14.5 20.834 -14.5 33.501c0 13.333 4.83301 24.666 14.5 33.999s20.834 14 33.501 14c13.333 0 24.666 -4.66699 33.999 -14s14 -20.666 14 -33.999c0 -12.667 -4.66699 -23.834 -14 -33.501s-20.666 -14.5 -33.999 -14.5
c-12.667 0 -23.834 4.83301 -33.501 14.5zM336.5 562.5c-9.66699 9.66699 -14.5 20.834 -14.5 33.501c0 13.333 4.83301 24.666 14.5 33.999s20.834 14 33.501 14c13.333 0 24.666 -4.66699 33.999 -14s14 -20.666 14 -33.999c0 -12.667 -4.66699 -23.834 -14 -33.501
s-20.666 -14.5 -33.999 -14.5c-12.667 0 -23.834 4.83301 -33.501 14.5zM70 -213c-8.66699 8 -15.499 17.501 -20.499 28.501s-7.5 22.5 -7.5 34.5c0 8.66699 1.5 16.834 4.5 24.501s6.83301 13.5 11.5 17.5c10 10 21.333 15 34 15c15.333 0 26.833 -4.83301 34.5 -14.5
s11.5 -21.834 11.5 -36.501c0 -8 -2.66699 -17.333 -8 -28c-4 -6.66699 -6 -13 -6 -19c0 -10 6.66699 -15 20 -15c20 0 36.833 7.83301 50.5 23.5s23.834 34.167 30.501 55.5l27 87l-142 413c-8 21.333 -15.667 36.5 -23 45.5s-19.333 13.5 -36 13.5h-33v24h226v-24h-32
c-8 0 -15.333 -2.16699 -22 -6.5s-10 -10.166 -10 -17.499c0 -11.333 2 -22.333 6 -33l104 -307l83 274c2.66699 8 5.16699 17 7.5 27s3.5 18 3.5 24c0 11.333 -3.33301 20.666 -10 27.999s-15.334 11 -26.001 11h-24v24h182v-24h-23
c-14.667 0 -28.167 -4.83301 -40.5 -14.5s-21.833 -24.5 -28.5 -44.5l-161 -512c-7.33301 -24.667 -21.333 -47.334 -42 -68.001s-46.334 -31 -77.001 -31c-26 0 -47.333 8.33301 -64 25z" />
    <glyph glyph-name="Amacron" unicode="&#x100;" horiz-adv-x="764" 
d="M260 822v40h272v-40h-272zM46 32h37c39.333 0 68 24.333 86 73l215 607h25l217 -636c6.66699 -16.667 14.667 -28.167 24 -34.5s21.333 -9.5 36 -9.5h56v-32h-310v32h66c10 0 18.333 2.5 25 7.5s10 10.833 10 17.5c0 8.66699 -1.33301 16 -4 22l-47 133h-234l-24 -67
c-9.33301 -26.667 -14 -46 -14 -58c0 -14.667 3.66699 -27.5 11 -38.5s20 -16.5 38 -16.5h61v-32h-274v32zM259 244h212l-104 305z" />
    <glyph glyph-name="amacron" unicode="&#x101;" horiz-adv-x="494" 
d="M98 572v40h260v-40h-260zM84.5 14c-25.667 17.333 -38.502 48.0029 -38.502 92.0029c0 34 8.66699 60.667 26 80s37.5 33.166 60.5 41.499s50.833 15.5 83.5 21.5l92 17v85c0 62 -31 93 -93 93c-22.667 0 -43.334 -5.83301 -62.001 -17.5s-28 -24.834 -28 -39.501
c0 -6.66699 1 -11.667 3 -15c1.33301 -2 3.5 -4 6.5 -6s5.83301 -3.33301 8.5 -4c12 -3.33301 21.167 -8 27.5 -14s9.5 -14.333 9.5 -25c0 -14 -4.16699 -24 -12.5 -30s-18.833 -9 -31.5 -9c-14.667 0 -28 5.66699 -40 17s-18 27.666 -18 48.999
c0 24.667 6.83301 46 20.5 64s31.334 31.5 53.001 40.5s43.834 13.5 66.501 13.5c44 0 82 -11.5 114 -34.5s48 -58.833 48 -107.5v-246c0 -33.333 10.333 -50 31 -50c16.667 0 28.667 9.66699 36 29s11 43 11 71h18c0 -40 -5.83301 -73.667 -17.5 -101s-32.5 -41 -62.5 -41
c-28.667 0 -50.167 8.5 -64.5 25.5s-22.166 40.5 -23.499 70.5l-5 2c-10 -23.333 -26.167 -45.5 -48.5 -66.5s-48.5 -31.5 -78.5 -31.5c-35.333 0 -65.833 8.66699 -91.5 26zM262.498 59.5029c17 23.667 32.167 53.834 45.5 90.501v95l-87 -19
c-32 -6.66699 -55.167 -19.834 -69.5 -39.501s-21.5 -47.5 -21.5 -83.5c0 -30.667 6.33301 -51.5 19 -62.5s27 -16.5 43 -16.5c30 0 53.5 11.833 70.5 35.5z" />
    <glyph glyph-name="Abreve" unicode="&#x102;" horiz-adv-x="764" 
d="M46 32h37c39.333 0 68 24.333 86 73l215 607h25l217 -636c6.66699 -16.667 14.667 -28.167 24 -34.5s21.333 -9.5 36 -9.5h56v-32h-310v32h66c10 0 18.333 2.5 25 7.5s10 10.833 10 17.5c0 8.66699 -1.33301 16 -4 22l-47 133h-234l-24 -67
c-9.33301 -26.667 -14 -46 -14 -58c0 -14.667 3.66699 -27.5 11 -38.5s20 -16.5 38 -16.5h61v-32h-274v32zM259 244h212l-104 305zM312.5 786.5c-23 16.333 -40 36.5 -51 60.5s-16.5 47 -16.5 69h28c6 -28 19.5 -53 40.5 -75s48.5 -33 82.5 -33s61.5 11 82.5 33
s34.5 47 40.5 75h28c0 -22 -5.5 -45 -16.5 -69s-28 -44.167 -51 -60.5s-50.833 -24.5 -83.5 -24.5s-60.5 8.16699 -83.5 24.5z" />
    <glyph glyph-name="abreve" unicode="&#x103;" horiz-adv-x="494" 
d="M84.5 14c-25.667 17.333 -38.502 48.0029 -38.502 92.0029c0 34 8.66699 60.667 26 80s37.5 33.166 60.5 41.499s50.833 15.5 83.5 21.5l92 17v85c0 62 -31 93 -93 93c-22.667 0 -43.334 -5.83301 -62.001 -17.5s-28 -24.834 -28 -39.501c0 -6.66699 1 -11.667 3 -15
c1.33301 -2 3.5 -4 6.5 -6s5.83301 -3.33301 8.5 -4c12 -3.33301 21.167 -8 27.5 -14s9.5 -14.333 9.5 -25c0 -14 -4.16699 -24 -12.5 -30s-18.833 -9 -31.5 -9c-14.667 0 -28 5.66699 -40 17s-18 27.666 -18 48.999c0 24.667 6.83301 46 20.5 64s31.334 31.5 53.001 40.5
s43.834 13.5 66.501 13.5c44 0 82 -11.5 114 -34.5s48 -58.833 48 -107.5v-246c0 -33.333 10.333 -50 31 -50c16.667 0 28.667 9.66699 36 29s11 43 11 71h18c0 -40 -5.83301 -73.667 -17.5 -101s-32.5 -41 -62.5 -41c-28.667 0 -50.167 8.5 -64.5 25.5
s-22.166 40.5 -23.499 70.5l-5 2c-10 -23.333 -26.167 -45.5 -48.5 -66.5s-48.5 -31.5 -78.5 -31.5c-35.333 0 -65.833 8.66699 -91.5 26zM262.498 59.5029c17 23.667 32.167 53.834 45.5 90.501v95l-87 -19c-32 -6.66699 -55.167 -19.834 -69.5 -39.501
s-21.5 -47.5 -21.5 -83.5c0 -30.667 6.33301 -51.5 19 -62.5s27 -16.5 43 -16.5c30 0 53.5 11.833 70.5 35.5zM171.498 549.503c-21 15.667 -36.667 34.5 -47 56.5s-15.5 42 -15.5 60h22c4 -26.667 15.167 -50 33.5 -70s45.833 -30 82.5 -30s64.167 10 82.5 30
s29.5 43.333 33.5 70h22c0 -18 -5.16699 -38 -15.5 -60s-26 -40.833 -47 -56.5s-46.167 -23.5 -75.5 -23.5s-54.5 7.83301 -75.5 23.5z" />
    <glyph glyph-name="Aogonek" unicode="&#x104;" horiz-adv-x="764" 
d="M477.5 -213.5c-17 16.333 -25.499 38.168 -25.499 65.501c0 53.333 37.333 101 112 143l-2 5h-130v32h66c10 0 18.333 2.5 25 7.5s10 10.833 10 17.5c0 8.66699 -1.33301 16 -4 22l-47 133h-234l-24 -67c-9.33301 -26.667 -14 -46 -14 -58
c0 -14.667 3.66699 -27.5 11 -38.5s20 -16.5 38 -16.5h61v-32h-274v32h37c39.333 0 68 24.333 86 73l215 607h25l217 -636c6.66699 -16.667 14.667 -28.167 24 -34.5s21.333 -9.5 36 -9.5h56v-32h-126c-28 -14 -51 -32.5 -69 -55.5s-27 -49.5 -27 -79.5
c0 -16.667 4.66699 -30.667 14 -42s22 -17 38 -17c14.667 0 26.5 2.16699 35.5 6.5s17.833 11.166 26.5 20.499l12 -9c-8.66699 -16.667 -21.334 -31.167 -38.001 -43.5s-37 -18.5 -61 -18.5c-29.333 0 -52.5 8.16699 -69.5 24.5zM259.001 244.002h212l-104 305z" />
    <glyph glyph-name="aogonek" unicode="&#x105;" horiz-adv-x="494" 
d="M297 -198.5c-15.333 14.333 -23.0029 33.1699 -23.0029 56.5029c0 44.667 32.667 88 98 130v2c-20.667 4.66699 -36.167 15.167 -46.5 31.5s-16.166 37.166 -17.499 62.499l-5 2c-10 -23.333 -26.167 -45.5 -48.5 -66.5s-48.5 -31.5 -78.5 -31.5
c-35.333 0 -65.833 8.66699 -91.5 26s-38.5 48 -38.5 92c0 34 8.66699 60.667 26 80s37.5 33.166 60.5 41.499s50.833 15.5 83.5 21.5l92 17v85c0 62 -31 93 -93 93c-22.667 0 -43.334 -5.83301 -62.001 -17.5s-28 -24.834 -28 -39.501c0 -6.66699 1 -11.667 3 -15
c1.33301 -2 3.5 -4 6.5 -6s5.83301 -3.33301 8.5 -4c12 -3.33301 21.167 -8 27.5 -14s9.5 -14.333 9.5 -25c0 -14 -4.16699 -24 -12.5 -30s-18.833 -9 -31.5 -9c-14.667 0 -28 5.66699 -40 17s-18 27.666 -18 48.999c0 24.667 6.83301 46 20.5 64s31.334 31.5 53.001 40.5
s43.834 13.5 66.501 13.5c44 0 82 -11.5 114 -34.5s48 -58.833 48 -107.5v-246c0 -33.333 10.333 -50 31 -50c16.667 0 28.667 9.66699 36 29s11 43 11 71h18c0 -37.333 -4.5 -68.166 -13.5 -92.499s-25.167 -40.833 -48.5 -49.5c-24 -9.33301 -44 -24.833 -60 -46.5
s-24 -45.167 -24 -70.5c0 -14.667 3.66699 -26.167 11 -34.5s18.333 -12.5 33 -12.5c12 0 22.167 2.83301 30.5 8.5s17.5 14.167 27.5 25.5l14 -10c-10 -18.667 -23.167 -34.667 -39.5 -48s-34.166 -20 -53.499 -20c-22 0 -40.667 7.16699 -56 21.5zM262.497 59.5039
c17 23.667 32.167 53.834 45.5 90.501v95l-87 -19c-32 -6.66699 -55.167 -19.834 -69.5 -39.501s-21.5 -47.5 -21.5 -83.5c0 -30.667 6.33301 -51.5 19 -62.5s27 -16.5 43 -16.5c30 0 53.5 11.833 70.5 35.5z" />
    <glyph glyph-name="Cacute" unicode="&#x106;" horiz-adv-x="670" 
d="M323 773l92.001 133c8.66699 12 16.667 20.333 24 25s15.666 7 24.999 7c8.66699 0 15.5 -2.83301 20.5 -8.5s7.5 -13.167 7.5 -22.5c0 -15.333 -9.33301 -30 -28 -44l-128 -101zM206.001 36c-44.667 36 -78.502 83.167 -101.502 141.5s-34.5 119.833 -34.5 184.5
c0 67.333 11.333 129 34 185s55 100.5 97 133.5s91 49.5 147 49.5c29.333 0 57 -6.66699 83 -20s47.333 -27.666 64 -42.999c16 -14.667 26.667 -22 32 -22s9.16602 1.66699 11.499 5s4.83301 8.66602 7.5 15.999l19 56h25l4 -310h-28
c-14.667 63.333 -33.667 116.5 -57 159.5s-48.833 74.833 -76.5 95.5s-55.167 31 -82.5 31c-63.333 0 -108.166 -28.667 -134.499 -86s-39.5 -140.666 -39.5 -249.999c0 -112.667 13.667 -198.834 41 -258.501s77 -89.5 149 -89.5c64 0 112.833 23.833 146.5 71.5
s52.834 105.5 57.501 173.5h36c-2 -39.333 -10.167 -80 -24.5 -122s-39.166 -78.333 -74.499 -109s-82.333 -46 -141 -46c-62 0 -115.333 18 -160 54z" />
    <glyph glyph-name="cacute" unicode="&#x107;" horiz-adv-x="436" 
d="M223 519l92.001 133c8.66699 12 16.667 20.333 24 25s15.666 7 24.999 7c8.66699 0 15.5 -2.83301 20.5 -8.5s7.5 -13.167 7.5 -22.5c0 -15.333 -9.33301 -30 -28 -44l-128 -101zM141.501 20c-29.667 21.333 -52.6689 50.334 -69.002 87.001s-24.5 77 -24.5 121
s8.33301 84.333 25 121s39.834 65.667 69.501 87s63.5 32 101.5 32c30.667 0 57.334 -6.5 80.001 -19.5s40 -29.667 52 -50s18 -40.833 18 -61.5s-5.33301 -36.834 -16 -48.501s-23.667 -17.5 -39 -17.5c-13.333 0 -24.5 4.33301 -33.5 13s-13.5 19 -13.5 31
s3.33301 22 10 30s14.667 13.333 24 16c10.667 3.33301 16 9.33301 16 18c0 8 -3.5 17 -10.5 27s-17.833 18.833 -32.5 26.5s-33 11.5 -55 11.5c-42 0 -70.5 -18 -85.5 -54s-22.5 -90 -22.5 -162s7.33301 -126 22 -162s43.334 -54 86.001 -54c40.667 0 72 14.333 94 43
s35.333 62.334 40 101.001h24c-2 -27.333 -9 -53.833 -21 -79.5s-29.667 -46.834 -53 -63.501s-51.333 -25 -84 -25c-38.667 0 -72.834 10.667 -102.501 32z" />
    <glyph glyph-name="Ccircumflex" unicode="&#x108;" horiz-adv-x="670" 
d="M190 778c60.667 34.667 106.665 82 137.998 142h40c31.333 -60 77.333 -107.333 138 -142l-10 -16c-17.333 6 -41.166 18.833 -71.499 38.5s-55.833 38.834 -76.5 57.501c-20.667 -18.667 -46.167 -37.834 -76.5 -57.501s-54.166 -32.5 -71.499 -38.5zM205.998 36
c-44.667 36 -78.502 83.167 -101.502 141.5s-34.5 119.833 -34.5 184.5c0 67.333 11.333 129 34 185s55 100.5 97 133.5s91 49.5 147 49.5c29.333 0 57 -6.66699 83 -20s47.333 -27.666 64 -42.999c16 -14.667 26.667 -22 32 -22s9.16602 1.66699 11.499 5
s4.83301 8.66602 7.5 15.999l19 56h25l4 -310h-28c-14.667 63.333 -33.667 116.5 -57 159.5s-48.833 74.833 -76.5 95.5s-55.167 31 -82.5 31c-63.333 0 -108.166 -28.667 -134.499 -86s-39.5 -140.666 -39.5 -249.999c0 -112.667 13.667 -198.834 41 -258.501
s77 -89.5 149 -89.5c64 0 112.833 23.833 146.5 71.5s52.834 105.5 57.501 173.5h36c-2 -39.333 -10.167 -80 -24.5 -122s-39.166 -78.333 -74.499 -109s-82.333 -46 -141 -46c-62 0 -115.333 18 -160 54z" />
    <glyph glyph-name="ccircumflex" unicode="&#x109;" horiz-adv-x="436" 
d="M117 521c50 32.667 87 83 111 151h40c24 -68 61 -118.333 111 -151l-9 -13c-46 24 -86.667 54.667 -122 92c-36 -38 -76.667 -68.667 -122 -92zM141.5 20c-29.667 21.333 -52.6689 50.334 -69.002 87.001s-24.5 77 -24.5 121s8.33301 84.333 25 121
s39.834 65.667 69.501 87s63.5 32 101.5 32c30.667 0 57.334 -6.5 80.001 -19.5s40 -29.667 52 -50s18 -40.833 18 -61.5s-5.33301 -36.834 -16 -48.501s-23.667 -17.5 -39 -17.5c-13.333 0 -24.5 4.33301 -33.5 13s-13.5 19 -13.5 31s3.33301 22 10 30s14.667 13.333 24 16
c10.667 3.33301 16 9.33301 16 18c0 8 -3.5 17 -10.5 27s-17.833 18.833 -32.5 26.5s-33 11.5 -55 11.5c-42 0 -70.5 -18 -85.5 -54s-22.5 -90 -22.5 -162s7.33301 -126 22 -162s43.334 -54 86.001 -54c40.667 0 72 14.333 94 43s35.333 62.334 40 101.001h24
c-2 -27.333 -9 -53.833 -21 -79.5s-29.667 -46.834 -53 -63.501s-51.333 -25 -84 -25c-38.667 0 -72.834 10.667 -102.501 32z" />
    <glyph glyph-name="Cdotaccent" unicode="&#x10a;" horiz-adv-x="670" 
d="M311 813c-10 10 -15 22.333 -15 37c0 15.333 5 27.833 15 37.5s22.333 14.5 37 14.5c15.333 0 27.833 -4.83301 37.5 -14.5s14.5 -22.167 14.5 -37.5c0 -14.667 -4.83301 -27 -14.5 -37s-22.167 -15 -37.5 -15c-14.667 0 -27 5 -37 15zM206 36
c-44.667 36 -78.502 83.167 -101.502 141.5s-34.5 119.833 -34.5 184.5c0 67.333 11.333 129 34 185s55 100.5 97 133.5s91 49.5 147 49.5c29.333 0 57 -6.66699 83 -20s47.333 -27.666 64 -42.999c16 -14.667 26.667 -22 32 -22s9.16602 1.66699 11.499 5
s4.83301 8.66602 7.5 15.999l19 56h25l4 -310h-28c-14.667 63.333 -33.667 116.5 -57 159.5s-48.833 74.833 -76.5 95.5s-55.167 31 -82.5 31c-63.333 0 -108.166 -28.667 -134.499 -86s-39.5 -140.666 -39.5 -249.999c0 -112.667 13.667 -198.834 41 -258.501
s77 -89.5 149 -89.5c64 0 112.833 23.833 146.5 71.5s52.834 105.5 57.501 173.5h36c-2 -39.333 -10.167 -80 -24.5 -122s-39.166 -78.333 -74.499 -109s-82.333 -46 -141 -46c-62 0 -115.333 18 -160 54z" />
    <glyph glyph-name="cdotaccent" unicode="&#x10b;" horiz-adv-x="436" 
d="M211 559c-10 10 -15 22.333 -15 37c0 15.333 5 27.833 15 37.5s22.333 14.5 37 14.5c15.333 0 27.833 -4.83301 37.5 -14.5s14.5 -22.167 14.5 -37.5c0 -14.667 -4.83301 -27 -14.5 -37s-22.167 -15 -37.5 -15c-14.667 0 -27 5 -37 15zM141.5 20
c-29.667 21.333 -52.6689 50.334 -69.002 87.001s-24.5 77 -24.5 121s8.33301 84.333 25 121s39.834 65.667 69.501 87s63.5 32 101.5 32c30.667 0 57.334 -6.5 80.001 -19.5s40 -29.667 52 -50s18 -40.833 18 -61.5s-5.33301 -36.834 -16 -48.501s-23.667 -17.5 -39 -17.5
c-13.333 0 -24.5 4.33301 -33.5 13s-13.5 19 -13.5 31s3.33301 22 10 30s14.667 13.333 24 16c10.667 3.33301 16 9.33301 16 18c0 8 -3.5 17 -10.5 27s-17.833 18.833 -32.5 26.5s-33 11.5 -55 11.5c-42 0 -70.5 -18 -85.5 -54s-22.5 -90 -22.5 -162s7.33301 -126 22 -162
s43.334 -54 86.001 -54c40.667 0 72 14.333 94 43s35.333 62.334 40 101.001h24c-2 -27.333 -9 -53.833 -21 -79.5s-29.667 -46.834 -53 -63.501s-51.333 -25 -84 -25c-38.667 0 -72.834 10.667 -102.501 32z" />
    <glyph glyph-name="Ccaron" unicode="&#x10c;" horiz-adv-x="670" 
d="M328 762l-140 144l12 14l148 -96l148 96l12 -14l-140 -144h-40zM206 36c-44.667 36 -78.502 83.167 -101.502 141.5s-34.5 119.833 -34.5 184.5c0 67.333 11.333 129 34 185s55 100.5 97 133.5s91 49.5 147 49.5c29.333 0 57 -6.66699 83 -20s47.333 -27.666 64 -42.999
c16 -14.667 26.667 -22 32 -22s9.16602 1.66699 11.499 5s4.83301 8.66602 7.5 15.999l19 56h25l4 -310h-28c-14.667 63.333 -33.667 116.5 -57 159.5s-48.833 74.833 -76.5 95.5s-55.167 31 -82.5 31c-63.333 0 -108.166 -28.667 -134.499 -86
s-39.5 -140.666 -39.5 -249.999c0 -112.667 13.667 -198.834 41 -258.501s77 -89.5 149 -89.5c64 0 112.833 23.833 146.5 71.5s52.834 105.5 57.501 173.5h36c-2 -39.333 -10.167 -80 -24.5 -122s-39.166 -78.333 -74.499 -109s-82.333 -46 -141 -46
c-62 0 -115.333 18 -160 54z" />
    <glyph glyph-name="ccaron" unicode="&#x10d;" horiz-adv-x="436" 
d="M228 508l-112 153l13 11l119 -100l119 100l13 -11l-112 -153h-40zM141.5 20c-29.667 21.333 -52.6689 50.334 -69.002 87.001s-24.5 77 -24.5 121s8.33301 84.333 25 121s39.834 65.667 69.501 87s63.5 32 101.5 32c30.667 0 57.334 -6.5 80.001 -19.5s40 -29.667 52 -50
s18 -40.833 18 -61.5s-5.33301 -36.834 -16 -48.501s-23.667 -17.5 -39 -17.5c-13.333 0 -24.5 4.33301 -33.5 13s-13.5 19 -13.5 31s3.33301 22 10 30s14.667 13.333 24 16c10.667 3.33301 16 9.33301 16 18c0 8 -3.5 17 -10.5 27s-17.833 18.833 -32.5 26.5
s-33 11.5 -55 11.5c-42 0 -70.5 -18 -85.5 -54s-22.5 -90 -22.5 -162s7.33301 -126 22 -162s43.334 -54 86.001 -54c40.667 0 72 14.333 94 43s35.333 62.334 40 101.001h24c-2 -27.333 -9 -53.833 -21 -79.5s-29.667 -46.834 -53 -63.501s-51.333 -25 -84 -25
c-38.667 0 -72.834 10.667 -102.501 32z" />
    <glyph glyph-name="Dcaron" unicode="&#x10e;" horiz-adv-x="780" 
d="M348 762l-140 144l12 14l148 -96l148 96l12 -14l-140 -144h-40zM62 32h71.999c18 0 27 9 27 27v594c0 9.33301 -2.16699 16.166 -6.5 20.499s-11.166 6.5 -20.499 6.5h-72v32h366c55.333 0 106 -14.833 152 -44.5s82.5 -71 109.5 -124s40.5 -113.5 40.5 -181.5
s-13.5 -129.667 -40.5 -185s-63.667 -98.666 -110 -129.999s-96.833 -47 -151.5 -47h-366v32zM423.999 32c46.667 0 84.999 15.832 114.999 47.499s51.667 72.334 65 122.001s20 103.167 20 160.5c0 89.333 -16.167 164.666 -48.5 225.999s-82.833 92 -151.5 92h-144
c-9.33301 0 -16.166 -2.16699 -20.499 -6.5s-6.5 -11.166 -6.5 -20.499v-594c0 -18 9 -27 27 -27h144z" />
    <glyph glyph-name="dcaron" unicode="&#x10f;" horiz-adv-x="576" 
d="M460 500c21.333 14.667 39.334 31.834 54.001 51.501s22 38.5 22 56.5c0 7.33301 -2 13.333 -6 18c-4 5.33301 -12 8 -24 8s-22 4.16699 -30 12.5s-12 18.166 -12 29.499c0 13.333 4.16699 24 12.5 32s18.833 12 31.5 12c17.333 0 31.666 -7.33301 42.999 -22
s17 -32.667 17 -54c0 -31.333 -9.16699 -60.333 -27.5 -87s-41.833 -49.667 -70.5 -69zM136.501 19.5c-27 21 -48.499 49.832 -64.499 86.499s-24 77.334 -24 122.001s8 85.334 24 122.001s37.5 65.5 64.5 86.5s56.167 31.5 87.5 31.5c26 0 49.333 -8.5 70 -25.5
s36 -37.5 46 -61.5l4 1v284c0 8 -1.66699 13.667 -5 17s-9 5 -17 5h-72v24h166v-666c0 -8 1.66699 -13.667 5 -17s9 -5 17 -5h52v-24h-146v74l-4 1c-12.667 -26.667 -28.834 -47.834 -48.501 -63.501s-42.167 -23.5 -67.5 -23.5c-31.333 0 -60.5 10.5 -87.5 31.5z
M290.002 37.999c16.667 14.667 29.834 34.832 39.501 60.499s14.5 53.5 14.5 83.5v92c0 30 -4.83301 57.833 -14.5 83.5s-22.834 45.834 -39.501 60.501s-35 22 -55 22c-32.667 0 -57.334 -18.333 -74.001 -55s-25 -89 -25 -157s8.33301 -120.333 25 -157
s41.334 -55 74.001 -55c20 0 38.333 7.33301 55 22z" />
    <glyph glyph-name="Dcroat" unicode="&#x110;" horiz-adv-x="768" 
d="M62 32h71.999c18 0 27 9 27 27v297h-93v36h93v261c0 9.33301 -2.16699 16.166 -6.5 20.499s-11.166 6.5 -20.499 6.5h-72v32h366c55.333 0 106 -14.833 152 -44.5s82.5 -71 109.5 -124s40.5 -113.5 40.5 -181.5s-13.5 -129.667 -40.5 -185s-63.667 -98.666 -110 -129.999
s-96.833 -47 -151.5 -47h-366v32zM423.999 32c46.667 0 84.999 15.832 114.999 47.499s51.667 72.334 65 122.001s20 103.167 20 160.5c0 89.333 -16.167 164.666 -48.5 225.999s-82.833 92 -151.5 92h-144c-9.33301 0 -16.166 -2.16699 -20.499 -6.5
s-6.5 -11.166 -6.5 -20.499v-261h115v-36h-115v-297c0 -18 9 -27 27 -27h144z" />
    <glyph glyph-name="dcroat" unicode="&#x111;" horiz-adv-x="522" 
d="M136.5 19.5c-27 21 -48.499 49.832 -64.499 86.499s-24 77.334 -24 122.001s8 85.334 24 122.001s37.5 65.5 64.5 86.5s56.167 31.5 87.5 31.5c26 0 49.333 -8.5 70 -25.5s36 -37.5 46 -61.5l4 1v174h-184v28h184v82c0 8 -1.66699 13.667 -5 17s-9 5 -17 5h-72v24h166
v-128h74v-28h-74v-510c0 -8 1.66699 -13.667 5 -17s9 -5 17 -5h52v-24h-146v74l-4 1c-12.667 -26.667 -28.834 -47.834 -48.501 -63.501s-42.167 -23.5 -67.5 -23.5c-31.333 0 -60.5 10.5 -87.5 31.5zM290.001 37.999c16.667 14.667 29.834 34.832 39.501 60.499
s14.5 53.5 14.5 83.5v92c0 30 -4.83301 57.833 -14.5 83.5s-22.834 45.834 -39.501 60.501s-35 22 -55 22c-32.667 0 -57.334 -18.333 -74.001 -55s-25 -89 -25 -157s8.33301 -120.333 25 -157s41.334 -55 74.001 -55c20 0 38.333 7.33301 55 22z" />
    <glyph glyph-name="Emacron" unicode="&#x112;" horiz-adv-x="690" 
d="M232 822v40h272v-40h-272zM62 32h71.999c18 0 27 9 27 27v594c0 9.33301 -2.16699 16.166 -6.5 20.499s-11.166 6.5 -20.499 6.5h-72v32h558l4 -250h-25c0 13.333 -2.83301 36 -8.5 68s-16.834 60.667 -33.501 86c-28 42.667 -67.333 64 -118 64h-159
c-9.33301 0 -16.166 -2.16699 -20.499 -6.5s-6.5 -11.166 -6.5 -20.499v-269h77c34 0 58.5 17.333 73.5 52s22.5 71.667 22.5 111h26v-358h-26c0 39.333 -7.5 76.333 -22.5 111s-39.5 52 -73.5 52h-77v-293c0 -18 9 -27 27 -27h160c19.333 0 39 4.33301 59 13s37 22 51 40
c13.333 18.667 24.333 42 33 70s14.667 53.5 18 76.5s5.33301 37.833 6 44.5h25l-12 -276h-558v32z" />
    <glyph glyph-name="emacron" unicode="&#x113;" horiz-adv-x="460" 
d="M110 572v40h260v-40h-260zM104.5 51c-37.667 42 -56.502 100.334 -56.502 175.001c0 42.667 8.33301 82.5 25 119.5s39.834 66.667 69.501 89s62.834 33.5 99.501 33.5c40.667 0 74 -11 100 -33s44.833 -49.833 56.5 -83.5s17.5 -68.167 17.5 -103.5
c0 -7.33301 -2.33301 -12.166 -7 -14.499s-12.667 -3.5 -24 -3.5h-249c0 -66.667 9.5 -119.667 28.5 -159s50.167 -59 93.5 -59c30.667 0 59.5 11.667 86.5 35s44.167 59.666 51.5 108.999h24c-4 -48.667 -20.833 -88.834 -50.5 -120.501s-68.167 -47.5 -115.5 -47.5
c-62 0 -111.833 21 -149.5 63zM329.998 254.001c0 53.333 -7 98.333 -21 135s-37 55 -69 55c-34 0 -59.833 -18.5 -77.5 -55.5s-26.5 -81.833 -26.5 -134.5h194z" />
    <glyph glyph-name="Ebreve" unicode="&#x114;" horiz-adv-x="690" 
d="M284.5 786.5c-23 16.333 -40 36.5 -51 60.5s-16.5 47 -16.5 69h28c6 -28 19.5 -53 40.5 -75s48.5 -33 82.5 -33s61.5 11 82.5 33s34.5 47 40.5 75h28c0 -22 -5.5 -45 -16.5 -69s-28 -44.167 -51 -60.5s-50.833 -24.5 -83.5 -24.5s-60.5 8.16699 -83.5 24.5zM62 32h71.999
c18 0 27 9 27 27v594c0 9.33301 -2.16699 16.166 -6.5 20.499s-11.166 6.5 -20.499 6.5h-72v32h558l4 -250h-25c0 13.333 -2.83301 36 -8.5 68s-16.834 60.667 -33.501 86c-28 42.667 -67.333 64 -118 64h-159c-9.33301 0 -16.166 -2.16699 -20.499 -6.5
s-6.5 -11.166 -6.5 -20.499v-269h77c34 0 58.5 17.333 73.5 52s22.5 71.667 22.5 111h26v-358h-26c0 39.333 -7.5 76.333 -22.5 111s-39.5 52 -73.5 52h-77v-293c0 -18 9 -27 27 -27h160c19.333 0 39 4.33301 59 13s37 22 51 40c13.333 18.667 24.333 42 33 70
s14.667 53.5 18 76.5s5.33301 37.833 6 44.5h25l-12 -276h-558v32z" />
    <glyph glyph-name="ebreve" unicode="&#x115;" horiz-adv-x="460" 
d="M164.5 549.5c-21 15.667 -36.667 34.5 -47 56.5s-15.5 42 -15.5 60h22c4 -26.667 15.167 -50 33.5 -70s45.833 -30 82.5 -30s64.167 10 82.5 30s29.5 43.333 33.5 70h22c0 -18 -5.16699 -38 -15.5 -60s-26 -40.833 -47 -56.5s-46.167 -23.5 -75.5 -23.5
s-54.5 7.83301 -75.5 23.5zM104.5 51c-37.667 42 -56.502 100.334 -56.502 175.001c0 42.667 8.33301 82.5 25 119.5s39.834 66.667 69.501 89s62.834 33.5 99.501 33.5c40.667 0 74 -11 100 -33s44.833 -49.833 56.5 -83.5s17.5 -68.167 17.5 -103.5
c0 -7.33301 -2.33301 -12.166 -7 -14.499s-12.667 -3.5 -24 -3.5h-249c0 -66.667 9.5 -119.667 28.5 -159s50.167 -59 93.5 -59c30.667 0 59.5 11.667 86.5 35s44.167 59.666 51.5 108.999h24c-4 -48.667 -20.833 -88.834 -50.5 -120.501s-68.167 -47.5 -115.5 -47.5
c-62 0 -111.833 21 -149.5 63zM329.998 254.001c0 53.333 -7 98.333 -21 135s-37 55 -69 55c-34 0 -59.833 -18.5 -77.5 -55.5s-26.5 -81.833 -26.5 -134.5h194z" />
    <glyph glyph-name="Edotaccent" unicode="&#x116;" horiz-adv-x="690" 
d="M331 813c-10 10 -15 22.333 -15 37c0 15.333 5 27.833 15 37.5s22.333 14.5 37 14.5c15.333 0 27.833 -4.83301 37.5 -14.5s14.5 -22.167 14.5 -37.5c0 -14.667 -4.83301 -27 -14.5 -37s-22.167 -15 -37.5 -15c-14.667 0 -27 5 -37 15zM62 32h71.999c18 0 27 9 27 27v594
c0 9.33301 -2.16699 16.166 -6.5 20.499s-11.166 6.5 -20.499 6.5h-72v32h558l4 -250h-25c0 13.333 -2.83301 36 -8.5 68s-16.834 60.667 -33.501 86c-28 42.667 -67.333 64 -118 64h-159c-9.33301 0 -16.166 -2.16699 -20.499 -6.5s-6.5 -11.166 -6.5 -20.499v-269h77
c34 0 58.5 17.333 73.5 52s22.5 71.667 22.5 111h26v-358h-26c0 39.333 -7.5 76.333 -22.5 111s-39.5 52 -73.5 52h-77v-293c0 -18 9 -27 27 -27h160c19.333 0 39 4.33301 59 13s37 22 51 40c13.333 18.667 24.333 42 33 70s14.667 53.5 18 76.5s5.33301 37.833 6 44.5h25
l-12 -276h-558v32z" />
    <glyph glyph-name="edotaccent" unicode="&#x117;" horiz-adv-x="460" 
d="M203 559c-10 10 -15 22.333 -15 37c0 15.333 5 27.833 15 37.5s22.333 14.5 37 14.5c15.333 0 27.833 -4.83301 37.5 -14.5s14.5 -22.167 14.5 -37.5c0 -14.667 -4.83301 -27 -14.5 -37s-22.167 -15 -37.5 -15c-14.667 0 -27 5 -37 15zM104.5 51
c-37.667 42 -56.502 100.334 -56.502 175.001c0 42.667 8.33301 82.5 25 119.5s39.834 66.667 69.501 89s62.834 33.5 99.501 33.5c40.667 0 74 -11 100 -33s44.833 -49.833 56.5 -83.5s17.5 -68.167 17.5 -103.5c0 -7.33301 -2.33301 -12.166 -7 -14.499
s-12.667 -3.5 -24 -3.5h-249c0 -66.667 9.5 -119.667 28.5 -159s50.167 -59 93.5 -59c30.667 0 59.5 11.667 86.5 35s44.167 59.666 51.5 108.999h24c-4 -48.667 -20.833 -88.834 -50.5 -120.501s-68.167 -47.5 -115.5 -47.5c-62 0 -111.833 21 -149.5 63zM329.998 254.001
c0 53.333 -7 98.333 -21 135s-37 55 -69 55c-34 0 -59.833 -18.5 -77.5 -55.5s-26.5 -81.833 -26.5 -134.5h194z" />
    <glyph glyph-name="Eogonek" unicode="&#x118;" horiz-adv-x="690" 
d="M389.5 -213.5c-17 16.333 -25.5 38.167 -25.5 65.5c0 28.667 10.5 55.334 31.5 80.001s47.833 45.667 80.5 63l-2 5h-412v32h72c18 0 27 9 27 27v594c0 9.33301 -2.16699 16.166 -6.5 20.499s-11.166 6.5 -20.499 6.5h-72v32h558l4 -250h-25
c0 13.333 -2.83301 36 -8.5 68s-16.834 60.667 -33.501 86c-28 42.667 -67.333 64 -118 64h-159c-9.33301 0 -16.166 -2.16699 -20.499 -6.5s-6.5 -11.166 -6.5 -20.499v-269h77c34 0 58.5 17.333 73.5 52s22.5 71.667 22.5 111h26v-358h-26c0 39.333 -7.5 76.333 -22.5 111
s-39.5 52 -73.5 52h-77v-293c0 -18 9 -27 27 -27h160c19.333 0 39 4.33301 59 13s37 22 51 40c13.333 18.667 24.333 42 33 70s14.667 53.5 18 76.5s5.33301 37.833 6 44.5h25l-12 -276h-92c-28 -14 -51 -32.5 -69 -55.5s-27 -49.5 -27 -79.5
c0 -16.667 4.66699 -30.667 14 -42s22 -17 38 -17c14.667 0 26.5 2.16699 35.5 6.5s17.833 11.166 26.5 20.499l12 -9c-8.66699 -16.667 -21.334 -31.167 -38.001 -43.5s-37 -18.5 -61 -18.5c-29.333 0 -52.5 8.16699 -69.5 24.5z" />
    <glyph glyph-name="eogonek" unicode="&#x119;" horiz-adv-x="460" 
d="M224 -198.5c-15.333 14.333 -23.0029 33.168 -23.0029 56.501c0 24 9.16699 47.667 27.5 71s43.833 45 76.5 65l-2 3c-18 -6 -34.333 -9 -49 -9c-62 0 -111.833 21 -149.5 63s-56.5 100.333 -56.5 175c0 42.667 8.33301 82.5 25 119.5s39.834 66.667 69.501 89
s62.834 33.5 99.501 33.5c40.667 0 74 -11 100 -33s44.833 -49.833 56.5 -83.5s17.5 -68.167 17.5 -103.5c0 -7.33301 -2.33301 -12.166 -7 -14.499s-12.667 -3.5 -24 -3.5h-249c0 -66.667 9.5 -119.667 28.5 -159s50.167 -59 93.5 -59c30.667 0 59.5 11.667 86.5 35
s44.167 59.666 51.5 108.999h24c-3.33301 -34.667 -12.5 -64.167 -27.5 -88.5s-37.5 -50.833 -67.5 -79.5c-23.333 -22.667 -40.5 -42.334 -51.5 -59.001s-16.5 -36 -16.5 -58c0 -14.667 3.66699 -26.167 11 -34.5s18.333 -12.5 33 -12.5c12 0 22.167 2.83301 30.5 8.5
s17.5 14.167 27.5 25.5l14 -10c-10 -18.667 -23.167 -34.667 -39.5 -48s-34.166 -20 -53.499 -20c-22 0 -40.667 7.16699 -56 21.5zM329.997 254.002c0 53.333 -7 98.333 -21 135s-37 55 -69 55c-34 0 -59.833 -18.5 -77.5 -55.5s-26.5 -81.833 -26.5 -134.5h194z" />
    <glyph glyph-name="Ecaron" unicode="&#x11a;" horiz-adv-x="690" 
d="M348 762l-140 144l12 14l148 -96l148 96l12 -14l-140 -144h-40zM62 32h71.999c18 0 27 9 27 27v594c0 9.33301 -2.16699 16.166 -6.5 20.499s-11.166 6.5 -20.499 6.5h-72v32h558l4 -250h-25c0 13.333 -2.83301 36 -8.5 68s-16.834 60.667 -33.501 86
c-28 42.667 -67.333 64 -118 64h-159c-9.33301 0 -16.166 -2.16699 -20.499 -6.5s-6.5 -11.166 -6.5 -20.499v-269h77c34 0 58.5 17.333 73.5 52s22.5 71.667 22.5 111h26v-358h-26c0 39.333 -7.5 76.333 -22.5 111s-39.5 52 -73.5 52h-77v-293c0 -18 9 -27 27 -27h160
c19.333 0 39 4.33301 59 13s37 22 51 40c13.333 18.667 24.333 42 33 70s14.667 53.5 18 76.5s5.33301 37.833 6 44.5h25l-12 -276h-558v32z" />
    <glyph glyph-name="ecaron" unicode="&#x11b;" horiz-adv-x="460" 
d="M220 508l-112 153l13 11l119 -100l119 100l13 -11l-112 -153h-40zM104.5 51c-37.667 42 -56.502 100.334 -56.502 175.001c0 42.667 8.33301 82.5 25 119.5s39.834 66.667 69.501 89s62.834 33.5 99.501 33.5c40.667 0 74 -11 100 -33s44.833 -49.833 56.5 -83.5
s17.5 -68.167 17.5 -103.5c0 -7.33301 -2.33301 -12.166 -7 -14.499s-12.667 -3.5 -24 -3.5h-249c0 -66.667 9.5 -119.667 28.5 -159s50.167 -59 93.5 -59c30.667 0 59.5 11.667 86.5 35s44.167 59.666 51.5 108.999h24c-4 -48.667 -20.833 -88.834 -50.5 -120.501
s-68.167 -47.5 -115.5 -47.5c-62 0 -111.833 21 -149.5 63zM329.998 254.001c0 53.333 -7 98.333 -21 135s-37 55 -69 55c-34 0 -59.833 -18.5 -77.5 -55.5s-26.5 -81.833 -26.5 -134.5h194z" />
    <glyph glyph-name="Gcircumflex" unicode="&#x11c;" horiz-adv-x="720" 
d="M190 778c60.667 34.667 106.665 82 137.998 142h40c31.333 -60 77.333 -107.333 138 -142l-10 -16c-17.333 6 -41.166 18.833 -71.499 38.5s-55.833 38.834 -76.5 57.501c-20.667 -18.667 -46.167 -37.834 -76.5 -57.501s-54.166 -32.5 -71.499 -38.5zM200.498 32.5
c-42.333 33.667 -74.6719 79.3311 -97.0049 136.998s-33.5 121.834 -33.5 192.501c0 67.333 11.333 129 34 185s55 100.5 97 133.5s91 49.5 147 49.5c29.333 0 57 -6.66699 83 -20s47.333 -27.666 64 -42.999c16 -14.667 26.667 -22 32 -22s9.16602 1.66699 11.499 5
s4.83301 8.66602 7.5 15.999l19 56h25l4 -310h-28c-14.667 63.333 -33.667 116.5 -57 159.5s-48.833 74.833 -76.5 95.5s-55.167 31 -82.5 31c-46 0 -81.667 -13.833 -107 -41.5s-42.833 -66.167 -52.5 -115.5s-14.5 -111 -14.5 -185s4.83301 -135.667 14.5 -185
s27.167 -87.833 52.5 -115.5s61 -41.5 107 -41.5c24.667 0 48.334 8.83301 71.001 26.5s41.167 40.167 55.5 67.5s21.5 54.333 21.5 81v90c0 9.33301 -2.16699 16.166 -6.5 20.499s-11.166 6.5 -20.499 6.5h-111v32h330v-32h-73c-9.33301 0 -16.166 -2.16699 -20.499 -6.5
s-6.5 -11.166 -6.5 -20.499v-292h-32v91c0 11.333 -1.33301 19.833 -4 25.5s-7 8.5 -13 8.5c-7.33301 0 -13.666 -2.66699 -18.999 -8s-10.666 -12.666 -15.999 -21.999c-15.333 -24.667 -37 -47.5 -65 -68.5s-58.333 -31.5 -91 -31.5
c-57.333 0 -107.166 16.833 -149.499 50.5z" />
    <glyph glyph-name="gcircumflex" unicode="&#x11d;" horiz-adv-x="540" 
d="M131 521c50 32.667 87 83 111 151h40c24 -68 61 -118.333 111 -151l-9 -13c-46 24 -86.667 54.667 -122 92c-36 -38 -76.667 -68.667 -122 -92zM116 -210c-42.667 18.667 -63.999 47.9961 -63.999 87.9961c0 24.667 9.66699 46.334 29 65.001s42.333 30 69 34v3
c-58.667 12.667 -88 37.334 -88 74.001c0 27.333 10.5 48.833 31.5 64.5s46.833 26.167 77.5 31.5v3c-28 12 -51.833 30.167 -71.5 54.5s-29.5 56.5 -29.5 96.5c0 34 8.33301 63.333 25 88s38.5 43.5 65.5 56.5s56.167 19.5 87.5 19.5c19.333 0 38.5 -3.16699 57.5 -9.5
s35.333 -13.666 49 -21.999s22.5 -15.166 26.5 -20.499c6 17.333 15.667 30.333 29 39s26.666 13 39.999 13c22.667 0 41.334 -6.66699 56.001 -20s22 -30.666 22 -51.999c0 -16 -3.83301 -29 -11.5 -39s-17.834 -15 -30.501 -15c-10.667 0 -20 2.83301 -28 8.5
s-12 14.834 -12 27.501c0 14.667 5.66699 25.334 17 32.001c4 2.66699 6.83301 5.16699 8.5 7.5s2.5 5.83301 2.5 10.5c0 5.33301 -2.66699 9.33301 -8 12s-11.666 4 -18.999 4c-12 0 -22.833 -4.83301 -32.5 -14.5s-15.167 -20.834 -16.5 -33.501
c18.667 -26 28 -56.667 28 -92c0 -33.333 -8 -62.5 -24 -87.5s-37.5 -44 -64.5 -57s-56.833 -19.5 -89.5 -19.5c-38 0 -71.833 -5.16699 -101.5 -15.5s-44.5 -27.5 -44.5 -51.5c0 -12.667 5.66699 -21.334 17 -26.001s27 -7 47 -7c14 0 25.333 0.333008 34 1
c8 0.666992 18.333 1 31 1h103c42.667 0 78.334 -11.5 107.001 -34.5s43 -56.833 43 -101.5c0 -46.667 -19.833 -82.334 -59.5 -107.001s-91.834 -37 -156.501 -37c-58.667 0 -109.334 9.33301 -152.001 28zM320.001 200.996c17.333 24.667 26 59 26 103
s-8.66699 78.333 -26 103s-41.333 37 -72 37s-54.667 -12.333 -72 -37s-26 -59 -26 -103s8.66699 -78.333 26 -103s41.333 -37 72 -37s54.667 12.333 72 37zM394.001 -188.504c36 17 54 45.833 54 86.5c0 20.667 -6.16699 38.5 -18.5 53.5s-33.833 22.5 -64.5 22.5h-111
c-42.667 0 -79.667 -7.16699 -111 -21.5s-47 -38.5 -47 -72.5c0 -31.333 17.667 -54.833 53 -70.5s75 -23.5 119 -23.5c48 0 90 8.5 126 25.5z" />
    <glyph glyph-name="Gbreve" unicode="&#x11e;" horiz-adv-x="720" 
d="M264.5 786.5c-23 16.333 -40 36.5 -51 60.5s-16.5 47 -16.5 69h28c6 -28 19.5 -53 40.5 -75s48.5 -33 82.5 -33s61.5 11 82.5 33s34.5 47 40.5 75h28c0 -22 -5.5 -45 -16.5 -69s-28 -44.167 -51 -60.5s-50.833 -24.5 -83.5 -24.5s-60.5 8.16699 -83.5 24.5zM200.5 32.5
c-42.333 33.667 -74.6719 79.3311 -97.0049 136.998s-33.5 121.834 -33.5 192.501c0 67.333 11.333 129 34 185s55 100.5 97 133.5s91 49.5 147 49.5c29.333 0 57 -6.66699 83 -20s47.333 -27.666 64 -42.999c16 -14.667 26.667 -22 32 -22s9.16602 1.66699 11.499 5
s4.83301 8.66602 7.5 15.999l19 56h25l4 -310h-28c-14.667 63.333 -33.667 116.5 -57 159.5s-48.833 74.833 -76.5 95.5s-55.167 31 -82.5 31c-46 0 -81.667 -13.833 -107 -41.5s-42.833 -66.167 -52.5 -115.5s-14.5 -111 -14.5 -185s4.83301 -135.667 14.5 -185
s27.167 -87.833 52.5 -115.5s61 -41.5 107 -41.5c24.667 0 48.334 8.83301 71.001 26.5s41.167 40.167 55.5 67.5s21.5 54.333 21.5 81v90c0 9.33301 -2.16699 16.166 -6.5 20.499s-11.166 6.5 -20.499 6.5h-111v32h330v-32h-73c-9.33301 0 -16.166 -2.16699 -20.499 -6.5
s-6.5 -11.166 -6.5 -20.499v-292h-32v91c0 11.333 -1.33301 19.833 -4 25.5s-7 8.5 -13 8.5c-7.33301 0 -13.666 -2.66699 -18.999 -8s-10.666 -12.666 -15.999 -21.999c-15.333 -24.667 -37 -47.5 -65 -68.5s-58.333 -31.5 -91 -31.5
c-57.333 0 -107.166 16.833 -149.499 50.5z" />
    <glyph glyph-name="gbreve" unicode="&#x11f;" horiz-adv-x="540" 
d="M186.5 549.5c-21 15.667 -36.667 34.5 -47 56.5s-15.5 42 -15.5 60h22c4 -26.667 15.167 -50 33.5 -70s45.833 -30 82.5 -30s64.167 10 82.5 30s29.5 43.333 33.5 70h22c0 -18 -5.16699 -38 -15.5 -60s-26 -40.833 -47 -56.5s-46.167 -23.5 -75.5 -23.5
s-54.5 7.83301 -75.5 23.5zM116 -210c-42.667 18.667 -63.999 47.9961 -63.999 87.9961c0 24.667 9.66699 46.334 29 65.001s42.333 30 69 34v3c-58.667 12.667 -88 37.334 -88 74.001c0 27.333 10.5 48.833 31.5 64.5s46.833 26.167 77.5 31.5v3
c-28 12 -51.833 30.167 -71.5 54.5s-29.5 56.5 -29.5 96.5c0 34 8.33301 63.333 25 88s38.5 43.5 65.5 56.5s56.167 19.5 87.5 19.5c19.333 0 38.5 -3.16699 57.5 -9.5s35.333 -13.666 49 -21.999s22.5 -15.166 26.5 -20.499c6 17.333 15.667 30.333 29 39
s26.666 13 39.999 13c22.667 0 41.334 -6.66699 56.001 -20s22 -30.666 22 -51.999c0 -16 -3.83301 -29 -11.5 -39s-17.834 -15 -30.501 -15c-10.667 0 -20 2.83301 -28 8.5s-12 14.834 -12 27.501c0 14.667 5.66699 25.334 17 32.001c4 2.66699 6.83301 5.16699 8.5 7.5
s2.5 5.83301 2.5 10.5c0 5.33301 -2.66699 9.33301 -8 12s-11.666 4 -18.999 4c-12 0 -22.833 -4.83301 -32.5 -14.5s-15.167 -20.834 -16.5 -33.501c18.667 -26 28 -56.667 28 -92c0 -33.333 -8 -62.5 -24 -87.5s-37.5 -44 -64.5 -57s-56.833 -19.5 -89.5 -19.5
c-38 0 -71.833 -5.16699 -101.5 -15.5s-44.5 -27.5 -44.5 -51.5c0 -12.667 5.66699 -21.334 17 -26.001s27 -7 47 -7c14 0 25.333 0.333008 34 1c8 0.666992 18.333 1 31 1h103c42.667 0 78.334 -11.5 107.001 -34.5s43 -56.833 43 -101.5
c0 -46.667 -19.833 -82.334 -59.5 -107.001s-91.834 -37 -156.501 -37c-58.667 0 -109.334 9.33301 -152.001 28zM320.001 200.996c17.333 24.667 26 59 26 103s-8.66699 78.333 -26 103s-41.333 37 -72 37s-54.667 -12.333 -72 -37s-26 -59 -26 -103
s8.66699 -78.333 26 -103s41.333 -37 72 -37s54.667 12.333 72 37zM394.001 -188.504c36 17 54 45.833 54 86.5c0 20.667 -6.16699 38.5 -18.5 53.5s-33.833 22.5 -64.5 22.5h-111c-42.667 0 -79.667 -7.16699 -111 -21.5s-47 -38.5 -47 -72.5
c0 -31.333 17.667 -54.833 53 -70.5s75 -23.5 119 -23.5c48 0 90 8.5 126 25.5z" />
    <glyph glyph-name="Gdotaccent" unicode="&#x120;" horiz-adv-x="720" 
d="M311 813c-10 10 -15 22.333 -15 37c0 15.333 5 27.833 15 37.5s22.333 14.5 37 14.5c15.333 0 27.833 -4.83301 37.5 -14.5s14.5 -22.167 14.5 -37.5c0 -14.667 -4.83301 -27 -14.5 -37s-22.167 -15 -37.5 -15c-14.667 0 -27 5 -37 15zM200.5 32.5
c-42.333 33.667 -74.6719 79.3311 -97.0049 136.998s-33.5 121.834 -33.5 192.501c0 67.333 11.333 129 34 185s55 100.5 97 133.5s91 49.5 147 49.5c29.333 0 57 -6.66699 83 -20s47.333 -27.666 64 -42.999c16 -14.667 26.667 -22 32 -22s9.16602 1.66699 11.499 5
s4.83301 8.66602 7.5 15.999l19 56h25l4 -310h-28c-14.667 63.333 -33.667 116.5 -57 159.5s-48.833 74.833 -76.5 95.5s-55.167 31 -82.5 31c-46 0 -81.667 -13.833 -107 -41.5s-42.833 -66.167 -52.5 -115.5s-14.5 -111 -14.5 -185s4.83301 -135.667 14.5 -185
s27.167 -87.833 52.5 -115.5s61 -41.5 107 -41.5c24.667 0 48.334 8.83301 71.001 26.5s41.167 40.167 55.5 67.5s21.5 54.333 21.5 81v90c0 9.33301 -2.16699 16.166 -6.5 20.499s-11.166 6.5 -20.499 6.5h-111v32h330v-32h-73c-9.33301 0 -16.166 -2.16699 -20.499 -6.5
s-6.5 -11.166 -6.5 -20.499v-292h-32v91c0 11.333 -1.33301 19.833 -4 25.5s-7 8.5 -13 8.5c-7.33301 0 -13.666 -2.66699 -18.999 -8s-10.666 -12.666 -15.999 -21.999c-15.333 -24.667 -37 -47.5 -65 -68.5s-58.333 -31.5 -91 -31.5
c-57.333 0 -107.166 16.833 -149.499 50.5z" />
    <glyph glyph-name="gdotaccent" unicode="&#x121;" horiz-adv-x="540" 
d="M225 559c-10 10 -15 22.333 -15 37c0 15.333 5 27.833 15 37.5s22.333 14.5 37 14.5c15.333 0 27.833 -4.83301 37.5 -14.5s14.5 -22.167 14.5 -37.5c0 -14.667 -4.83301 -27 -14.5 -37s-22.167 -15 -37.5 -15c-14.667 0 -27 5 -37 15zM116 -210
c-42.667 18.667 -63.999 47.9961 -63.999 87.9961c0 24.667 9.66699 46.334 29 65.001s42.333 30 69 34v3c-58.667 12.667 -88 37.334 -88 74.001c0 27.333 10.5 48.833 31.5 64.5s46.833 26.167 77.5 31.5v3c-28 12 -51.833 30.167 -71.5 54.5s-29.5 56.5 -29.5 96.5
c0 34 8.33301 63.333 25 88s38.5 43.5 65.5 56.5s56.167 19.5 87.5 19.5c19.333 0 38.5 -3.16699 57.5 -9.5s35.333 -13.666 49 -21.999s22.5 -15.166 26.5 -20.499c6 17.333 15.667 30.333 29 39s26.666 13 39.999 13c22.667 0 41.334 -6.66699 56.001 -20
s22 -30.666 22 -51.999c0 -16 -3.83301 -29 -11.5 -39s-17.834 -15 -30.501 -15c-10.667 0 -20 2.83301 -28 8.5s-12 14.834 -12 27.501c0 14.667 5.66699 25.334 17 32.001c4 2.66699 6.83301 5.16699 8.5 7.5s2.5 5.83301 2.5 10.5c0 5.33301 -2.66699 9.33301 -8 12
s-11.666 4 -18.999 4c-12 0 -22.833 -4.83301 -32.5 -14.5s-15.167 -20.834 -16.5 -33.501c18.667 -26 28 -56.667 28 -92c0 -33.333 -8 -62.5 -24 -87.5s-37.5 -44 -64.5 -57s-56.833 -19.5 -89.5 -19.5c-38 0 -71.833 -5.16699 -101.5 -15.5s-44.5 -27.5 -44.5 -51.5
c0 -12.667 5.66699 -21.334 17 -26.001s27 -7 47 -7c14 0 25.333 0.333008 34 1c8 0.666992 18.333 1 31 1h103c42.667 0 78.334 -11.5 107.001 -34.5s43 -56.833 43 -101.5c0 -46.667 -19.833 -82.334 -59.5 -107.001s-91.834 -37 -156.501 -37
c-58.667 0 -109.334 9.33301 -152.001 28zM320.001 200.996c17.333 24.667 26 59 26 103s-8.66699 78.333 -26 103s-41.333 37 -72 37s-54.667 -12.333 -72 -37s-26 -59 -26 -103s8.66699 -78.333 26 -103s41.333 -37 72 -37s54.667 12.333 72 37zM394.001 -188.504
c36 17 54 45.833 54 86.5c0 20.667 -6.16699 38.5 -18.5 53.5s-33.833 22.5 -64.5 22.5h-111c-42.667 0 -79.667 -7.16699 -111 -21.5s-47 -38.5 -47 -72.5c0 -31.333 17.667 -54.833 53 -70.5s75 -23.5 119 -23.5c48 0 90 8.5 126 25.5z" />
    <glyph glyph-name="Gcommaaccent" unicode="&#x122;" horiz-adv-x="720" 
d="M200.5 32.5c-42.333 33.667 -74.6719 79.3311 -97.0049 136.998s-33.5 121.834 -33.5 192.501c0 67.333 11.333 129 34 185s55 100.5 97 133.5s91 49.5 147 49.5c29.333 0 57 -6.66699 83 -20s47.333 -27.666 64 -42.999c16 -14.667 26.667 -22 32 -22
s9.16602 1.66699 11.499 5s4.83301 8.66602 7.5 15.999l19 56h25l4 -310h-28c-14.667 63.333 -33.667 116.5 -57 159.5s-48.833 74.833 -76.5 95.5s-55.167 31 -82.5 31c-46 0 -81.667 -13.833 -107 -41.5s-42.833 -66.167 -52.5 -115.5s-14.5 -111 -14.5 -185
s4.83301 -135.667 14.5 -185s27.167 -87.833 52.5 -115.5s61 -41.5 107 -41.5c24.667 0 48.334 8.83301 71.001 26.5s41.167 40.167 55.5 67.5s21.5 54.333 21.5 81v90c0 9.33301 -2.16699 16.166 -6.5 20.499s-11.166 6.5 -20.499 6.5h-111v32h330v-32h-73
c-9.33301 0 -16.166 -2.16699 -20.499 -6.5s-6.5 -11.166 -6.5 -20.499v-292h-32v91c0 11.333 -1.33301 19.833 -4 25.5s-7 8.5 -13 8.5c-7.33301 0 -13.666 -2.66699 -18.999 -8s-10.666 -12.666 -15.999 -21.999c-15.333 -24.667 -37 -47.5 -65 -68.5
s-58.333 -31.5 -91 -31.5c-57.333 0 -107.166 16.833 -149.499 50.5zM307.994 -227.003c17.333 8 32.501 19.1699 45.501 33.5029s19.5 28.166 19.5 41.499c0 10.667 -2.66699 18 -8 22c-4 2.66699 -12 4 -24 4c-10.667 0 -19.167 4.33301 -25.5 13s-9.5 18 -9.5 28
c0 14 4.5 25 13.5 33s20.167 12 33.5 12c17.333 0 31.166 -6.33301 41.499 -19s15.5 -28.334 15.5 -47.001c0 -28.667 -9.16699 -55.334 -27.5 -80.001s-39.833 -42 -64.5 -52z" />
    <glyph glyph-name="gcommaaccent" unicode="&#x123;" horiz-adv-x="540" 
d="M204 509.5c-12 14.333 -18 32.5 -18 54.5c0 33.333 10.5 64.166 31.5 92.499s45.833 49.5 74.5 63.5l12 -12c-20.667 -10 -38.5 -23.667 -53.5 -41s-22.5 -33.666 -22.5 -48.999c0 -10.667 3.33301 -18.667 10 -24c5.33301 -4 14.666 -6 27.999 -6c12 0 21.667 -5 29 -15
s11 -21 11 -33c0 -16.667 -5.16699 -29.5 -15.5 -38.5s-23.166 -13.5 -38.499 -13.5c-20 0 -36 7.16699 -48 21.5zM116 -210c-42.667 18.667 -63.999 47.9961 -63.999 87.9961c0 24.667 9.66699 46.334 29 65.001s42.333 30 69 34v3c-58.667 12.667 -88 37.334 -88 74.001
c0 27.333 10.5 48.833 31.5 64.5s46.833 26.167 77.5 31.5v3c-28 12 -51.833 30.167 -71.5 54.5s-29.5 56.5 -29.5 96.5c0 34 8.33301 63.333 25 88s38.5 43.5 65.5 56.5s56.167 19.5 87.5 19.5c19.333 0 38.5 -3.16699 57.5 -9.5s35.333 -13.666 49 -21.999
s22.5 -15.166 26.5 -20.499c6 17.333 15.667 30.333 29 39s26.666 13 39.999 13c22.667 0 41.334 -6.66699 56.001 -20s22 -30.666 22 -51.999c0 -16 -3.83301 -29 -11.5 -39s-17.834 -15 -30.501 -15c-10.667 0 -20 2.83301 -28 8.5s-12 14.834 -12 27.501
c0 14.667 5.66699 25.334 17 32.001c4 2.66699 6.83301 5.16699 8.5 7.5s2.5 5.83301 2.5 10.5c0 5.33301 -2.66699 9.33301 -8 12s-11.666 4 -18.999 4c-12 0 -22.833 -4.83301 -32.5 -14.5s-15.167 -20.834 -16.5 -33.501c18.667 -26 28 -56.667 28 -92
c0 -33.333 -8 -62.5 -24 -87.5s-37.5 -44 -64.5 -57s-56.833 -19.5 -89.5 -19.5c-38 0 -71.833 -5.16699 -101.5 -15.5s-44.5 -27.5 -44.5 -51.5c0 -12.667 5.66699 -21.334 17 -26.001s27 -7 47 -7c14 0 25.333 0.333008 34 1c8 0.666992 18.333 1 31 1h103
c42.667 0 78.334 -11.5 107.001 -34.5s43 -56.833 43 -101.5c0 -46.667 -19.833 -82.334 -59.5 -107.001s-91.834 -37 -156.501 -37c-58.667 0 -109.334 9.33301 -152.001 28zM320.001 200.996c17.333 24.667 26 59 26 103s-8.66699 78.333 -26 103s-41.333 37 -72 37
s-54.667 -12.333 -72 -37s-26 -59 -26 -103s8.66699 -78.333 26 -103s41.333 -37 72 -37s54.667 12.333 72 37zM394.001 -188.504c36 17 54 45.833 54 86.5c0 20.667 -6.16699 38.5 -18.5 53.5s-33.833 22.5 -64.5 22.5h-111c-42.667 0 -79.667 -7.16699 -111 -21.5
s-47 -38.5 -47 -72.5c0 -31.333 17.667 -54.833 53 -70.5s75 -23.5 119 -23.5c48 0 90 8.5 126 25.5z" />
    <glyph glyph-name="Hcircumflex" unicode="&#x124;" horiz-adv-x="788" 
d="M246 778c60.667 34.667 106.665 82 137.998 142h40c31.333 -60 77.333 -107.333 138 -142l-10 -16c-17.333 6 -41.166 18.833 -71.499 38.5s-55.833 38.834 -76.5 57.501c-20.667 -18.667 -46.167 -37.834 -76.5 -57.501s-54.166 -32.5 -71.499 -38.5zM61.998 32h72
c18 0 27 9 27 27v594c0 18 -9 27 -27 27h-72v32h290v-32h-72c-18 0 -27 -9 -27 -27v-263h302v263c0 18 -9 27 -27 27h-72v32h290v-32h-72c-18 0 -27 -9 -27 -27v-594c0 -18 9 -27 27 -27h72v-32h-290v32h72c18 0 27 9 27 27v299h-302v-299c0 -18 9 -27 27 -27h72v-32h-290
v32z" />
    <glyph glyph-name="hcircumflex" unicode="&#x125;" horiz-adv-x="544" 
d="M133 777c50 32.667 87 83 111 151h40c24 -68 61 -118.333 111 -151l-9 -13c-46 24 -86.667 54.667 -122 92c-36 -38 -76.667 -68.667 -122 -92zM28 24l55.998 -0.000976562c8 0 13.667 1.66699 17 5s5 9 5 17v620c0 8 -1.66699 13.667 -5 17s-9 5 -17 5h-56v24h150v-338
l4 -1c15.333 32 34.333 55.833 57 71.5s47.667 23.5 75 23.5c48.667 0 83.167 -15 103.5 -45s30.5 -66 30.5 -108v-269c0 -8 1.66699 -13.667 5 -17s9 -5 17 -5h42v-24h-200v24h42c8 0 13.667 1.66699 17 5s5 9 5 17v288c0 29.333 -5.83301 54.333 -17.5 75
s-31.5 31 -59.5 31c-23.333 0 -44.166 -8.16699 -62.499 -24.5s-32.666 -38.666 -42.999 -66.999s-15.5 -59.833 -15.5 -94.5v-208c0 -8 1.66699 -13.667 5 -17s9 -5 17 -5h42v-24h-214v24z" />
    <glyph glyph-name="Hbar" unicode="&#x126;" horiz-adv-x="804" 
d="M70 32h72c18 0 27 9 27 27v449h-113v36h113v109c0 18 -9 27 -27 27h-72v32h290v-32h-72c-18 0 -27 -9 -27 -27v-109h302v109c0 18 -9 27 -27 27h-72v32h290v-32h-72c-18 0 -27 -9 -27 -27v-109h113v-36h-113v-449c0 -18 9 -27 27 -27h72v-32h-290v32h72c18 0 27 9 27 27
v299h-302v-299c0 -18 9 -27 27 -27h72v-32h-290v32zM261 390h302v118h-302v-118z" />
    <glyph glyph-name="hbar" unicode="&#x127;" horiz-adv-x="544" 
d="M28 24l55.998 -0.000976562c8 0 13.667 1.66699 17 5s5 9 5 17v510h-75v28h75v82c0 8 -1.66699 13.667 -5 17s-9 5 -17 5h-56v24h150v-128h188v-28h-188v-182l4 -1c15.333 32 34.333 55.833 57 71.5s47.667 23.5 75 23.5c48.667 0 83.167 -15 103.5 -45
s30.5 -66 30.5 -108v-269c0 -8 1.66699 -13.667 5 -17s9 -5 17 -5h42v-24h-200v24h42c8 0 13.667 1.66699 17 5s5 9 5 17v288c0 29.333 -5.83301 54.333 -17.5 75s-31.5 31 -59.5 31c-23.333 0 -44.166 -8.16699 -62.499 -24.5s-32.666 -38.666 -42.999 -66.999
s-15.5 -59.833 -15.5 -94.5v-208c0 -8 1.66699 -13.667 5 -17s9 -5 17 -5h42v-24h-214v24z" />
    <glyph glyph-name="Itilde" unicode="&#x128;" horiz-adv-x="394" 
d="M52 810c2 25.333 10.5 47 25.5 65s35.167 27 60.5 27c19.333 0 49.333 -7 90 -21c32.667 -11.333 56.667 -17 72 -17c12 0 21.667 3.66699 29 11s12.333 17.666 15 30.999l20 -2c-2 -25.333 -10.5 -47 -25.5 -65s-35.167 -27 -60.5 -27c-19.333 0 -49.333 7 -90 21
c-32.667 11.333 -56.667 17 -72 17c-12 0 -21.667 -3.66699 -29 -11s-12.333 -17.666 -15 -30.999zM62 32h71.998c18 0 27 9 27 27v594c0 9.33301 -2.16699 16.166 -6.5 20.499s-11.166 6.5 -20.499 6.5h-72v32h290v-32h-72c-9.33301 0 -16.166 -2.16699 -20.499 -6.5
s-6.5 -11.166 -6.5 -20.499v-594c0 -18 9 -27 27 -27h72v-32h-290v32z" />
    <glyph glyph-name="itilde" unicode="&#x129;" horiz-adv-x="270" 
d="M-4 558c4 24 13.333 44.667 28 62s34 26 58 26c12.667 0 24.667 -1.83301 36 -5.5s24.333 -8.5 39 -14.5c12.667 -5.33301 23.334 -9.33301 32.001 -12s18 -4 28 -4c22.667 0 38 14 46 42l17 -4c-4 -24 -13.333 -44.667 -28 -62s-34 -26 -58 -26
c-12.667 0 -24.667 1.83301 -36 5.5s-24.333 8.5 -39 14.5c-12.667 5.33301 -23.334 9.33301 -32.001 12s-18 4 -28 4c-22.667 0 -38 -14 -46 -42zM44 24h42c8 0 13.667 1.66699 17 5s5 9 5 17v364c0 8 -1.66699 13.667 -5 17s-9 5 -17 5h-42v24h136v-410
c0 -8 1.66699 -13.667 5 -17s9 -5 17 -5h42v-24h-200v24z" />
    <glyph glyph-name="Imacron" unicode="&#x12a;" horiz-adv-x="394" 
d="M72 822v40h272v-40h-272zM62 32h71.998c18 0 27 9 27 27v594c0 9.33301 -2.16699 16.166 -6.5 20.499s-11.166 6.5 -20.499 6.5h-72v32h290v-32h-72c-9.33301 0 -16.166 -2.16699 -20.499 -6.5s-6.5 -11.166 -6.5 -20.499v-594c0 -18 9 -27 27 -27h72v-32h-290v32z" />
    <glyph glyph-name="imacron" unicode="&#x12b;" horiz-adv-x="270" 
d="M8 572v40h260v-40h-260zM44 24h42c8 0 13.667 1.66699 17 5s5 9 5 17v364c0 8 -1.66699 13.667 -5 17s-9 5 -17 5h-42v24h136v-410c0 -8 1.66699 -13.667 5 -17s9 -5 17 -5h42v-24h-200v24z" />
    <glyph glyph-name="Ibreve" unicode="&#x12c;" horiz-adv-x="394" 
d="M124.5 786.5c-23 16.333 -40 36.5 -51 60.5s-16.5 47 -16.5 69h28c6 -28 19.5 -53 40.5 -75s48.5 -33 82.5 -33s61.5 11 82.5 33s34.5 47 40.5 75h28c0 -22 -5.5 -45 -16.5 -69s-28 -44.167 -51 -60.5s-50.833 -24.5 -83.5 -24.5s-60.5 8.16699 -83.5 24.5zM62 32h71.998
c18 0 27 9 27 27v594c0 9.33301 -2.16699 16.166 -6.5 20.499s-11.166 6.5 -20.499 6.5h-72v32h290v-32h-72c-9.33301 0 -16.166 -2.16699 -20.499 -6.5s-6.5 -11.166 -6.5 -20.499v-594c0 -18 9 -27 27 -27h72v-32h-290v32z" />
    <glyph glyph-name="ibreve" unicode="&#x12d;" horiz-adv-x="270" 
d="M62.5 549.5c-21 15.667 -36.667 34.5 -47 56.5s-15.5 42 -15.5 60h22c4 -26.667 15.167 -50 33.5 -70s45.833 -30 82.5 -30s64.167 10 82.5 30s29.5 43.333 33.5 70h22c0 -18 -5.16699 -38 -15.5 -60s-26 -40.833 -47 -56.5s-46.167 -23.5 -75.5 -23.5
s-54.5 7.83301 -75.5 23.5zM44 24h42c8 0 13.667 1.66699 17 5s5 9 5 17v364c0 8 -1.66699 13.667 -5 17s-9 5 -17 5h-42v24h136v-410c0 -8 1.66699 -13.667 5 -17s9 -5 17 -5h42v-24h-200v24z" />
    <glyph glyph-name="Iogonek" unicode="&#x12e;" horiz-adv-x="394" 
d="M195.5 -213.5c-17 16.333 -25.501 38.167 -25.501 65.5c0 28.667 10.5 55.334 31.5 80.001s47.833 45.667 80.5 63l-2 5h-218v32h72c18 0 27 9 27 27v594c0 9.33301 -2.16699 16.166 -6.5 20.499s-11.166 6.5 -20.499 6.5h-72v32h290v-32h-72
c-9.33301 0 -16.166 -2.16699 -20.499 -6.5s-6.5 -11.166 -6.5 -20.499v-594c0 -18 9 -27 27 -27h72v-32h-18c-28 -14 -51 -32.5 -69 -55.5s-27 -49.5 -27 -79.5c0 -16.667 4.66699 -30.667 14 -42s22 -17 38 -17c14.667 0 26.5 2.16699 35.5 6.5s17.833 11.166 26.5 20.499
l12 -9c-8.66699 -16.667 -21.334 -31.167 -38.001 -43.5s-37 -18.5 -61 -18.5c-29.333 0 -52.5 8.16699 -69.5 24.5z" />
    <glyph glyph-name="iogonek" unicode="&#x12f;" horiz-adv-x="270" 
d="M95 595c-10 10 -15 22.333 -15 37c0 15.333 5 27.833 15 37.5s22.333 14.5 37 14.5c15.333 0 27.833 -4.83301 37.5 -14.5s14.5 -22.167 14.5 -37.5c0 -14.667 -4.83301 -27 -14.5 -37s-22.167 -15 -37.5 -15c-14.667 0 -27 5 -37 15zM89 -198.5
c-15.333 14.333 -23.001 33.168 -23.001 56.501c0 26.667 9.5 51 28.5 73s44.833 43.667 77.5 65v4h-134v24h42c8 0 13.667 1.66699 17 5s5 9 5 17v364c0 8 -1.66699 13.667 -5 17s-9 5 -17 5h-42v24h136v-410c0 -8 1.66699 -13.667 5 -17s9 -5 17 -5h42v-24h-28
c-30 -22 -52.167 -42.833 -66.5 -62.5s-21.5 -41.834 -21.5 -66.501c0 -14.667 3.66699 -26.167 11 -34.5s18.333 -12.5 33 -12.5c12 0 22.167 2.83301 30.5 8.5s17.5 14.167 27.5 25.5l14 -10c-10 -18.667 -23.167 -34.667 -39.5 -48s-34.166 -20 -53.499 -20
c-22 0 -40.667 7.16699 -56 21.5z" />
    <glyph glyph-name="Idotaccent" unicode="&#x130;" horiz-adv-x="394" 
d="M171 813c-10 10 -15 22.333 -15 37c0 15.333 5 27.833 15 37.5s22.333 14.5 37 14.5c15.333 0 27.833 -4.83301 37.5 -14.5s14.5 -22.167 14.5 -37.5c0 -14.667 -4.83301 -27 -14.5 -37s-22.167 -15 -37.5 -15c-14.667 0 -27 5 -37 15zM62 32h71.998c18 0 27 9 27 27v594
c0 9.33301 -2.16699 16.166 -6.5 20.499s-11.166 6.5 -20.499 6.5h-72v32h290v-32h-72c-9.33301 0 -16.166 -2.16699 -20.499 -6.5s-6.5 -11.166 -6.5 -20.499v-594c0 -18 9 -27 27 -27h72v-32h-290v32z" />
    <glyph glyph-name="dotlessi" unicode="&#x131;" horiz-adv-x="270" 
d="M38 24h42c8 0 13.667 1.66699 17 5s5 9 5 17v364c0 8 -1.66699 13.667 -5 17s-9 5 -17 5h-42v24h136v-410c0 -8 1.66699 -13.667 5 -17s9 -5 17 -5h42v-24h-200v24z" />
    <glyph glyph-name="Jcircumflex" unicode="&#x134;" horiz-adv-x="540" 
d="M204 778c60.667 34.667 106.665 82 137.998 142h40c31.333 -60 77.333 -107.333 138 -142l-10 -16c-17.333 6 -41.166 18.833 -71.499 38.5s-55.833 38.834 -76.5 57.501c-20.667 -18.667 -46.167 -37.834 -76.5 -57.501s-54.166 -32.5 -71.499 -38.5zM91.998 20
c-32 25.333 -47.999 60.334 -47.999 105.001c0 20 4.33301 37 13 51s19.5 24.5 32.5 31.5s25.5 10.5 37.5 10.5c19.333 0 33.666 -4.83301 42.999 -14.5s14 -21.5 14 -35.5s-3.83301 -24.833 -11.5 -32.5s-19.834 -14.167 -36.501 -19.5
c-11.333 -3.33301 -19.5 -7.33301 -24.5 -12s-7.5 -12 -7.5 -22c0 -20.667 10.667 -37.167 32 -49.5s47.333 -18.5 78 -18.5c32.667 0 58 12.667 76 38s27 55.666 27 90.999v510c0 9.33301 -2.16699 16.166 -6.5 20.499s-11.166 6.5 -20.499 6.5h-72v32h290v-32h-72
c-9.33301 0 -16.166 -2.16699 -20.499 -6.5s-6.5 -11.166 -6.5 -20.499v-459c0 -44 -9 -82 -27 -114s-41.833 -56.333 -71.5 -73s-61.834 -25 -96.501 -25c-49.333 0 -90 12.667 -122 38z" />
    <glyph glyph-name="jcircumflex" unicode="&#x135;" horiz-adv-x="320" 
d="M45 521c50 32.667 87 83 111 151h40c24 -68 61 -118.333 111 -151l-9 -13c-46 24 -86.667 54.667 -122 92c-36 -38 -76.667 -68.667 -122 -92zM-7.5 -212.5c-20.333 17 -30.499 39.832 -30.499 68.499c0 18 5.16699 33.167 15.5 45.5s22.833 18.5 37.5 18.5
c11.333 0 20.333 -3.16699 27 -9.5s10 -14.5 10 -24.5c0 -8 -1.83301 -14.833 -5.5 -20.5s-8.83398 -11.5 -15.501 -17.5c-10 -9.33301 -15 -19.333 -15 -30c0 -11.333 5.16699 -19.5 15.5 -24.5s22.166 -7.5 35.499 -7.5c22 0 40.667 10.667 56 32s23 58.333 23 111v481
c0 8 -1.66699 13.667 -5 17s-9 5 -17 5h-72v24h166v-499c0 -44.667 -7.5 -81.667 -22.5 -111s-34.167 -50.666 -57.5 -63.999s-47.666 -20 -72.999 -20c-28 0 -52.167 8.5 -72.5 25.5z" />
    <glyph glyph-name="Kcommaaccent" unicode="&#x136;" horiz-adv-x="756" 
d="M62 32l71.999 0.00195312c18 0 27 9 27 27v594c0 9.33301 -2.16699 16.166 -6.5 20.499s-11.166 6.5 -20.499 6.5h-72v32h285v-32h-67c-9.33301 0 -16.166 -2.16699 -20.499 -6.5s-6.5 -11.166 -6.5 -20.499v-310l230 235c8.66699 9.33301 15 18.666 19 27.999s6 20 6 32
s-4.33301 22 -13 30s-19.334 12 -32.001 12h-27v32h264v-32h-40c-22 0 -52 -19.667 -90 -59l-168 -170l204 -375c8.66699 -16.667 18.334 -28.167 29.001 -34.5s26 -9.5 46 -9.5h33v-32h-302v32h67c7.33301 0 13.666 2.16699 18.999 6.5s8 9.16602 8 14.499
c0 4 -0.666992 8.5 -2 13.5s-3 8.83301 -5 11.5l-163 306l-83 -84v-241c0 -18 9 -27 27 -27h67v-32h-285v32zM333.999 -226.998c17.333 8 32.501 19.1699 45.501 33.5029s19.5 28.166 19.5 41.499c0 10.667 -2.66699 18 -8 22c-4 2.66699 -12 4 -24 4
c-10.667 0 -19.167 4.33301 -25.5 13s-9.5 18 -9.5 28c0 14 4.5 25 13.5 33s20.167 12 33.5 12c17.333 0 31.166 -6.33301 41.499 -19s15.5 -28.334 15.5 -47.001c0 -28.667 -9.16699 -55.334 -27.5 -80.001s-39.833 -42 -64.5 -52z" />
    <glyph glyph-name="kcommaaccent" unicode="&#x137;" horiz-adv-x="520" 
d="M28 24h52c8 0 13.667 1.66699 17 5s5 9 5 17v620c0 8 -1.66699 13.667 -5 17s-9 5 -17 5h-52v24h146v-509l136 166c7.33301 8 12.166 14.333 14.499 19s3.5 10.667 3.5 18c0 8.66699 -3.16699 15.167 -9.5 19.5s-14.5 6.5 -24.5 6.5h-26v24h204v-24h-32
c-18 0 -34 -4.66699 -48 -14s-30 -25 -48 -47l-76 -93l156 -222c8 -11.333 15 -19.5 21 -24.5s14.333 -7.5 25 -7.5h20v-24h-212v24h26c8.66699 0 15.334 1.5 20.001 4.5s7 8.16699 7 15.5s-1 13.333 -3 18s-5.33301 10.667 -10 18l-98 140l-46 -56v-118
c0 -8 1.66699 -13.667 5 -17s9 -5 17 -5h32v-24h-200v24zM212 -227c17.333 8 32.501 19.1699 45.501 33.5029s19.5 28.166 19.5 41.499c0 10.667 -2.66699 18 -8 22c-4 2.66699 -12 4 -24 4c-10.667 0 -19.167 4.33301 -25.5 13s-9.5 18 -9.5 28c0 14 4.5 25 13.5 33
s20.167 12 33.5 12c17.333 0 31.166 -6.33301 41.499 -19s15.5 -28.334 15.5 -47.001c0 -28.667 -9.16699 -55.334 -27.5 -80.001s-39.833 -42 -64.5 -52z" />
    <glyph glyph-name="kgreenlandic" unicode="&#x138;" horiz-adv-x="520" 
d="M38 24h42c8 0 13.667 1.66699 17 5s5 9 5 17v364c0 8 -1.66699 13.667 -5 17s-9 5 -17 5h-42v24h136v-253l136 166c7.33301 8 12.166 14.333 14.499 19s3.5 10.667 3.5 18c0 8.66699 -3.16699 15.167 -9.5 19.5s-14.5 6.5 -24.5 6.5h-26v24h204v-24h-32
c-18 0 -34 -4.66699 -48 -14s-30 -25 -48 -47l-76 -93l156 -222c8 -11.333 15 -19.5 21 -24.5s14.333 -7.5 25 -7.5h20v-24h-212v24h26c8.66699 0 15.334 1.5 20.001 4.5s7 8.16699 7 15.5s-1 13.333 -3 18s-5.33301 10.667 -10 18l-98 140l-46 -56v-118
c0 -8 1.66699 -13.667 5 -17s9 -5 17 -5h32v-24h-190v24z" />
    <glyph glyph-name="Lacute" unicode="&#x139;" horiz-adv-x="670" 
d="M195 773l92.001 133c8.66699 12 16.667 20.333 24 25s15.666 7 24.999 7c8.66699 0 15.5 -2.83301 20.5 -8.5s7.5 -13.167 7.5 -22.5c0 -15.333 -9.33301 -30 -28 -44l-128 -101zM62.001 32l71.998 -0.000976562c18 0 27 9 27 27v594
c0 9.33301 -2.16699 16.166 -6.5 20.499s-11.166 6.5 -20.499 6.5h-72v32h306v-32h-88c-9.33301 0 -16.166 -2.16699 -20.499 -6.5s-6.5 -11.166 -6.5 -20.499v-594c0 -18 9 -27 27 -27h101c35.333 0 67 8 95 24s49 39.333 63 70c10.667 22.667 19.5 46.834 26.5 72.501
s12.167 47.5 15.5 65.5s5.33301 29.333 6 34h25l-9 -298h-541v32z" />
    <glyph glyph-name="lacute" unicode="&#x13a;" horiz-adv-x="270" 
d="M107 775l92.001 133c8.66699 12 16.667 20.333 24 25s15.666 7 24.999 7c8.66699 0 15.5 -2.83301 20.5 -8.5s7.5 -13.167 7.5 -22.5c0 -15.333 -9.33301 -30 -28 -44l-128 -101zM28.001 24h52c8 0 13.667 1.66699 17 5s5 9 5 17v620c0 8 -1.66699 13.667 -5 17
s-9 5 -17 5h-52v24h146v-666c0 -8 1.66699 -13.667 5 -17s9 -5 17 -5h52v-24h-220v24z" />
    <glyph glyph-name="Lcommaaccent" unicode="&#x13b;" horiz-adv-x="670" 
d="M62 32l71.998 -0.000976562c18 0 27 9 27 27v594c0 9.33301 -2.16699 16.166 -6.5 20.499s-11.166 6.5 -20.499 6.5h-72v32h306v-32h-88c-9.33301 0 -16.166 -2.16699 -20.499 -6.5s-6.5 -11.166 -6.5 -20.499v-594c0 -18 9 -27 27 -27h101c35.333 0 67 8 95 24
s49 39.333 63 70c10.667 22.667 19.5 46.834 26.5 72.501s12.167 47.5 15.5 65.5s5.33301 29.333 6 34h25l-9 -298h-541v32zM291.998 -227.001c17.333 8 32.501 19.1699 45.501 33.5029s19.5 28.166 19.5 41.499c0 10.667 -2.66699 18 -8 22c-4 2.66699 -12 4 -24 4
c-10.667 0 -19.167 4.33301 -25.5 13s-9.5 18 -9.5 28c0 14 4.5 25 13.5 33s20.167 12 33.5 12c17.333 0 31.166 -6.33301 41.499 -19s15.5 -28.334 15.5 -47.001c0 -28.667 -9.16699 -55.334 -27.5 -80.001s-39.833 -42 -64.5 -52z" />
    <glyph glyph-name="lcommaaccent" unicode="&#x13c;" horiz-adv-x="270" 
d="M28 24h52c8 0 13.667 1.66699 17 5s5 9 5 17v620c0 8 -1.66699 13.667 -5 17s-9 5 -17 5h-52v24h146v-666c0 -8 1.66699 -13.667 5 -17s9 -5 17 -5h52v-24h-220v24zM82 -227c17.333 8 32.501 19.1699 45.501 33.5029s19.5 28.166 19.5 41.499c0 10.667 -2.66699 18 -8 22
c-4 2.66699 -12 4 -24 4c-10.667 0 -19.167 4.33301 -25.5 13s-9.5 18 -9.5 28c0 14 4.5 25 13.5 33s20.167 12 33.5 12c17.333 0 31.166 -6.33301 41.499 -19s15.5 -28.334 15.5 -47.001c0 -28.667 -9.16699 -55.334 -27.5 -80.001s-39.833 -42 -64.5 -52z" />
    <glyph glyph-name="Lcaron" unicode="&#x13d;" horiz-adv-x="690" 
d="M546 500c20.667 10 38.5 23.667 53.5 41s22.5 33.666 22.5 48.999c0 10.667 -3.33301 18.667 -10 24c-5.33301 4 -14.666 6 -27.999 6c-12 0 -21.667 5 -29 15s-11 21 -11 33c0 16.667 5.16699 29.5 15.5 38.5s23.166 13.5 38.499 13.5c20 0 36 -7.16699 48 -21.5
s18 -32.5 18 -54.5c0 -33.333 -10.5 -64.166 -31.5 -92.499s-45.833 -49.5 -74.5 -63.5zM62 32l71.998 -0.000976562c18 0 27 9 27 27v594c0 9.33301 -2.16699 16.166 -6.5 20.499s-11.166 6.5 -20.499 6.5h-72v32h306v-32h-88c-9.33301 0 -16.166 -2.16699 -20.499 -6.5
s-6.5 -11.166 -6.5 -20.499v-594c0 -18 9 -27 27 -27h101c35.333 0 67 8 95 24s49 39.333 63 70c10.667 22.667 19.5 46.834 26.5 72.501s12.167 47.5 15.5 65.5s5.33301 29.333 6 34h25l-9 -298h-541v32z" />
    <glyph glyph-name="lcaron" unicode="&#x13e;" horiz-adv-x="334" 
d="M218 500c21.333 14.667 39.334 31.834 54.001 51.501s22 38.5 22 56.5c0 7.33301 -2 13.333 -6 18c-4 5.33301 -12 8 -24 8s-22 4.16699 -30 12.5s-12 18.166 -12 29.499c0 13.333 4.16699 24 12.5 32s18.833 12 31.5 12c17.333 0 31.666 -7.33301 42.999 -22
s17 -32.667 17 -54c0 -31.333 -9.16699 -60.333 -27.5 -87s-41.833 -49.667 -70.5 -69zM28.001 24h52c8 0 13.667 1.66699 17 5s5 9 5 17v620c0 8 -1.66699 13.667 -5 17s-9 5 -17 5h-52v24h146v-666c0 -8 1.66699 -13.667 5 -17s9 -5 17 -5h52v-24h-220v24z" />
    <glyph glyph-name="Ldot" unicode="&#x13f;" horiz-adv-x="670" 
d="M62 32l71.998 -0.000976562c18 0 27 9 27 27v594c0 9.33301 -2.16699 16.166 -6.5 20.499s-11.166 6.5 -20.499 6.5h-72v32h306v-32h-88c-9.33301 0 -16.166 -2.16699 -20.499 -6.5s-6.5 -11.166 -6.5 -20.499v-594c0 -18 9 -27 27 -27h101c35.333 0 67 8 95 24
s49 39.333 63 70c10.667 22.667 19.5 46.834 26.5 72.501s12.167 47.5 15.5 65.5s5.33301 29.333 6 34h25l-9 -298h-541v32zM494.998 356.999c-10 10 -15 22.333 -15 37c0 15.333 5 27.833 15 37.5s22.333 14.5 37 14.5c15.333 0 27.833 -4.83301 37.5 -14.5
s14.5 -22.167 14.5 -37.5c0 -14.667 -4.83301 -27 -14.5 -37s-22.167 -15 -37.5 -15c-14.667 0 -27 5 -37 15z" />
    <glyph glyph-name="ldot" unicode="&#x140;" horiz-adv-x="372" 
d="M28 24h52c8 0 13.667 1.66699 17 5s5 9 5 17v620c0 8 -1.66699 13.667 -5 17s-9 5 -17 5h-52v24h146v-666c0 -8 1.66699 -13.667 5 -17s9 -5 17 -5h52v-24h-220v24zM287 335c-10 10 -15 22.333 -15 37c0 15.333 5 27.833 15 37.5s22.333 14.5 37 14.5
c15.333 0 27.833 -4.83301 37.5 -14.5s14.5 -22.167 14.5 -37.5c0 -14.667 -4.83301 -27 -14.5 -37s-22.167 -15 -37.5 -15c-14.667 0 -27 5 -37 15z" />
    <glyph glyph-name="Lslash" unicode="&#x141;" horiz-adv-x="691" 
d="M62 32l71.998 -0.000976562c18 0 27 9 27 27v253l-75 -44l-18 32l93 54v299c0 9.33301 -2.16699 16.166 -6.5 20.499s-11.166 6.5 -20.499 6.5h-72v32h306v-32h-88c-9.33301 0 -16.166 -2.16699 -20.499 -6.5s-6.5 -11.166 -6.5 -20.499v-245l137 80l18 -32l-155 -90
v-307c0 -18 9 -27 27 -27h101c35.333 0 67 8 95 24s49 39.333 63 70c10.667 22.667 19.5 46.834 26.5 72.501s12.167 47.5 15.5 65.5s5.33301 29.333 6 34h25l-9 -298h-541v32z" />
    <glyph glyph-name="lslash" unicode="&#x142;" horiz-adv-x="276" 
d="M28 24h52c8 0 13.667 1.66699 17 5s5 9 5 17v282l-60 -34l-14 24l74 42v278c0 8 -1.66699 13.667 -5 17s-9 5 -17 5h-52v24h146v-283l76 43l14 -24l-90 -51v-323c0 -8 1.66699 -13.667 5 -17s9 -5 17 -5h52v-24h-220v24z" />
    <glyph glyph-name="Nacute" unicode="&#x143;" horiz-adv-x="770" 
d="M391 773l92.001 133c8.66699 12 16.667 20.333 24 25s15.666 7 24.999 7c8.66699 0 15.5 -2.83301 20.5 -8.5s7.5 -13.167 7.5 -22.5c0 -15.333 -9.33301 -30 -28 -44l-128 -101zM205.001 603l-4 0.000976562v-491c0 -24.667 5.83301 -44.167 17.5 -58.5
s26.834 -21.5 45.501 -21.5h36v-32h-238v32h36c19.333 0 34.666 7.16699 45.999 21.5s17 33.833 17 58.5v541c-0.666992 9.33301 -3 16.166 -7 20.499s-10.667 6.5 -20 6.5h-72v32h189l347 -558v446c0 24.667 -5.66699 44.167 -17 58.5s-26.333 21.5 -45 21.5h-36v32h238
v-32h-36c-18.667 0 -34 -7.16699 -46 -21.5s-18 -33.833 -18 -58.5v-618h-40z" />
    <glyph glyph-name="nacute" unicode="&#x144;" horiz-adv-x="540" 
d="M251 519l92.001 133c8.66699 12 16.667 20.333 24 25s15.666 7 24.999 7c8.66699 0 15.5 -2.83301 20.5 -8.5s7.5 -13.167 7.5 -22.5c0 -15.333 -9.33301 -30 -28 -44l-128 -101zM38.001 24l41.998 -0.000976562c8 0 13.667 1.66699 17 5s5 9 5 17v364
c0 8 -1.66699 13.667 -5 17s-9 5 -17 5h-42v24h136v-82l4 -1c15.333 32 34.333 55.833 57 71.5s47.667 23.5 75 23.5c48.667 0 83.167 -15 103.5 -45s30.5 -66 30.5 -108v-269c0 -8 1.66699 -13.667 5 -17s9 -5 17 -5h42v-24h-200v24h42c8 0 13.667 1.66699 17 5s5 9 5 17
v288c0 29.333 -5.83301 54.333 -17.5 75s-31.5 31 -59.5 31c-23.333 0 -44.166 -8.16699 -62.499 -24.5s-32.666 -38.666 -42.999 -66.999s-15.5 -59.833 -15.5 -94.5v-208c0 -8 1.66699 -13.667 5 -17s9 -5 17 -5h42v-24h-200v24z" />
    </font>
</defs>
</svg>
