<svg viewBox="0 0 55 57" fill="none" xmlns="http://www.w3.org/2000/svg">
<path d="M53.1354 17.1822C53.1354 17.0748 53.1114 16.9756 53.0714 16.8765C53.0553 16.8434 53.0313 16.8104 53.0073 16.7773C52.9752 16.7277 52.9592 16.6781 52.9111 16.6286C43.458 6.81935 26.2902 6.81109 25.5692 6.83588C25.3929 6.83588 25.2247 6.90199 25.0805 7.01769L2.15266 26.256C2.13664 26.2725 2.12862 26.289 2.1126 26.3055C2.06454 26.3469 2.03249 26.3964 2.00045 26.4543C1.97641 26.4873 1.96039 26.5204 1.94437 26.5535C1.92034 26.603 1.90431 26.6609 1.8963 26.7187C1.88829 26.76 1.88028 26.7931 1.87227 26.8344C1.87227 26.851 1.86426 26.8592 1.86426 26.8757V31.6688V31.677V37.751V37.7592V50.3451C1.86426 50.5848 1.9684 50.8161 2.14465 50.9649C2.28885 51.0806 2.45708 51.1467 2.64134 51.1467C2.6894 51.1467 2.74548 51.1384 2.79355 51.1302L52.5106 40.9491C52.8711 40.8747 53.1354 40.5442 53.1354 40.164V17.1905V17.1822ZM25.8496 8.43907C27.9725 8.48039 42.1522 9.0258 50.7081 16.7029L5.50932 25.5039L25.8496 8.43907ZM3.41842 32.2307C3.59466 32.1894 3.77892 32.1646 3.96317 32.1646C5.32506 32.1646 6.43861 33.3133 6.43861 34.7181C6.43861 36.123 5.32506 37.2717 3.96317 37.2717C3.77892 37.2717 3.59466 37.2469 3.41842 37.2056V32.2307ZM22.1244 45.4612C22.1244 44.0563 23.2299 42.9159 24.5918 42.9159C25.6413 42.9159 26.5385 43.6018 26.891 44.5687L22.1244 45.5438C22.1244 45.5107 22.1244 45.486 22.1244 45.4612ZM51.5813 39.5112L28.4291 44.2546C27.9244 42.5523 26.3783 41.3127 24.5918 41.3127C22.3727 41.3127 20.5702 43.1721 20.5702 45.4612C20.5702 45.5934 20.5863 45.7256 20.6023 45.8578L3.41842 49.3782V38.8335C3.60267 38.8583 3.77892 38.8749 3.96317 38.8749C6.18225 38.8749 7.99277 37.0072 7.99277 34.7181C7.99277 32.4291 6.18225 30.5614 3.96317 30.5614C3.77892 30.5614 3.59466 30.578 3.41842 30.6027V27.5369L51.5813 18.1491V39.5112Z" fill="#FD5B27"/>
<path d="M44.0065 32.4307C46.4688 32.4307 48.4746 30.3478 48.4746 27.7907C48.4746 25.2336 46.4688 23.1507 44.0065 23.1507C41.5442 23.1507 39.5385 25.2336 39.5385 27.7907C39.5385 30.3478 41.5442 32.4307 44.0065 32.4307ZM44.0065 24.7933C45.5964 24.7933 46.8928 26.1396 46.8928 27.7907C46.8928 29.4418 45.5964 30.7881 44.0065 30.7881C42.4166 30.7881 41.1202 29.4418 41.1202 27.7907C41.1202 26.1396 42.4166 24.7933 44.0065 24.7933ZM33.5213 40.1613C35.5759 40.1613 37.2555 38.4255 37.2555 36.2833C37.2555 34.1496 35.5841 32.4053 33.5213 32.4053C31.4666 32.4053 29.787 34.1411 29.787 36.2833C29.787 38.4255 31.4585 40.1613 33.5213 40.1613ZM33.5213 34.0564C34.7035 34.0564 35.6738 35.0556 35.6738 36.2918C35.6738 37.5195 34.7117 38.5271 33.5213 38.5271C32.339 38.5271 31.3688 37.528 31.3688 36.2918C31.3688 35.0556 32.3309 34.0564 33.5213 34.0564ZM21.014 35.86C23.2725 35.86 25.1151 33.9464 25.1151 31.601C25.1151 29.2555 23.2725 27.342 21.014 27.342C18.7555 27.342 16.9128 29.2471 16.9128 31.601C16.9128 33.9548 18.7555 35.86 21.014 35.86ZM21.014 28.9931C22.4 28.9931 23.5334 30.1615 23.5334 31.6094C23.5334 33.0488 22.4 34.2258 21.014 34.2258C19.6279 34.2258 18.4946 33.0488 18.4946 31.6094C18.5027 30.1615 19.6279 28.9931 21.014 28.9931ZM12.6894 44.4034C14.5402 44.4034 16.0567 42.8369 16.0567 40.9064C16.0567 38.9844 14.5483 37.4095 12.6894 37.4095C10.8386 37.4095 9.32202 38.9759 9.32202 40.9064C9.32202 42.8369 10.8386 44.4034 12.6894 44.4034ZM12.6894 39.0606C13.6759 39.0606 14.475 39.8903 14.475 40.9149C14.475 41.9394 13.6759 42.7692 12.6894 42.7692C11.7028 42.7692 10.9038 41.9394 10.9038 40.9149C10.9038 39.8903 11.7028 39.0606 12.6894 39.0606ZM33.7251 17.5539C33.9452 17.5708 34.1572 17.5793 34.3692 17.5793C36.8478 17.5793 38.8128 16.3261 38.9514 14.5565C39.1063 12.6344 37.0435 10.9495 34.2632 10.7124C33.0076 10.6108 31.7927 10.814 30.8388 11.3051C29.7544 11.8639 29.1103 12.7191 29.0369 13.7098C28.8901 15.6233 30.9448 17.3083 33.7251 17.5539ZM31.5481 12.7699C32.1189 12.482 32.8608 12.3211 33.6436 12.3211C33.8066 12.3211 33.9778 12.3296 34.1409 12.3465C36.0733 12.5074 37.443 13.5743 37.3778 14.421C37.3126 15.2677 35.7961 16.0806 33.8555 15.9197C31.9232 15.7504 30.5534 14.692 30.6187 13.8452C30.6513 13.4473 30.9856 13.0578 31.5481 12.7699ZM21.177 20.2041C21.332 20.221 21.4869 20.221 21.6418 20.221C22.4 20.221 23.1175 20.0602 23.7127 19.7553C24.5444 19.332 25.0499 18.6377 25.1151 17.8672C25.2293 16.3769 23.6883 15.073 21.601 14.8952C20.6715 14.819 19.7747 14.9714 19.0653 15.3355C18.2337 15.7588 17.7282 16.4531 17.6629 17.2236C17.5406 18.7223 19.0816 20.0263 21.177 20.2041ZM19.7584 16.8088C20.1253 16.6225 20.6145 16.5209 21.1281 16.5209C21.2423 16.5209 21.3483 16.5293 21.4624 16.5378C22.7506 16.6479 23.566 17.3337 23.5334 17.7401C23.5171 17.9264 23.3214 18.1296 23.0116 18.299C22.5631 18.5276 21.9435 18.6292 21.3075 18.5784C20.0193 18.4683 19.2039 17.7825 19.2365 17.3761C19.2528 17.1813 19.4485 16.9696 19.7584 16.8088Z" fill="#FD5B27"/>
</svg>
