<svg viewBox="0 0 52 53" fill="none" xmlns="http://www.w3.org/2000/svg">
<path d="M42.354 40.3V32.5516H47.5103C48.6499 32.5516 49.7428 32.0981 50.5486 31.2908C51.3544 30.4835 51.8071 29.3886 51.8071 28.2469V17.9156C51.8071 16.774 51.3544 15.6791 50.5486 14.8718C49.7428 14.0645 48.6499 13.611 47.5103 13.611H8.83838C8.61046 13.611 8.39187 13.7017 8.23071 13.8631C8.06955 14.0246 7.979 14.2436 7.979 14.4719V31.6906C7.979 31.919 8.06955 32.138 8.23071 32.2994C8.39187 32.4609 8.61046 32.5516 8.83838 32.5516H9.69775V33.1198C6.50088 32.7238 3.59619 33.7827 2.35869 36.1159C0.657129 39.3272 2.70244 43.7954 6.92197 46.3266H1.104C0.876083 46.3266 0.657498 46.4173 0.496334 46.5787C0.33517 46.7402 0.244629 46.9592 0.244629 47.1875V49.7703C0.246669 50.4547 0.518947 51.1105 1.002 51.5944C1.48505 52.0783 2.13962 52.3511 2.82275 52.3531H49.229C49.9121 52.3511 50.5667 52.0783 51.0498 51.5944C51.5328 51.1105 51.8051 50.4547 51.8071 49.7703V47.1875C51.8071 46.9592 51.7166 46.7402 51.5554 46.5787C51.3943 46.4173 51.1757 46.3266 50.9478 46.3266H39.4665C40.3682 45.6034 41.0959 44.6862 41.5957 43.6429C42.0956 42.5997 42.3547 41.4572 42.354 40.3ZM9.69775 15.3328H47.5103C48.1934 15.3349 48.848 15.6077 49.331 16.0916C49.8141 16.5755 50.0863 17.2313 50.0884 17.9156V28.2469C50.0863 28.9313 49.8141 29.587 49.331 30.071C48.848 30.5549 48.1934 30.8277 47.5103 30.8297H9.69775V15.3328ZM13.1267 35.9953C13.4103 36.1503 13.6767 36.3139 13.9431 36.4861C12.8895 37.2766 12.0963 38.3651 11.6657 39.6113C11.3062 39.6231 10.9476 39.6547 10.5915 39.706C9.74635 39.8965 8.86105 39.7783 8.09524 39.3726C7.32944 38.9669 6.73352 38.3004 6.41494 37.4934C6.10838 36.7801 5.65779 36.1382 5.0915 35.6079C6.97354 34.3509 10.1704 34.4284 13.1267 35.9953ZM27.1001 40.4636C26.1475 39.6893 24.9581 39.2668 23.7313 39.2668C22.5046 39.2668 21.3152 39.6893 20.3626 40.4636C19.7043 41.0249 18.8681 41.3332 18.0036 41.3332C17.1392 41.3332 16.3029 41.0249 15.6446 40.4636C15.0374 39.9807 14.3387 39.6263 13.5907 39.4219C14.6649 37.4331 17.5181 35.9953 20.8696 35.9953C25.1321 35.9953 28.604 38.3113 28.604 41.161C28.604 41.1868 28.5954 41.2126 28.5954 41.2384C28.0478 41.0892 27.5381 40.8251 27.1001 40.4636ZM28.1485 42.9001C27.0743 44.8888 24.2212 46.3266 20.8696 46.3266C16.6071 46.3266 13.1353 44.0107 13.1353 41.161C13.1353 41.1351 13.1438 41.1093 13.1438 41.0835C13.6914 41.2327 14.2011 41.4969 14.6392 41.8583C15.5902 42.6325 16.7782 43.0551 18.0036 43.0551C19.229 43.0551 20.4171 42.6325 21.3681 41.8583C22.028 41.297 22.8656 40.9888 23.7313 40.9888C24.5971 40.9888 25.4347 41.297 26.0946 41.8583C26.7018 42.3412 27.4006 42.6956 28.1485 42.9001ZM3.87119 36.9252C3.88854 36.9042 3.903 36.8811 3.91416 36.8563C4.33019 37.2475 4.6583 37.7229 4.87666 38.251C5.34281 39.3864 6.19529 40.3197 7.28291 40.8855C8.00352 41.2953 8.81756 41.5118 9.64619 41.5139C10.0406 41.5075 10.434 41.4729 10.8235 41.4106C11.0384 41.3848 11.236 41.359 11.4251 41.3418C11.5114 42.3458 11.8366 43.3145 12.3733 44.1668C12.9101 45.0191 13.6429 45.7302 14.5103 46.2405C14.3126 46.2835 14.1149 46.3008 13.9087 46.3266H12.1212C10.7769 46.1736 9.47361 45.7676 8.27979 45.1299C4.51572 43.1153 2.53916 39.4391 3.87119 36.9252ZM50.0884 48.0485V49.7703C50.0884 49.9987 49.9978 50.2177 49.8367 50.3791C49.6755 50.5406 49.4569 50.6313 49.229 50.6313H2.82275C2.59483 50.6313 2.37625 50.5406 2.21508 50.3791C2.05392 50.2177 1.96338 49.9987 1.96338 49.7703V48.0485H50.0884ZM34.6196 46.3266H27.1001C28.0297 45.8092 28.8131 45.0638 29.3767 44.1603C29.9404 43.2569 30.2659 42.2249 30.3228 41.161C30.3228 37.3642 26.086 34.2735 20.8696 34.2735C19.0141 34.2561 17.1804 34.6748 15.5157 35.496C15.0137 35.1197 14.4853 34.7802 13.9345 34.4801C13.1329 34.0542 12.289 33.7137 11.4165 33.4642V32.5516H40.6353V40.3C40.6334 41.8978 39.9991 43.4296 38.8713 44.5594C37.7436 45.6892 36.2145 46.3248 34.6196 46.3266ZM29.154 6.95419C30.8702 5.51815 32.8149 3.89786 32.8149 0.696899H31.0962C31.0962 3.09203 29.686 4.26893 28.054 5.63179C26.3353 7.06439 24.3931 8.68812 24.3931 11.8891H26.1118C26.1118 9.49396 27.5221 8.31706 29.154 6.95419ZM19.7009 6.95419C21.417 5.51815 23.3618 3.89786 23.3618 0.696899H21.6431C21.6431 3.09203 20.2328 4.26893 18.6009 5.63179C16.8821 7.06439 14.9399 8.68812 14.9399 11.8891H16.6587C16.6587 9.49396 18.0689 8.31706 19.7009 6.95419ZM38.6071 6.95419C40.3233 5.51815 42.2681 3.89786 42.2681 0.696899H40.5493C40.5493 3.09203 39.1391 4.26893 37.5071 5.63179C35.7884 7.06439 33.8462 8.68812 33.8462 11.8891H35.5649C35.5649 9.49396 36.9752 8.31706 38.6071 6.95419Z" fill="#FD5B27"/>
</svg>
