<svg viewBox="0 0 49 49" fill="none" xmlns="http://www.w3.org/2000/svg">
<path fill-rule="evenodd" clip-rule="evenodd" d="M12.9781 46.2761C11.5624 47.6917 9.26718 47.6917 7.85153 46.2761C6.73592 45.1605 6.49947 43.4986 7.14219 42.1515L6.84963 41.8589C5.50247 42.5016 3.84062 42.2652 2.72501 41.1496C1.30935 39.7339 1.30935 37.4387 2.725 36.0231C4.14066 34.6074 6.43588 34.6074 7.85153 36.0231C8.15157 36.3231 8.38801 36.6626 8.56087 37.025L12.9735 32.6106C13.4359 33.2594 13.9582 33.8787 14.5403 34.4608C15.123 35.0435 15.743 35.5663 16.3925 36.029L11.9785 40.4413C12.3399 40.6141 12.6786 40.8502 12.9781 41.1496C14.3937 42.5652 14.3937 44.8604 12.9781 46.2761ZM25.4687 3.02973L25.5012 2.99384C28.3325 0.162541 35.2181 2.45776 40.8807 8.12037C46.5433 13.783 48.8386 20.6686 46.0073 23.4999L35.0464 34.4608C29.3838 40.1234 20.2029 40.1234 14.5403 34.4608C8.8777 28.7982 8.8777 19.6173 14.5403 13.9547L25.4687 3.02973ZM25.5012 2.99384C22.6699 5.82514 24.9651 12.7108 30.6277 18.3734C36.2903 24.036 43.176 26.3312 46.0073 23.4999C48.8386 20.6686 46.5433 13.783 40.8807 8.12037C35.2181 2.45776 28.3325 0.162541 25.5012 2.99384ZM32.3365 9.82921C31.3928 10.773 32.1578 13.0682 34.0454 14.9557C35.9329 16.8433 38.2281 17.6083 39.1719 16.6646C40.1157 15.7208 39.3506 13.4256 37.4631 11.538C35.5755 9.65051 33.2803 8.88544 32.3365 9.82921Z" stroke="#FD5B27" stroke-width="2" stroke-linecap="round"/>
</svg>
