<svg viewBox="0 0 52 52" fill="none" xmlns="http://www.w3.org/2000/svg">
<path d="M10.0117 51.249H41.4307C46.0537 51.249 50.421 51.249 51.3113 44.9268C52.1404 38.1865 47.5702 31.3465 39.0913 26.6322C29.9384 21.4748 21.8403 21.3449 12.8739 26.2758C6.90724 29.5564 0.532715 35.6841 0.532715 43.0447C0.532715 51.249 5.56877 51.249 10.0117 51.249ZM13.882 28.1697C13.8862 28.1675 13.8903 28.1656 13.8945 28.1634V34.492C13.8945 35.0867 14.3686 35.569 14.9545 35.569C15.5404 35.569 16.0145 35.0867 16.0145 34.492V27.1057C18.8948 25.7852 21.6787 25.0541 24.4458 24.8979V36.3929C24.4458 36.9876 24.9199 37.4698 25.5058 37.4698C26.0918 37.4698 26.5658 36.9876 26.5658 36.3929V24.8941C29.612 25.0409 32.7011 25.8716 35.9319 27.417V34.492C35.9319 35.0867 36.4061 35.569 36.9919 35.569C37.5778 35.569 38.0519 35.0867 38.0519 34.492V28.5107C38.0572 28.5136 38.0622 28.516 38.0674 28.519C40.9493 30.1212 50.2699 36.0201 49.2099 44.6407C48.6085 48.9153 46.3901 49.0951 41.4307 49.0951H10.0117C5.42281 49.0951 2.65271 49.0951 2.65271 43.0447C2.65271 36.6306 8.45367 31.155 13.882 28.1697ZM37.3988 19.4803C37.6544 20.0226 38.2938 20.241 38.8128 19.9866C39.3407 19.73 39.5642 19.087 39.3118 18.5506C38.6715 17.1982 36.4757 15.6708 37.8552 13.5993C40.1701 10.1201 36.9133 7.31664 36.5789 6.62234C36.3222 6.08916 35.6897 5.86731 35.1597 6.13073C34.6349 6.39317 34.4186 7.03836 34.6763 7.57208C35.2577 8.77813 37.4868 10.3057 36.0996 12.3929C33.7962 15.8516 36.9878 18.6043 37.3988 19.4803ZM26.3309 19.3535C26.513 19.9147 27.1102 20.2265 27.6703 20.0377C28.2263 19.8509 28.5274 19.2415 28.3432 18.6773C27.7609 16.8873 25.3102 14.2556 26.9189 10.7518L26.9137 10.7492C29.167 6.54028 25.7039 1.92567 25.5576 1.26982C25.2957 0.738251 24.6591 0.521574 24.1353 0.78822C23.6115 1.05422 23.3992 1.70102 23.6612 2.23324C23.8721 3.21453 26.6378 6.2886 25.0659 9.71484C22.671 13.5673 26.0372 18.4513 26.3309 19.3535ZM13.9949 19.4813C14.2505 20.0228 14.8885 20.2412 15.409 19.9861C15.9368 19.729 16.1594 19.0859 15.9058 18.5495C15.2814 17.2244 13.1277 15.7097 14.3944 13.685C14.8572 13.1371 16.1221 10.7324 14.3499 8.2472L13.0798 6.46565C12.7372 5.98459 12.0747 5.87571 11.5996 6.22485C11.1254 6.57399 11.0198 7.24707 11.3636 7.72877C11.6619 8.5411 14.0503 10.2517 12.7951 12.2631C10.0919 15.1621 13.8311 19.1359 13.9949 19.4813Z" fill="#FD5B27"/>
</svg>
