<svg viewBox="0 0 67 48" fill="none" xmlns="http://www.w3.org/2000/svg">
<path d="M65.5329 36.8992V27.5727C65.5329 25.4246 63.8095 23.6769 61.6911 23.6769H57.4302L54.3985 10.8038H56.7015C56.9091 10.8038 57.1083 10.7201 57.2552 10.5712C57.402 10.4223 57.4845 10.2203 57.4845 10.0097C57.4845 6.83001 54.9333 4.24298 51.7977 4.24298H39.7062V3.46831C39.7062 1.63992 38.2393 0.152344 36.4362 0.152344H9.4137C7.61064 0.152344 6.14367 1.63992 6.14367 3.46831V4.24298H3.60048C3.3928 4.24298 3.19362 4.32664 3.04677 4.47556C2.89992 4.62447 2.81742 4.82644 2.81742 5.03704V36.4609C1.24505 36.5774 0 37.9087 0 39.5324C0 41.2323 1.36376 42.6154 3.04028 42.6154H7.01725C8.03584 45.6542 10.875 47.8477 14.2118 47.8477C17.5485 47.8477 20.3877 45.6542 21.4063 42.6154H34.1733C35.1919 45.6542 38.0311 47.8477 41.3679 47.8477C44.7048 47.8477 47.544 45.6542 48.5624 42.6154H63.9599C65.6362 42.6154 67.0002 41.2325 67.0002 39.5324C67 38.4168 66.4107 37.4406 65.5329 36.8992ZM63.9599 36.4494H61.3107V34.4268C61.3109 34.1274 61.4284 33.8404 61.6371 33.6287C61.8459 33.417 62.1289 33.298 62.4242 33.2977H63.9666V36.4494H63.9599ZM54.8441 19.5328L55.82 23.6769H43.367V13.5345H53.4316L54.8441 19.5328ZM53.0574 11.9464H42.5838C42.3761 11.9464 42.177 12.0301 42.0301 12.179C41.8833 12.3279 41.8007 12.5299 41.8007 12.7405V24.471C41.8007 24.6816 41.8833 24.8836 42.0301 25.0325C42.177 25.1814 42.3761 25.265 42.5838 25.265H61.6911C62.9458 25.265 63.9668 26.3003 63.9668 27.5727V31.7096H62.4243C60.9467 31.7096 59.7447 32.9286 59.7447 34.4268V36.4494H48.0343C46.7423 34.0609 44.2387 32.4377 41.3679 32.4377C40.628 32.4377 39.9133 32.5475 39.2366 32.7484V10.8038H52.7884L53.0574 11.9464ZM38.1403 3.46847V4.24298H28.5731V1.74061H36.4364C37.3759 1.74061 38.1403 2.51576 38.1403 3.46847ZM17.4588 4.24298V1.74061H27.0069V4.24298H17.4588ZM7.70978 3.46847C7.70978 2.51576 8.47419 1.74061 9.4137 1.74061H15.8928V4.24298H7.70993V3.46847H7.70978ZM51.7977 5.83109C53.8021 5.83109 55.4771 7.28992 55.8437 9.21566H38.4534C38.2457 9.21566 38.0465 9.29932 37.8997 9.44823C37.7528 9.59714 37.6703 9.79911 37.6703 10.0097V33.4149C36.42 34.1246 35.3913 35.176 34.7013 36.4494H20.8781C19.586 34.0609 17.0824 32.4377 14.2116 32.4377C11.3408 32.4377 8.83722 34.0609 7.54518 36.4494H4.38353V5.83109H51.7977ZM3.04028 41.0273C2.22747 41.0273 1.5661 40.3566 1.5661 39.5324C1.5661 38.7082 2.22747 38.0375 3.04028 38.0375H6.90417C6.7115 38.7222 6.61368 39.4307 6.6135 40.1427C6.6135 40.4419 6.63214 40.7368 6.66519 41.0273H3.04028ZM14.2118 46.2596C10.8857 46.2596 8.17961 43.5157 8.17961 40.1427C8.17961 36.7697 10.8857 34.0258 14.2118 34.0258C17.5379 34.0258 20.2439 36.7699 20.2439 40.1427C20.2439 43.5155 17.5379 46.2596 14.2118 46.2596ZM21.7584 41.0273C21.7913 40.7368 21.81 40.4421 21.81 40.1427C21.81 39.4128 21.7073 38.7072 21.5194 38.0375H34.0603C33.8676 38.7222 33.7698 39.4307 33.7696 40.1427C33.7696 40.4419 33.7882 40.7368 33.8213 41.0273H21.7584ZM41.3679 46.2596C38.0418 46.2596 35.3357 43.5157 35.3357 40.1427C35.3357 36.7697 38.0416 34.0258 41.3679 34.0258C44.6941 34.0258 47.4 36.7699 47.4 40.1427C47.4 43.5155 44.694 46.2596 41.3679 46.2596ZM63.9599 41.0273H48.9145C48.9474 40.7368 48.9661 40.4421 48.9661 40.1427C48.9661 39.4128 48.8634 38.7072 48.6755 38.0375H63.96C64.7729 38.0375 65.4342 38.7082 65.4342 39.5324C65.4339 40.3566 64.7727 41.0273 63.9599 41.0273Z" fill="#FD5B27"/>
</svg>
