<svg viewBox="0 0 48 50" fill="none" xmlns="http://www.w3.org/2000/svg">
<path d="M28.7942 6.24922C28.7942 8.82461 26.6613 10.9124 24.0302 10.9124C21.3992 10.9124 19.2662 8.82461 19.2662 6.24922M28.7942 6.24922C28.7942 3.67383 26.6613 1.58606 24.0302 1.58606C21.3992 1.58606 19.2662 3.67383 19.2662 6.24922M28.7942 6.24922C28.7942 6.417 28.7851 6.5827 28.7675 6.74589C38.4672 8.80337 45.8088 17.0638 46.2419 27.0739L46.2071 26.4648C46.2433 26.7159 46.2621 26.9725 46.2621 27.2334C46.2621 30.2381 43.7737 32.6738 40.7041 32.6738M19.2662 6.24922C19.2662 6.417 19.2753 6.5827 19.2962 6.74363C9.85935 8.7469 2.65614 16.6153 1.8697 26.2543L1.8586 26.4295C1.8189 26.6919 1.79834 26.9603 1.79834 27.2334C1.79834 30.2381 4.28673 32.6738 7.35631 32.6738M40.7041 32.6738C37.7741 32.6738 35.3736 30.4545 35.1614 27.6395L35.1434 27.2664L35.1309 27.6395C34.9187 30.4545 32.5183 32.6738 29.5882 32.6738M40.7041 32.6738C41.536 32.6738 42.3251 32.4949 43.0336 32.1743L39.9101 48.2177H8.15031L5.02702 32.1744C5.73548 32.495 6.52456 32.6738 7.35631 32.6738M40.7041 32.6738C37.6346 32.6738 35.1462 30.2381 35.1462 27.2334M7.35631 32.6738C10.2756 32.6738 12.6692 30.4708 12.8966 27.6706L12.9115 27.2664L12.9295 27.6395C13.1417 30.4545 15.5422 32.6738 18.4723 32.6738M7.35631 32.6738C10.4259 32.6738 12.9143 30.2381 12.9143 27.2334C12.9143 30.2381 15.4027 32.6738 18.4723 32.6738M18.4723 32.6738C21.4023 32.6738 23.8028 30.4545 24.015 27.6395L24.0274 27.2664M18.4723 32.6738C21.5305 32.6738 24.0092 30.2557 24.0274 27.2664M24.0274 27.2664L24.0455 27.6395C24.2576 30.4545 26.6581 32.6738 29.5882 32.6738M24.0274 27.2664L24.0302 27.2334C24.0302 30.2381 26.5186 32.6738 29.5882 32.6738M29.5882 32.6738C32.6578 32.6738 35.1462 30.2381 35.1462 27.2334M35.1462 27.2334L35.1517 27.0359C35.145 27.1027 35.1462 27.1679 35.1462 27.2334ZM33.9552 37.337L33.1612 43.5545M24.4272 37.337V43.5545M14.8993 37.337L15.6933 43.5545" stroke="#FD5B27" stroke-width="2" stroke-linejoin="round"/>
</svg>
