<svg viewBox="0 0 65 48" fill="none" xmlns="http://www.w3.org/2000/svg">
<path d="M61.4047 41.5926H59.8893V26.4212C59.8893 21.8166 56.2803 18.0704 51.8442 18.0704H31.033L20.5083 10.271L8.03125 1.02469C7.68047 0.763233 7.2832 0.576599 6.86246 0.475593C6.44171 0.374587 6.00584 0.361216 5.58008 0.436255C5.15393 0.508863 4.74589 0.668472 4.37957 0.905846C4.01324 1.14322 3.69591 1.45365 3.44592 1.81916C2.39279 3.35041 2.73612 5.48557 4.21114 6.57872L15.9627 15.2873L15.954 15.3001L19.3815 17.8402C19.452 17.8924 19.5063 17.9587 19.5467 18.032L15.4167 17.9929L15.342 17.9925C10.9403 17.9925 7.33881 21.6886 7.2983 26.2669L7.29304 26.8621H3.7733C1.69263 26.8615 0 28.6186 0 30.7782C0 33.5331 2.15905 35.7742 4.81311 35.7742H7.32653V41.5926H6.04895C4.06648 41.5926 2.45363 43.2668 2.45363 45.3246V47.0052H65V45.3246C65 43.2668 63.3872 41.5926 61.4047 41.5926ZM58.1359 26.421V41.5783H42.5805V35.2121C42.5809 34.3561 42.454 33.5051 42.2043 32.6893C42.8744 32.2148 43.4584 31.6209 43.9292 30.9352C44.128 30.6479 44.2699 30.3225 44.3467 29.9779C44.4236 29.6333 44.4337 29.2762 44.3767 28.9275C44.3216 28.5784 44.2002 28.2442 44.0198 27.9441C43.8393 27.6441 43.6033 27.3842 43.3253 27.1795L42.545 26.6012H42.551C42.575 23.8725 41.3288 21.4336 39.3863 19.8902H51.8442C55.3135 19.8904 58.1359 22.82 58.1359 26.421ZM34.5636 19.9945C36.2441 20.0103 37.818 20.7047 38.9955 21.9494C39.8578 22.8611 40.4303 23.9885 40.6697 25.2116L33.6174 19.9855L34.5636 19.9945ZM4.87325 2.87664C4.98987 2.70611 5.13791 2.56128 5.30881 2.45053C5.47971 2.33978 5.67007 2.2653 5.86887 2.23142C6.06751 2.19638 6.27087 2.20261 6.46717 2.24972C6.66348 2.29683 6.84883 2.3839 7.01249 2.50589L18.7641 11.2145L19.5191 11.774L17.7369 14.3653L5.23026 5.09734C4.54202 4.58717 4.38175 3.59103 4.87325 2.87664ZM19.1553 15.4357L20.9463 12.8317L30.3652 19.8117V19.8904H30.4713L42.3066 28.6609C42.3966 28.7272 42.4731 28.8114 42.5316 28.9086C42.59 29.0059 42.6294 29.1142 42.6473 29.2273C42.6657 29.3403 42.6624 29.456 42.6375 29.5677C42.6126 29.6794 42.5666 29.7848 42.5022 29.878C42.2128 30.2987 41.866 30.6736 41.4728 30.9909C40.0733 28.5227 37.4885 26.8615 34.5353 26.8615H29.5578L21.0794 20.5785C21.0172 20.5327 20.9644 20.4746 20.924 20.4074C20.8836 20.3403 20.8564 20.2655 20.8441 20.1874C20.8313 20.1093 20.8336 20.0294 20.8508 19.9523C20.868 19.8752 20.8997 19.8023 20.9442 19.738C21.692 18.6507 21.4481 17.1347 20.4008 16.3586L19.1553 15.4357ZM15.3424 19.8123C15.3618 19.8123 15.3813 19.8123 15.4007 19.8126L19.0953 19.8478C19.0744 20.0608 19.0808 20.2757 19.1143 20.487C19.1639 20.8011 19.2731 21.1018 19.4354 21.3718C19.5978 21.6418 19.8102 21.8757 20.0603 22.0599L26.5399 26.8615H9.04687L9.05195 26.2831C9.08351 22.7026 11.8998 19.8123 15.3424 19.8123ZM1.75347 30.778C1.75347 29.6221 2.65949 28.6816 3.7733 28.6816H28.1674C27.4445 29.2844 26.8266 30.0115 26.3407 30.8313C25.1953 32.7575 23.0952 33.9541 20.86 33.9541H4.81311C3.12609 33.9541 1.75347 32.5293 1.75347 30.778ZM9.08001 35.7742H20.8597C23.6984 35.7742 26.3701 34.2464 27.8325 31.7872C28.9888 29.8426 30.9916 28.6816 33.1899 28.6816H34.5352C38.0044 28.6816 40.8268 31.6112 40.8268 35.2123V41.5926H9.08001V35.7742ZM4.21202 45.1853C4.28093 44.1959 5.07858 43.4127 6.04913 43.4127H61.4047C62.3752 43.4127 63.1727 44.1959 63.2418 45.1853H4.21202Z" fill="#FD5B27"/>
</svg>
