<svg viewBox="0 0 50 51" fill="none" xmlns="http://www.w3.org/2000/svg">
<path d="M49.9973 15.8504C50.012 15.6673 49.9658 15.4844 49.8661 15.3302C49.7663 15.1759 49.6184 15.0589 49.4454 14.9971C47.6661 14.3257 45.7907 13.9435 43.8905 13.8651C45.3794 10.4704 45.8596 4.87986 45.9072 3.35855C45.9267 2.67161 45.691 2.00182 45.2457 1.47843C44.8004 0.955035 44.177 0.61515 43.4958 0.524369C42.8147 0.433588 42.124 0.598345 41.5572 0.986844C40.9904 1.37534 40.5875 1.96004 40.4264 2.6281C39.5906 5.69894 37.768 8.40962 35.2396 10.3423C34.2913 9.76566 33.2931 9.27539 32.257 8.87744C27.5887 7.06711 22.4123 7.06711 17.744 8.87744C16.7077 9.27535 15.7092 9.76565 14.7607 10.3424C12.2322 8.40967 10.4095 5.69898 9.57353 2.6281C9.41244 1.9601 9.00962 1.37545 8.44282 0.987005C7.87602 0.598563 7.18542 0.433866 6.50433 0.524704C5.82324 0.615543 5.19993 0.955476 4.75474 1.47889C4.30954 2.0023 4.07401 2.67209 4.09361 3.35896C4.1402 4.87952 4.61961 10.4699 6.10886 13.8649C4.20877 13.9432 2.33348 14.3254 0.554282 14.9969C0.38115 15.0585 0.233207 15.1755 0.133467 15.3298C0.033727 15.4841 -0.0122171 15.6671 0.00278215 15.8502C0.00761548 15.9116 0.600365 21.9655 8.33928 23.4997C8.40595 28.2604 10.0637 31.8422 11.799 35.5784C12.8196 37.678 13.7174 39.8351 14.4877 42.0389C16.3929 47.7482 19.191 50.5946 22.7755 50.4976C23.5659 50.4768 26.4345 50.4768 27.2233 50.4976C27.2827 50.4992 27.3421 50.5 27.4007 50.5C30.9099 50.5 33.6385 47.6545 35.5115 42.0392C36.2819 39.8357 37.1796 37.6788 38.2002 35.5795C39.9355 31.8429 41.5934 28.2609 41.6596 23.4999C49.4 21.9654 49.9917 15.9118 49.9973 15.8504ZM42.0461 3.02136C42.086 2.85392 42.1642 2.69804 42.2747 2.56604C42.3851 2.43405 42.5248 2.32956 42.6826 2.26083C42.854 2.18571 43.0416 2.15509 43.228 2.17181C43.4144 2.18853 43.5936 2.25205 43.7489 2.35647C43.9042 2.4609 44.0306 2.60285 44.1165 2.76917C44.2023 2.93549 44.2447 3.12078 44.2398 3.30788C44.1677 5.65897 43.4908 11.4436 41.9555 13.9931C41.1747 14.1071 40.4181 14.3493 39.7161 14.7098C38.9172 13.4085 37.8867 12.2645 36.6755 11.3346C39.305 9.20589 41.1864 6.29351 42.0461 3.02136ZM6.33628 2.30467C6.48637 2.22246 6.65338 2.17596 6.82436 2.16877C6.99533 2.16159 7.16566 2.19392 7.32212 2.26324C7.47857 2.33257 7.61694 2.43703 7.72647 2.56851C7.83601 2.69999 7.91376 2.85496 7.9537 3.02136C8.81329 6.29363 10.6949 9.20608 13.3245 11.3347C12.1133 12.2646 11.0826 13.4085 10.2835 14.7098C9.58136 14.3491 8.82446 14.1068 8.04336 13.9926C6.5082 11.4425 5.83211 5.65889 5.76003 3.30763C5.75404 3.10349 5.80471 2.90169 5.90643 2.72461C6.00815 2.54752 6.15693 2.40208 6.33628 2.30442V2.30467ZM1.78628 16.3398C6.35295 14.873 8.72245 15.7527 9.52495 16.194C9.20128 16.9625 8.95853 17.7626 8.80061 18.5814C8.59316 19.646 8.45484 20.723 8.38653 21.8055C3.48636 20.732 2.13986 17.6723 1.78636 16.3395L1.78628 16.3398ZM10.4368 18.8996C10.7017 17.5393 11.2376 16.2461 12.0127 15.0973C12.7878 13.9484 13.7862 12.9673 14.9484 12.2124C19.7992 12.8099 21.8706 16.1047 21.8431 23.1738C21.8207 28.8693 19.7661 35.2873 14.1533 36.7149C13.8726 36.093 13.5919 35.4803 13.311 34.8769C11.0489 30.0063 9.09536 25.8006 10.4369 18.8994L10.4368 18.8996ZM27.2693 48.8318C26.8558 48.8204 25.9276 48.8152 24.9998 48.8152C24.0719 48.8152 23.1443 48.8209 22.7308 48.8318C19.9037 48.9205 17.738 46.5137 16.0693 41.512C15.6848 40.3598 15.2644 39.2906 14.8309 38.2647C21.1634 36.4917 23.4858 29.4335 23.5102 23.1807C23.5276 18.6587 22.8152 12.7502 17.1068 10.9776C17.5074 10.7886 17.9102 10.6009 18.3453 10.4327C22.6266 8.77254 27.3738 8.77254 31.6552 10.4327C32.0484 10.5848 32.4094 10.7562 32.7744 10.9253C26.455 12.8229 26.4792 20.4757 26.4894 23.1807C26.5144 29.434 28.8363 36.4921 35.1691 38.2647C34.7358 39.2906 34.3153 40.3599 33.9311 41.512C32.2617 46.5138 30.0451 48.9069 27.2694 48.8316L27.2693 48.8318ZM36.6891 34.8774C36.4091 35.4799 36.1283 36.0924 35.8468 36.7148C30.2334 35.2875 28.1786 28.8692 28.1566 23.1738C28.1287 15.9762 30.258 12.5823 35.0357 12.201C36.2018 12.9558 37.2037 13.9381 37.9815 15.0891C38.7594 16.24 39.2971 17.5361 39.5625 18.8996C40.904 25.8006 38.9504 30.0067 36.6891 34.8774ZM41.6127 21.8054C41.5444 20.7228 41.4061 19.6459 41.1987 18.5812C41.0408 17.7627 40.7983 16.9628 40.4748 16.1946C41.2758 15.7541 43.6444 14.872 48.213 16.3395C47.8583 17.6755 46.5113 20.7325 41.6127 21.8054Z" fill="#FD5B27"/>
</svg>
