<svg viewBox="0 0 55 55" fill="none" xmlns="http://www.w3.org/2000/svg">
<path d="M6.04117 12.9516C6.40808 13.7076 7.04381 14.2995 7.82404 14.6116C8.60427 14.9237 9.47286 14.9335 10.2599 14.6391C21.0631 10.7801 32.8692 10.7801 43.6724 14.6391C44.4595 14.9335 45.3281 14.9237 46.1083 14.6116C46.8885 14.2995 47.5243 13.7076 47.8912 12.9516L48.1274 12.4453C48.3345 12.0022 48.4505 11.522 48.4685 11.0331C48.4865 10.5443 48.4062 10.0569 48.2323 9.59968C48.0584 9.1425 47.7945 8.72489 47.4561 8.37162C47.1178 8.01835 46.712 7.73662 46.2627 7.54313V7.54313C40.1597 4.90502 33.5812 3.54407 26.9324 3.54407C20.2836 3.54407 13.7052 4.90502 7.60211 7.54313V7.54313C7.15363 7.73755 6.74861 8.0198 6.41093 8.37322C6.07326 8.72665 5.80976 9.14411 5.63597 9.60099C5.46219 10.0579 5.38163 10.5449 5.39906 11.0334C5.41648 11.5219 5.53153 12.002 5.73742 12.4453L6.04117 12.9516Z" stroke="#FD5B27" stroke-width="2" stroke-linecap="round" stroke-linejoin="round"/>
<path d="M8.85938 14.8838C9.34028 14.9199 9.82336 14.8537 10.2769 14.6897C21.0898 10.8199 32.9102 10.8199 43.7231 14.6897C44.1737 14.8538 44.6541 14.9199 45.1322 14.8838V14.8838L28.8563 49.2835C28.6884 49.6334 28.4251 49.9287 28.0967 50.1354C27.7682 50.3422 27.3881 50.4518 27 50.4518C26.6119 50.4518 26.2318 50.3422 25.9033 50.1354C25.5749 49.9287 25.3116 49.6334 25.1438 49.2835L8.85938 14.8669V14.8838Z" stroke="#FD5B27" stroke-width="2" stroke-linecap="round" stroke-linejoin="round"/>
<path d="M31.6745 26.3419C34.326 26.3419 36.4754 24.1924 36.4754 21.5409C36.4754 18.8894 34.326 16.74 31.6745 16.74C29.023 16.74 26.8735 18.8894 26.8735 21.5409C26.8735 24.1924 29.023 26.3419 31.6745 26.3419Z" stroke="#FD5B27" stroke-width="2" stroke-linecap="round" stroke-linejoin="round"/>
<path d="M13.1709 23.9709C13.7212 23.4475 14.3878 23.0622 15.116 22.8465C15.8442 22.6308 16.6131 22.5909 17.3597 22.7302C18.1062 22.8694 18.8091 23.1838 19.4106 23.6474C20.0121 24.1111 20.495 24.7108 20.8196 25.3974C21.1443 26.0839 21.3014 26.8377 21.2782 27.5968C21.2549 28.3559 21.0519 29.0986 20.6858 29.764C20.3197 30.4294 19.801 30.9984 19.1723 31.4244C18.5435 31.8504 17.8227 32.1211 17.069 32.2143L13.1709 23.9709ZM31.7587 43.1578C31.0202 43.0422 30.3188 42.7561 29.7101 42.3221C29.1015 41.8882 28.6024 41.3183 28.2525 40.6578C27.9025 39.9973 27.7113 39.2643 27.6941 38.517C27.6769 37.7697 27.8341 37.0286 28.1533 36.3527C28.4725 35.6768 28.9448 35.0845 29.5328 34.623C30.1208 34.1615 30.8083 33.8434 31.5408 33.6939C32.2732 33.5445 33.0303 33.5678 33.7521 33.7621C34.474 33.9564 35.1406 34.3162 35.699 34.8131L31.7587 43.1578Z" stroke="#FD5B27" stroke-width="2" stroke-linecap="round" stroke-linejoin="round"/>
</svg>
