<svg viewBox="0 0 67 45" fill="none" xmlns="http://www.w3.org/2000/svg">
<path fill-rule="evenodd" clip-rule="evenodd" d="M29.803 5.66362C30.142 3.67397 31.6683 2.17273 33.4999 2.17273C35.3316 2.17273 36.8578 3.67397 37.1969 5.66362C35.9854 5.50162 34.7516 5.41819 33.4999 5.41819C32.2482 5.41819 31.0144 5.50162 29.803 5.66362ZM27.8659 5.99298C28.0912 2.64511 30.5275 0.00909424 33.4999 0.00909424C36.4724 0.00909424 38.9087 2.64511 39.134 5.99298C52.513 8.75935 62.6969 21.1892 62.6969 36.25H62.9323C64.8829 36.25 66.4642 38.0663 66.4642 40.3068C66.4642 42.5472 64.8829 44.3636 62.9323 44.3636H4.06753C2.11692 44.3636 0.535645 42.5472 0.535645 40.3068C0.535645 38.0663 2.11692 36.25 4.06753 36.25H4.30299C4.30299 21.1892 14.4868 8.75935 27.8659 5.99298ZM33.4999 7.58182C18.3364 7.58182 6.18667 20.5036 6.18667 36.25H60.8132C60.8132 20.5036 48.6635 7.58182 33.4999 7.58182ZM4.06753 38.4136C3.15725 38.4136 2.41932 39.2612 2.41932 40.3068C2.41932 41.3524 3.15725 42.2 4.06753 42.2H62.9323C63.8426 42.2 64.5805 41.3524 64.5805 40.3068C64.5805 39.2612 63.8426 38.4136 62.9323 38.4136H4.06753Z" fill="#FD5B27"/>
</svg>
