<svg id="form-file" viewBox="0 0 15 14" fill="none" xmlns="http://www.w3.org/2000/svg">
<path d="M14 6.42906L7.8539 11.9447C7.10095 12.6204 6.07974 13 5.01492 13C3.9501 13 2.92889 12.6204 2.17594 11.9447C1.423 11.269 1 10.3525 1 9.39693C1 8.44134 1.423 7.52489 2.17594 6.84918L7.9074 1.70567C8.40936 1.2544 9.09052 1.00056 9.80103 1C10.5115 0.999438 11.1932 1.25219 11.696 1.70266C12.1989 2.15313 12.4817 2.76442 12.4824 3.40204C12.483 4.03967 12.2014 4.6514 11.6994 5.10267L5.95456 10.2462C5.70358 10.4714 5.36317 10.598 5.00823 10.598C4.65329 10.598 4.31289 10.4714 4.06191 10.2462C3.81093 10.021 3.66993 9.71547 3.66993 9.39693C3.66993 9.0784 3.81093 8.77292 4.06191 8.54768L9.73986 3.45818" stroke="#FD5B27" stroke-linecap="round" stroke-linejoin="round"/>
</svg>
