<svg id="form-mail" viewBox="0 0 17 12" fill="none" xmlns="http://www.w3.org/2000/svg">
<path d="M16.4998 9.99995C16.4998 10.3507 16.4011 10.6759 16.2431 10.962L11.1912 5.30966L16.1883 0.937654C16.3827 1.24614 16.4998 1.60851 16.4998 2.00009V9.99995ZM8.49978 6.33595L15.4531 0.251998C15.1677 0.0957934 14.8464 0 14.4998 0H2.49974C2.15271 0 1.8313 0.0957934 1.54712 0.251998L8.49978 6.33595ZM10.4383 5.96788L8.82881 7.37705C8.73466 7.45906 8.61743 7.50002 8.49978 7.50002C8.38206 7.50002 8.26483 7.45906 8.17068 7.37705L6.56083 5.96782L1.44506 11.6924C1.7517 11.8848 2.11106 12 2.49971 12H14.4998C14.8884 12 15.2479 11.8848 15.5545 11.6924L10.4383 5.96788ZM0.811307 0.937622C0.61695 1.24611 0.499756 1.60847 0.499756 2.00009V9.99998C0.499756 10.3507 0.597957 10.6759 0.756601 10.962L5.80787 5.3087L0.811307 0.937622Z" fill="#FD5B27"/>
</svg>
