<svg id="form-name" viewBox="0 0 13 14" fill="none" xmlns="http://www.w3.org/2000/svg">
<path d="M12.9041 12.3746C12.0677 10.8632 10.7694 9.69175 9.219 9.04973C9.97991 8.45158 10.542 7.61766 10.8256 6.6661C11.1092 5.71453 11.0999 4.69357 10.7992 3.74781C10.4984 2.80206 9.92132 1.97947 9.14971 1.39657C8.3781 0.813667 7.45107 0.5 6.49993 0.5C5.54879 0.5 4.62176 0.813667 3.85015 1.39657C3.07854 1.97947 2.50148 2.80206 2.2007 3.74781C1.89993 4.69357 1.89068 5.71453 2.17428 6.6661C2.45788 7.61766 3.01995 8.45158 3.78086 9.04973C2.2305 9.69175 0.93213 10.8632 0.0958052 12.3746C0.000918113 12.547 -0.0247469 12.7518 0.0244563 12.9441C0.0736596 13.1363 0.193701 13.3001 0.358171 13.3996C0.522642 13.499 0.718071 13.5259 0.901465 13.4744C1.08486 13.4228 1.2412 13.297 1.33608 13.1246C1.85945 12.1746 2.61218 11.3857 3.51862 10.8372C4.42506 10.2887 5.45328 9.99997 6.49993 9.99997C7.54658 9.99997 8.57479 10.2887 9.48123 10.8372C10.3877 11.3857 11.1404 12.1746 11.6638 13.1246C11.7271 13.2383 11.8176 13.3326 11.9263 13.3984C12.0351 13.4642 12.1584 13.499 12.2839 13.4996C12.4096 13.5006 12.5332 13.4661 12.6417 13.3996C12.7232 13.3504 12.7946 13.2848 12.8519 13.2067C12.9092 13.1285 12.9512 13.0393 12.9756 12.9441C12.9999 12.8489 13.0062 12.7496 12.9939 12.6519C12.9816 12.5542 12.9511 12.46 12.9041 12.3746ZM3.39924 5.24985C3.39924 4.60708 3.58109 3.97874 3.9218 3.4443C4.26251 2.90986 4.74677 2.49331 5.31334 2.24734C5.87992 2.00136 6.50337 1.937 7.10484 2.0624C7.70632 2.1878 8.25881 2.49732 8.69245 2.95182C9.12609 3.40633 9.4214 3.98541 9.54104 4.61582C9.66068 5.24624 9.59928 5.89969 9.3646 6.49353C9.12991 7.08737 8.73249 7.59493 8.22258 7.95204C7.71267 8.30914 7.11319 8.49974 6.49993 8.49974C5.67757 8.49974 4.8889 8.15734 4.30741 7.54787C3.72591 6.9384 3.39924 6.11177 3.39924 5.24985Z" fill="#FD5B27"/>
</svg>
