<svg id="form-tel" viewBox="0 0 11 11" fill="none" xmlns="http://www.w3.org/2000/svg">
<path d="M9.25122 6.88129C8.85367 6.48881 8.35736 6.48881 7.96235 6.88129C7.66102 7.18007 7.35969 7.47886 7.06343 7.78271C6.9824 7.86627 6.91403 7.884 6.81528 7.82829C6.6203 7.72194 6.41266 7.63585 6.22528 7.51937C5.35169 6.96991 4.61989 6.26346 3.97166 5.46838C3.65007 5.07337 3.36394 4.65051 3.1639 4.17448C3.12338 4.07826 3.13098 4.01496 3.20947 3.93646C3.5108 3.64527 3.80453 3.34648 4.1008 3.04769C4.51354 2.63243 4.51354 2.14627 4.09826 1.72847C3.86277 1.49046 3.62728 1.2575 3.39179 1.01949C3.1487 0.776405 2.90815 0.530791 2.66253 0.290242C2.26498 -0.0971684 1.76867 -0.0971683 1.37365 0.292774C1.0698 0.591562 0.778596 0.897945 0.469672 1.19167C0.183538 1.4626 0.0392045 1.79431 0.00881858 2.18172C-0.0392925 2.81221 0.115169 3.40725 0.332936 3.9871C0.778596 5.18732 1.45722 6.25333 2.28017 7.23072C3.39179 8.55247 4.71864 9.59823 6.27086 10.3528C6.96974 10.6921 7.69394 10.9529 8.48144 10.9959C9.02332 11.0263 9.49431 10.8896 9.8716 10.4667C10.1299 10.1781 10.4211 9.91474 10.6946 9.63874C11.0997 9.22854 11.1022 8.73225 10.6996 8.32711C10.2185 7.84348 9.73486 7.36238 9.25122 6.88129Z" fill="#FD5B27"/>
</svg>
