<svg xmlns="http://www.w3.org/2000/svg" version="1.1" xmlns:xlink="http://www.w3.org/1999/xlink" xmlns:svgjs="http://svgjs.com/svgjs" x="0" y="0" viewBox="0 0 101 101" style="enable-background:new 0 0 512 512" xml:space="preserve" class=""><g><path d="M20.476 1.578h68.467a3.92 3.92 0 0 1 3.919 3.92v90.004a3.92 3.92 0 0 1-3.919 3.92H20.448a12.31 12.31 0 0 1-12.31-12.31V14.88c0-3.473 1.264-6.796 3.468-9.252 2.348-2.617 5.549-4.05 8.87-4.05zm68.467 93.924v-3.001H29.996v3.001zM26.076 78.721h-5.628a8.39 8.39 0 0 0-8.39 8.39v.001a8.39 8.39 0 0 0 8.39 8.39h5.628zm62.867 9.86v-2.94H29.996v2.94zm-58.947-9.86v3.001h58.947v-3.001zm-3.92-73.223h-5.6c-2.233 0-4.374.988-5.953 2.748-1.578 1.759-2.465 4.146-2.465 6.634v63.223a12.311 12.311 0 0 1 8.39-3.302h5.628zm3.92 0v69.303h58.947V5.498zm18.681 18.888a12.066 12.066 0 0 0-1.338-.074c-6.629 0-12.01 5.382-12.01 12.01 0 5.263 3.392 9.736 8.11 11.333v11.097a3.9 3.9 0 0 0 3.9 3.9h24.26a3.9 3.9 0 0 0 3.9-3.9s0-6.869.026-11.08c4.703-1.627 8.084-6.096 8.084-11.35 0-6.628-5.381-12.01-12.01-12.01-.452 0-.898.025-1.338.074-1.953-3.989-6.054-6.739-10.792-6.739s-8.839 2.75-10.792 6.739zm22.924 31.207-.002 3.159h-24.26v-3.159zm.007-3.9H47.339V46.37c0-1.04-.726-1.939-1.743-2.158a8.057 8.057 0 0 1-6.367-7.89 8.114 8.114 0 0 1 9.999-7.888 2.183 2.183 0 0 0 2.565-1.406c1.095-3.187 4.12-5.481 7.676-5.481a8.117 8.117 0 0 1 7.674 5.482 2.186 2.186 0 0 0 2.567 1.406 8.114 8.114 0 0 1 9.999 7.887c0 3.876-2.724 7.12-6.36 7.921a2.176 2.176 0 0 0-1.717 2.127 982.039 982.039 0 0 0-.024 5.323z" fill="#fd5b27" data-original="#000000"></path></g></svg>