<svg id="search-icon" viewBox="0 0 17 17" fill="none" xmlns="http://www.w3.org/2000/svg">
<path fill-rule="evenodd" clip-rule="evenodd" d="M7.62543 1.99994C10.484 1.99994 12.8851 4.38921 12.8851 7.44114C12.8851 10.4931 10.484 12.8823 7.62543 12.8823C4.76684 12.8823 2.36572 10.4931 2.36572 7.44114C2.36572 4.38921 4.76684 1.99994 7.62543 1.99994ZM7.62543 -5.91094e-05C11.6349 -5.91094e-05 14.8851 3.33148 14.8851 7.44114C14.8851 9.13086 14.3357 10.689 13.4099 11.9382L16.5084 15.1142C16.8941 15.5095 16.8863 16.1426 16.491 16.5283C16.0956 16.914 15.4625 16.9061 15.0769 16.5108L12.0128 13.3702C10.7941 14.3191 9.27395 14.8823 7.62543 14.8823C3.616 14.8823 0.365723 11.5508 0.365723 7.44114C0.365723 3.33148 3.616 -5.91094e-05 7.62543 -5.91094e-05Z" fill="#FD5B27"/>
</svg>
