<svg>
	<symbol id="attention" viewBox="0 0 48 48" xmlns="http://www.w3.org/2000/svg">
		<g>
			<circle cx="24" cy="43.489" r="4.324"/>
			<path d="M19.679.188h8.639v32.494h-8.639z"/>
		</g>
	</symbol>


	<symbol id="advantages-01" viewBox="0 0 32 32" fill="none" xmlns="http://www.w3.org/2000/svg">
		<path d="M2.66675 16H6.66675" stroke="white" stroke-width="2" stroke-linecap="round" stroke-linejoin="round"/>
		<path d="M25.3333 16H29.3333" stroke="white" stroke-width="2" stroke-linecap="round" stroke-linejoin="round"/>
		<path d="M16 2.66675V6.66675" stroke="white" stroke-width="2" stroke-linecap="round" stroke-linejoin="round"/>
		<path d="M16 25.3333V29.3333" stroke="white" stroke-width="2" stroke-linecap="round" stroke-linejoin="round"/>
		<path d="M16.0001 25.3334C21.1547 25.3334 25.3334 21.1547 25.3334 16.0001C25.3334 10.8454 21.1547 6.66675 16.0001 6.66675C10.8454 6.66675 6.66675 10.8454 6.66675 16.0001C6.66675 21.1547 10.8454 25.3334 16.0001 25.3334Z" stroke="white" stroke-width="2" stroke-linecap="round" stroke-linejoin="round"/>
	</symbol>
	<symbol id="advantages-02" viewBox="0 0 23 31" fill="none" xmlns="http://www.w3.org/2000/svg">
		<path d="M6.25 18.75C7.24456 18.75 8.19839 18.3549 8.90165 17.6517C9.60491 16.9484 10 15.9946 10 15C10 12.93 9.25 12 8.5 10.5C6.892 7.2855 8.164 4.419 11.5 1.5C12.25 5.25 14.5 8.85 17.5 11.25C20.5 13.65 22 16.5 22 19.5C22 20.8789 21.7284 22.2443 21.2007 23.5182C20.6731 24.7921 19.8996 25.9496 18.9246 26.9246C17.9496 27.8996 16.7921 28.6731 15.5182 29.2007C14.2443 29.7284 12.8789 30 11.5 30C10.1211 30 8.75574 29.7284 7.48182 29.2007C6.2079 28.6731 5.05039 27.8996 4.07538 26.9246C3.10036 25.9496 2.32694 24.7921 1.79926 23.5182C1.27159 22.2443 1 20.8789 1 19.5C1 17.7705 1.6495 16.059 2.5 15C2.5 15.9946 2.89509 16.9484 3.59835 17.6517C4.30161 18.3549 5.25544 18.75 6.25 18.75V18.75Z" stroke="white" stroke-width="2" stroke-linecap="round" stroke-linejoin="round"/>
	</symbol>
	<symbol id="advantages-03" viewBox="0 0 42 42" fill="none" xmlns="http://www.w3.org/2000/svg">
		<path d="M20.9999 5.625C18.9499 5.625 16.8999 6.65 15.8749 8.52917C14.852 8.26727 13.7788 8.27317 12.7588 8.5463C11.7388 8.81942 10.8063 9.35057 10.0512 10.0886C9.29596 10.8266 8.74352 11.7467 8.44702 12.7601C8.15052 13.7736 8.11995 14.8463 8.35827 15.875C6.64993 16.9 5.4541 18.95 5.4541 21C5.4541 23.05 6.64993 25.1 8.35827 26.125C7.84577 28.175 8.35827 30.3958 10.0666 31.9333C11.4333 33.3 13.6541 33.9833 15.7041 33.6417C16.7291 35.35 18.7791 36.375 20.8291 36.375C22.8791 36.375 24.9291 35.35 25.9541 33.4708C28.0041 33.9833 30.2249 33.4708 31.7624 31.7625C33.1291 30.3958 33.8124 28.3458 33.4708 26.125C35.1791 25.1 36.2041 23.05 36.2041 21C36.2041 18.95 35.1791 16.9 33.2999 15.875C33.8124 13.825 33.2999 11.6042 31.5916 10.0667C30.8612 9.34562 29.9662 8.81328 28.984 8.51563C28.0018 8.21799 26.9619 8.164 25.9541 8.35833C24.9291 6.65 22.8791 5.625 20.8291 5.625H20.9999Z" stroke="white" stroke-width="2" stroke-linecap="round" stroke-linejoin="round"/>
		<path d="M15.875 20.9999L19.2917 24.4166L26.125 17.5833" stroke="white" stroke-width="2" stroke-linecap="round" stroke-linejoin="round"/>
	</symbol>
	<symbol id="advantages-04" viewBox="0 0 30 29" fill="none" xmlns="http://www.w3.org/2000/svg">
		<path d="M27.0834 8.45825L16.8126 18.7291L10.7709 12.6874L2.91675 20.5416" stroke="white" stroke-width="2" stroke-linecap="round" stroke-linejoin="round"/>
		<path d="M19.8333 8.45825H27.0833V15.7083" stroke="white" stroke-width="2" stroke-linecap="round" stroke-linejoin="round"/>
	</symbol>
	<symbol id="fav-good" viewBox="0 0 25 23" xmlns="http://www.w3.org/2000/svg">
	<path d="M12.3705 4.24181L12.7878 4.8757L13.2056 4.24217C15.2038 1.21216 18.0156 0.592358 20.3062 1.45777C22.6256 2.33409 24.5 4.76581 24.5 8.04077C24.5 9.19667 23.8775 10.59 22.8307 12.0947C21.7946 13.584 20.3927 15.1125 18.9431 16.5252C17.4956 17.9357 16.0129 19.2187 14.8224 20.2184C14.3948 20.5775 14.0065 20.8987 13.6702 21.1768C13.5379 21.2863 13.4137 21.389 13.2982 21.4849C13.1044 21.6458 12.9305 21.7909 12.7854 21.9154C12.6338 21.7887 12.4514 21.6415 12.2484 21.4792C12.0819 21.346 11.899 21.2006 11.7007 21.0431C11.3896 20.7959 11.0408 20.5187 10.6586 20.2116C9.41389 19.2113 7.85891 17.9279 6.33904 16.5168C4.81677 15.1036 3.34309 13.5746 2.2535 12.0851C1.15152 10.5785 0.5 9.1888 0.5 8.04077C0.5 4.75876 2.50118 2.31919 4.97541 1.44137C7.42848 0.571046 10.3835 1.22309 12.3705 4.24181Z" stroke="#FD5B27" stroke-width="2"/>
	</symbol>
	<symbol id="faved-good" viewBox="0 0 25 23" fill="none" xmlns="http://www.w3.org/2000/svg">
		<path d="M12.3705 4.24181L12.7878 4.8757L13.2056 4.24217C15.2038 1.21216 18.0156 0.592358 20.3062 1.45777C22.6256 2.33409 24.5 4.76581 24.5 8.04077C24.5 9.19667 23.8775 10.59 22.8307 12.0947C21.7946 13.584 20.3927 15.1125 18.9431 16.5252C17.4956 17.9357 16.0129 19.2187 14.8224 20.2184C14.3948 20.5775 14.0065 20.8987 13.6702 21.1768C13.5379 21.2863 13.4137 21.389 13.2982 21.4849C13.1044 21.6458 12.9305 21.7909 12.7854 21.9154C12.6338 21.7887 12.4514 21.6415 12.2484 21.4792C12.0819 21.346 11.8989 21.2005 11.7005 21.043C11.3895 20.7958 11.0407 20.5187 10.6586 20.2116C9.41389 19.2113 7.85891 17.9279 6.33904 16.5168C4.81677 15.1036 3.34309 13.5746 2.2535 12.0851C1.15152 10.5785 0.5 9.1888 0.5 8.04077C0.5 4.75876 2.50118 2.31919 4.97541 1.44137C7.42848 0.571046 10.3835 1.22309 12.3705 4.24181Z" fill="#FD5B27" stroke="#FD5B27" stroke-width="2"/>
	</symbol>
	<symbol id="address-icon" viewBox="0 0 12 15" fill="none" xmlns="http://www.w3.org/2000/svg">
		<path d="M11.7165 3.73336C11.6545 3.53325 11.5286 3.32002 11.4354 3.13334C10.3208 0.826667 7.88541 0 5.91894 0C3.28646 0 0.38709 1.52004 0 4.65321V5.29333C0 5.32004 0.0106918 5.56002 0.0258789 5.68005C0.242873 7.17324 1.61113 8.76017 2.63301 10.2534C3.7324 11.8532 4.87317 13.4269 6.00338 15C6.70029 13.9734 7.39469 12.9334 8.07572 11.9334C8.26133 11.6399 8.47678 11.3466 8.66259 11.0665C8.78644 10.88 9.02303 10.6935 9.13113 10.5199C10.2305 8.78671 12 7.04009 12 5.32001V4.61338C12 4.42691 11.7316 3.77357 11.7165 3.73336ZM5.96713 6.94677C5.19332 6.94677 4.34632 6.61358 3.92825 5.69341C3.86596 5.54694 3.87098 5.2534 3.87098 5.22651V4.81318C3.87098 3.64014 5.02764 3.1067 6.03388 3.1067C7.27266 3.1067 8.23075 3.96015 8.23075 5.02689C8.23075 6.0936 7.20592 6.94677 5.96713 6.94677Z" fill="#FD5B27"/>
	</symbol>
	<symbol id="lk-icon" viewBox="0 0 15 14" xmlns="http://www.w3.org/2000/svg">
		<path d="M14.8893 12.7881C13.9243 11.1604 12.4262 9.89881 10.6373 9.2074C11.5153 8.56324 12.1638 7.66517 12.491 6.64041C12.8183 5.61565 12.8076 4.51615 12.4606 3.49765C12.1135 2.47914 11.4477 1.59328 10.5574 0.965538C9.66704 0.337796 8.59739 0 7.49992 0C6.40245 0 5.33279 0.337796 4.44248 0.965538C3.55216 1.59328 2.88632 2.47914 2.53927 3.49765C2.19222 4.51615 2.18156 5.61565 2.50879 6.64041C2.83602 7.66517 3.48455 8.56324 4.36253 9.2074C2.57365 9.89881 1.07553 11.1604 0.110544 12.7881C0.00105935 12.9737 -0.0285541 13.1943 0.0282188 13.4013C0.0849918 13.6083 0.223501 13.7848 0.413275 13.8919C0.603049 13.999 0.828543 14.0279 1.04015 13.9724C1.25176 13.9169 1.43215 13.7814 1.54163 13.5957C2.14552 12.5726 3.01406 11.723 4.05995 11.1324C5.10584 10.5417 6.29224 10.2307 7.49992 10.2307C8.70759 10.2307 9.89399 10.5417 10.9399 11.1324C11.9858 11.723 12.8543 12.5726 13.4582 13.5957C13.5312 13.7181 13.6357 13.8198 13.7612 13.8906C13.8867 13.9614 14.0289 13.999 14.1737 13.9995C14.3188 14.0007 14.4614 13.9635 14.5866 13.8919C14.6806 13.8389 14.763 13.7683 14.8291 13.6841C14.8952 13.5999 14.9437 13.5039 14.9718 13.4013C14.9999 13.2988 15.0071 13.1919 14.9929 13.0867C14.9788 12.9814 14.9436 12.88 14.8893 12.7881ZM3.92219 5.11522C3.92219 4.42301 4.13202 3.74634 4.52515 3.17079C4.91827 2.59523 5.47704 2.14664 6.13078 1.88175C6.78453 1.61685 7.50389 1.54754 8.1979 1.68258C8.89191 1.81763 9.5294 2.15096 10.0297 2.64043C10.5301 3.12989 10.8708 3.75351 11.0089 4.43243C11.1469 5.11134 11.0761 5.81505 10.8053 6.45457C10.5345 7.09409 10.0759 7.6407 9.48759 8.02527C8.89924 8.40984 8.20752 8.61511 7.49992 8.61511C6.55105 8.61511 5.64104 8.24637 4.97009 7.59001C4.29913 6.93366 3.92219 6.04345 3.92219 5.11522Z"/>
	</symbol>
	<symbol id="basket-icon" viewBox="0 0 17 14" xmlns="http://www.w3.org/2000/svg">
		<path d="M6.7055 14C6.23318 14 5.7802 13.8156 5.44622 13.4874C5.11224 13.1592 4.92461 12.7141 4.92461 12.25C4.92461 11.7859 5.11224 11.3408 5.44622 11.0126C5.7802 10.6844 6.23318 10.5 6.7055 10.5C7.17782 10.5 7.63079 10.6844 7.96477 11.0126C8.29876 11.3408 8.48638 11.7859 8.48638 12.25C8.48638 12.7141 8.29876 13.1592 7.96477 13.4874C7.63079 13.8156 7.17782 14 6.7055 14ZM12.9386 14C12.4663 14 12.0133 13.8156 11.6793 13.4874C11.3453 13.1592 11.1577 12.7141 11.1577 12.25C11.1577 11.7859 11.3453 11.3408 11.6793 11.0126C12.0133 10.6844 12.4663 10.5 12.9386 10.5C13.4109 10.5 13.8639 10.6844 14.1979 11.0126C14.5319 11.3408 14.7195 11.7859 14.7195 12.25C14.7195 12.7141 14.5319 13.1592 14.1979 13.4874C13.8639 13.8156 13.4109 14 12.9386 14ZM1.32899 1.68262C1.1067 1.67558 0.895917 1.58385 0.741209 1.42685C0.5865 1.26984 0.5 1.05986 0.5 0.841312C0.5 0.622765 0.5865 0.412785 0.741209 0.255778C0.895917 0.0987704 1.1067 0.00704533 1.32899 0L2.35389 0C3.15708 0 3.85162 0.54775 4.02615 1.31775L5.14188 6.2545C5.3164 7.0245 6.01095 7.57225 6.81413 7.57225H13.5031L14.7872 2.5235H6.46597C6.24577 2.51363 6.03792 2.42072 5.88565 2.26411C5.73338 2.10749 5.64841 1.89923 5.64841 1.68262C5.64841 1.46602 5.73338 1.25776 5.88565 1.10114C6.03792 0.944529 6.24577 0.851624 6.46597 0.84175H14.7872C15.0475 0.841675 15.3044 0.899919 15.5383 1.01205C15.7723 1.12419 15.9772 1.28727 16.1374 1.48889C16.2975 1.69051 16.4089 1.92536 16.4628 2.1756C16.5168 2.42583 16.512 2.68487 16.4487 2.933L15.1647 7.98C15.0722 8.34417 14.8583 8.66747 14.5573 8.89848C14.2562 9.12949 13.8851 9.25494 13.5031 9.25487H6.81413C6.03481 9.25498 5.27876 8.99388 4.67084 8.51471C4.06293 8.03554 3.63951 7.36696 3.47051 6.61937L2.35389 1.68262H1.32899Z"/>
	</symbol>
	<symbol id="favorite-icon" viewBox="0 0 17 15" fill="transparent" xmlns="http://www.w3.org/2000/svg">
		<path d="M14.6941 2.2549C14.2822 1.85519 13.7949 1.53966 13.2606 1.3249C12.7264 1.11017 12.1549 1 11.5783 1C11.0018 1 10.4302 1.11017 9.896 1.3249C9.37776 1.53322 8.90367 1.83636 8.49983 2.21918C7.6724 1.43508 6.56714 1.00032 5.42135 1.00032C4.25835 1.00032 3.13711 1.44824 2.30578 2.25473C1.47342 3.06223 1 4.16401 1 5.31947C1 6.47494 1.47342 7.57672 2.30578 8.38421L2.96501 9.02376L7.80353 13.7177C8.19146 14.0941 8.80821 14.0941 9.19614 13.7177L14.0347 9.02376L14.6937 8.38438C14.6938 8.38432 14.6938 8.38427 14.6939 8.38421C15.1059 7.98467 15.4344 7.50864 15.6591 6.9825C15.8839 6.45622 16 5.89103 16 5.31947C16 4.74792 15.8839 4.18273 15.6591 3.65645C15.4344 3.13038 15.106 2.65441 14.6941 2.2549Z" stroke-width="2" stroke-linecap="round" stroke-linejoin="round"/>
	</symbol>
	<symbol id="shop-icon" viewBox="0 0 16 16" fill="none" xmlns="http://www.w3.org/2000/svg">
		<path fill-rule="evenodd" clip-rule="evenodd" d="M11.604 12H15.4373V16H11.604V12ZM5.854 12H9.68734V16H5.854V12ZM0.104004 12H3.93734V16H0.104004V12ZM11.604 6H15.4373V10H11.604V6ZM5.854 6H9.68734V10H5.854V6ZM0.104004 6H3.93734V10H0.104004V6ZM11.604 0H15.4373V4H11.604V0ZM5.854 0H9.68734V4H5.854V0ZM0.104004 0H3.93734V4H0.104004V0Z" fill="white"/>
	</symbol>
	<symbol id="shop-icon2" viewBox="0 0 16 16" xmlns="http://www.w3.org/2000/svg">
		<path fill-rule="evenodd" clip-rule="evenodd" d="M11.604 12H15.4373V16H11.604V12ZM5.854 12H9.68734V16H5.854V12ZM0.104004 12H3.93734V16H0.104004V12ZM11.604 6H15.4373V10H11.604V6ZM5.854 6H9.68734V10H5.854V6ZM0.104004 6H3.93734V10H0.104004V6ZM11.604 0H15.4373V4H11.604V0ZM5.854 0H9.68734V4H5.854V0ZM0.104004 0H3.93734V4H0.104004V0Z"/>
	</symbol>
	<symbol id="callback-icon" height="12" viewBox="0 0 13 12" xmlns="http://www.w3.org/2000/svg">
		<path d="M10.75 1H7V2.5H10.75C11.1625 2.5 11.5 2.8375 11.5 3.25V7H13V3.25C13 2.0125 11.9875 1 10.75 1Z"/>
		<path d="M8 4L6 2L8 0V4Z"/>
		<path d="M6.66709 9.10693L7.52819 8.24549C7.64417 8.1309 7.79091 8.05246 7.95059 8.0197C8.11027 7.98693 8.27602 8.00124 8.42773 8.06089L9.47719 8.48008C9.6305 8.54233 9.76196 8.64859 9.85499 8.78547C9.94803 8.92234 9.99849 9.08371 10 9.24923V11.1721C9.99911 11.2847 9.97545 11.3959 9.93045 11.4991C9.88544 11.6024 9.82003 11.6954 9.73814 11.7726C9.65625 11.8499 9.55959 11.9098 9.45396 11.9486C9.34834 11.9875 9.23593 12.0046 9.12353 11.9989C1.7696 11.5413 0.285745 5.31119 0.00511948 2.92684C-0.00790734 2.80975 0.00399492 2.69123 0.0400432 2.57907C0.0760915 2.46692 0.135469 2.36367 0.214269 2.27611C0.293069 2.18856 0.389506 2.1187 0.497236 2.07111C0.604965 2.02352 0.721546 1.99929 0.839308 2.00002H2.69605C2.86174 2.00051 3.02349 2.05057 3.1605 2.14378C3.29751 2.23699 3.40352 2.36907 3.46489 2.52304L3.8839 3.57292C3.94551 3.72408 3.96122 3.89006 3.92909 4.0501C3.89696 4.21015 3.8184 4.35718 3.70322 4.47282L2.84213 5.33427C2.84213 5.33427 3.33803 8.69159 6.66709 9.10693Z"/>
	</symbol>
	<symbol id="search-icon2" viewBox="0 0 17 17" xmlns="http://www.w3.org/2000/svg">
		<path fill-rule="evenodd" clip-rule="evenodd" d="M7.62543 1.99994C10.484 1.99994 12.8851 4.38921 12.8851 7.44114C12.8851 10.4931 10.484 12.8823 7.62543 12.8823C4.76684 12.8823 2.36572 10.4931 2.36572 7.44114C2.36572 4.38921 4.76684 1.99994 7.62543 1.99994ZM7.62543 -5.91094e-05C11.6349 -5.91094e-05 14.8851 3.33148 14.8851 7.44114C14.8851 9.13086 14.3357 10.689 13.4099 11.9382L16.5084 15.1142C16.8941 15.5095 16.8863 16.1426 16.491 16.5283C16.0956 16.914 15.4625 16.9061 15.0769 16.5108L12.0128 13.3702C10.7941 14.3191 9.27395 14.8823 7.62543 14.8823C3.616 14.8823 0.365723 11.5508 0.365723 7.44114C0.365723 3.33148 3.616 -5.91094e-05 7.62543 -5.91094e-05Z"/>
	</symbol>
	<symbol id="burger-cancel" viewBox="0 0 23 23" xmlns="http://www.w3.org/2000/svg">
		<path d="M21.25 2.25L1.75 20.75" stroke-width="3" stroke-linecap="round" stroke-linejoin="round"/>
		<path d="M1.75 2.25L21.25 20.75" stroke-width="3" stroke-linecap="round" stroke-linejoin="round"/>
	</symbol>
	<symbol id="success-icon" viewBox="0 0 46 33" fill="none" xmlns="http://www.w3.org/2000/svg">
		<path d="M44 2L15.125 31L2 17.8182" stroke-width="4" stroke-linecap="round" stroke-linejoin="round"/>
	</symbol>
	<symbol id="error-icon" viewBox="0 0 48 48" xmlns="http://www.w3.org/2000/svg">
		<g>
			<circle cx="24" cy="43.489" r="4.324"/>
			<path d="M19.679.188h8.639v32.494h-8.639z"/>
		</g>
	</symbol>
	<symbol id="sidebar-not-open" viewBox="0 0 15 15" xmlns="http://www.w3.org/2000/svg">
		<path d="M7.5 13.5V7.5M7.5 7.5V1.5M7.5 7.5H13.5M7.5 7.5H1.5" stroke-width="2" stroke-linecap="round"/>
	</symbol>
	<symbol id="sidebar-open" viewBox="0 0 16 2" xmlns="http://www.w3.org/2000/svg">
		<path d="M15 1H8H1" stroke-width="2" stroke-linecap="round"/>
	</symbol>
	<symbol id="menu-arrow" viewBox="0 0 16 8" fill = "none" xmlns="http://www.w3.org/2000/svg">
		<path d="M15 1.91675L8 6.91675L1 1.91675" stroke-width="2" stroke-linecap="round" stroke-linejoin="round"/>
	</symbol>
	<symbol id="clear" viewBox="0 0 18 20" fill="none" xmlns="http://www.w3.org/2000/svg">
		<path d="M15 5H4V15.4036C4 16.2836 4.82478 17 5.83782 17H13.1532C14.1663 17 14.9911 16.2836 14.9911 15.4036V5H15Z" stroke-width="1.5" stroke-linecap="round" stroke-linejoin="round"/>
		<path d="M3 5H16"  stroke-width="1.5" stroke-linecap="round" stroke-linejoin="round"/>
		<path d="M12 2H7V5H12V2Z"  stroke-width="1.5" stroke-linecap="round" stroke-linejoin="round"/>
		<path d="M8 8V13"  stroke-width="1.5" stroke-linecap="round" stroke-linejoin="round"/>
		<path d="M11 8V13"  stroke-width="1.5" stroke-linecap="round" stroke-linejoin="round"/>
	</symbol>
	<symbol id="minus" viewBox="0 0 9 2" xmlns="http://www.w3.org/2000/svg">
		<path d="M8.5 1H4.5H0.5" stroke-linecap="round"/>
	</symbol>
	<symbol id="plus" viewBox="0 0 9 10" fill="none" xmlns="http://www.w3.org/2000/svg">
		<path d="M4.5 9V5M4.5 5V1M4.5 5H8.5M4.5 5H0.5" stroke-linecap="round"/>
	</symbol>
	<symbol id="delete" viewBox="0 0 7 6" fill="none" xmlns="http://www.w3.org/2000/svg">
		<path d="M5.875 0.625L1.125 5.375" stroke-linecap="round" stroke-linejoin="round"/>
		<path d="M1.125 0.625L5.875 5.375" stroke-linecap="round" stroke-linejoin="round"/>
	</symbol>
	<symbol id="shedule-icon" viewBox="0 0 20 20" fill="none" xmlns="http://www.w3.org/2000/svg">
		<path d="M9.56476 17.5363C13.967 17.5363 17.5358 13.9675 17.5358 9.56525C17.5358 5.16298 13.967 1.59424 9.56476 1.59424C5.16249 1.59424 1.59375 5.16298 1.59375 9.56525C1.59375 13.9675 5.16249 17.5363 9.56476 17.5363Z" fill="#FD5B27"/>
		<path d="M9.56445 6.08691V9.99996L12.1731 11.3043" stroke="white" stroke-linecap="round" stroke-linejoin="round"/>
	</symbol>
	<symbol id="filter-icon" viewBox="0 0 32 32" fill="none" xmlns="http://www.w3.org/2000/svg">
		<path d="M26,6v0.233l-8.487,9.43L17,16.233V17v7.764l-2-1V17v-0.767l-0.513-0.57L6,6.233V6H26 M28,4H4v3  l9,10v8l6,3V17l9-10V4L28,4z" fill="#FD5B27"/>
	</symbol>











































	<!-- <symbol id="menu-arrow" viewBox="0 0 18 10" fill = "none" xmlns="http://www.w3.org/2000/svg">
		<path d="M1 0.5L9 8.5L17 0.5"/>
	</symbol> -->

	<symbol id="twitter" viewBox="0 0 512 512" xmlns="http://www.w3.org/2000/svg">
		<path d="M512,97.248c-19.04,8.352-39.328,13.888-60.48,16.576c21.76-12.992,38.368-33.408,46.176-58.016
			c-20.288,12.096-42.688,20.64-66.56,25.408C411.872,60.704,384.416,48,354.464,48c-58.112,0-104.896,47.168-104.896,104.992
			c0,8.32,0.704,16.32,2.432,23.936c-87.264-4.256-164.48-46.08-216.352-109.792c-9.056,15.712-14.368,33.696-14.368,53.056
			c0,36.352,18.72,68.576,46.624,87.232c-16.864-0.32-33.408-5.216-47.424-12.928c0,0.32,0,0.736,0,1.152
			c0,51.008,36.384,93.376,84.096,103.136c-8.544,2.336-17.856,3.456-27.52,3.456c-6.72,0-13.504-0.384-19.872-1.792
			c13.6,41.568,52.192,72.128,98.08,73.12c-35.712,27.936-81.056,44.768-130.144,44.768c-8.608,0-16.864-0.384-25.12-1.44
			C46.496,446.88,101.6,464,161.024,464c193.152,0,298.752-160,298.752-298.688c0-4.64-0.16-9.12-0.384-13.568
			C480.224,136.96,497.728,118.496,512,97.248z"/>
	</symbol>

	<symbol id="telegram" viewBox="0 0 300 300" xmlns="http://www.w3.org/2000/svg">
	    <path d="M5.299,144.645l69.126,25.8l26.756,86.047c1.712,5.511,8.451,7.548,12.924,3.891l38.532-31.412
		    c4.039-3.291,9.792-3.455,14.013-0.391l69.498,50.457c4.785,3.478,11.564,0.856,12.764-4.926L299.823,29.22
		    c1.31-6.316-4.896-11.585-10.91-9.259L5.218,129.402C-1.783,132.102-1.722,142.014,5.299,144.645z M96.869,156.711l135.098-83.207
		    c2.428-1.491,4.926,1.792,2.841,3.726L123.313,180.87c-3.919,3.648-6.447,8.53-7.163,13.829l-3.798,28.146
		    c-0.503,3.758-5.782,4.131-6.819,0.494l-14.607-51.325C89.253,166.16,91.691,159.907,96.869,156.711z"/>
	</symbol>

	<symbol id="whatsapp" viewBox="0 0 512 512" xmlns="http://www.w3.org/2000/svg">
		<path d="M256.064,0h-0.128C114.784,0,0,114.816,0,256c0,56,18.048,107.904,48.736,150.048l-31.904,95.104l98.4-31.456
			C155.712,496.512,204,512,256.064,512C397.216,512,512,397.152,512,256S397.216,0,256.064,0z M405.024,361.504
			c-6.176,17.44-30.688,31.904-50.24,36.128c-13.376,2.848-30.848,5.12-89.664-19.264C189.888,347.2,141.44,270.752,137.664,265.792
			c-3.616-4.96-30.4-40.48-30.4-77.216s18.656-54.624,26.176-62.304c6.176-6.304,16.384-9.184,26.176-9.184
			c3.168,0,6.016,0.16,8.576,0.288c7.52,0.32,11.296,0.768,16.256,12.64c6.176,14.88,21.216,51.616,23.008,55.392
			c1.824,3.776,3.648,8.896,1.088,13.856c-2.4,5.12-4.512,7.392-8.288,11.744c-3.776,4.352-7.36,7.68-11.136,12.352
			c-3.456,4.064-7.36,8.416-3.008,15.936c4.352,7.36,19.392,31.904,41.536,51.616c28.576,25.44,51.744,33.568,60.032,37.024
			c6.176,2.56,13.536,1.952,18.048-2.848c5.728-6.176,12.8-16.416,20-26.496c5.12-7.232,11.584-8.128,18.368-5.568
			c6.912,2.4,43.488,20.48,51.008,24.224c7.52,3.776,12.48,5.568,14.304,8.736C411.2,329.152,411.2,344.032,405.024,361.504z"/>
	</symbol>

	<symbol id="vk" viewBox="0 0 532.337 532.337" xmlns="http://www.w3.org/2000/svg">
		<path d="M471.998,241.286c7.57-9.786,13.58-17.638,18.018-23.562c31.965-42.498,45.82-69.646,41.574-81.482l-1.666-2.772
			c-1.107-1.665-3.977-3.194-8.592-4.578c-4.621-1.383-10.533-1.604-17.736-0.691l-79.822,0.563
			c-1.848-0.184-3.697-0.141-5.545,0.128c-1.848,0.281-3.047,0.563-3.605,0.832c-0.557,0.282-1.016,0.508-1.383,0.692l-1.107,0.832
			c-0.924,0.551-1.939,1.524-3.047,2.914c-1.109,1.389-2.039,2.999-2.773,4.853c-8.684,22.356-18.568,43.146-29.656,62.363
			c-6.838,11.457-13.123,21.396-18.844,29.792c-5.729,8.415-10.533,14.603-14.414,18.568c-3.879,3.972-7.393,7.166-10.531,9.56
			c-3.146,2.411-5.545,3.421-7.203,3.054c-1.666-0.367-3.238-0.734-4.713-1.114c-2.588-1.658-4.67-3.917-6.236-6.787
			c-1.572-2.857-2.631-6.463-3.189-10.808c-0.551-4.339-0.881-8.084-0.967-11.23c-0.098-3.139-0.049-7.57,0.141-13.305
			c0.184-5.729,0.275-9.602,0.275-11.64c0-7.014,0.141-14.639,0.418-22.864c0.275-8.219,0.508-14.737,0.691-19.542
			c0.184-4.798,0.275-9.884,0.275-15.245c0-5.349-0.324-9.56-0.975-12.613c-0.648-3.042-1.621-5.998-2.906-8.868
			c-1.297-2.858-3.189-5.08-5.686-6.646c-2.496-1.573-5.588-2.815-9.283-3.746c-9.799-2.222-22.271-3.409-37.418-3.604
			c-34.37-0.355-56.451,1.86-66.243,6.658c-3.88,2.038-7.393,4.804-10.532,8.317c-3.329,4.07-3.788,6.291-1.383,6.646
			c11.089,1.665,18.936,5.643,23.556,11.922l1.665,3.323c1.291,2.411,2.583,6.659,3.88,12.754c1.292,6.096,2.124,12.84,2.497,20.233
			c0.924,13.488,0.924,25.031,0,34.646c-0.924,9.614-1.799,17.093-2.631,22.442c-0.833,5.361-2.081,9.7-3.74,13.023
			c-1.665,3.335-2.772,5.367-3.329,6.107c-0.557,0.734-1.016,1.199-1.383,1.384c-2.405,0.918-4.896,1.383-7.484,1.383
			c-2.589,0-5.729-1.298-9.425-3.887c-3.697-2.576-7.534-6.138-11.5-10.667c-3.978-4.522-8.452-10.856-13.446-18.99
			c-4.988-8.121-10.166-17.736-15.521-28.819l-4.431-8.042c-2.772-5.165-6.561-12.699-11.365-22.583s-9.058-19.443-12.748-28.69
			c-1.481-3.874-3.697-6.83-6.652-8.868l-1.383-0.832c-0.924-0.735-2.405-1.524-4.437-2.351c-2.038-0.832-4.155-1.432-6.377-1.805
			l-75.943,0.551c-7.76,0-13.023,1.763-15.795,5.275l-1.108,1.659C0.275,136.059,0,137.54,0,139.566
			c0,2.038,0.557,4.529,1.665,7.479c11.089,26.059,23.146,51.188,36.169,75.386c13.03,24.211,24.346,43.709,33.954,58.489
			c9.608,14.792,19.4,28.733,29.382,41.854c9.982,13.121,16.585,21.523,19.816,25.214c3.231,3.703,5.771,6.476,7.62,8.317
			l6.928,6.658c4.431,4.432,10.949,9.743,19.542,15.937c8.592,6.193,18.103,12.289,28.55,18.287
			c10.435,6.01,22.589,10.899,36.444,14.694c13.856,3.794,27.344,5.317,40.465,4.571h31.874c6.469-0.551,11.363-2.576,14.688-6.096
			l1.107-1.383c0.734-1.102,1.432-2.815,2.08-5.123c0.643-2.307,0.975-4.853,0.975-7.619c-0.191-7.943,0.416-15.116,1.799-21.481
			c1.383-6.377,2.955-11.175,4.713-14.418c1.756-3.226,3.738-5.955,5.959-8.177c2.217-2.222,3.783-3.55,4.713-4.015
			c0.924-0.453,1.666-0.777,2.217-0.973c4.43-1.476,9.65-0.043,15.66,4.296c6.004,4.352,11.641,9.7,16.91,16.077
			c5.262,6.377,11.59,13.531,18.984,21.481c7.387,7.943,13.855,13.855,19.4,17.735l5.545,3.336
			c3.695,2.209,8.494,4.241,14.412,6.096c5.912,1.842,11.09,2.307,15.52,1.383l70.955-1.114c7.02,0,12.473-1.15,16.354-3.464
			c3.879-2.295,6.188-4.853,6.928-7.619c0.734-2.772,0.783-5.899,0.141-9.419c-0.648-3.507-1.297-5.955-1.939-7.338
			c-0.648-1.383-1.25-2.546-1.807-3.464c-9.24-16.628-26.885-37.051-52.938-61.255l-0.557-0.551l-0.275-0.281l-0.275-0.27H473.4
			c-11.83-11.273-19.309-18.85-22.449-22.736c-5.727-7.38-7.025-14.865-3.879-22.441
			C449.275,271.874,457.586,259.769,471.998,241.286z"/>
	</symbol>

	<symbol id="youtube" viewBox="-21 -117 682.66672 682" xmlns="http://www.w3.org/2000/svg">
		<path d="m626.8125 
			64.035156c-7.375-27.417968-28.992188-49.03125-56.40625-56.414062-50.082031-13.703125-250.414062-13.703125-250.414062-13.703125s-200.324219 
			0-250.40625 13.183593c-26.886719 7.375-49.03125 29.519532-56.40625 56.933594-13.179688 50.078125-13.179688 
			153.933594-13.179688 153.933594s0 104.378906 13.179688 153.933594c7.382812 27.414062 28.992187 49.027344 
			56.410156 56.410156 50.605468 13.707031 250.410156 13.707031 250.410156 13.707031s200.324219 0 
			250.40625-13.183593c27.417969-7.378907 49.03125-28.992188 56.414062-56.40625 13.175782-50.082032 
			13.175782-153.933594 13.175782-153.933594s.527344-104.382813-13.183594-154.460938zm-370.601562 
			249.878906v-191.890624l166.585937 95.945312zm0 0"/>
	</symbol>

	<symbol id="tiktok" viewBox="0 0 512 512" xmlns="http://www.w3.org/2000/svg">
		<path d="m480.32 
			128.39c-29.22 0-56.18-9.68-77.83-26.01-24.83-18.72-42.67-46.18-48.97-77.83-1.56-7.82-2.4-15.89-2.48-24.16h-83.47v228.08l-.1 
			124.93c0 33.4-21.75 61.72-51.9 71.68-8.75 2.89-18.2 4.26-28.04 
			3.72-12.56-.69-24.33-4.48-34.56-10.6-21.77-13.02-36.53-36.64-36.93-63.66-.63-42.23 33.51-76.66 75.71-76.66 
			8.33 0 16.33 1.36 23.82 3.83v-62.34-22.41c-7.9-1.17-15.94-1.78-24.07-1.78-46.19 0-89.39 19.2-120.27 53.79-23.34 
			26.14-37.34 59.49-39.5 94.46-2.83 45.94 13.98 89.61 46.58 121.83 4.79 4.73 9.82 9.12 15.08 13.17 27.95 21.51 62.12 
			33.17 98.11 33.17 8.13 0 16.17-.6 24.07-1.77 33.62-4.98 64.64-20.37 89.12-44.57 30.08-29.73 46.7-69.2 
			46.88-111.21l-.43-186.56c14.35 11.07 30.04 20.23 46.88 27.34 26.19 11.05 53.96 16.65 82.54 
			16.64v-60.61-22.49c.02.02-.22.02-.24.02z"/>
	</symbol>

    <symbol id="callback" viewBox="0 0 32 32" xmlns="http://www.w3.org/2000/svg">
        <path d="m22 16a6.006 6.006 0 0 1 -6-6 1 1 0 0 1 2 0 4 4 0 0 0 4.67 3.944 1 1 0 0 1 .538-1.922l2.54.54a1 1 0 0 1 
		.495 1.689 6 6 0 0 1 -4.243 1.749z"/>
		<path d="m27 11a1 1 0 0 1 -1-1 4 4 0 0 0 -4.67-3.944 1 1 0 0 1 -.538 1.922l-2.54-.54a1 1 0 0 1 -.495-1.689 6.006 
		6.006 0 0 1 10.243 4.251 1 1 0 0 1 -1 1z"/>
		<path d="m28.5 22.271-5.4-3.088a1 1 0 0 0 -1.025.019l-2.875 1.787a27.886 
		27.886 0 0 1 -4.508-3.682 27.892 27.892 0 0 1 -3.681-4.507l1.789-2.871a1 1 0 0 0 .017-1.029l-3.087-5.4a1 1 0 0 0 
		-1.33-.391l-4.862 2.515a1 1 0 0 0 -.521 1.088 28.5 28.5 0 0 0 7.7 14.576 28.5 28.5 0 0 0 14.576 7.7 1 1 0 0 0 
		1.088-.521l2.51-4.867a1 1 0 0 0 -.391-1.329z"/>
    </symbol>

	<symbol id="call" viewBox="0 0 32 32" xmlns="http://www.w3.org/2000/svg">
		<path d="m29.393 23.36c-.874-.733-6-3.979-6.852-3.83-.4.071-.706.412-1.525 1.389a11.687 11.687 0 0 1 
		    -1.244 1.347 10.757 10.757 0 0 1 -2.374-.88 14.7 14.7 0 0 1 -6.784-6.786 10.757 10.757 0 0 1 
			-.88-2.374 11.687 11.687 0 0 1 1.347-1.244c.976-.819 1.318-1.123 
			1.389-1.525.149-.854-3.1-5.978-3.83-6.852-.306-.362-.584-.605-.94-.605-1.032 0-5.7 5.772-5.7 6.52 0 
			.061.1 6.07 7.689 13.791 7.721 7.589 13.73 7.689 13.791 7.689.748 0 6.52-4.668 6.52-5.7 0-.356-.243-.634-.607-.94z"/>
		<path d="m23 15h2a8.009 8.009 0 0 0 -8-8v2a6.006 6.006 0 0 1 6 6z"/>
		<path d="m28 15h2a13.015 13.015 0 0 0 -13-13v2a11.013 11.013 0 0 1 11 11z"/>
	</symbol>

	

	<symbol id="basket" viewBox="0 0 18 16" xmlns="http://www.w3.org/2000/svg">
		<path d="M6.98118 16C6.44982 16 5.94022 15.7893 5.5645 15.4142C5.18877 15.0391 4.97768 14.5304 4.97768 
		14C4.97768 13.4696 5.18877 12.9609 5.5645 12.5858C5.94022 12.2107 6.44982 12 6.98118 12C7.51254 12 8.02214 12.2107 
		8.39787 12.5858C8.7736 12.9609 8.98468 13.4696 8.98468 14C8.98468 14.5304 8.7736 15.0391 8.39787 15.4142C8.02214 
		15.7893 7.51254 16 6.98118 16ZM13.9934 16C13.4621 16 12.9525 15.7893 12.5767 15.4142C12.201 15.0391 11.9899 14.5304 
		11.9899 14C11.9899 13.4696 12.201 12.9609 12.5767 12.5858C12.9525 12.2107 13.4621 12 13.9934 12C14.5248 12 15.0344 
		12.2107 15.4101 12.5858C15.7859 12.9609 15.9969 13.4696 15.9969 14C15.9969 14.5304 15.7859 15.0391 15.4101 
		15.4142C15.0344 15.7893 14.5248 16 13.9934 16ZM0.932617 1.923C0.682542 1.91495 0.445407 1.81012 0.27136 
		1.63068C0.0973129 1.45125 0 1.21127 0 0.9615C0 0.711732 0.0973129 0.471755 0.27136 0.292318C0.445407 
		0.11288 0.682542 0.00805181 0.932617 0L2.08563 0C2.98921 0 3.77057 0.626 3.96692 1.506L5.22211 7.148C5.41845 8.028 
		6.19982 8.654 7.1034 8.654H14.6285L16.0731 2.884H6.71171C6.46399 2.87272 6.23016 2.76654 6.05886 2.58755C5.88755 
		2.40857 5.79196 2.17055 5.79196 1.923C5.79196 1.67545 5.88755 1.43743 6.05886 1.25845C6.23016 1.07946 6.46399 
		0.973284 6.71171 0.962H16.0731C16.3659 0.961914 16.6549 1.02848 16.9181 1.15663C17.1813 1.28479 17.4118 1.47116 
		17.592 1.70158C17.7722 1.93201 17.8975 2.20041 17.9582 2.4864C18.0189 2.77238 18.0134 3.06842 17.9423 3.352L16.4978 
		9.12C16.3937 9.5362 16.1531 9.90568 15.8144 10.1697C15.4757 10.4337 15.0583 10.5771 14.6285 10.577H7.1034C6.22666 
		10.5771 5.3761 10.2787 4.6922 9.7311C4.00829 9.18348 3.53195 8.41938 3.34183 7.565L2.08563 1.923H0.932617Z" />
	</symbol>

	<symbol id="lk" viewBox="0 0 15 15" xmlns="http://www.w3.org/2000/svg">
		<path d="M14.8893 13.0724C13.9243 11.4086 12.4262 10.1189 10.6373 9.41216C11.5153 8.75368 12.1638 7.83564 
		12.491 6.78809C12.8183 5.74054 12.8076 4.61658 12.4606 3.57543C12.1135 2.53428 11.4477 1.62871 10.5574 
		0.987011C9.66704 0.345308 8.59739 0 7.49992 0C6.40245 0 5.33279 0.345308 4.44248 0.987011C3.55216 1.62871 
		2.88632 2.53428 2.53927 3.57543C2.19222 4.61658 2.18156 5.74054 2.50879 6.78809C2.83602 7.83564 3.48455 
		8.75368 4.36253 9.41216C2.57365 10.1189 1.07553 11.4086 0.110544 13.0724C0.00105936 13.2622 -0.0285541 
		13.4877 0.0282189 13.6993C0.0849918 13.9109 0.223501 14.0913 0.413275 14.2008C0.603049 14.3103 0.828543 
		14.3399 1.04015 14.2831C1.25176 14.2264 1.43215 14.0879 1.54163 13.8981C2.14552 12.8522 3.01406 11.9838 
		4.05995 11.38C5.10584 10.7761 6.29224 10.4583 7.49992 10.4583C8.70759 10.4583 9.89399 10.7761 10.9399 
		11.38C11.9858 11.9838 12.8543 12.8522 13.4582 13.8981C13.5312 14.0232 13.6357 14.1271 13.7612 14.1995C13.8867 
		14.2719 14.0289 14.3103 14.1737 14.3109C14.3188 14.312 14.4614 14.274 14.5866 14.2008C14.6806 14.1466 14.763 
		14.0745 14.8291 13.9884C14.8952 13.9024 14.9437 13.8042 14.9718 13.6994C14.9999 13.5946 15.0071 13.4853 14.9929 
		13.3777C14.9788 13.2701 14.9436 13.1664 14.8893 13.0724ZM3.92219 5.22898C3.92219 4.52137 4.13202 3.82966 4.52515 
		3.2413C4.91827 2.65295 5.47704 2.19438 6.13078 1.92359C6.78453 1.65281 7.50389 1.58195 8.1979 1.72C8.89191 1.85805 
		9.5294 2.19879 10.0297 2.69915C10.5301 3.1995 10.8708 3.83699 11.0089 4.531C11.1469 5.22501 11.0761 5.94437 10.8053 
		6.59811C10.5345 7.25186 10.0759 7.81062 9.48759 8.20375C8.89924 8.59687 8.20752 8.8067 7.49992 8.8067C6.55105 
		8.8067 5.64104 8.42976 4.97009 7.75881C4.29913 7.08786 3.92219 6.17785 3.92219 5.22898Z" />
	</symbol>

	<symbol id="search" viewBox="0 0 513.28 513.28" xmlns="http://www.w3.org/2000/svg">
		<path d="M495.04,404.48L410.56,320c15.36-30.72,25.6-66.56,25.6-102.4C436.16,97.28,338.88,0,218.56,0S0.96,97.28,0.96,217.6
			s97.28,217.6,217.6,217.6c35.84,0,71.68-10.24,102.4-25.6l84.48,84.48c25.6,25.6,64,25.6,89.6,0
			C518.08,468.48,518.08,430.08,495.04,404.48z M218.56,384c-92.16,0-166.4-74.24-166.4-166.4S126.4,51.2,218.56,51.2
			s166.4,74.24,166.4,166.4S310.72,384,218.56,384z"/>
	</symbol>

	<symbol id="favourites" viewBox="0 0 330.063 330.063" xmlns="http://www.w3.org/2000/svg">
		<path d="M326.551,91.828c-5.609-22-17.583-40.984-34.626-54.899c-16.691-13.627-37.175-21.132-57.676-21.132
			c-26.426,0-50.435,11.752-69.243,33.519c-18.797-21.765-42.798-33.519-69.216-33.519c-20.494,0-40.97,7.505-57.657,21.133
			C21.096,50.845,9.124,69.827,3.515,91.825c-6.046,23.71-7.266,61.521,21.261,107.015c25.939,41.367,70.701,79.584,133.042,113.592
			c2.239,1.221,4.711,1.832,7.184,1.832c2.472,0,4.943-0.61,7.182-1.831c62.359-34.009,107.137-72.227,133.087-113.591
			C333.811,153.349,332.596,115.537,326.551,91.828z M165.003,282.115C19.895,200.327,26.863,121.673,32.584,99.239
			c7.896-30.966,34.479-53.441,63.206-53.441c21.983,0,42.006,13.074,56.38,36.814c2.717,4.488,7.582,7.23,12.828,7.231
			c0.001,0,0.002,0,0.003,0c5.245,0,10.11-2.74,12.828-7.227c14.388-23.743,34.425-36.818,56.419-36.818
			c28.743,0,55.336,22.476,63.231,53.442C303.2,121.674,310.185,200.316,165.003,282.115z"/>
	</symbol>

  <symbol id = "geo" viewBox="0 0 97.713 97.713" xmlns="http://www.w3.org/2000/svg">
    <g>
	  <path d="M48.855,0C29.021,0,12.883,16.138,12.883,35.974c0,5.174,1.059,10.114,3.146,14.684
		c8.994,19.681,26.238,40.46,31.31,46.359c0.38,0.441,0.934,0.695,1.517,0.695s1.137-0.254,1.517-0.695
		c5.07-5.898,22.314-26.676,31.311-46.359c2.088-4.57,3.146-9.51,3.146-14.684C84.828,16.138,68.69,0,48.855,0z M48.855,54.659
		c-10.303,0-18.686-8.383-18.686-18.686c0-10.304,8.383-18.687,18.686-18.687s18.686,8.383,18.686,18.687
		C67.542,46.276,59.159,54.659,48.855,54.659z"/>
    </g>
  </symbol>

	<symbol id="email" viewBox="0 0 512 512" xmlns="http://www.w3.org/2000/svg">
		<g>
			<path d="M467,76H45C20.238,76,0,96.149,0,121v270c0,24.86,20.251,45,45,45h422c24.762,0,45-20.149,45-45V121
			C512,96.143,491.752,76,467,76z M460.09,106c-14.549,14.597-185.445,186.05-192.466,193.094c-5.864,5.882-17.381,5.886-23.248,0
			L51.91,106H460.09z M30,385.485v-258.97L159.065,256L30,385.485z M51.91,406l128.334-128.752l42.885,43.025
			c17.574,17.631,48.175,17.624,65.743,0l42.885-43.024L460.09,406H51.91z M482,385.485L352.935,256L482,126.515V385.485z"/>
		</g>
	</symbol>

	<symbol id="checkmark" viewBox="0 0 32 23" xmlns="http://www.w3.org/2000/svg">
		<path d="M30.167 2L10.8022 21.3648L2 12.5626" stroke-width="3" stroke-linecap="round" stroke-linejoin="round"/>
	</symbol>

	<symbol id="calendar" viewBox="0 0 512 512" xmlns="http://www.w3.org/2000/svg">
		<g>
			<path d="M452,40h-24V0h-40v40H124V0H84v40H60C26.916,40,0,66.916,0,100v352c0,33.084,26.916,60,60,60h392
			c33.084,0,60-26.916,60-60V100C512,66.916,485.084,40,452,40z M472,452c0,11.028-8.972,20-20,20H60c-11.028,0-20-8.972-20-20V188
			h432V452z M472,148H40v-48c0-11.028,8.972-20,20-20h24v40h40V80h264v40h40V80h24c11.028,0,20,8.972,20,20V148z"/>
		</g>
		<g><rect x="76" y="230" width="40" height="40"/></g>
		<g><rect x="156" y="230" width="40" height="40"/></g>
		<g><rect x="236" y="230" width="40" height="40"/></g>
		<g><rect x="316" y="230" width="40" height="40"/></g>
		<g><rect x="396" y="230" width="40" height="40"/></g>
		<g><rect x="76" y="310" width="40" height="40"/></g>
		<g><rect x="156" y="310" width="40" height="40"/></g>
		<g><rect x="236" y="310" width="40" height="40"/></g>
		<g><rect x="316" y="310" width="40" height="40"/></g>
		<g><rect x="76" y="390" width="40" height="40"/></g>
		<g><rect x="156" y="390" width="40" height="40"/></g>
		<g><rect x="236" y="390" width="40" height="40"/></g>
		<g><rect x="316" y="390" width="40" height="40"/></g>
		<g><rect x="396" y="310" width="40" height="40"/></g>
	</symbol>

	
</svg>


